<svg width="205" height="182" viewBox="0 0 205 182" fill="none" xmlns="http://www.w3.org/2000/svg">
<g opacity="0.9">
<path d="M50.3781 124.453C50.0057 124.481 49.6557 124.641 49.3917 124.905C49.1276 125.169 48.9671 125.519 48.9395 125.891V150.108C48.9671 150.481 49.1276 150.831 49.3917 151.095C49.6557 151.359 50.0057 151.519 50.3781 151.547C50.7547 151.525 51.1105 151.367 51.3794 151.102C51.6484 150.838 51.8123 150.484 51.8407 150.108V126.011C51.8414 125.614 51.6904 125.232 51.4186 124.942C51.1468 124.652 50.7746 124.477 50.3781 124.453Z" fill="#8C6E46"/>
<path d="M42.6339 142.604C42.2616 142.631 41.9115 142.792 41.6475 143.056C41.3835 143.32 41.223 143.67 41.1953 144.042V156.031C41.2175 156.407 41.3755 156.763 41.6401 157.032C41.9046 157.301 42.2577 157.465 42.6339 157.493C43.0127 157.466 43.3688 157.302 43.6373 157.034C43.9058 156.765 44.0688 156.409 44.0966 156.031V144.042C44.3364 143.323 43.617 142.604 42.6339 142.604Z" fill="#8C6E46"/>
<path d="M165.347 124.453C164.971 124.475 164.615 124.633 164.346 124.898C164.077 125.162 163.913 125.515 163.885 125.891V150.108C163.93 150.461 164.102 150.785 164.369 151.02C164.636 151.254 164.98 151.384 165.335 151.384C165.691 151.384 166.034 151.254 166.301 151.02C166.568 150.785 166.741 150.461 166.786 150.108V126.011C166.787 125.618 166.64 125.239 166.373 124.95C166.106 124.661 165.74 124.483 165.347 124.453Z" fill="#8C6E46"/>
<path d="M172.853 142.604C172.477 142.626 172.121 142.784 171.852 143.048C171.583 143.313 171.419 143.666 171.391 144.042V156.031C171.364 156.237 171.382 156.446 171.443 156.645C171.504 156.844 171.606 157.027 171.743 157.183C171.88 157.34 172.049 157.465 172.239 157.55C172.428 157.636 172.634 157.68 172.841 157.68C173.049 157.68 173.255 157.636 173.444 157.55C173.634 157.465 173.803 157.34 173.94 157.183C174.077 157.027 174.18 156.844 174.24 156.645C174.301 156.446 174.319 156.237 174.292 156.031V144.042C174.264 143.67 174.104 143.32 173.84 143.056C173.576 142.792 173.226 142.631 172.853 142.604Z" fill="#8C6E46"/>
<path d="M171.75 112.345C171.973 112.288 172.18 112.182 172.355 112.033C172.531 111.885 172.67 111.698 172.762 111.488C172.855 111.277 172.898 111.049 172.889 110.819C172.88 110.589 172.818 110.365 172.709 110.163C156.5 84.2674 157.483 85.9698 157.483 85.73L157.22 85.4902C156.74 85.2505 159.162 85.73 118.856 78.2971C127.8 70.073 136.743 63.0478 136.743 49.5247C136.743 41.7603 133.659 34.3138 128.169 28.8235C122.678 23.3332 115.232 20.2488 107.467 20.2488C99.7029 20.2488 92.2564 23.3332 86.7661 28.8235C81.2758 34.3138 78.1915 41.7603 78.1915 49.5247C78.1915 61.8729 85.6963 68.8742 93.9204 76.1392C94.6397 76.8585 95.6227 77.6018 96.3181 78.3211C56.8759 85.8259 59.0338 85.3464 58.7941 85.5142L58.5543 85.754C58.3145 85.9938 59.2975 84.2914 43.3049 110.187C42.8253 111.17 43.3049 112.368 44.2879 112.368L58.0747 115.03V153.393C58.0481 153.746 58.1617 154.094 58.3906 154.364C58.6195 154.633 58.9454 154.801 59.2976 154.832L107.683 164.039H108.163C108.163 164.039 156.333 155.095 156.572 154.832C156.907 154.763 157.21 154.583 157.431 154.323C157.653 154.062 157.781 153.735 157.795 153.393V115.03L171.75 112.345ZM123.796 118.387L110.249 96.8074L155.517 88.3435L168.825 109.923L123.796 118.387ZM81.1166 49.4288C81.7414 42.8985 84.7774 36.8353 89.632 32.423C94.4866 28.0107 100.811 25.566 107.371 25.566C113.932 25.566 120.256 28.0107 125.111 32.423C129.965 36.8353 133.002 42.8985 133.626 49.4288C133.626 65.877 118.377 71.6795 107.491 85.73C96.366 71.6795 81.1166 65.877 81.1166 49.4288ZM106.053 89.1108C106.205 89.2764 106.391 89.4086 106.597 89.4991C106.803 89.5895 107.026 89.6362 107.252 89.6362C107.477 89.6362 107.7 89.5895 107.906 89.4991C108.112 89.4086 108.298 89.2764 108.45 89.1108C110.68 86.0592 113.192 83.2253 115.955 80.6469L147.893 86.6891L107.707 94.1939L67.5457 86.6891L98.7158 80.8866C101.468 83.3383 103.93 86.0977 106.053 89.1108ZM60.0648 88.3914L105.309 96.8553L92.0022 118.435L46.7575 109.971L60.0648 88.3914ZM92.7454 121.552C92.9957 121.557 93.2422 121.49 93.455 121.358C93.6678 121.226 93.8377 121.035 93.9443 120.808L106.293 100.979V148.406L60.7362 139.942V115.485C94.4239 121.791 92.4817 121.552 92.7454 121.552ZM60.7841 143.131L106.34 151.595V160.562L60.7841 152.074V143.131ZM109.194 160.562V151.595L154.75 143.131V152.074L109.194 160.562ZM154.75 139.99L109.194 148.454V100.979L121.542 120.808C121.7 121.044 121.914 121.235 122.166 121.365C122.417 121.495 122.697 121.559 122.98 121.552L154.438 115.725V139.942L154.75 139.99Z" fill="#8C6E46"/>
<path d="M124.444 49.4288C124.448 46.0276 123.444 42.7015 121.558 39.8712C119.672 37.0409 116.989 34.8337 113.848 33.5289C110.707 32.224 107.249 31.8801 103.913 32.5407C100.576 33.2014 97.511 34.8368 95.1043 37.2401C92.6977 39.6434 91.0579 42.7066 90.3927 46.0421C89.7274 49.3776 90.0664 52.8354 91.3669 55.9782C92.6673 59.1209 94.8708 61.8073 97.6984 63.6974C100.526 65.5875 103.851 66.5964 107.252 66.5964C111.802 66.5775 116.16 64.7634 119.379 61.5487C122.598 58.3339 124.418 53.9783 124.444 49.4288ZM93.2734 49.4288C93.0243 47.4064 93.2078 45.3542 93.8115 43.408C94.4152 41.4618 95.4254 39.666 96.7753 38.1396C98.1252 36.6132 99.784 35.391 101.642 34.5539C103.5 33.7168 105.514 33.284 107.552 33.284C109.589 33.284 111.604 33.7168 113.462 34.5539C115.319 35.391 116.978 36.6132 118.328 38.1396C119.678 39.666 120.688 41.4618 121.292 43.408C121.896 45.3542 122.079 47.4064 121.83 49.4288C121.401 52.9134 119.712 56.1207 117.082 58.4466C114.452 60.7725 111.063 62.0564 107.552 62.0564C104.041 62.0564 100.651 60.7725 98.0212 58.4466C95.3913 56.1207 93.7026 52.9134 93.2734 49.4288Z" fill="#8C6E46"/>
<path d="M162.926 48.9493C164.557 48.9493 166.152 48.4655 167.509 47.5592C168.865 46.6529 169.922 45.3647 170.546 43.8576C171.171 42.3504 171.334 40.692 171.016 39.092C170.698 37.4921 169.912 36.0224 168.758 34.8689C167.605 33.7154 166.135 32.9298 164.535 32.6116C162.935 32.2933 161.277 32.4566 159.77 33.0809C158.263 33.7052 156.974 34.7624 156.068 36.1188C155.162 37.4752 154.678 39.0698 154.678 40.7012C154.668 41.787 154.875 42.8639 155.286 43.8689C155.697 44.8739 156.305 45.787 157.072 46.5549C157.84 47.3227 158.753 47.9298 159.758 48.3409C160.763 48.7521 161.84 48.9589 162.926 48.9493ZM162.926 35.3783C163.986 35.3735 165.023 35.6837 165.906 36.2694C166.789 36.8551 167.478 37.6899 167.885 38.6679C168.293 39.6459 168.401 40.7229 168.195 41.7623C167.99 42.8018 167.48 43.7567 166.731 44.5059C165.982 45.2551 165.027 45.7648 163.987 45.9704C162.948 46.1759 161.871 46.068 160.893 45.6604C159.915 45.2527 159.08 44.5637 158.494 43.6807C157.909 42.7978 157.599 41.7607 157.603 40.7012C157.616 39.2933 158.181 37.9467 159.176 36.9511C160.172 35.9556 161.518 35.3908 162.926 35.3783Z" fill="#8C6E46"/>
<path d="M50.3782 53.5289C52.4838 53.5289 54.542 52.9045 56.2927 51.7348C58.0434 50.565 59.4079 48.9023 60.2136 46.9571C61.0194 45.0118 61.2302 42.8713 60.8194 40.8062C60.4087 38.7411 59.3948 36.8442 57.9059 35.3554C56.4171 33.8665 54.5202 32.8526 52.4551 32.4419C50.3901 32.0311 48.2495 32.2419 46.3042 33.0477C44.359 33.8534 42.6963 35.2179 41.5265 36.9686C40.3568 38.7193 39.7324 40.7776 39.7324 42.8831C39.7575 45.6988 40.8871 48.3921 42.8782 50.3831C44.8692 52.3742 47.5625 53.5039 50.3782 53.5289ZM50.3782 35.3783C51.8625 35.3783 53.3135 35.8184 54.5476 36.6431C55.7818 37.4677 56.7437 38.6398 57.3117 40.0111C57.8797 41.3825 58.0284 42.8914 57.7388 44.3472C57.4492 45.803 56.7344 47.1402 55.6849 48.1898C54.6353 49.2394 53.2981 49.9541 51.8423 50.2437C50.3865 50.5333 48.8775 50.3847 47.5062 49.8166C46.1349 49.2486 44.9628 48.2867 44.1382 47.0526C43.3135 45.8184 42.8734 44.3674 42.8734 42.8831C42.8605 41.894 43.0458 40.9123 43.4184 39.996C43.791 39.0796 44.3433 38.2472 45.0428 37.5477C45.7423 36.8482 46.5747 36.2959 47.4911 35.9233C48.4074 35.5507 49.3891 35.3654 50.3782 35.3783Z" fill="#8C6E46"/>
<path d="M143.313 33.9397C143.744 33.9397 144.166 34.0676 144.525 34.3074C144.884 34.5471 145.163 34.8879 145.329 35.2866C145.494 35.6853 145.537 36.124 145.453 36.5473C145.369 36.9705 145.161 37.3593 144.856 37.6644C144.55 37.9696 144.162 38.1774 143.738 38.2616C143.315 38.3458 142.876 38.3025 142.478 38.1374C142.079 37.9723 141.738 37.6926 141.499 37.3338C141.259 36.975 141.131 36.5531 141.131 36.1216C141.131 35.5429 141.361 34.9879 141.77 34.5787C142.179 34.1696 142.734 33.9397 143.313 33.9397Z" fill="#8C6E46"/>
<path d="M70.7111 27.8735C71.1427 27.8735 71.5646 28.0014 71.9234 28.2412C72.2822 28.4809 72.5619 28.8217 72.727 29.2204C72.8922 29.6191 72.9353 30.0578 72.8511 30.481C72.7669 30.9043 72.5592 31.2931 72.254 31.5982C71.9489 31.9034 71.5601 32.1112 71.1369 32.1953C70.7136 32.2795 70.2749 32.2363 69.8762 32.0712C69.4775 31.906 69.1367 31.6264 68.897 31.2676C68.6572 30.9087 68.5293 30.4869 68.5293 30.0554C68.5293 29.4767 68.7591 28.9217 69.1683 28.5125C69.5775 28.1033 70.1325 27.8735 70.7111 27.8735Z" fill="#8C6E46"/>
<path d="M45.055 77.7457C45.4865 77.7457 45.9083 77.8736 46.2671 78.1134C46.6259 78.3531 46.9056 78.6939 47.0708 79.0926C47.2359 79.4913 47.2791 79.93 47.195 80.3533C47.1108 80.7765 46.9029 81.1653 46.5978 81.4704C46.2927 81.7756 45.9039 81.9834 45.4806 82.0676C45.0574 82.1518 44.6187 82.1085 44.22 81.9434C43.8213 81.7783 43.4805 81.4986 43.2407 81.1398C43.001 80.781 42.873 80.3591 42.873 79.9276C42.873 79.3489 43.1029 78.7939 43.5121 78.3848C43.9213 77.9756 44.4763 77.7457 45.055 77.7457Z" fill="#8C6E46"/>
<path d="M168.969 76.2831C169.401 76.2831 169.822 76.4111 170.181 76.6508C170.54 76.8906 170.82 77.2313 170.985 77.63C171.15 78.0287 171.193 78.4674 171.109 78.8907C171.025 79.3139 170.817 79.7027 170.512 80.0078C170.207 80.313 169.818 80.5208 169.395 80.605C168.971 80.6892 168.533 80.646 168.134 80.4808C167.735 80.3157 167.395 80.036 167.155 79.6772C166.915 79.3184 166.787 78.8965 166.787 78.465C166.787 77.8863 167.017 77.3314 167.426 76.9222C167.835 76.513 168.39 76.2831 168.969 76.2831Z" fill="#8C6E46"/>
</g>
</svg>
