<svg width="70" height="65" viewBox="0 0 70 65" fill="none" xmlns="http://www.w3.org/2000/svg">
<g opacity="0.9" clip-path="url(#clip0_127_1490)">
<path d="M1.49104 60.4308H42.0576C43.7227 62.023 45.7147 63.2517 47.9017 64.0357C50.0888 64.8197 52.4212 65.1411 54.7449 64.9787C57.0685 64.8163 59.3304 64.1738 61.3811 63.0937C63.4318 62.0136 65.2246 60.5204 66.641 58.7129C68.0574 56.9053 69.0652 54.8246 69.5978 52.6081C70.1304 50.3916 70.1756 48.09 69.7304 45.8552C69.2853 43.6204 68.36 41.5033 67.0155 39.644C65.6711 37.7846 63.9383 36.2253 61.9315 35.0691V1.42232C61.9315 1.0451 61.7782 0.683323 61.5053 0.416587C61.2324 0.14985 60.8622 0 60.4762 0H15.7621H15.6893H15.6166H15.5529H15.4892H15.4164H15.3528H15.2891H15.2254H15.1618L15.1345 0.311131H15.0799L15.0162 0.373357L0.463225 14.321L0.399562 14.3921C0.369411 14.4255 0.342041 14.4611 0.317705 14.4988L0.263119 14.5788V14.6499V14.7032C0.263119 14.7032 0.263119 14.7032 0.263119 14.7655V14.8366C0.263119 14.8366 0.263119 14.881 0.263119 14.8988C0.263119 14.9166 0.263119 14.8988 0.263119 14.9699C0.258679 15.0143 0.258679 15.0589 0.263119 15.1033C0.258648 15.1387 0.258648 15.1745 0.263119 15.2099V58.9818C0.252147 59.328 0.37084 59.6663 0.596919 59.9331C0.822998 60.1999 1.14093 60.3768 1.49104 60.4308ZM2.94634 57.5862V16.7834H16.7626V38.7582L20.5919 36.1536L23.5389 38.7582L26.4313 36.038L30.9791 38.7582V16.7834H44.5771V35.4513C40.9481 37.7727 38.4044 41.4013 37.4998 45.547C36.5952 49.6927 37.403 54.0198 39.7473 57.5862H2.94634ZM46.6054 60.253C45.8627 59.8231 45.1651 59.3228 44.5225 58.7596C44.0915 58.3843 43.6845 57.9835 43.3037 57.5595C41.2805 55.2859 40.111 52.4061 39.9882 49.3954C39.8653 46.3847 40.7964 43.4231 42.6278 40.9992C44.4592 38.5754 47.0815 36.8342 50.0618 36.0632C53.0421 35.2921 56.2023 35.5373 59.0209 36.7581C60.0606 37.2127 61.0383 37.792 61.9315 38.4826C64.6352 40.5636 66.4269 43.5724 66.9427 46.8978C67.4584 50.2233 66.6595 53.6159 64.7083 56.3864C62.757 59.157 59.7998 61.0976 56.4374 61.8142C53.075 62.5307 49.5596 61.9693 46.6054 60.2441V60.253ZM53.5363 32.7845C51.4387 32.7811 49.3603 33.1735 47.4149 33.9401V15.9478L59.0209 4.46252V33.7356C57.2601 33.1238 55.4051 32.8111 53.5363 32.8111V32.7845ZM45.3502 13.9121H32.6163L43.7494 2.81797H56.5469L45.3502 13.9121ZM16.5625 2.84464H29.4692L17.945 13.9387H5.01104L16.5625 2.84464Z" fill="#8E7048"/>
<path d="M20.0009 46.092H4.67471C4.53721 46.092 4.40534 46.1454 4.30811 46.2404C4.21088 46.3355 4.15625 46.4644 4.15625 46.5987V55.186C4.15625 55.3204 4.21088 55.4493 4.30811 55.5443C4.40534 55.6393 4.53721 55.6927 4.67471 55.6927H20.0009C20.1384 55.6927 20.2702 55.6393 20.3675 55.5443C20.4647 55.4493 20.5193 55.3204 20.5193 55.186V46.5987C20.5193 46.4644 20.4647 46.3355 20.3675 46.2404C20.2702 46.1454 20.1384 46.092 20.0009 46.092ZM19.4733 54.6793H5.19317V47.1054H19.4733V54.6793Z" fill="#8E7048"/>
<path d="M6.88501 48.0033H6.06641V53.8615H6.88501V48.0033Z" fill="#8E7048"/>
<path d="M18.5272 48.0033H17.8359V53.8615H18.5272V48.0033Z" fill="#8E7048"/>
<path d="M8.2854 48.0033H7.4668V53.8615H8.2854V48.0033Z" fill="#8E7048"/>
<path d="M11.4065 48.0033H10.5879V53.8615H11.4065V48.0033Z" fill="#8E7048"/>
<path d="M14.1717 48.0033H13.4805V53.8615H14.1717V48.0033Z" fill="#8E7048"/>
<path d="M15.3534 48.0033H14.6621V53.8615H15.3534V48.0033Z" fill="#8E7048"/>
<path d="M13.0894 48.0033H11.9434V53.8615H13.0894V48.0033Z" fill="#8E7048"/>
<path d="M10.0239 48.0033H8.70508V53.8615H10.0239V48.0033Z" fill="#8E7048"/>
<path d="M17.2446 48.0033H15.9258V53.8615H17.2446V48.0033Z" fill="#8E7048"/>
<path d="M59.8047 47.7099C59.696 47.697 59.586 47.697 59.4773 47.7099H54.2473L51.1093 44.083L48.2442 40.7761C48.0382 40.5428 47.7607 40.3806 47.4529 40.3138C47.2334 40.2622 47.0045 40.2619 46.7849 40.3129C46.5652 40.3639 46.3609 40.4647 46.1886 40.6072C46.0419 40.7278 45.921 40.8755 45.8329 41.0418C45.7447 41.2082 45.6911 41.3899 45.675 41.5766C45.659 41.7633 45.6808 41.9512 45.7393 42.1296C45.7978 42.308 45.8917 42.4734 46.0157 42.6162L47.4529 44.2786L52.4555 50.0567C52.5845 50.2041 52.7422 50.3249 52.9193 50.4123C53.1211 50.5073 53.3413 50.5588 53.5651 50.5634H59.5137C59.8718 50.5644 60.2178 50.4363 60.4853 50.2036C60.7528 49.9709 60.9232 49.6499 60.9637 49.3021C61.0043 48.9543 60.9121 48.6041 60.705 48.3186C60.4979 48.033 60.1903 47.8321 59.8411 47.7544L59.8047 47.7099Z" fill="#8E7048"/>
</g>
<defs>
<clipPath id="clip0_127_1490">
<rect width="70" height="65" fill="white"/>
</clipPath>
</defs>
</svg>
