<svg width="499" height="207" viewBox="0 0 499 207" fill="none" xmlns="http://www.w3.org/2000/svg">
<g clip-path="url(#clip0_106_858)">
<path d="M482.382 146.262V97.0667C482.382 83.8596 470.689 72.2419 456.891 71.2579L366.957 60.9648L366.656 59.5645H366.468L354.775 16.3481C354.141 11.7802 351.89 7.59619 348.436 4.56495C344.983 1.53371 340.558 -0.141023 335.976 -0.151367H250.177C245.348 -0.151378 240.715 1.77711 237.296 5.21093C233.878 8.64474 231.952 13.3034 231.942 18.1645V86.2815H220.663V72.1662H230.288V64.5976H17.4835V72.1662H25.9055V86.2815H11.9191V145.922H-0.0371094V180.359H35.8689V175.174H60.1948C62.1541 184.093 67.0789 192.071 74.1547 197.791C81.2306 203.51 90.0338 206.627 99.1087 206.627C108.184 206.627 116.987 203.51 124.063 197.791C131.139 192.071 136.063 184.093 138.023 175.174H358.046C360.005 184.093 364.93 192.071 372.006 197.791C379.081 203.51 387.885 206.627 396.96 206.627C406.035 206.627 414.838 203.51 421.914 197.791C428.99 192.071 433.914 184.093 435.874 175.174H452.567V180.359H498.85V145.922L482.382 146.262ZM367.332 68.7982L455.048 78.8265C460.02 78.7526 464.834 80.5844 468.513 83.9505C472.192 87.3165 474.462 91.9649 474.863 96.9532H462.643V104.522H474.863V112.317H462.643V119.886H474.863V127.682H462.643V135.25H474.863V146.187H460.237V124.162C460.138 115.42 456.6 107.074 450.398 100.952C444.196 94.8308 435.837 91.4332 427.151 91.5038H373.875C371.678 91.5079 369.488 91.7233 367.332 92.1472V68.7982ZM358.685 59.7159H340.412L334.209 21.3055H348.345L358.685 59.7159ZM33.4627 72.5068H213.181V86.6222H33.4627V72.5068ZM28.3494 173.131H7.36969V153.831H28.3494V173.131ZM99.1087 199.431C92.7046 199.439 86.4421 197.534 81.1136 193.959C75.7852 190.383 71.6302 185.297 69.1742 179.344C66.7183 173.391 66.0719 166.838 67.3167 160.515C68.5616 154.193 71.6417 148.383 76.1675 143.823C80.6933 139.262 86.4613 136.155 92.7418 134.895C99.0224 133.635 105.533 134.278 111.451 136.743C117.368 139.208 122.426 143.384 125.985 148.743C129.543 154.102 131.443 160.403 131.443 166.849C131.433 175.455 128.045 183.708 122.017 189.811C115.989 195.914 107.809 199.372 99.2591 199.431H99.1087ZM156.408 167.946H138.925C138.925 167.568 138.925 167.227 138.925 166.849C139.089 161.475 138.179 156.123 136.249 151.109C134.319 146.096 131.408 141.524 127.689 137.664C123.971 133.805 119.52 130.736 114.601 128.64C109.681 126.545 104.394 125.465 99.0523 125.465C93.7106 125.465 88.4233 126.545 83.5041 128.64C78.5849 130.736 74.1339 133.805 70.4152 137.664C66.6964 141.524 63.7858 146.096 61.8557 151.109C59.9257 156.123 59.0157 161.475 59.1797 166.849C59.1797 167.227 59.1797 167.568 59.1797 167.946H35.8689V129.233C36.0703 123.096 38.6051 117.272 42.95 112.962C47.2949 108.652 53.1181 106.186 59.2173 106.073H131.443C145.505 106.073 156.408 118.524 156.408 129.233V167.946ZM340.638 167.946H163.928V129.233C163.928 114.739 150.016 98.5048 131.443 98.5048H59.3677C51.2892 98.6659 43.581 101.945 37.8361 107.664C32.0912 113.382 28.7488 121.104 28.4997 129.233V146.262H19.4762V94.1907H239.387V18.5052C239.397 15.6513 240.53 12.9177 242.538 10.9033C244.547 8.88884 247.267 7.75774 250.102 7.75776H336.089C338.157 7.76395 340.184 8.34267 341.948 9.43059C343.712 10.5185 345.145 12.0737 346.09 13.9262H264.051L263.863 63.7651V67.5494V139.451C263.863 141.359 264.236 143.249 264.962 145.012C265.687 146.775 266.751 148.377 268.092 149.726C269.432 151.075 271.024 152.146 272.776 152.876C274.527 153.606 276.405 153.982 278.301 153.982H340.788L340.638 167.946ZM332.893 59.8295H271.383V21.3434H326.501L332.893 59.8295ZM340.939 146.262H278.301C276.466 146.262 274.706 145.529 273.409 144.223C272.111 142.917 271.383 141.146 271.383 139.299V67.398H341.578H359.813V94.834C354.17 97.4093 349.38 101.558 346.008 106.79C342.636 112.021 340.825 118.116 340.788 124.351L340.939 146.262ZM397.336 199.242C390.933 199.242 384.674 197.331 379.351 193.751C374.027 190.171 369.878 185.082 367.428 179.128C364.978 173.175 364.337 166.623 365.586 160.303C366.835 153.983 369.918 148.177 374.445 143.62C378.973 139.063 384.741 135.96 391.02 134.703C397.3 133.446 403.809 134.091 409.724 136.557C415.639 139.023 420.695 143.199 424.252 148.558C427.809 153.916 429.707 160.215 429.707 166.66C429.732 170.973 428.906 175.249 427.276 179.239C425.647 183.229 423.246 186.854 420.213 189.902C417.181 192.951 413.577 195.363 409.611 196.999C405.645 198.635 401.396 199.462 397.11 199.431L397.336 199.242ZM452.943 146.262V167.946H437.189C437.189 167.568 437.189 167.227 437.189 166.849C437.353 161.475 436.443 156.123 434.513 151.109C432.583 146.096 429.673 141.524 425.954 137.664C422.235 133.805 417.784 130.736 412.865 128.64C407.946 126.545 402.659 125.465 397.317 125.465C391.975 125.465 386.688 126.545 381.769 128.64C376.849 130.736 372.398 133.805 368.68 137.664C364.961 141.524 362.05 146.096 360.12 151.109C358.19 156.123 357.28 161.475 357.444 166.849C357.444 167.227 357.444 167.568 357.444 167.946H348.308V124.238C348.397 117.5 351.14 111.073 355.933 106.368C360.727 101.664 367.18 99.0673 373.875 99.1481H427.151C433.845 99.0673 440.298 101.664 445.092 106.368C449.886 111.073 452.628 117.5 452.717 124.238L452.943 146.262ZM491.706 173.131H460.463V153.831H491.706V173.131Z" fill="#715D41" fill-opacity="0.33"/>
<path d="M432.865 134.91C432.865 144.03 435.948 153.831 442.716 153.831C449.484 153.831 452.567 144.03 452.567 134.91C452.567 125.789 449.484 115.988 442.716 115.988C435.948 115.988 432.865 125.979 432.865 134.91ZM442.716 145.808C441.18 142.383 440.385 138.668 440.385 134.91C440.385 131.151 441.18 127.436 442.716 124.011C444.252 127.436 445.047 131.151 445.047 134.91C445.047 138.668 444.252 142.383 442.716 145.808Z" fill="#715D41" fill-opacity="0.33"/>
<path d="M48.6524 114.929C45.8668 114.929 43.1949 116.04 41.2217 118.019C39.2485 119.998 38.1349 122.683 38.125 125.487V143.273C38.1349 146.076 39.2485 148.762 41.2217 150.741C43.1949 152.72 45.8668 153.831 48.6524 153.831C51.4345 153.831 54.1026 152.719 56.0699 150.739C58.0371 148.758 59.1422 146.073 59.1422 143.273V125.487C59.1323 122.69 58.024 120.01 56.0589 118.032C54.0938 116.054 51.4314 114.938 48.6524 114.929ZM51.7354 143.273C51.7354 144.066 51.4225 144.826 50.8655 145.387C50.3085 145.947 49.5529 146.262 48.7652 146.262C47.9739 146.262 47.2146 145.949 46.6515 145.389C46.0885 144.829 45.7673 144.069 45.7574 143.273V125.487C45.7621 125.083 45.8472 124.683 46.0076 124.313C46.168 123.943 46.4004 123.608 46.6912 123.329C46.9821 123.051 47.3255 122.834 47.701 122.691C48.0766 122.548 48.4768 122.482 48.878 122.497C49.6658 122.497 50.4212 122.812 50.9783 123.373C51.5353 123.933 51.8482 124.694 51.8482 125.487L51.7354 143.273Z" fill="#715D41" fill-opacity="0.33"/>
<path d="M397.11 143.159C392.457 143.167 387.91 144.562 384.044 147.17C380.179 149.778 377.168 153.48 375.392 157.809C373.617 162.139 373.156 166.901 374.068 171.494C374.981 176.086 377.225 180.304 380.518 183.613C383.811 186.922 388.005 189.175 392.57 190.086C397.134 190.997 401.865 190.526 406.163 188.731C410.462 186.937 414.135 183.901 416.72 180.006C419.305 176.111 420.684 171.533 420.684 166.849C420.674 160.562 418.186 154.537 413.766 150.095C409.346 145.654 403.356 143.159 397.11 143.159ZM397.11 182.97C393.944 182.962 390.851 182.011 388.222 180.235C385.593 178.459 383.546 175.938 382.339 172.992C381.133 170.045 380.821 166.805 381.443 163.681C382.066 160.556 383.594 157.687 385.835 155.436C388.077 153.185 390.931 151.654 394.037 151.035C397.143 150.416 400.361 150.737 403.286 151.959C406.21 153.18 408.709 155.246 410.468 157.896C412.226 160.547 413.164 163.662 413.164 166.849C413.164 168.969 412.749 171.068 411.942 173.027C411.134 174.985 409.951 176.764 408.46 178.261C406.969 179.759 405.198 180.946 403.251 181.754C401.303 182.562 399.217 182.975 397.11 182.97Z" fill="#715D41" fill-opacity="0.33"/>
<path d="M99.259 143.159C94.6039 143.159 90.0534 144.549 86.1829 147.152C82.3123 149.755 79.2956 153.455 77.5142 157.783C75.7328 162.112 75.2668 166.875 76.1749 171.47C77.0831 176.066 79.3247 180.287 82.6163 183.6C85.9079 186.913 90.1017 189.169 94.6673 190.083C99.2329 190.997 103.965 190.528 108.266 188.735C112.567 186.942 116.243 183.906 118.829 180.01C121.415 176.114 122.795 171.534 122.795 166.849C122.785 160.569 120.302 154.549 115.891 150.109C111.479 145.668 105.498 143.169 99.259 143.159ZM99.259 182.97C96.0912 182.97 92.9945 182.024 90.3606 180.253C87.7266 178.482 85.6737 175.964 84.4614 173.018C83.2492 170.072 82.932 166.831 83.55 163.704C84.168 160.577 85.6935 157.704 87.9335 155.45C90.1734 153.195 93.0273 151.66 96.1343 151.038C99.2412 150.416 102.462 150.735 105.388 151.955C108.315 153.175 110.816 155.241 112.576 157.892C114.336 160.544 115.276 163.66 115.276 166.849C115.266 171.121 113.575 175.216 110.574 178.237C107.572 181.258 103.504 182.96 99.259 182.97Z" fill="#715D41" fill-opacity="0.33"/>
<path d="M293.715 78.5238H277.51V86.0923H293.715V78.5238Z" fill="#715D41" fill-opacity="0.33"/>
</g>
<defs>
<clipPath id="clip0_106_858">
<rect width="499" height="207" fill="white"/>
</clipPath>
</defs>
</svg>
