<svg width="113" height="93" viewBox="0 0 113 93" fill="none" xmlns="http://www.w3.org/2000/svg">
<g opacity="0.9" clip-path="url(#clip0_115_964)">
<path d="M104.107 57.7212C105.903 54.0676 107.422 50.2837 108.649 46.4017C109.446 44.2075 109.715 41.8569 109.434 39.5412C109.035 38.3126 108.389 37.1796 107.535 36.2125C106.681 35.2454 105.638 34.4646 104.469 33.9185C102.892 33.0935 101.176 32.3015 99.0453 31.4295C97.4357 30.7709 95.8261 30.1122 94.1787 29.5458C92.5314 28.9794 90.9903 28.241 89.4113 27.5948L87.7864 26.9299C83.2254 24.9556 78.5381 22.9836 73.3261 20.8508C67.7463 18.5673 61.7831 16.1271 53.9265 13.1095L46.8444 10.2113C42.8281 8.56771 38.6585 6.86142 34.5054 5.3773C29.9662 3.69933 26.3257 3.71771 23.3531 5.42779C19.8021 7.45778 17.8916 12.17 16.2428 16.1993C15.8337 17.1989 15.4435 18.1524 15.0785 19.0444C13.6972 22.07 12.5611 25.196 11.3716 28.1026C10.1822 31.0092 8.8896 34.4302 7.50747 37.5453L6.91588 38.9909C4.33575 44.5961 0.415591 53.0822 6.95459 57.1765C8.47056 58.0993 10.0633 58.8893 11.7152 59.5377C12.9262 60.0332 14.122 60.5226 15.333 61.0181C16.544 61.5137 17.7314 61.8919 18.8965 62.3687L19.7396 62.7137C22.1157 63.6861 24.5071 64.6647 26.8831 65.637C29.857 66.854 32.8309 68.071 35.8048 69.288C39.3305 70.7308 42.9004 72.066 46.4576 73.4319C51.0942 75.2216 55.9363 77.0774 60.6424 79.0033C64.1682 80.4461 67.3107 81.7321 70.2154 83.1183C71.1965 83.5198 72.2679 84.1378 73.4592 84.7689C75.2386 85.7125 77.2416 86.7656 79.2804 87.5999C83.082 89.1557 88.5458 90.6734 92.0931 85.9847C93.7114 83.5141 95.0027 80.8437 95.9345 78.0408C96.2617 77.2411 96.5638 76.5029 96.8722 75.7494C97.6463 73.8577 98.4141 71.9815 99.1819 70.1053C100.686 66.4297 102.17 62.5844 103.859 58.8947L104.107 57.7212ZM93.5342 78.0461C92.2755 81.1218 90.8661 84.8721 88.2292 86.1989C86.0807 87.2946 83.5676 87.1819 80.3331 85.8583C78.8676 85.2289 77.436 84.5232 76.0441 83.744C75.2234 83.3005 74.4334 82.8694 73.6705 82.5034C70.8425 81.1486 67.6394 79.748 64.0983 78.2989C60.7872 76.9439 57.4914 75.5952 54.1389 74.3849C51.7322 73.4 49.2878 72.5074 46.8747 71.5379C41.8161 69.4677 36.7259 67.4745 31.6672 65.4044L18.208 59.8965C17.3649 59.5515 16.3685 59.1437 15.2541 58.8493C14.1397 58.5549 12.6709 57.9897 11.3832 57.4627C8.96117 56.4716 5.70198 54.8146 5.17518 51.8161C4.54512 48.3265 6.78895 43.4993 8.47704 39.8991C8.70989 39.33 8.93017 38.7918 9.10638 38.3612C10.8169 34.6623 12.3777 30.8484 13.8728 27.1511L14.7161 25.0904L20.158 27.3173C26.1825 29.7827 32.2989 32.2857 38.1378 34.8546C43.9767 37.4236 50.1174 39.9545 56.1266 42.4136L57.7975 43.0974C62.1357 44.8727 66.4739 46.648 70.8345 48.3247C75.9698 50.4262 81.143 52.4355 86.2783 54.537C91.6896 56.7514 96.4417 58.6961 100.741 60.6531C98.9854 64.9438 96.682 70.5725 94.2155 76.2062C94.0286 76.7941 93.8048 77.3848 93.5342 78.0461ZM26.27 6.47783C28.7843 5.8977 31.4175 6.16725 33.7592 7.24443C36.8817 8.36065 39.9476 9.61529 43.0135 10.8699C44.9041 11.6436 46.7896 12.4152 48.67 13.1847C59.6537 17.482 69.7782 21.5175 79.6044 25.5386C87.0391 28.5811 94.3666 31.5796 101.294 34.594C104.544 35.9239 107.765 37.9784 107.331 42.4509C107.122 44.2487 106.688 46.0136 106.04 47.704C96.2652 44.1706 85.8731 40.1333 73.165 34.9329C65.2551 31.6959 57.2539 28.3319 49.5071 25.0899C41.7603 21.8479 33.7655 18.4685 25.8555 15.2315L20.1223 12.8854C21.6569 9.92248 22.9261 7.38961 26.27 6.47783ZM25.9163 17.3571L30.2085 19.1136C25.3474 20.7151 20.2564 22.2226 15.7869 23.392L15.8222 23.5681L15.6246 23.3076L15.5326 23.27C15.9858 22.1627 16.4389 21.0554 16.848 20.0558C19.8075 19.0047 22.8302 18.1051 25.9163 17.3571ZM88.8487 53.4164L83.4834 51.2208C87.8455 50.0075 92.8619 48.5951 97.7697 46.9229C97.8685 46.8826 97.9619 46.8304 98.0481 46.7674C99.9336 47.539 101.848 48.1967 103.765 48.8914C98.7984 50.5756 93.782 51.988 89.0657 53.2358C88.899 53.2933 88.7386 53.3354 88.8487 53.4164ZM75.3129 47.8772C79.7273 46.6673 84.7869 45.2367 89.6307 43.5024L90.6731 43.9289L95.2023 45.6747C90.3566 47.2826 85.3033 48.6978 80.9537 49.8803L80.6447 50.0232L75.3129 47.8772ZM67.0656 44.5022C71.4954 43.2986 76.555 41.868 81.3646 40.1735L86.8371 42.4131C82.0067 44.0272 77.0832 45.3878 72.8201 46.5339C72.6881 46.5756 72.5646 46.6405 72.4553 46.7257L67.0656 44.5022ZM41.0103 23.4621L46.1915 25.5824C41.3764 27.2028 36.3943 28.5753 32.088 29.7396C32.0114 29.7083 31.915 29.8125 32.0251 29.8934L26.9664 27.8233C32.0224 26.4451 36.416 25.1549 40.8986 23.56L41.0103 23.4621ZM54.1648 28.9709C49.3497 30.5913 44.4324 31.9365 40.163 33.098C40.046 33.1322 39.9346 33.1834 39.8324 33.25L34.7431 31.1673C39.0557 29.9876 43.9981 28.5809 48.9095 26.8562L54.1648 28.9709ZM62.2587 32.2831C57.4589 33.9098 52.5696 35.2305 48.3435 36.3738C48.1929 36.4233 48.0525 36.4996 47.9291 36.5992L42.7018 34.4601C47.0792 33.2531 52.1172 31.8316 56.9881 30.1622L62.2587 32.2831ZM70.3832 35.6079C65.5835 37.2346 60.7374 38.5371 56.5113 39.6804C56.347 39.7342 56.1983 39.8274 56.078 39.9519L50.7434 37.7689C55.1362 36.5681 60.1895 35.1529 65.0423 33.4402L70.3832 35.6079ZM73.1272 36.7308L78.5538 38.9515C73.7694 40.5845 68.9017 41.8961 64.6755 43.0393C64.5172 43.0824 64.3724 43.1653 64.2549 43.2801L58.8589 41.072C63.133 40.074 68.2078 38.6497 72.9715 36.9364L73.1272 36.7308ZM32.9379 20.1407C33.0027 20.1229 33.0636 20.093 33.1172 20.0525L38.3139 22.1791C33.4681 23.787 28.4365 25.1931 24.0401 26.4462L18.9201 24.351C24.0051 23.1642 28.3834 21.8678 32.7822 20.3463L32.9379 20.1407ZM18.1215 17.3811C18.5242 16.3968 19.01 15.4285 19.4803 14.454L23.0521 15.9157C21.2213 16.5848 19.6012 17.0889 17.9658 17.5867L18.1215 17.3811ZM103.263 55.0598L97.6564 56.7334C97.5198 56.7759 97.3933 56.8465 97.2853 56.9406L95.5991 56.2506L91.6135 54.6196C95.9261 53.4399 100.504 52.1355 104.962 50.6021L103.451 54.2931L103.263 55.0598ZM102.294 57.4282L101.797 58.6431L100.264 58.0158L102.294 57.4282Z" fill="#886940"/>
<path d="M19.5864 41.6989L30.0057 45.8012C30.6802 46.0772 31.3853 46.3657 32.1211 46.6669C32.8569 46.968 33.6541 47.2942 34.5125 47.6455C35.6437 48.1478 36.8367 48.4971 38.0604 48.6844C38.2313 48.7003 38.4036 48.6738 38.562 48.6071C38.7204 48.5404 38.86 48.4355 38.9685 48.3019C39.6866 47.096 40.2212 45.7898 40.5545 44.4264C40.7621 43.9189 40.8779 43.3738 41.0765 42.8447C41.1722 42.5996 41.1692 42.327 41.068 42.0845C40.9668 41.8421 40.7755 41.6488 40.5344 41.5455L19.9854 33.6391C19.8144 33.5714 19.6267 33.5572 19.4473 33.5984C19.2748 33.6123 19.1102 33.6768 18.974 33.784C18.8378 33.8911 18.7361 34.0361 18.6817 34.2008C18.3104 35.1082 17.9832 35.9079 17.6999 36.5999C17.1147 38.0302 16.6325 38.946 16.9542 39.7779C17.276 40.6098 17.9768 41.0402 19.5864 41.6989ZM24.2254 41.5146C23.2985 41.243 22.2581 40.9429 21.3996 40.5916C20.8672 40.4057 20.3779 40.1139 19.9611 39.7336C18.8835 38.4309 19.3288 37.5178 19.9403 36.242L20.104 35.8421L30.8912 40.0949C31.535 40.3584 32.1788 40.6219 32.8226 40.8853C33.4665 41.1488 34.3556 41.5127 35.1221 41.8263L36.793 42.5101C37.0612 42.5355 37.324 42.6007 37.5728 42.7036C38.0313 42.884 38.4131 43.2179 38.6536 43.6486L37.861 45.8917C37.0676 46.5186 35.1438 46.234 32.1392 45.0045C30.683 44.4086 29.2031 43.6952 28.0082 43.1165C27.1497 42.7652 26.5193 42.3815 25.8755 42.118C25.5544 41.8969 24.9097 41.7228 24.2254 41.5146Z" fill="#886940"/>
<path d="M78.0375 58.1851C78.1332 57.94 78.1301 57.6675 78.029 57.425C77.9278 57.1826 77.7364 56.9893 77.4954 56.886C72.5133 54.8473 67.4935 52.9007 62.4835 50.8865C57.4736 48.8722 52.5194 46.8089 47.487 44.8931C47.316 44.8254 47.1284 44.8113 46.9489 44.8525C46.7751 44.8618 46.6083 44.9247 46.4713 45.0325C46.3343 45.1403 46.2337 45.2878 46.1834 45.4549C45.9571 45.9981 45.7037 46.5296 45.4243 47.0474C44.5103 48.7561 43.4893 50.7262 44.9879 52.0935C45.3159 52.3763 45.6923 52.5973 46.099 52.7457C46.5895 52.9465 47.1567 53.1786 47.676 53.2654C48.1952 53.3522 48.4731 53.5916 48.7797 53.7171L66.2207 60.603C66.9871 60.9166 67.7536 61.2303 68.6266 61.6773C69.4995 62.1243 70.4284 62.5224 71.3481 62.8988C72.538 63.4209 73.7919 63.7831 75.0772 63.9759C75.2481 63.9919 75.4204 63.9653 75.5788 63.8986C75.7372 63.8319 75.8769 63.7271 75.9854 63.5935C76.7055 62.3824 77.2421 61.0711 77.5776 59.7026C77.7086 59.1637 77.864 58.6528 78.0375 58.1851ZM67.718 59.0432L50.4618 52.1432L49.4654 51.7354C49.0361 51.5597 48.6069 51.3841 48.193 51.2147C47.8829 51.1017 47.5926 50.9405 47.3327 50.737C46.2943 49.8632 46.8933 48.6181 47.549 47.2346L47.6308 47.0347L60.3369 52.1086L71.5426 56.6943C71.8339 56.8135 72.2018 56.9641 72.6311 57.1397C73.0603 57.3154 73.7482 57.4712 74.208 57.6594C74.5719 57.7912 74.9105 57.9844 75.2091 58.2307C75.311 58.3323 75.4249 58.4211 75.5483 58.4951C75.5619 58.6019 75.5846 58.7073 75.6162 58.8102C75.4784 59.7616 75.1088 60.6649 74.54 61.44C74.1158 61.7332 73.0529 61.5317 71.3974 60.8542C70.5543 60.5091 69.6805 60.1516 68.9824 59.7582C68.2844 59.3648 68.0859 59.1938 67.718 59.0432Z" fill="#886940"/>
<path d="M49.9216 58.0985L39.8656 53.9833L25.0349 48.0219C24.1918 47.6769 23.2874 47.3068 22.381 46.8102C21.4747 46.3136 20.3709 45.862 19.3592 45.4479C18.0873 44.8898 16.7465 44.5041 15.3722 44.3011C15.199 44.2859 15.0246 44.3143 14.8649 44.3838C14.7052 44.4533 14.5653 44.5616 14.4578 44.699C13.7321 45.901 13.197 47.2085 12.8719 48.5745C12.6642 49.082 12.5548 49.6117 12.3498 50.1563C12.2507 50.3983 12.2504 50.6695 12.349 50.9114C12.4475 51.1532 12.637 51.3464 12.8767 51.4491C18.8858 53.9082 24.9543 56.2659 30.985 58.7159C37.0157 61.1659 43.0646 63.6591 49.1547 66.0077C49.322 66.0803 49.5076 66.0999 49.6865 66.0638C49.859 66.0499 50.0236 65.9854 50.1598 65.8782C50.2959 65.771 50.3976 65.626 50.452 65.4614C50.7793 64.6617 51.0814 63.9235 51.352 63.2622C52.0076 61.8787 52.5221 60.7965 52.1615 59.841C51.6753 58.9851 50.8697 58.3584 49.9216 58.0985ZM46.3584 58.7589C46.8796 58.9722 47.4161 59.1918 47.8913 59.3862C48.3066 59.5453 48.7031 59.7497 49.0736 59.9957L49.4415 60.1463L49.7941 60.2906C49.8861 60.3282 49.978 60.3658 50.0515 60.755C49.971 61.766 49.6395 62.7413 49.0872 63.5922L48.974 63.869C44.2372 61.9306 39.4851 59.9859 34.7105 58.1398L20.1476 52.1803L15.7941 50.3987L15.5642 50.3046L14.4911 49.8655L14.3225 49.7965C14.73 49.1013 15.0763 48.3719 15.3576 47.6167L15.5339 47.1861L15.7922 46.861C15.8426 46.7379 15.9633 46.6616 16.0769 46.6902C16.3429 46.7822 16.6194 46.8411 16.9 46.8654C17.1198 46.9234 17.3311 47.0099 17.5285 47.1226L18.1877 47.3924L18.7855 47.637L45.0373 58.1824C45.4134 58.444 45.8859 58.6015 46.3584 58.7589Z" fill="#886940"/>
<path d="M88.3183 76.5763C88.1688 76.5161 88.0078 76.4893 87.8467 76.4978C87.6856 76.5063 87.5282 76.5498 87.3855 76.6254C87.2528 76.6931 87.1365 76.7892 87.045 76.9069C86.9536 77.0247 86.8891 77.1611 86.8562 77.3066C86.7648 77.81 86.5586 78.2857 86.2539 78.6966C85.9491 79.1076 85.554 79.4427 85.0992 79.6757C82.6603 80.5494 79.9783 80.4259 77.6339 79.3319C77.224 79.1639 76.825 78.9706 76.439 78.7531L76.2858 78.6904C76.0305 78.5902 75.7464 78.5915 75.4915 78.6941C75.2367 78.7967 75.0303 78.9928 74.9145 79.2424C74.8104 79.4353 74.7865 79.6615 74.848 79.8716C74.9095 80.0818 75.0514 80.2588 75.2428 80.3643C75.7654 80.6669 76.3091 80.9314 76.8697 81.1557C79.3684 82.1782 83.3224 82.8806 86.0537 81.3231C86.7768 80.9453 87.4051 80.4078 87.8908 79.7511C88.3766 79.0945 88.7071 78.3359 88.8574 77.533C88.896 77.3351 88.8629 77.13 88.7641 76.9546C88.6653 76.7793 88.5072 76.6451 88.3183 76.5763Z" fill="#886940"/>
<path d="M88.9222 74.7051C89.0479 74.7593 89.1838 74.7859 89.3208 74.7831C89.4577 74.7803 89.5926 74.7482 89.7163 74.6889C89.9301 74.5664 90.0966 74.3751 90.1889 74.1462C90.2444 74.0286 90.2752 73.9008 90.2793 73.7708C90.2834 73.6408 90.2608 73.5114 90.2128 73.3907C90.1649 73.27 90.0925 73.1605 90.0004 73.0692C89.9083 72.9778 89.7983 72.9065 89.6774 72.8597C89.5517 72.8055 89.4158 72.7789 89.2788 72.7817C89.1419 72.7845 89.007 72.8166 88.8833 72.8758C88.6695 72.9984 88.5029 73.1896 88.4107 73.4185C88.3551 73.5362 88.3243 73.664 88.3202 73.794C88.3161 73.924 88.3387 74.0534 88.3867 74.1741C88.4347 74.2948 88.5071 74.4043 88.5992 74.4956C88.6913 74.587 88.8012 74.6583 88.9222 74.7051Z" fill="#886940"/>
</g>
<defs>
<clipPath id="clip0_115_964">
<rect width="97.5412" height="59.5381" fill="white" transform="translate(22.5488) rotate(22.2556)"/>
</clipPath>
</defs>
</svg>
