<svg width="67" height="67" viewBox="0 0 67 67" fill="none" xmlns="http://www.w3.org/2000/svg">
<g opacity="0.9" clip-path="url(#clip0_115_971)">
<path d="M36.944 34.2062C36.8874 30.789 36.8648 27.144 36.8648 23.1573C37.795 23.208 38.702 23.4687 39.5185 23.9203C40.335 24.3718 41.0402 25.0025 41.5818 25.7657C41.6388 25.8628 41.7199 25.9432 41.817 25.9991C41.9142 26.0551 42.0242 26.0845 42.1361 26.0847C42.2669 26.0844 42.3952 26.0495 42.5084 25.9835C42.6215 25.9175 42.7155 25.8228 42.7809 25.7088C42.8413 25.6135 42.8734 25.5029 42.8734 25.3899C42.8734 25.2768 42.8413 25.1662 42.7809 25.0709C41.7515 23.4079 39.6701 22.303 36.8987 21.9499V20.8108C36.8987 20.1843 36.8987 19.5464 36.8987 18.9086C36.9014 18.8224 36.8868 18.7367 36.8557 18.6564C36.8246 18.5761 36.7777 18.503 36.7177 18.4415C36.5836 18.3135 36.4048 18.2439 36.22 18.2479C36.132 18.2448 36.0442 18.2597 35.962 18.2915C35.8798 18.3233 35.8048 18.3715 35.7414 18.4332C35.6781 18.4948 35.6277 18.5687 35.5933 18.6504C35.559 18.732 35.5413 18.8198 35.5413 18.9086C35.5413 19.5236 35.5413 20.1387 35.5413 20.7538V21.7904H34.9983C33.9652 21.7912 32.9347 21.8942 31.9215 22.0979V19.1705C31.9221 18.9974 31.8574 18.8305 31.7405 18.7035C31.6064 18.5755 31.4276 18.5059 31.2428 18.5099C31.1544 18.5052 31.0659 18.5189 30.983 18.5501C30.9 18.5813 30.8243 18.6294 30.7606 18.6914C30.697 18.7534 30.6466 18.8279 30.6128 18.9104C30.579 18.9928 30.5624 19.0814 30.5641 19.1705V22.508C29.5107 22.7565 28.517 23.2139 27.6411 23.8534C26.7651 24.4929 26.0245 25.3018 25.4625 26.2328C25.1641 26.838 24.9957 27.4998 24.9684 28.175C24.9411 28.8501 25.0555 29.5235 25.3041 30.1512C26.2995 32.9647 28.6298 33.8873 30.5754 34.3657V44.9363C29.3319 44.6689 28.188 44.0552 27.274 43.1651C26.36 42.2749 25.7127 41.1441 25.4059 39.9016C25.3622 39.7614 25.2747 39.6392 25.1565 39.553C25.0383 39.4668 24.8957 39.4213 24.7498 39.4232C24.6382 39.4218 24.5279 39.4469 24.4277 39.4964C24.3275 39.5458 24.2402 39.6183 24.1729 39.7079C24.1155 39.7896 24.0784 39.8839 24.0646 39.983C24.0508 40.0821 24.0608 40.1831 24.0937 40.2775C24.4855 41.7952 25.3029 43.1672 26.4483 44.2297C27.5937 45.2921 29.0186 46.0001 30.5528 46.269V52.4313C30.5522 52.6045 30.6169 52.7714 30.7338 52.8984C30.8679 53.0264 31.0467 53.096 31.2315 53.092C31.32 53.0967 31.4084 53.083 31.4914 53.0518C31.5743 53.0205 31.65 52.9724 31.7137 52.9104C31.7774 52.8485 31.8277 52.7739 31.8615 52.6915C31.8953 52.6091 31.9119 52.5205 31.9102 52.4313V46.474C32.3061 46.474 32.7134 46.474 33.1319 46.474C33.5504 46.474 34.2631 46.474 34.9418 46.3829L35.9372 46.2462V46.736C36.0164 48.5813 36.0843 50.4266 36.1748 52.2719C36.1836 52.4521 36.2617 52.6219 36.3926 52.7452C36.5235 52.8685 36.6969 52.9357 36.8761 52.9325C37.0622 52.9323 37.2409 52.8587 37.3738 52.7275C37.4314 52.6653 37.4753 52.5915 37.5026 52.511C37.5299 52.4305 37.5399 52.3452 37.5322 52.2605C37.4304 50.1874 37.3512 48.1143 37.272 46.0412C38.7426 45.6311 41.2764 44.6401 42.4302 42.624C42.7359 42.0739 42.9249 41.4659 42.9852 40.8385C43.0456 40.2111 42.976 39.5779 42.7809 38.9789C41.9212 35.8123 39.3647 34.8099 36.944 34.2062ZM37.2268 44.6401C37.1137 41.3824 37.0232 38.3866 36.9666 35.5276C37.6054 35.7032 38.2236 35.9476 38.8104 36.2566C39.4343 36.5792 39.9885 37.0231 40.4409 37.5627C40.8933 38.1024 41.235 38.727 41.4461 39.4004C41.5711 39.862 41.5984 40.3448 41.5263 40.8177C41.4542 41.2906 41.2843 41.743 41.0275 42.1455C40.5957 42.7958 40.0407 43.3539 39.3944 43.7879C38.748 44.2218 38.0229 44.523 37.2607 44.6743L37.2268 44.6401ZM34.2857 33.6937C33.4826 33.557 32.6907 33.4203 31.9328 33.2494V23.556C33.0903 23.2375 34.2849 23.0766 35.4847 23.0775C35.4847 26.9504 35.4848 30.4929 35.5639 33.9215L34.2857 33.6937ZM31.9328 34.5707L33.5731 34.8441C34.2593 34.9504 34.938 35.0643 35.6092 35.1858C35.6657 38.3069 35.7562 41.4849 35.8807 44.9021C35.3943 44.9704 34.9192 45.0274 34.4554 45.0616C33.9916 45.0957 33.5957 45.0616 33.1771 45.0616C32.7586 45.0616 32.3174 45.0616 31.9102 45.0616L31.9328 34.5707ZM30.598 24.0116V32.8849L30.1343 32.7141C29.3597 32.4361 28.6483 32.0045 28.0421 31.445C27.4359 30.8855 26.9472 30.2093 26.605 29.4563C26.4534 29.0307 26.3991 28.5762 26.4461 28.1266C26.4931 27.6769 26.6402 27.2437 26.8765 26.8593C27.7859 25.5444 29.0904 24.5582 30.598 24.0458V24.0116Z" fill="#896C44"/>
<path d="M66.92 34.5366C66.2186 25.162 63.911 18.0656 59.8614 12.8259C55.1196 6.90519 48.5846 2.70887 41.2534 0.877089C38.793 0.312531 36.2771 0.0297646 33.7537 0.0341769C28.7717 0.0172782 23.8565 1.18828 19.4103 3.45138C14.8063 5.79786 6.59393 10.8781 3.21169 18.5326C0.0783157 25.6063 -0.826618 33.6139 0.768351 39.9471C2.46063 46.102 5.74323 51.695 10.2816 56.1561C17.0892 63.0145 26.3072 66.8944 35.9368 66.9544C38.862 66.9548 41.7747 66.5719 44.6017 65.8154C51.3243 63.9774 57.2132 59.8641 61.2778 54.1676C65.3425 48.471 67.3349 41.5386 66.92 34.5366ZM65.6756 38.0905C65.3468 41.8854 64.3309 45.5876 62.678 49.0141C60.0733 55.0381 55.3755 59.8983 49.4658 62.6829C45.2373 64.6539 40.6303 65.6649 35.9708 65.6445C28.5084 65.6189 21.2487 63.1968 15.2475 58.7304C10.7108 55.3326 7.0172 50.9232 4.456 45.8475C1.28869 39.5485 0.723103 33.1127 2.62349 24.9798C3.75467 20.0476 5.32702 16.7557 7.81562 13.965C10.4176 11.1276 13.394 8.66321 16.6615 6.64077C21.777 3.26212 27.7493 1.43543 33.8668 1.37828C36.2242 1.38163 38.5735 1.6568 40.8688 2.19841C47.1864 3.79981 52.9098 7.20557 57.3502 12.0058C61.1736 16.1862 63.6282 21.779 64.8725 29.0918C65.4569 32.0541 65.7261 35.0707 65.6756 38.0905Z" fill="#896C44"/>
<path d="M33.3366 8.00766C31.2032 8.00482 29.0782 8.2766 27.0132 8.8164C15.8598 11.8008 7.04786 24.0799 7.78312 35.6528C8.70155 41.2586 11.0961 46.5138 14.7173 50.8708C18.2299 55.3142 23.2423 58.3021 28.8005 59.2657C31.4372 59.8431 34.1229 60.1635 36.8206 60.2226C39.7534 60.2635 42.6587 59.6489 45.3271 58.4228C49.9852 56.2437 53.9149 52.7496 56.6389 48.3649C61.9329 39.7649 60.8582 27.3263 54.0372 18.1112C51.5798 14.9496 48.4371 12.3956 44.8493 10.6445C41.2615 8.89335 37.3236 7.99143 33.3366 8.00766ZM57.5439 43.3985C55.8046 48.0951 52.673 52.1394 48.5736 54.9828C45.136 57.5231 40.9827 58.8918 36.7188 58.8898C35.8112 58.8886 34.9046 58.8316 34.004 58.719C28.2236 58.0355 22.2623 56.7712 17.7715 52.2719C13.2807 47.7725 9.78531 41.1318 9.11791 35.6073C8.54101 26.4947 14.7738 15.947 23.1898 11.6869C26.357 10.121 29.8422 9.31772 33.3705 9.34037C39.5661 9.33594 45.5433 11.6453 50.146 15.8217C57.3629 22.5422 60.632 34.6391 57.5439 43.3757V43.3985Z" fill="#896C44"/>
<path d="M22.0922 16.9835C21.9665 16.9842 21.844 17.024 21.7416 17.0974C19.526 18.5165 17.6284 20.3848 16.1697 22.5833C14.7109 24.7818 13.723 27.2622 13.269 29.8664C13.249 29.9663 13.2519 30.0696 13.2773 30.1682C13.3028 30.2669 13.3503 30.3584 13.4161 30.4359C13.4885 30.5218 13.5786 30.5908 13.6802 30.638C13.7818 30.6852 13.8924 30.7096 14.0043 30.7093C14.1452 30.7132 14.2824 30.6639 14.3891 30.5712C14.4958 30.4785 14.5643 30.349 14.5812 30.2081C14.9911 27.7757 15.9012 25.4564 17.2531 23.3987C18.605 21.3411 20.3688 19.5906 22.4316 18.2593C22.5596 18.1819 22.6581 18.0635 22.7114 17.9231C22.7648 17.7827 22.7698 17.6283 22.7257 17.4847C22.6871 17.344 22.6048 17.2194 22.4908 17.1292C22.3768 17.0391 22.2371 16.988 22.0922 16.9835Z" fill="#896C44"/>
<path d="M24.8188 16.6873C24.9306 16.5581 24.991 16.3917 24.9884 16.2203C24.9932 16.1303 24.9793 16.0402 24.9476 15.9559C24.9159 15.8715 24.8671 15.7948 24.8043 15.7305C24.7415 15.6662 24.6662 15.6158 24.5829 15.5824C24.4997 15.5491 24.4105 15.5336 24.3211 15.5369C24.2289 15.5329 24.1371 15.5503 24.0527 15.5878C23.9684 15.6254 23.8937 15.682 23.8346 15.7533C23.7209 15.8814 23.6601 16.0485 23.665 16.2203C23.6603 16.3094 23.6739 16.3985 23.7049 16.482C23.7359 16.5655 23.7837 16.6418 23.8452 16.7059C23.9068 16.77 23.9808 16.8207 24.0627 16.8547C24.1446 16.8888 24.2325 16.9055 24.3211 16.9038C24.4145 16.9055 24.5073 16.8871 24.5931 16.8497C24.679 16.8124 24.7559 16.7571 24.8188 16.6873Z" fill="#896C44"/>
</g>
<defs>
<clipPath id="clip0_115_971">
<rect width="67" height="67" fill="white"/>
</clipPath>
</defs>
</svg>
