<svg width="84" height="101" viewBox="0 0 84 101" fill="none" xmlns="http://www.w3.org/2000/svg">
<g opacity="0.9" clip-path="url(#clip0_127_1476)">
<path d="M42.137 101C50.3023 101.007 58.2914 98.6252 65.1194 94.147C71.9474 89.6687 77.3159 83.2901 80.5631 75.7976C83.8103 68.305 84.7943 60.0259 83.3938 51.9808C81.9932 43.9358 78.2694 36.4764 72.6813 30.5222C76.0448 25.0111 80.1281 17.514 80.1281 13.3558C80.1281 9.81362 78.7211 6.41654 76.2166 3.91184C73.7122 1.40715 70.3154 0 66.7735 0C63.2316 0 59.8348 1.40715 57.3304 3.91184C54.8259 6.41654 53.4189 9.81362 53.4189 13.3558C53.5624 15.3844 54.0623 17.3719 54.8958 19.2269C49.257 17.4304 43.3011 16.851 37.4217 17.5271C31.5424 18.2033 25.8734 20.1195 20.7895 23.1492C19.5311 21.0691 17.6285 19.4563 15.3705 18.5557C13.1125 17.655 10.6223 17.5156 8.27793 18.1586C5.93352 18.8016 3.86285 20.1919 2.38019 22.1186C0.897519 24.0452 0.0837923 26.403 0.0625 28.8341C0.0625 31.689 2.34619 36.4181 4.67952 40.5142C1.51199 46.8944 0.0245831 53.9774 0.358031 61.0929C0.691479 68.2084 2.83475 75.1212 6.58507 81.1771C10.3354 87.2331 15.5687 92.232 21.7899 95.7007C28.011 99.1695 35.0143 100.993 42.137 101ZM18.0217 61.1189C18.3259 65.6027 19.3658 70.0059 21.0997 74.1519C17.3207 75.6135 13.7719 77.6117 10.5625 80.0851C6.79715 74.4442 4.62325 67.8919 4.26995 61.1189H18.0217ZM24.1405 47.2293C29.3242 48.8818 34.7035 49.8418 40.1387 50.0842V57.1469H22.0058C22.2369 53.7556 22.9559 50.4154 24.1405 47.2293ZM62.2434 57.1593H44.1104V50.1711C49.5968 50.1257 55.054 49.3663 60.3444 47.912C61.3795 50.8937 62.0179 53.9986 62.2434 57.1469V57.1593ZM59.6494 72.2032C54.5746 70.8759 49.3556 70.1797 44.1104 70.1303V61.1312H62.2434C61.9623 64.9307 61.087 68.6626 59.6494 72.1907V72.2032ZM22.0058 61.1312H40.1387V70.2047C34.9508 70.4385 29.8132 71.3268 24.848 72.8486C23.2612 69.1219 22.3008 65.1586 22.0058 61.1189V61.1312ZM40.1387 74.1892V94.049C34.6648 88.9698 30.0537 83.0335 26.4863 76.473C30.9275 75.1585 35.5118 74.3874 40.1387 74.1767V74.1892ZM44.1104 94.049V74.1892C48.7932 74.2259 53.4551 74.8175 57.9987 75.9517C54.4107 82.7091 49.7163 88.8178 44.1104 94.0242V94.049ZM44.1104 46.2115V23.9933C50.238 29.7649 55.2454 36.6201 58.8799 44.2131C54.0595 45.4907 49.097 46.1538 44.1104 46.1867V46.2115ZM40.1387 24.0056V46.137C35.2244 45.9066 30.3604 45.043 25.6671 43.5677C29.2885 36.2303 34.189 29.5976 40.1387 23.9808V24.0056ZM12.9331 83.275C15.9077 80.9784 19.2028 79.13 22.7132 77.7887C24.5986 81.4986 26.8478 85.0121 29.4278 88.2773C31.7842 91.278 34.356 94.1031 37.1228 96.7301C27.6526 95.4527 19.0136 90.6474 12.9331 83.275ZM47.1015 96.7053C49.8605 94.0744 52.428 91.2496 54.7841 88.2524C57.5465 84.769 59.9266 80.9988 61.8834 77.0068C65.5605 78.2116 69.0494 79.929 72.2469 82.1083C69.2224 86.0767 65.4443 89.4089 61.1293 91.9138C56.8143 94.4187 52.0472 96.047 47.1015 96.7053ZM74.4934 78.8314C71.0865 76.5093 67.3785 74.6635 63.4721 73.3451C65.0266 69.439 65.9605 65.3137 66.2398 61.1189H79.9792C79.6536 67.3895 77.7634 73.4788 74.4809 78.8314H74.4934ZM66.2398 57.1469C66.0133 53.5836 65.3035 50.0677 64.1299 46.6956C68.1138 45.2968 71.8757 43.332 75.3001 40.8618C78.0662 45.8669 79.6578 51.4358 79.9543 57.1469H66.2398ZM76.1689 13.3558C76.1689 16.1238 73.1033 22.1562 69.8143 27.6798C69.1068 28.8589 68.3994 30.0133 67.6919 31.118C67.3941 31.6021 67.0838 32.0738 66.7859 32.533C65.9047 31.1801 64.9738 29.7154 64.0678 28.1887C62.7026 25.9296 61.3621 23.5588 60.2451 21.3494C58.5696 18.0353 57.4029 15.0687 57.4029 13.3558C57.4029 10.8671 58.3915 8.48024 60.1511 6.72044C61.9108 4.96063 64.2974 3.97199 66.7859 3.97199C69.2744 3.97199 71.661 4.96063 73.4207 6.72044C75.1803 8.48024 76.1689 10.8671 76.1689 13.3558ZM57.3285 24.3905C59.7006 28.807 62.3109 33.0915 65.1476 37.2249C65.3318 37.4887 65.5769 37.7041 65.8621 37.8528C66.1473 38.0015 66.4642 38.0791 66.7859 38.0791C67.1076 38.0791 67.4245 38.0015 67.7097 37.8528C67.9949 37.7041 68.24 37.4887 68.4242 37.2249C68.6973 36.8153 69.504 35.6485 70.559 34.0225C71.5297 35.1202 72.4372 36.2723 73.277 37.4731C70.0688 39.8297 66.5252 41.6916 62.7646 42.9967C60.682 38.3093 58.0264 33.8982 54.8586 29.8643C52.5712 26.9393 50.0829 24.1771 47.4118 21.5977C50.8044 22.076 54.1157 23.0156 57.254 24.3905H57.3285ZM36.9366 21.5977C34.2654 24.1769 31.7771 26.9391 29.4898 29.8643C26.4997 33.6629 23.9592 37.7948 21.9189 42.1775C20.5189 41.5989 19.1516 40.9442 17.8231 40.2163C20.8267 34.9534 22.2912 31.2173 22.2912 28.8341C22.2884 28.2019 22.2345 27.5709 22.1299 26.9474C26.6098 24.1478 31.6298 22.3249 36.8621 21.5977H36.9366ZM11.1086 21.6597C12.3804 21.6733 13.6257 22.0255 14.7164 22.6799C15.807 23.3344 16.7037 24.2675 17.3143 25.3834C17.9133 26.448 18.2255 27.6498 18.2203 28.8713C18.2128 29.1901 18.167 29.5069 18.0838 29.8147C17.1967 32.7479 15.9459 35.5584 14.3604 38.1807C13.7646 39.2481 13.1192 40.3901 12.3249 41.6065C11.9277 42.252 11.4934 42.9222 11.0838 43.6173C10.3639 42.525 9.70612 41.47 9.09796 40.477C8.24158 39.0371 7.4969 37.709 6.86392 36.5174C4.77882 32.5454 3.91002 29.9016 3.91002 28.8713C3.9051 27.924 4.08784 26.985 4.44771 26.1086C4.80758 25.2323 5.33743 24.4359 6.0067 23.7654C6.67597 23.0949 7.4714 22.5636 8.34706 22.2022C9.22273 21.8408 10.1613 21.6564 11.1086 21.6597ZM7.11215 44.66C8.29122 46.5218 9.22208 47.8872 9.50754 48.2968C9.68916 48.5633 9.93368 48.7808 10.2194 48.9302C10.5052 49.0796 10.8234 49.1562 11.1458 49.1533C11.4666 49.1564 11.7831 49.0797 12.0669 48.9302C12.3506 48.7807 12.5929 48.5631 12.7717 48.2968C12.8462 48.1975 14.1618 46.2984 15.7877 43.6546C17.2872 44.4902 18.8328 45.2403 20.4171 45.9012C19.0757 49.5304 18.2688 53.3352 18.0217 57.1965H4.26995C4.49486 52.8861 5.45614 48.6459 7.11215 44.66Z" fill="#8E7048"/>
<path d="M9.30835 33.1412C10.3574 33.5319 11.5037 33.578 12.5806 33.2726C13.6576 32.9672 14.6091 32.3263 15.297 31.443C15.9848 30.5598 16.3731 29.4802 16.4053 28.3611C16.4376 27.242 16.1123 26.1418 15.4765 25.2204C14.8408 24.2989 13.9278 23.6042 12.8702 23.2372C11.8126 22.8702 10.6656 22.8501 9.59577 23.1797C8.52596 23.5093 7.58912 24.1715 6.92139 25.0701C6.25367 25.9686 5.88986 27.0567 5.88282 28.1762C5.88133 29.2539 6.2084 30.3065 6.82042 31.1936C7.43245 32.0807 8.30033 32.7601 9.30835 33.1412ZM11.108 25.7806C11.7555 25.7968 12.3711 26.0655 12.8232 26.5293C13.2754 26.9931 13.5284 27.6153 13.5282 28.2631C13.5344 28.3789 13.5344 28.4949 13.5282 28.6107C13.4441 29.1234 13.2013 29.5969 12.8339 29.9643C12.4665 30.3318 11.9931 30.5746 11.4803 30.6587H11.1328C10.7707 30.7368 10.3957 30.7329 10.0353 30.6473C9.67495 30.5616 9.33829 30.3964 9.05006 30.1637C8.76182 29.931 8.52932 29.6368 8.36958 29.3025C8.20985 28.9683 8.12695 28.6025 8.12695 28.2321C8.12695 27.8616 8.20985 27.4958 8.36958 27.1616C8.52932 26.8274 8.76182 26.5331 9.05006 26.3004C9.33829 26.0677 9.67495 25.9025 10.0353 25.8168C10.3957 25.7312 10.7707 25.7273 11.1328 25.8054L11.108 25.7806Z" fill="#8E7048"/>
<path d="M66.7115 18.78C67.9389 18.78 69.1387 18.416 70.1592 17.7341C71.1797 17.0521 71.9751 16.0828 72.4448 14.9488C72.9145 13.8148 73.0374 12.5669 72.798 11.363C72.5585 10.1591 71.9675 9.05329 71.0996 8.18533C70.2317 7.31737 69.126 6.72627 67.9222 6.4868C66.7184 6.24733 65.4707 6.37026 64.3367 6.83999C63.2028 7.30973 62.2336 8.1052 61.5517 9.12581C60.8698 10.1464 60.5059 11.3463 60.5059 12.5738C60.5059 14.2198 61.1597 15.7984 62.3235 16.9623C63.4872 18.1261 65.0657 18.78 66.7115 18.78ZM66.7115 9.23483C67.3743 9.23483 68.0222 9.4314 68.5733 9.79965C69.1244 10.1679 69.5539 10.6913 69.8075 11.3037C70.0611 11.916 70.1275 12.5899 69.9982 13.24C69.8689 13.8901 69.5497 14.4873 69.0811 14.956C68.6124 15.4247 68.0153 15.7438 67.3653 15.8731C66.7152 16.0025 66.0415 15.9361 65.4291 15.6825C64.8168 15.4288 64.2934 14.9992 63.9252 14.4481C63.557 13.897 63.3605 13.249 63.3605 12.5862C63.3605 11.6974 63.7135 10.8449 64.342 10.2164C64.9704 9.58794 65.8228 9.23483 66.7115 9.23483Z" fill="#8E7048"/>
</g>
<defs>
<clipPath id="clip0_127_1476">
<rect width="84" height="101" fill="white"/>
</clipPath>
</defs>
</svg>
