<svg width="127" height="125" viewBox="0 0 127 125" fill="none" xmlns="http://www.w3.org/2000/svg">
<g opacity="0.7" clip-path="url(#clip0_114_891)">
<path d="M28.2905 56.5036C28.0764 56.5604 27.853 56.566 27.644 56.5197C27.435 56.4735 27.2484 56.3772 27.104 56.2411C26.9596 56.1049 26.863 55.9341 26.8244 55.7469C26.7858 55.5597 26.8066 55.363 26.8848 55.178L47.015 7.56456C47.2519 7.00404 47.611 6.48293 48.0711 6.03195C48.5312 5.58097 49.0829 5.20925 49.6937 4.93871C50.3046 4.66816 50.9622 4.50426 51.6279 4.45667C52.2935 4.40909 52.9537 4.47878 53.5695 4.66164L69.5891 9.42262C69.8802 9.51508 70.1101 9.70711 70.2296 9.95745C70.349 10.2078 70.3484 10.4965 70.2278 10.7616C70.1073 11.0267 69.8764 11.2471 69.5848 11.3753C69.2932 11.5036 68.9641 11.5296 68.6681 11.4478L52.6494 6.68996C52.333 6.59599 51.9938 6.56019 51.6517 6.58467C51.3097 6.60914 50.9718 6.69339 50.6579 6.83245C50.3441 6.97151 50.0606 7.16256 49.8243 7.39434C49.588 7.62612 49.4035 7.89393 49.2819 8.18198L29.1505 55.7933C29.0796 55.9606 28.964 56.113 28.814 56.2368C28.664 56.3607 28.4842 56.4523 28.2905 56.5036Z" fill="#77582D"/>
<path d="M25.9163 58.7035C25.6719 58.7035 25.4327 58.634 25.2269 58.5033C25.021 58.3727 24.8572 58.1862 24.7547 57.966C24.6522 57.7459 24.6154 57.5012 24.6486 57.2609C24.6817 57.0206 24.7835 56.7948 24.9419 56.6101C43.0404 35.473 61.9638 14.1445 77.727 1.30228C78.8668 0.375495 80.3192 -0.0858731 81.7893 0.0119074C83.2594 0.109688 84.6369 0.75928 85.6419 1.82872C88.9743 5.38346 94.0451 11.4023 99.2796 19.8846C99.3673 20.0268 99.426 20.1849 99.4522 20.3496C99.4784 20.5144 99.4717 20.6827 99.4324 20.8449C99.3931 21.0071 99.322 21.16 99.2232 21.2949C99.1243 21.4298 98.9997 21.5441 98.8564 21.6312C98.713 21.7183 98.5538 21.7765 98.3878 21.8025C98.2218 21.8286 98.0523 21.8219 97.8888 21.7829C97.7254 21.7439 97.5714 21.6733 97.4354 21.5752C97.2995 21.4771 97.1844 21.3534 97.0966 21.2111C91.973 12.9088 87.0204 7.02937 83.7676 3.55926C83.2067 2.96274 82.4381 2.60045 81.6178 2.54595C80.7976 2.49146 79.9872 2.74885 79.3511 3.26585C63.7437 15.9822 44.9135 37.2103 26.8889 58.2555C26.7692 58.3957 26.6202 58.5084 26.4523 58.5857C26.2843 58.6631 26.1014 58.7033 25.9163 58.7035Z" fill="#795A2E"/>
<path d="M43.6913 124.999C36.4558 124.999 30.555 123.486 25.3683 120.337C18.4329 116.126 12.5674 108.763 7.43859 97.8277C7.0833 97.0941 -1.38355 79.3362 0.196238 62.8445C0.973342 54.7306 5.36253 47.3712 12.2382 42.653C15.7298 40.2561 21.6954 36.6195 30.289 32.9045C30.4951 32.8153 30.7212 32.7816 30.9446 32.8067C31.168 32.8319 37.8146 30.5398 31.5615 33.0477C31.7422 33.1804 37.725 30.3351 37.8146 30.5398C37.9042 30.7444 38.4773 31.0283 38.4517 31.25L37.8146 30.5398C43.9939 29.4691 32.0767 39.2212 32.8591 41.38C32.9591 41.6573 32.959 41.9604 32.8587 42.2376C32.7585 42.5148 32.5643 42.7488 32.3093 42.8995C28.1595 45.3529 20.4373 49.9193 18.7086 53.2145C18.1629 54.2555 18.2896 55.4303 19.0497 56.3551C19.6642 57.1044 20.8256 57.7657 22.2434 57.3707C25.6713 56.4115 30.4078 54.1777 36.3205 50.7335L36.9157 50.3876C37.354 50.1332 37.8025 49.8725 38.2601 49.6095C38.2931 49.5875 38.3266 49.5672 38.3619 49.548L38.4517 49.4995C39.816 48.7096 41.26 47.8779 42.7625 47.0168C42.9682 46.8983 43.1791 46.7787 43.3878 46.6591L43.4332 46.6332C45.9419 45.1977 48.7076 43.624 51.8842 41.8247L51.978 41.7733C52.0019 41.7575 52.0269 41.7428 52.0519 41.7287C54.1098 40.5658 56.1932 39.3905 58.2636 38.2248C58.7155 37.968 59.1732 37.7107 59.6279 37.454C60.1635 37.1544 60.687 36.8599 61.2089 36.5665L62.3919 35.9023C62.9603 35.5802 63.5328 35.2585 64.0973 34.9431C75.2883 28.6631 84.9518 23.3011 85.5782 22.9535C86.2337 22.5427 93.8058 17.9379 100.917 19.6526C104.321 20.4731 107.038 22.5918 108.993 25.9496C109.021 25.999 109.047 26.0501 109.069 26.1025L125.554 65.9128C128.919 74.0476 126.26 83.2854 119.088 88.3788C103.358 99.5509 84.2537 110.388 60.6836 121.5C56.7422 123.367 52.4873 124.496 48.1328 124.829C46.5983 124.943 45.1178 124.999 43.6913 124.999ZM29.3874 36.0812C22.0126 39.4103 16.8241 42.5903 13.6941 44.7401C7.44087 49.0318 3.44961 55.7169 2.74471 63.0826C1.23256 78.8634 9.66759 96.5655 9.75286 96.7426C20.4476 119.545 32.7476 123.445 47.9378 122.29C51.9794 121.981 55.9286 120.933 59.5865 119.2C83.0184 108.151 101.995 97.3915 117.599 86.3041C123.801 81.8996 126.1 73.9082 123.188 66.8698L106.738 27.1402C105.153 24.4521 102.995 22.7611 100.326 22.115C94.1173 20.6124 86.9983 25.0615 86.9272 25.1055L86.8618 25.1444C86.7629 25.2009 76.8703 30.6859 65.3604 37.1448C64.7946 37.4619 64.2262 37.7817 63.655 38.104L62.4692 38.7738C61.9462 39.0672 61.4211 39.3617 60.8939 39.6574C60.4357 39.9153 59.9844 40.1697 59.5296 40.4276C57.4865 41.5781 55.4366 42.7348 53.4094 43.8796C53.3742 43.9033 53.3378 43.9259 53.3003 43.9462L53.1297 44.0382C49.977 45.8252 47.2142 47.3966 44.7049 48.8343L44.6555 48.8625C44.4491 48.9798 44.2428 49.0972 44.0392 49.214C42.5317 50.0779 41.0832 50.9124 39.7188 51.7023L39.6864 51.7204L39.654 51.7379L39.6097 51.7644C39.1307 52.0397 38.6619 52.3111 38.2033 52.5786L37.6081 52.9245C31.5095 56.4792 26.5712 58.7954 22.9318 59.8145C20.7449 60.4239 18.4977 59.7123 17.0583 57.9575C15.6582 56.2479 15.4188 53.9813 16.433 52.042C18.2521 48.5781 24.0943 44.8197 30.1167 41.2378C29.6205 39.5637 29.3748 37.8263 29.3874 36.0812Z" fill="#6E5027" fill-opacity="0.67"/>
<path d="M109.034 29.0011C118.633 24.0391 131.943 51.0399 120.904 58.0196L93.5294 73.09C90.1157 74.9695 85.8294 74.3314 83.1724 71.4943C80.5642 68.7075 79.1408 64.8425 78.8264 61.3238C78.5422 58.1308 80.2038 55.0737 82.9797 53.4351L111.931 36.3464L109.034 29.0011Z" fill="#A0845D"/>
<path d="M96.5735 64.8876C99.9429 64.8876 102.674 62.1765 102.674 58.8321C102.674 55.4878 99.9429 52.7766 96.5735 52.7766C93.2041 52.7766 90.4727 55.4878 90.4727 58.8321C90.4727 62.1765 93.2041 64.8876 96.5735 64.8876Z" fill="#90744D"/>
<path d="M96.5731 65.9986C95.1452 65.9986 93.7494 65.5783 92.5621 64.7909C91.3749 64.0035 90.4495 62.8844 89.9031 61.575C89.3566 60.2656 89.2137 58.8247 89.4922 57.4347C89.7708 56.0446 90.4584 54.7678 91.4681 53.7656C92.4778 52.7635 93.7642 52.081 95.1647 51.8045C96.5651 51.528 98.0168 51.6699 99.336 52.2122C100.655 52.7546 101.783 53.6731 102.576 54.8515C103.369 56.0299 103.793 57.4154 103.793 58.8327C103.79 60.7325 103.029 62.5538 101.676 63.8971C100.322 65.2405 98.4872 65.9962 96.5731 65.9986ZM96.5731 53.8876C95.588 53.8876 94.625 54.1776 93.8059 54.7208C92.9867 55.2641 92.3483 56.0362 91.9713 56.9396C91.5943 57.843 91.4957 58.837 91.6879 59.7961C91.8801 60.7551 92.3545 61.636 93.0511 62.3274C93.7477 63.0189 94.6352 63.4897 95.6014 63.6805C96.5676 63.8712 97.5691 63.7733 98.4793 63.3991C99.3894 63.0249 100.167 62.3913 100.715 61.5783C101.262 60.7652 101.554 59.8094 101.554 58.8316C101.553 57.5208 101.027 56.2642 100.094 55.3373C99.1598 54.4105 97.8937 53.8891 96.5731 53.8876Z" fill="#7F6139"/>
<path d="M89.3575 75.4373C88.0204 75.4393 86.6973 75.1668 85.4713 74.637C84.2453 74.1073 83.1429 73.3316 82.2334 72.3588C79.6286 69.5753 77.9215 65.594 77.5497 61.4361C77.2263 57.8153 79.1 54.2465 82.3249 52.3433L110.343 35.8059L107.841 29.4637C107.726 29.172 107.724 28.8483 107.835 28.5548C107.946 28.2614 108.162 28.019 108.442 27.8743C112.85 25.5947 118.338 28.6642 122.426 35.6862C127.145 43.7944 128.452 54.7526 121.592 59.0911C121.57 59.1047 121.548 59.1182 121.525 59.1306L94.1509 74.201C92.685 75.0111 91.0352 75.4366 89.3575 75.4373ZM110.703 29.7498L113.121 35.8837C113.232 36.1641 113.238 36.4742 113.14 36.7589C113.041 37.0436 112.844 37.2843 112.584 37.4382L83.6341 54.5275C81.2511 55.9336 79.8646 58.5579 80.1022 61.2115C80.4239 64.8188 81.8849 68.2516 84.1105 70.6294C86.3634 73.0364 89.9823 73.5911 92.9093 71.979L120.248 56.9284C125.532 53.5485 124.382 44.129 120.21 36.9541C117.746 32.7217 113.989 29.1088 110.705 29.7498H110.703Z" fill="#765528"/>
</g>
<defs>
<clipPath id="clip0_114_891">
<rect width="127" height="125" fill="white"/>
</clipPath>
</defs>
</svg>
