<svg width="332" height="824" viewBox="0 0 332 824" fill="none" xmlns="http://www.w3.org/2000/svg">
<path d="M-2.63916 816.569C-28.2395 745.502 2.30786 671.327 22.7874 633.402C41.6171 598.584 65.7122 566.344 89.0575 535.157C103.024 516.495 117.449 497.177 130.598 477.513C201.343 371.76 228.837 259.989 208.04 162.768C199.645 123.542 183.302 86.0078 167.5 49.7023C160.254 33.0772 152.773 15.8898 146.146 -1.27032C119.457 -70.2127 114.062 -126.567 129.683 -173.567L132.051 -172.783C116.618 -126.348 121.974 -70.5965 148.438 -2.16768C155.055 14.9436 162.533 32.1148 169.756 48.7106C185.597 85.1267 201.999 122.784 210.442 162.238C231.38 260.143 203.763 372.635 132.608 478.947C119.413 498.638 105.031 517.998 90.98 536.746C67.7868 567.765 43.7271 599.93 24.9812 634.578C4.68813 672.091 -25.577 745.495 -0.301086 815.73L-2.63916 816.569Z" fill="#5E4A2E" fill-opacity="0.5"/>
<path d="M-42.5362 774.328L-45.0181 774.552C-48.3833 737.749 -37.6796 696.685 -14.1097 655.645C2.79077 626.281 24.3956 599.407 45.2823 573.411C50.0311 567.533 54.758 561.631 59.4631 555.705C148.764 442.848 189.685 346.986 188.287 253.988C187.297 191.601 166.442 130.956 146.258 72.3269C142.838 62.4113 139.313 52.1444 135.948 42.0818C113.808 -24.1348 93.5958 -101.574 111.673 -173.854L114.088 -173.249C96.1701 -101.597 116.276 -24.5933 138.312 41.2883C141.677 51.3509 145.199 61.6016 148.615 71.5009C168.876 130.334 189.82 191.165 190.773 253.95C192.194 347.553 151.091 443.929 61.4046 557.222C56.7247 563.159 51.9695 569.062 47.2306 574.96C26.4157 600.975 4.84576 627.689 -11.9514 656.896C-35.2701 697.426 -45.8428 738.056 -42.5362 774.328Z" fill="#5E4A2E" fill-opacity="0.5"/>
<path d="M-24.9451 779.078L-28.3073 779.229C-30.7927 722.835 -8.89826 662.153 38.6295 593.72C51.5567 575.119 65.5381 556.776 79.0669 539.035C105.28 504.644 132.393 469.099 152.737 430.27C193.443 352.32 206.597 262.9 190.062 176.54C182.377 136.727 168.311 97.8911 154.688 60.2196C147.696 40.8783 140.465 20.8735 134.167 0.947704C110.735 -73.1803 106.924 -131.151 122.206 -181.525L125.406 -180.489C110.331 -130.921 114.161 -73.5991 137.306 -0.124332C143.574 19.7397 150.798 39.7119 157.787 59.037C171.436 96.7539 185.494 135.795 193.297 175.855C209.991 262.95 196.744 353.136 155.708 431.76C135.245 470.835 108.055 506.497 81.7444 540.993C68.2414 558.695 54.273 577.019 41.4007 595.557C-5.68729 663.408 -27.3608 723.433 -24.9451 779.078Z" fill="#5E4A2E" fill-opacity="0.5"/>
<path d="M61.459 329.342C50.474 331.609 39.0514 331.015 28.8473 325.469C8.58665 314.517 1.89229 289.379 -2.77301 266.758C-14.1384 212.061 -27.0433 150.063 -62.873 102.944C-79.0924 81.7236 -99.6556 63.7925 -119.472 46.4369L-129.818 37.4082C-151.601 18.2527 -176.052 -4.62756 -191.364 -33.7043C-207.746 -64.7658 -210.132 -99.0391 -197.778 -125.36L-195.524 -124.299C-207.548 -98.69 -205.165 -65.2478 -189.168 -34.9042C-174.054 -6.21076 -149.731 16.4585 -128.246 35.4887C-124.806 38.5114 -121.357 41.5209 -117.9 44.5174C-97.9229 61.9926 -77.2548 80.0208 -60.9459 101.511C-24.7842 149.087 -11.8189 211.378 -0.399849 266.336C4.15134 288.404 10.7143 312.822 30.0208 323.344C49.3274 333.865 73.7895 325.371 90.0867 313.896C138.621 279.715 152.494 214.362 149.302 164.577C146.549 121.692 133.496 79.7123 121.026 39.0713C117.174 26.5642 113.149 13.5498 109.528 0.842494C95.9393 -46.8637 82.75 -109.006 101.575 -166.305L103.943 -165.522C85.345 -108.847 98.4303 -47.2082 111.932 0.15954C115.577 12.9808 119.552 25.8358 123.42 38.3395C135.999 79.0939 149.01 121.286 151.797 164.418C155.026 214.874 140.888 281.165 91.4388 316.009C82.4306 322.402 72.2387 326.934 61.459 329.342Z" fill="#5E4A2E" fill-opacity="0.5"/>
<path d="M68.0841 211.986C53.0305 215.094 35.616 210.867 21.2805 200.015C4.22824 187.179 -6.64697 167.519 -14.2069 151.841C-16.3817 147.302 -18.5149 142.635 -20.5819 138.124C-26.7198 124.817 -32.9584 111.021 -41.4229 98.8548C-57.0241 76.3533 -79.8699 59.2836 -101.999 42.643C-129.206 22.2826 -157.352 1.14916 -171.623 -30.0426C-187.595 -64.8707 -181.885 -103.411 -174.289 -129.599L-171.906 -128.903C-179.377 -103.098 -184.918 -65.2197 -169.381 -31.0146C-155.361 -0.466577 -127.467 20.4305 -100.493 40.6522C-78.2033 57.3277 -55.2 74.5854 -39.388 97.4506C-30.8182 109.798 -24.4781 123.675 -18.3363 137.084C-16.2692 141.594 -14.1394 146.245 -11.9714 150.752C-4.53022 166.183 6.14099 185.511 22.7709 198.027C40.0032 210.996 61.5403 214.151 77.672 206.07C95.7436 197.029 104.279 175.89 108.246 159.75C118.983 116.134 111.879 70.4144 104.37 35.4851C101.681 22.8567 98.6061 10.0874 95.6317 -2.27851C88.9177 -30.1439 81.9732 -58.9628 78.9936 -87.9724C74.0619 -136.566 81.8807 -178.868 101.793 -210.329L103.886 -209.065C84.284 -178.074 76.475 -136.301 81.4553 -88.294C84.4177 -59.4505 91.3454 -30.713 98.0263 -2.92555C101.02 9.45323 104.098 22.2389 106.794 34.8997C114.292 70.1029 121.519 116.17 110.599 160.299C106.498 176.942 97.6475 198.774 78.7312 208.244C75.3603 209.95 71.7809 211.208 68.0841 211.986Z" fill="#5E4A2E" fill-opacity="0.5"/>
<path d="M48.849 123.978C30.0361 127.862 9.99882 119.391 -3.76741 108.914C-14.4956 100.745 -23.6907 90.6302 -32.5679 80.8233C-38.2137 74.5911 -44.0564 68.1451 -50.2181 62.2909C-64.226 48.9959 -80.6706 38.0365 -96.4354 27.4118C-104.141 22.2156 -112.163 16.9661 -119.721 11.4171C-149.46 -10.1172 -166.887 -31.0204 -174.715 -54.4988C-181.007 -73.4078 -181.104 -96.0899 -175.108 -120.081C-169.729 -141.552 -160.25 -161.816 -151.115 -181.45L-148.847 -180.408C-157.953 -160.882 -167.361 -140.683 -172.696 -119.493C-178.613 -95.9424 -178.496 -73.7394 -172.36 -55.3411C-164.718 -32.4351 -147.568 -11.8823 -118.3 9.34204C-110.706 14.9006 -102.82 20.2293 -95.1145 25.4254C-79.2032 36.0199 -62.6767 47.0472 -48.5016 60.4943C-42.2777 66.4036 -36.3924 72.8917 -30.7236 79.1531C-21.9317 88.8758 -12.8055 98.9028 -2.25735 106.939C13.4174 118.855 37.4386 128.132 57.7735 118.301C77.7223 108.736 85.0818 85.5159 87.6992 72.5387C94.9562 36.5632 86.4173 -0.562779 78.1429 -36.4879C77.3177 -40.0503 76.5034 -43.615 75.6999 -47.1819C66.5442 -87.7098 60.21 -130.517 76.3013 -167.671L78.595 -166.669C62.8913 -130.103 69.1046 -87.882 78.1932 -47.6796C78.9967 -44.1127 79.811 -40.5481 80.6362 -36.9856C88.9609 -0.81642 97.5081 36.5963 90.1918 73.0252C87.4828 86.4625 79.8186 110.509 58.8983 120.546C55.6987 122.09 52.3246 123.242 48.849 123.978Z" fill="#5E4A2E" fill-opacity="0.5"/>
<path d="M13.4475 62.5687C-1.83386 65.7233 -16.9333 60.6283 -26.9869 55.7302C-36.2557 50.9496 -45.1534 45.4814 -53.6054 39.3715C-56.5897 37.3238 -59.5415 35.2693 -62.5971 33.2871C-70.4493 28.1213 -78.8711 23.073 -86.9491 18.293C-105.506 7.20975 -124.72 -4.09434 -140.205 -19.6973C-161.112 -40.6963 -176.828 -76.8328 -161.932 -106.377L-159.716 -105.256C-174.064 -76.8434 -158.744 -41.8809 -138.423 -21.4226C-123.184 -6.10814 -104.1 5.22284 -85.678 16.1473C-77.577 20.9564 -69.1849 25.9429 -61.2116 31.2026C-58.1863 33.2023 -55.1813 35.2402 -52.1968 37.3162C-43.848 43.3728 -35.061 48.8011 -25.9082 53.5563C-15.9892 58.2955 -1.00702 63.3978 13.8947 59.9652C40.2519 53.9133 54.2856 24.7171 56.1785 0.16503C57.5177 -17.2822 54.6286 -34.9934 51.8277 -52.1119C50.3867 -60.9089 48.8983 -70.0184 47.9742 -79.0239C43.4335 -125.159 53.58 -171.552 76.9661 -211.584L79.1081 -210.33C55.9937 -170.754 45.9693 -124.89 50.4657 -79.2837C51.3567 -70.3562 52.8514 -61.2989 54.289 -52.5182C57.1004 -35.2661 60.0197 -17.4085 58.6596 0.348509C56.687 25.7484 41.9916 56.0144 14.4532 62.3441L13.4475 62.5687Z" fill="#5E4A2E" fill-opacity="0.5"/>
<path d="M-14.3041 2.2107L-16.0454 2.57018C-46.2192 8.54466 -73.1986 7.54793 -96.002 -0.266386C-123.632 -9.68039 -145.123 -29.7274 -153.503 -53.9063C-166.175 -90.6711 -148.843 -130.033 -131.579 -164.053L-129.359 -162.916C-146.414 -129.364 -163.639 -90.5499 -151.158 -54.7127C-143.03 -31.2623 -122.116 -11.7918 -95.2144 -2.61774C-72.7672 5.03256 -46.2966 5.9477 -16.601 0.122831C-3.39215 -2.46824 15.3255 -7.55391 25.2491 -21.6322C34.4191 -34.7576 33.9576 -51.9688 33.4636 -68.5965C33.3941 -70.4146 33.3442 -72.2198 33.2976 -74.0087C32.547 -109.123 38.4058 -144.067 50.5684 -177.019L52.92 -176.147C40.8478 -143.497 35.0386 -108.866 35.7968 -74.0665C35.8434 -72.2776 35.8899 -70.4887 35.9432 -68.6672C36.4688 -51.6389 37.0014 -34.0011 27.2749 -20.201C17.3227 -6.01496 -0.812843 -0.574399 -14.3041 2.2107Z" fill="#5E4A2E" fill-opacity="0.5"/>
<path d="M-34.0946 -12.8768C-66.1709 -6.25504 -101.474 -17.0882 -123.675 -41.4001C-148.918 -69.0206 -155.285 -111.906 -139.189 -145.668L-136.935 -144.606C-152.615 -111.71 -146.401 -69.9813 -121.851 -43.0832C-97.3002 -16.1851 -56.2607 -6.24785 -22.0989 -18.8823C-5.92855 -24.8843 6.80817 -35.0301 13.8367 -47.6794C23.5026 -65.0641 22.3207 -86.097 21.1856 -106.41C20.0192 -127.039 18.8324 -148.342 28.7552 -166.374L30.946 -165.129C21.3548 -147.794 22.5395 -126.829 23.7331 -106.562C24.8933 -85.8815 26.0968 -64.4967 16.0697 -46.4776C8.77661 -33.3835 -4.48843 -22.7553 -21.179 -16.5611C-25.386 -15.0116 -29.7033 -13.78 -34.0946 -12.8768Z" fill="#5E4A2E" fill-opacity="0.5"/>
<path d="M-42.1173 715.23L-44.6021 715.522C-48.8621 678.412 -37.2102 636.762 -10.9557 595.083C4.12958 571.15 22.4681 549.006 40.1917 527.582C48.9792 516.962 58.0479 505.979 66.6375 494.975C88.5794 466.692 114.796 428.448 122.899 383.577C124.753 373.234 126.034 354.679 113.592 346.677C103.009 339.869 90.6953 344.99 77.6794 350.409C72.524 352.695 67.2216 354.635 61.8077 356.214C32.8499 363.888 4.14094 344.551 -13.0365 323.868C-37.3895 294.554 -50.0093 257.303 -59.1398 224.795C-61.3876 216.776 -63.5813 208.524 -65.6821 200.559C-72.7743 173.739 -80.1196 146.021 -91.8154 120.49C-103.984 93.9036 -126.393 58.7926 -163.903 42.4426L-162.913 40.1682C-124.596 56.8098 -101.822 92.4563 -89.4525 119.443C-77.6839 145.162 -70.3151 172.994 -63.1865 199.908C-61.089 207.857 -58.9183 216.079 -56.6671 224.115C-47.5966 256.414 -35.0765 293.346 -10.9667 322.304C5.71506 342.393 33.4795 361.264 61.3014 353.841C66.5787 352.266 71.7496 350.354 76.7825 348.117C89.831 342.692 103.348 337.068 115.076 344.572C128.763 353.352 127.464 373.048 125.499 384.007C117.175 429.535 90.7349 468.011 68.6021 496.521C60.013 507.609 50.9117 518.599 42.1276 529.236C24.4753 550.593 6.15924 572.682 -8.83557 596.478C-34.7835 637.669 -46.279 678.761 -42.1173 715.23Z" fill="#5E4A2E" fill-opacity="0.5"/>
<path d="M-45.088 653.93L-47.5031 653.326C-35.1804 603.986 -3.45196 562.687 27.2353 522.757C41.8675 503.703 56.9815 484.023 69.8526 463.669C78.7943 449.437 88.5278 430.817 82.961 413.285C78.7488 399.936 66.7624 391.178 57.4709 386.191C50.991 382.887 44.33 379.951 37.5197 377.397C32.2702 375.308 26.8378 373.155 21.6413 370.665C-12.0248 354.522 -39.7692 322.667 -60.863 276.002C-70.0343 255.719 -77.3252 234.352 -84.4685 213.702C-90.9525 194.849 -97.6487 175.379 -105.702 156.816C-125.896 110.236 -152.303 77.9528 -184.245 60.7927L-183.003 58.5852C-150.561 76.0322 -123.77 108.779 -103.361 155.824C-95.2652 174.514 -88.5689 193.984 -82.0782 212.869C-74.9972 233.464 -67.6642 254.788 -58.5522 274.948C-37.7095 321.054 -10.3228 352.491 22.7784 368.445C27.8834 370.903 33.2833 373.063 38.5064 375.107C45.4036 377.659 52.1506 380.6 58.7152 383.915C68.2887 389.2 80.8674 398.362 85.3321 412.524C91.1721 431.051 81.2436 450.289 71.9559 464.982C59.0365 485.431 43.8675 505.173 29.2061 524.251C-1.31611 563.994 -32.8795 605.106 -45.088 653.93Z" fill="#5E4A2E" fill-opacity="0.5"/>
<path d="M-51.928 675.635L-54.4037 675.806C-58.4261 616.895 -24.8475 562.93 8.52729 517.932L11.178 514.331C20.8765 501.3 30.9046 487.811 37.6523 472.895C45.8565 454.676 47.7411 436.335 42.9285 421.227C36.5844 401.243 19.4633 387.25 2.92495 373.697C-1.27668 370.272 -5.60279 366.736 -9.66516 363.163C-56.8474 321.714 -81.664 262.344 -98.0089 215.258C-98.8412 212.868 -99.6667 210.51 -100.496 208.052C-114.349 167.866 -128.676 126.284 -163.743 104.917L-162.481 102.807C-126.575 124.629 -112.111 166.623 -98.1839 207.252C-97.3483 209.658 -96.5261 212 -95.7 214.442C-79.448 261.242 -54.7934 320.238 -8.05024 361.286C-3.92948 364.813 0.298985 368.368 4.4647 371.784C21.3009 385.547 38.6973 399.805 45.2867 420.485C50.2201 436.18 48.3621 455.142 39.8843 473.928C33.0371 489.101 22.9248 502.676 13.1488 515.824L10.4981 519.426C-22.5791 564.057 -55.8869 617.525 -51.928 675.635Z" fill="#5E4A2E" fill-opacity="0.5"/>
<path d="M-48.1897 603.685L-50.6899 603.574C-49.3893 576.972 -34.7854 553.749 -20.568 531.285C-7.31602 510.31 6.3976 488.611 9.11637 464.279C11.5725 441.799 4.41628 416.808 -11.9639 389.954C-18.8421 378.733 -26.6924 367.9 -34.4166 357.431C-42.1409 346.962 -50.1521 335.924 -57.0964 324.547C-71.3074 301.301 -81.5672 275.576 -91.483 250.696C-94.9295 242.211 -98.4297 233.466 -101.981 224.884C-114.907 194.212 -132.022 159.518 -160.822 134.719L-159.211 132.825C-130.001 157.964 -112.734 192.983 -99.7025 223.922C-96.086 232.49 -92.579 241.268 -89.2756 249.799C-79.3799 274.581 -69.1762 300.199 -55.0706 323.264C-48.1756 334.566 -40.2109 345.46 -32.5029 355.933C-24.7949 366.405 -16.8756 377.326 -9.95146 388.605C6.78021 415.93 13.9984 441.468 11.4706 464.506C8.75205 489.415 -5.11659 511.349 -18.6049 532.577C-32.4945 554.821 -47.0057 577.753 -48.1897 603.685Z" fill="#5E4A2E" fill-opacity="0.5"/>
<path d="M-74.7566 596.953L-76.8666 595.607C-61.9023 572.158 -46.4443 547.893 -35.3539 521.867C-22.9558 492.72 -17.8582 465.114 -20.2224 439.829C-23.8323 401.346 -44.5705 367.264 -64.6209 334.296C-80.4814 308.234 -96.8817 281.282 -105.221 251.869C-106.307 248.004 -107.276 244.047 -108.221 240.204C-110.013 231.956 -112.47 223.867 -115.568 216.015C-118.823 208.458 -126.265 195.08 -139.99 190.397L-139.17 188.039C-124.566 193.033 -116.569 207.128 -113.244 215.027C-110.083 223.003 -107.581 231.226 -105.764 239.612C-104.825 243.422 -103.86 247.363 -102.785 251.179C-94.548 280.257 -78.2267 307.073 -62.4615 333.002C-42.2698 366.161 -21.3832 400.552 -17.7113 439.582C-15.3277 465.372 -20.5244 493.321 -33.0961 522.86C-44.218 549.063 -59.744 573.409 -74.7566 596.953Z" fill="#5E4A2E" fill-opacity="0.5"/>
</svg>
