<svg width="552" height="851" viewBox="0 0 552 851" fill="none" xmlns="http://www.w3.org/2000/svg">
<path d="M335.79 -52.1131C333.412 -49.3212 331.082 -46.4813 328.8 -43.5934C295.731 -1.84195 274.164 47.4865 268.097 95.3047C263.409 131.855 266.695 168.879 269.838 204.662C274.459 257.337 279.242 311.827 257.987 363.774C253.762 374.157 248.304 384.866 243.074 395.163C229.265 422.366 214.989 450.476 219.748 478.152C224.267 504.319 245.286 524.935 282.215 539.45C288.322 541.83 294.697 544.11 300.814 546.264C323.008 554.156 345.975 562.334 362.404 578.717C373.955 590.226 382.158 605.666 390.016 620.532C401.588 642.357 413.554 664.936 436.272 674.673C452.093 681.452 470.506 680.675 488.313 679.917C496.721 679.594 505.338 679.193 513.592 679.625C562.111 682.104 604.079 714.702 618.033 760.712L620.401 759.699C606.203 712.828 563.458 679.639 514.051 677.103C505.774 676.652 497.145 677.019 488.679 677.409C471.082 678.136 452.832 678.912 437.573 672.309C415.523 662.862 404.239 641.607 392.321 619.091C384.344 604.054 376.104 588.514 364.34 576.777C347.523 560.134 324.403 551.825 301.974 543.85C295.846 541.663 289.495 539.402 283.399 537.01C247.174 522.79 226.627 502.67 222.223 477.323C217.603 450.511 231.674 422.809 245.278 396.014C250.531 385.666 255.965 374.961 260.236 364.476C281.739 311.902 276.918 257.099 272.282 204.109C269.175 168.45 265.995 131.54 270.64 95.2791C282.909 -1.82785 358.86 -97.7151 451.279 -132.872L450.702 -135.227C408.336 -119.118 367.905 -89.8304 335.79 -52.1131Z" fill="#5E4A2E" fill-opacity="0.5"/>
<path d="M377.291 -28.1379C343.352 15.9487 301.155 70.8313 292.054 131.072C287.187 163.463 292.108 195.797 296.853 227.072C303.31 269.637 309.436 309.869 293.166 350.494C288.649 361.817 282.3 373.19 276.157 384.201C263.256 407.33 249.92 431.254 252.948 455.733C255.243 474.531 267.784 491.659 289.01 505.368C296.371 510.096 304.262 514.249 311.907 518.263C322.181 523.652 332.82 529.236 342.157 536.251C357.736 547.996 370.112 564.052 382.109 579.574C397.307 599.313 413.014 619.695 435.453 631.384C455.766 641.963 479.795 644.452 503.042 646.857C511.769 647.76 520.776 648.692 529.449 650.04C599.375 660.931 661.358 703.597 695.231 764.184L698.148 762.24C663.857 700.925 601.133 657.72 530.354 646.709C521.61 645.349 512.557 644.423 503.795 643.513C480.828 641.137 457.068 638.691 437.247 628.345C415.349 616.929 399.819 596.768 384.788 577.288C372.708 561.601 360.213 545.398 344.282 533.493C334.779 526.337 324.059 520.707 313.678 515.25C306.081 511.277 298.225 507.131 290.97 502.493C276.647 493.285 258.967 477.584 256.217 454.951C253.365 431.554 265.788 409.275 278.975 385.62C285.129 374.548 291.568 363.021 296.257 351.401C312.889 309.849 306.409 267.288 300.167 226.117C295.46 195.108 290.589 163.026 295.357 131.157C304.271 71.8524 346.158 17.4523 379.81 -26.2731L377.291 -28.1379Z" fill="#5E4A2E" fill-opacity="0.5"/>
<path d="M299.131 398.534C298.843 398.872 298.556 399.209 298.268 399.547C291.676 408.125 289.452 420.003 291.546 435.764C292.985 448.103 296.283 459.896 301.33 470.746C308.294 485.061 319.349 497.941 336.172 511.258C340.378 514.605 344.873 517.755 349.144 520.738C352.004 522.753 354.958 524.824 357.807 526.923C359.902 528.474 362.101 529.856 364.241 531.187C368.26 533.444 371.933 536.226 375.181 539.473C376.15 540.532 377.097 541.64 378.055 542.736C380.977 546.445 384.399 549.694 388.242 552.408C392.945 555.386 400.845 557.356 407.594 553.035C411.773 550.371 415.028 545.546 416.762 539.426C417.601 536.181 418.213 532.909 418.591 529.636C418.826 527.903 419.073 526.085 419.39 524.328C420.224 520.22 421.257 516.13 422.484 512.073C424.453 505.199 426.49 498.102 426.439 491.022C426.31 471.807 411.213 459.424 402.207 453.786C396.328 450.248 390.237 447.04 383.959 444.173C376.602 440.874 369.549 437.02 362.853 432.639C353.33 425.959 345.44 417.249 339.626 406.998C339.137 406.14 338.672 405.277 338.194 404.405C335.366 399.249 332.431 393.908 327.262 390.976C319.142 386.279 306.561 389.807 299.131 398.534ZM409.819 547.939C408.862 549.082 407.742 550.075 406.506 550.874C400.764 554.538 393.893 552.768 389.743 550.144C386.066 547.529 382.79 544.404 379.993 540.843C379.034 539.748 378.075 538.629 377.082 537.55C373.706 534.169 369.891 531.266 365.718 528.903C363.614 527.602 361.45 526.25 359.425 524.736C356.553 522.617 353.587 520.535 350.716 518.534C346.432 515.518 341.996 512.417 337.837 509.111C321.273 495.991 310.351 483.386 303.587 469.312C298.621 458.696 295.372 447.149 293.953 435.063C291.972 420.004 293.947 408.801 300.093 400.891C306.558 392.414 318.416 388.923 325.83 393.136C330.494 395.777 333.286 400.857 335.971 405.775C336.448 406.647 336.925 407.519 337.414 408.378C343.38 418.904 351.48 427.848 361.256 434.705C368.042 439.143 375.188 443.046 382.644 446.385C388.758 449.259 395.025 452.263 400.717 455.919C409.358 461.34 423.853 473.164 423.969 491.32C424.015 498 422.124 504.615 420.121 511.6C418.867 515.746 417.812 519.926 416.96 524.125C416.632 525.942 416.375 527.773 416.14 529.554C415.779 532.7 415.193 535.846 414.388 538.967C413.53 542.19 411.965 545.262 409.819 547.939Z" fill="#5E4A2E" fill-opacity="0.5"/>
<path d="M306.425 405.442C303.423 408.968 301.714 414.294 301.311 421.359C299.7 449.998 309.424 475.353 329.424 494.658C336.106 501.138 343.611 507.13 350.822 512.87C359.599 519.899 368.671 527.154 378.762 532.76C383.167 535.205 389.771 538.123 396.128 535.146C402.486 532.169 405.422 525.186 407.772 518.845C410.811 510.667 414.256 501.414 414.053 492.364C413.675 476.664 402.711 465.493 393.566 458.897C388.893 455.525 383.84 452.576 378.975 449.764C372.605 446.27 366.541 442.292 360.828 437.859C355.425 433.166 350.396 428.053 345.777 422.556C340.708 416.415 335.086 410.789 328.97 405.735C324.989 402.673 317.291 398.125 309.982 402.435C308.649 403.222 307.442 404.242 306.425 405.442ZM399.676 529.499C398.496 530.919 397.033 532.072 395.412 532.859C390.111 535.336 384.221 532.653 380.204 530.493C370.267 524.97 361.253 517.765 352.546 510.797C345.383 505.073 338.031 499.188 331.325 492.735C311.832 473.814 302.302 449.114 303.875 421.165C304.344 412.711 306.772 407.136 311.082 404.606C317.071 401.083 323.875 405.127 327.397 407.845C333.395 412.785 338.925 418.27 343.931 424.247C348.598 429.835 353.69 435.026 359.171 439.781C364.965 444.297 371.124 448.34 377.601 451.879C382.454 454.705 387.471 457.624 392.062 460.949C400.819 467.261 411.321 477.9 411.676 492.671C411.874 501.227 408.53 510.217 405.582 518.169C404.297 522.203 402.292 526.049 399.676 529.499Z" fill="#5E4A2E" fill-opacity="0.5"/>
<path d="M311.209 418.951C309.136 421.683 307.974 424.948 307.927 428.179C307.176 438.421 311.175 447.743 314.271 453.85C322.282 469.707 333.702 482.946 342.758 492.704C344.106 494.154 345.442 495.641 346.767 497.118C354.573 505.765 362.662 514.7 374.209 519.193C379.625 521.286 387.484 522.873 394.187 518.536C398.294 515.632 401.367 511.375 402.78 506.628C406.294 496.268 404.224 484.395 397.283 474.876C391.457 466.912 383.41 461.39 373.094 455.523C371.72 454.749 370.345 453.975 368.959 453.215C361.523 449.053 353.805 444.744 347.505 439.009C344.65 436.392 342.059 433.465 339.457 430.551C335.939 426.323 332.024 422.468 327.754 419.03C325.717 417.506 318.626 412.891 312.709 417.595C312.165 417.99 311.661 418.445 311.209 418.951ZM316.506 452.467C313.53 446.601 309.676 437.683 310.398 428.023C310.598 425.257 311.381 421.519 314.015 419.452C317.598 416.653 322.637 418.472 326.146 421.109C330.303 424.472 334.12 428.234 337.554 432.356C340.144 435.26 342.818 438.281 345.744 440.958C352.233 446.877 360.045 451.219 367.598 455.435L371.722 457.756C381.778 463.473 389.649 468.844 395.25 476.523C401.764 485.446 403.73 496.486 400.487 506.074C399.286 510.188 396.644 513.888 393.099 516.422C387.323 520.173 380.27 518.69 375.369 516.779C364.268 512.48 356.356 503.718 348.704 495.248C347.368 493.761 346.031 492.274 344.672 490.814C335.71 481.16 324.408 468.069 316.529 452.44L316.506 452.467Z" fill="#5E4A2E" fill-opacity="0.5"/>
<path d="M315.859 430.038C313.317 433.024 313.571 437.668 316.584 442.655C329.111 463.429 345.374 481.534 361.036 499.128C365.105 503.663 370.673 508.706 377.716 507.431C383.758 506.329 390.499 500.394 392.122 494.715C394.239 487.453 390.807 480.641 386.932 476.715C383.139 473.218 378.826 470.331 374.111 468.131C373.359 467.748 372.608 467.365 371.868 466.968C355.884 458.443 341.784 447.025 330.154 433.189L329.93 432.998C328.536 431.083 326.759 429.507 324.693 428.355C323.468 427.687 322.023 427.438 320.546 427.642C319.068 427.846 317.624 428.492 316.4 429.497C316.207 429.664 316.026 429.845 315.859 430.038ZM387.122 498.94C384.625 501.933 381.265 504.039 377.662 504.868C371.736 505.952 366.722 501.358 363.008 497.219C347.36 479.776 331.167 461.73 318.736 441.131C317.771 439.541 314.846 434.069 317.984 431.172C318.82 430.549 319.783 430.162 320.758 430.059C321.733 429.955 322.679 430.138 323.484 430.587C325.293 431.635 326.849 433.047 328.073 434.749L328.285 434.93C340.074 448.975 354.378 460.559 370.6 469.198C371.352 469.604 372.103 469.988 372.855 470.394C377.387 472.484 381.537 475.232 385.193 478.566C388.619 482.041 391.655 488.004 389.899 494.221C389.323 495.947 388.372 497.564 387.122 498.94Z" fill="#5E4A2E" fill-opacity="0.5"/>
<path d="M351.512 468.095C351.262 468.39 351.085 468.738 351 469.103C350.864 469.814 350.993 470.516 351.362 471.065L359.18 485.478C361.161 489.145 363.405 493.291 367.043 495.968C371.081 498.939 378.126 498.831 382.137 495.721C383.79 494.425 386.367 491.47 384.891 486.182C383.978 483.075 381.508 480.46 377.47 478.515C376.344 477.976 375.16 477.504 374.011 477.038C372.038 476.332 370.16 475.428 368.401 474.337C367.232 473.526 366.122 472.636 365.078 471.672C364.147 470.88 363.18 470.057 362.213 469.234C359.891 467.286 356.777 466.469 353.552 466.965C352.792 467.089 352.066 467.491 351.512 468.095ZM381.649 492.975C381.393 493.268 381.111 493.536 380.807 493.773C377.721 496.156 371.817 496.187 368.591 493.791C365.318 491.378 363.194 487.45 361.308 483.981L353.49 469.568C353.464 469.543 353.437 469.52 353.408 469.498L353.629 469.43C356.193 469.111 358.648 469.799 360.489 471.355C361.385 472.117 362.269 472.87 363.201 473.663C364.321 474.689 365.505 475.642 366.747 476.518C368.637 477.67 370.643 478.637 372.744 479.409C373.847 479.858 374.984 480.313 376.075 480.823C379.549 482.498 381.675 484.634 382.383 487.17C382.783 488.044 382.926 489.046 382.797 490.069C382.668 491.092 382.271 492.096 381.649 492.975Z" fill="#5E4A2E" fill-opacity="0.5"/>
<path d="M682.632 176.738C671.937 189.136 663.183 203.052 656.754 217.876C647.985 238.372 644.377 260.138 640.854 281.231C637.126 303.687 633.198 326.975 623.144 348.334C605.597 385.659 569.048 417.622 514.62 443.408L508.344 446.361C491.116 454.391 473.297 462.71 460.021 477.18C432.975 506.747 435.874 550.291 452.432 576.242C467.466 599.779 493.891 616.958 533.248 628.718C544.923 632.2 557.034 635.123 568.747 637.963C588.757 642.785 609.446 647.788 628.432 655.747C648.649 664.217 684.069 684.135 694.055 722.365L696.447 721.418C688.849 692.467 665.174 668.333 629.605 653.414C610.467 645.395 589.673 640.396 569.593 635.537C557.972 632.636 545.838 629.788 534.176 626.362C495.288 614.722 469.262 597.86 454.513 574.752C438.444 549.565 435.434 507.441 461.675 478.844C474.548 464.823 492.1 456.627 509.061 448.719L515.36 445.762C570.415 419.671 607.412 387.204 625.302 349.239C635.526 327.535 639.452 304.083 643.248 281.404C646.749 260.456 650.382 238.805 658.969 218.666C674.066 183.264 705.34 151.214 747.029 128.402C784.476 107.921 825.153 96.8526 864.492 86.1369L864.171 83.6966C824.726 94.3926 783.829 105.577 746.092 126.207C720.744 140.024 699.149 157.339 682.632 176.738Z" fill="#5E4A2E" fill-opacity="0.5"/>
<path d="M697.354 219.58C692.406 225.408 687.773 231.495 683.482 237.806C666.129 263.273 653.746 291.714 641.704 319.278L637.31 329.215C622.439 363.157 605.439 398.502 577.185 423.708C567.825 432.051 557.11 439.357 546.743 446.447C527.292 459.738 507.147 473.463 495.607 494.372C481.657 519.615 483.37 551.991 499.96 576.853C512.938 596.309 533.444 611.176 564.49 623.644C575.113 627.885 586.301 631.677 597.067 635.295C611.582 640.17 626.59 645.231 640.598 651.656C669.273 664.785 688.946 682.181 699.04 703.354L701.298 702.014C690.978 680.392 670.974 662.668 641.853 649.322C627.739 642.854 612.685 637.776 598.123 632.885C587.415 629.293 576.298 625.562 565.733 621.23C535.085 608.914 514.897 594.272 502.145 575.194C486.066 551.094 484.318 519.713 497.8 495.331C508.975 475.042 527.94 462.13 547.945 448.378C558.382 441.255 569.2 433.851 578.676 425.42C607.415 399.811 624.482 364.22 639.64 329.941L644.046 319.99C655.986 292.595 668.346 264.251 685.55 239.007C707.214 207.212 734.499 184.815 762.38 175.927L761.942 173.527C739.058 180.821 716.69 196.871 697.354 219.58Z" fill="#5E4A2E" fill-opacity="0.5"/>
<path d="M683.688 273.65C670.459 289.597 658.917 306.839 649.301 325.021C643.687 335.34 638.344 345.984 633.104 356.366C619.651 383.079 605.742 410.71 586.546 434.376C580.167 442.251 573.084 449.805 566.243 457.123C559.09 464.759 551.662 472.672 545.008 480.988C529.194 500.707 520.72 519.519 519.788 536.876C518.899 553.92 525.419 571.026 538.11 585.089C549.782 597.983 564.847 606.798 579.384 614.394C592.136 621.077 605.536 627.333 618.479 633.386C657.729 651.766 698.247 670.687 726.506 703.36L728.445 701.562C699.901 668.553 659.114 649.542 619.722 631.043C606.896 625.019 593.519 618.76 580.85 612.147C566.512 604.604 551.601 595.943 540.141 583.277C527.818 569.666 521.503 553.131 522.341 536.72C523.21 519.938 531.469 501.665 546.892 482.429C553.489 474.204 560.848 466.349 567.943 458.757C574.819 451.422 581.948 443.813 588.396 435.858C607.81 411.934 621.787 384.152 635.309 357.287C640.503 346.983 645.857 336.325 651.46 326.043C676.908 279.272 704.409 249.72 735.529 235.69L734.813 233.403C716.607 241.556 699.677 254.872 683.688 273.65Z" fill="#5E4A2E" fill-opacity="0.5"/>
<path d="M672.32 309.805C655.998 328.974 644.316 350.718 635.461 368.904C631.011 378.07 626.739 387.482 622.603 396.59C613.809 415.969 604.708 436.019 593.407 454.592C589.861 460.428 586 466.252 582.277 471.89C575.405 482.35 568.279 493.107 562.688 504.449C552.625 524.961 549.748 544.553 554.622 559.606C560.479 577.778 575.964 588.511 594.114 599.696L708.919 670.498L710.397 668.285L595.592 597.482C577.806 586.514 562.616 576.008 556.977 558.535C552.31 544.101 555.124 525.201 564.869 505.326C570.611 494.21 577.077 483.424 584.217 473.052C587.951 467.4 591.835 461.549 595.403 455.662C606.796 436.934 615.942 416.806 624.747 397.32C628.883 388.235 633.144 378.837 637.583 369.707C649.42 345.369 666.382 314.606 692.761 292.533C719.14 270.46 752.041 261.813 776.359 270.769L777.45 268.389C752.393 259.155 718.619 267.92 691.385 290.663C684.519 296.479 678.135 302.89 672.32 309.805Z" fill="#5E4A2E" fill-opacity="0.5"/>
<path d="M437.044 -120.288C431.964 -78.6199 407.568 -40.2969 384.009 -3.21911C363.288 29.3548 341.858 63.0017 332.922 99.4548C325.262 130.587 327.128 162.092 328.968 192.456C329.335 198.592 329.715 204.927 330.013 211.145C330.501 221.533 330.771 232.154 331.093 242.354C331.732 266.965 332.392 292.387 336.142 316.758C342.467 357.09 356.55 387.715 378.4 407.617C397.832 425.392 425.345 435.038 455.804 434.728C485.293 434.489 515.227 425.126 541.72 407.854C591.314 375.041 627.255 315.23 635.408 251.923C644.547 181.369 620.601 122.615 598.929 85.7397L596.778 87.24C618.282 123.786 642.082 182.091 632.993 251.894C624.888 314.451 589.543 373.347 540.61 405.767C487.601 440.846 418.636 440.792 380.219 405.624C358.781 386.003 344.798 355.858 338.595 316.003C334.8 291.804 334.199 266.455 333.619 241.871C333.342 231.593 333.108 220.979 332.596 210.548C332.286 204.32 331.906 197.961 331.539 191.824C329.712 161.588 327.792 130.387 335.397 99.5809C344.234 63.6261 365.515 30.1549 386.109 -2.2234C409.864 -39.5544 434.419 -78.1843 439.574 -120.465L437.044 -120.288Z" fill="#5E4A2E" fill-opacity="0.5"/>
<path d="M410.844 -28.2371C382.097 5.89511 360.646 45.3585 348.173 87.0617C330.813 144.513 328.775 208.017 342.038 270.983C351.248 314.399 372.445 370.721 421.13 392.564C461.733 410.812 516.688 400.456 557.814 366.89C596.121 335.608 621.905 284.907 625.107 234.556C628.041 188.125 612.46 140.801 582.304 104.743L580.342 106.521C610.143 142.16 625.553 188.897 622.635 234.736C619.483 284.313 594.12 334.231 556.449 365.006C516.144 398.013 462.213 408.099 422.385 390.23C374.487 368.754 353.6 313.046 344.478 270.147C331.244 207.625 333.309 144.495 350.535 87.4877C369.723 23.9496 409.101 -33.4019 458.557 -69.8735L457.296 -71.8553C440.265 -59.22 424.647 -44.5548 410.844 -28.2371Z" fill="#5E4A2E" fill-opacity="0.5"/>
<path d="M434.378 -39.7088C401.895 -1.55911 377.177 38.1444 360.719 78.7032C337.918 134.879 331.708 192.967 343.229 242.242C355.821 296.133 390.586 339.864 436.289 359.239C454.198 366.863 481.832 374.097 512.392 365.764C545.429 356.79 576.622 329.565 593.653 294.876C609.091 263.491 613.622 226.504 606.419 190.714C600.321 160.383 585.897 130.493 563.567 101.865L561.559 103.603C583.675 131.957 597.955 161.538 603.991 191.536C611.094 226.775 606.649 263.16 591.472 293.999C574.736 327.983 544.317 354.562 512.094 363.344C482.255 371.451 455.088 364.289 437.555 356.845C392.485 337.753 358.147 294.571 345.68 241.369C334.317 192.625 340.441 135.069 363.026 79.4087C383.041 30.0877 415.449 -18.0984 459.16 -63.5602L457.53 -65.204C449.403 -56.79 441.686 -48.2916 434.378 -39.7088Z" fill="#5E4A2E" fill-opacity="0.5"/>
<path d="M419.17 -2.7443C401.213 18.2365 385.971 41.3563 373.91 65.9098C348.572 117.829 340.114 173.399 350.114 222.381C360.613 273.884 392.64 317.034 435.793 337.779C468.548 353.542 505.012 353.869 533.306 338.645C558.807 324.935 579.353 298.107 588.271 266.928C595.745 240.67 595.346 210.857 587.045 180.726C579.623 153.766 567.24 129.503 554.095 104.965L551.908 106.388C564.958 130.822 577.304 154.961 584.654 181.696C592.833 211.374 593.319 240.772 585.852 266.593C577.193 297.061 557.199 323.217 532.383 336.554C504.807 351.388 469.206 351.05 437.073 335.583C394.495 315.094 362.929 272.477 352.509 221.67C342.632 173.235 351.051 118.309 376.034 66.9492C399.335 19.2135 436.084 -24.0658 482.554 -58.5353L481.282 -60.5036C458.565 -43.7582 437.687 -24.3437 419.17 -2.7443Z" fill="#5E4A2E" fill-opacity="0.5"/>
<path d="M333.197 -23.5648C328.366 -17.891 323.737 -11.9524 319.332 -5.79957C294.841 28.5279 279.755 66.7829 275.704 104.878C272.26 137.268 276.284 169.677 280.166 201.01C285.588 244.791 291.215 290.051 275.817 334.284C270.474 349.611 262.651 364.481 255.103 378.863C250.268 388.051 245.285 397.557 240.945 407.144C227.061 437.778 223.724 463.548 230.957 483.662C240.788 510.994 269.149 524.276 289.566 531.844C294.184 533.584 298.94 535.162 303.545 536.752C323.334 543.647 343.816 550.78 358.944 564.822C370.025 575.115 377.869 588.828 385.428 602.088C392.987 615.348 400.844 629.188 412.078 639.636C433.581 659.754 465.11 665.83 493.128 669.15C497.88 669.7 502.662 670.221 507.475 670.713C531.88 673.405 557.137 676.077 578.925 686.046C601.183 696.3 625.963 720.164 622.544 753.671L624.994 753.588C628.515 718.934 603.014 694.34 580.122 683.78C558.076 673.613 532.643 670.909 508.04 668.306C503.251 667.794 498.484 667.278 493.717 666.716C466.014 663.431 434.918 657.468 413.864 637.754C402.888 627.48 395.127 613.861 387.593 600.692C379.997 587.237 372.023 573.461 360.753 562.96C345.318 548.634 324.58 541.491 304.637 534.466C300.044 532.887 295.333 531.207 290.751 529.521C270.674 522.055 242.852 509.047 233.312 482.544C226.308 463.045 229.63 437.937 243.195 407.94C247.478 398.445 252.461 388.986 257.261 379.838C264.878 365.352 272.746 350.38 278.157 334.855C293.77 290.035 288.057 244.423 282.643 200.393C278.762 169.13 274.765 136.93 278.177 104.839C286.394 27.6063 339.988 -47.4683 411.542 -81.9768L410.745 -84.24C381.369 -69.9339 354.801 -49.1469 333.197 -23.5648Z" fill="#5E4A2E" fill-opacity="0.5"/>
<path d="M347.828 -16.0764C303.601 35.866 278.234 103.581 281.01 167.64C281.788 185.567 284.645 203.633 287.39 221.113C293.119 257.49 299.026 295.113 286.162 331.904C280.931 346.86 272.584 361.75 264.499 376.141C249.7 402.548 234.445 429.778 238.772 457.436C242.159 478.772 257.139 496.951 283.311 511.467C290.641 515.539 298.374 519.185 305.872 522.701C319.59 529.158 333.765 535.841 345.652 545.236C359.494 556.178 370.279 570.856 380.753 585.013C391.656 599.815 402.938 615.102 417.705 626.32C444.402 646.595 479.701 651.896 513.855 657.014C523.031 658.393 532.51 659.821 541.643 661.513C573.216 667.416 627.932 684.349 638.234 732.237L640.651 731.382C630.124 682.324 574.575 664.985 542.394 659.03C533.227 657.332 523.712 655.897 514.513 654.521C480.64 649.433 445.609 644.175 419.348 624.223C404.804 613.173 393.617 598.013 382.798 583.329C372.263 569.05 361.373 554.282 347.33 543.169C335.184 533.553 320.927 526.871 307.115 520.358C299.652 516.848 291.943 513.222 284.66 509.19C259.087 494.997 244.463 477.308 241.178 456.688C236.944 429.971 251.332 404.309 266.576 377.14C274.706 362.624 283.122 347.63 288.408 332.395C301.543 294.879 295.574 256.946 289.806 220.258C287.062 202.847 284.23 184.849 283.464 167.05C279.98 86.9869 320.97 1.0915 387.902 -51.7498L386.571 -53.6741C372.497 -42.4942 359.5 -29.8818 347.828 -16.0764Z" fill="#5E4A2E" fill-opacity="0.5"/>
<path d="M313.719 -48.066C285.533 -15.1681 266.107 24.0649 257.719 65.0349C248.72 110.755 254.044 156.968 259.186 201.652C265.936 260.589 272.403 316.349 249.245 372.036C245.165 381.843 240.072 391.884 235.15 401.581C221.568 428.302 207.543 455.927 212.412 483.02C216.902 507.812 236.519 527.327 270.79 541.025C277.519 543.701 284.526 546.17 291.31 548.542C311.089 555.498 331.559 562.669 347.219 576.253C361.499 588.64 371.477 606.08 381.122 622.956C394.08 645.635 407.503 669.082 431.434 679.758C448.057 687.172 467.425 687.231 486.152 687.28C496.074 687.135 505.927 687.519 515.672 688.43C539.353 691.314 561.059 700.584 578.669 715.335C596.279 730.087 609.189 749.814 616.138 772.588L618.505 771.574C604.788 724.95 564.652 691.348 516.272 685.912C506.448 684.991 496.517 684.595 486.517 684.725C468.013 684.679 448.889 684.619 432.701 677.387C409.379 666.974 396.731 644.862 383.354 621.408C373.615 604.381 363.542 586.791 349.014 574.169C333.059 560.334 312.413 553.083 292.435 546.075C285.686 543.709 278.691 541.25 272.008 538.591C238.454 525.199 219.251 506.223 214.933 482.208C210.215 455.964 224.024 428.761 237.389 402.438C242.345 392.677 247.461 382.609 251.587 372.701C275.016 316.337 268.21 257.655 261.721 200.99C256.605 156.492 251.285 110.561 260.228 65.1439C272.742 1.5401 315.347 -59.9841 371.396 -95.4108L370.309 -97.5011C349.229 -84.0989 330.088 -67.378 313.719 -48.066Z" fill="#5E4A2E" fill-opacity="0.5"/>
</svg>
