<svg width="275" height="421" viewBox="0 0 275 421" fill="none" xmlns="http://www.w3.org/2000/svg">
<path d="M222.449 148.102C226.538 164.231 222.241 182.681 217.195 196.631C187.421 278.992 145.798 338.152 96.8727 367.903C39.777 402.648 -29.9619 395.412 -85.1378 348.987L-84.22 345.864C-29.8634 391.687 39.0716 398.786 95.4889 364.468C143.982 334.969 185.252 276.17 214.801 194.471C220.837 177.82 225.839 154.458 215.384 137.969C208.94 127.791 199.772 125.413 190.052 122.879C180.808 120.471 171.234 117.973 163.902 108.203C156.311 98.0887 153.844 83.9737 151.44 70.3096L150.389 64.4109C148.728 55.4308 143.652 34.0617 132.344 29.5817C127.495 27.6477 122.705 29.5238 118.084 31.326L117.159 31.5878C95.4729 39.708 72.0458 41.0387 48.2672 35.5008C24.4886 29.9629 0.84305 17.6693 -21.2669 -0.650778C-25.0905 -3.86434 -28.9437 -7.32982 -32.6643 -10.6767C-45.9301 -22.5429 -59.5141 -34.7877 -73.8045 -38.0853C-95.9713 -43.3194 -114.563 -26.968 -133.223 -8.25429L-134.915 -11.4203C-115.822 -30.5168 -96.8964 -47.1709 -73.8532 -41.7162C-58.9415 -38.1258 -45.0406 -25.7104 -31.5795 -13.6131C-27.8651 -10.2905 -24.0339 -6.84475 -20.2705 -3.66623C1.53688 14.4315 24.8651 26.5758 48.3257 32.0439C71.7863 37.512 94.8998 36.1921 116.291 28.1628L117.2 27.9055C122.127 25.9645 127.23 23.9739 132.746 26.1096C145.653 31.2307 151.25 54.4567 153.039 64.2079C153.413 66.1585 153.763 68.1424 154.102 70.1551C156.394 83.1742 158.755 96.6683 165.621 105.815C172.488 114.963 181.376 116.978 190.232 119.34C199.982 121.788 210.127 124.514 217.312 135.862C219.587 139.486 221.344 143.673 222.449 148.102Z" fill="#5E4A2E" fill-opacity="0.5"/>
<path d="M198.954 159.072C201.165 167.793 201.355 178.387 199.547 191.082C188.466 268.752 145.268 315.497 110.939 341.118C80.9916 363.39 51.1666 375.084 22.4499 375.843C-12.0989 376.794 -46.0727 361.806 -73.4329 333.726L-72.2303 330.782C-45.4829 358.333 -11.955 372.978 22.0047 372.064C50.4158 371.313 79.8739 359.723 109.517 337.667C143.499 312.431 186.253 266.228 197.114 189.714C199.512 172.738 198.233 160.005 193.184 150.812C188.135 141.619 180.78 137.895 172.875 133.754C164.97 129.613 157.425 125.682 151.79 116.603C146.761 108.498 144.627 98.1934 142.573 88.2049C140.269 76.9595 138.078 66.3592 132.065 59.3655C122.784 48.5845 111.453 53.5873 100.508 58.4287C98.9744 59.123 97.3231 59.8246 95.7772 60.4704C71.7571 70.3135 40.9105 62.1986 4.17158 36.3041C-1.4249 32.3686 -7.07933 28.1372 -12.6109 24.0532C-28.8373 11.9053 -45.6139 -0.659568 -62.8304 -6.7999C-84.3586 -14.5057 -110.693 -10.1514 -121.006 16.874L-123.285 14.629C-112.448 -13.7683 -85.0224 -18.4051 -62.6347 -10.3438C-45.0757 -4.06607 -28.153 8.53561 -11.7533 20.8948C-6.30768 24.9771 -0.653249 29.2085 4.89902 33.1044C41.0594 58.5378 71.28 66.5434 94.7124 56.9447C96.2645 56.3233 97.798 55.629 99.3377 54.959C110.388 50.0617 122.904 44.5413 133.396 56.7241C140.228 64.6574 142.657 76.4661 145.004 87.8815C146.951 97.3797 148.977 107.194 153.472 114.539C158.552 122.708 165.687 126.442 173.254 130.393C181.155 134.587 189.461 138.823 195.049 148.931C196.737 152.044 198.061 155.483 198.954 159.072Z" fill="#5E4A2E" fill-opacity="0.5"/>
<path d="M190.869 171.279C192.919 179.591 193.625 188.133 192.926 196.184C191.757 210.859 186.861 223.309 181.755 234.594C154.042 295.753 113.726 337.882 68.2334 353.254C17.6024 370.341 -39.4041 353.514 -84.0962 308.184L-82.9095 305.245C-38.8354 349.891 17.2884 366.473 67.2238 349.609C112.196 334.409 152.076 292.717 179.497 232.161C184.479 221.197 189.241 209.098 190.357 195.088C191.638 179.913 187.912 164.54 180.755 154.72C175.712 147.842 169.497 144.03 162.803 140.014C156.11 135.999 148.954 131.645 143.426 123.733C139.756 117.988 136.624 111.613 134.138 104.832C130.609 96.1721 127.29 87.9998 121.778 83.051C113.589 75.6318 104.441 78.7933 95.5733 81.8493C93.2922 82.4948 90.9832 83.4346 88.7279 84.0467C63.1132 90.9046 34.3453 71.1634 14.8721 55.7168C10.0832 51.8652 5.24767 47.8966 0.554553 44.018C-17.6358 28.9113 -36.4426 13.3283 -56.0494 6.45855C-79.683 -1.79692 -107.679 6.25547 -115.413 37.6537L-117.848 35.8696C-109.706 2.84587 -80.5248 -5.72414 -55.8979 2.87508C-35.8848 9.86414 -16.8666 25.6738 1.49803 40.8613C6.17519 44.7445 11.0071 48.7661 15.7528 52.4477C34.7766 67.6049 62.9465 86.9426 87.7795 80.3059C89.9808 79.683 92.2949 78.898 94.5292 78.1355C103.965 74.8928 113.569 71.5761 122.776 79.905C128.947 85.5002 132.628 94.5595 136.204 103.336C138.549 109.764 141.506 115.811 144.972 121.265C150.044 128.525 156.487 132.43 163.313 136.564C170.14 140.698 176.764 144.707 182.228 152.168C186.142 157.578 189.131 164.191 190.869 171.279Z" fill="#5E4A2E" fill-opacity="0.5"/>
<path d="M178.095 179.294C183.687 201.35 178.612 225.435 162.969 250.923C132.56 300.505 95.3885 331.772 55.5084 341.365C9.10644 352.544 -40.753 333.226 -77.8795 289.686L-76.4974 286.978C-40.0136 329.736 8.98644 348.699 54.6546 337.728C94.0598 328.217 130.802 297.28 160.927 248.195C176.467 222.84 181.257 199.252 175.165 177.988C170.06 160.142 158.121 147.171 145.302 134.371C134.159 123.258 121.546 110.661 108.197 106.29C100.034 103.627 91.8185 104.13 83.8388 104.617C78.4216 105.105 72.9308 105.129 67.3937 104.689C45.6259 102.31 24.0333 85.7188 3.72663 68.7378L0.72729 66.2803C-18.2713 50.4131 -37.9085 34.0497 -58.3595 28.7726C-77.848 23.7178 -101.948 31.2924 -108.795 59.9146L-111.24 58.1593C-104 27.9161 -78.7634 19.8374 -58.3603 25.1281C-37.4355 30.4534 -17.5551 47.0343 1.72225 63.0569L4.73392 65.5631C24.7126 82.1943 45.9946 98.639 67.1805 100.949C72.6279 101.395 78.0296 101.379 83.358 100.9C91.4716 100.401 99.8686 99.873 108.374 102.673C122.275 107.2 135.166 120.083 146.543 131.443C159.794 144.667 172.095 158.056 177.579 177.123L178.095 179.294Z" fill="#5E4A2E" fill-opacity="0.5"/>
<path d="M156.747 173.985C160.99 190.721 156.719 207.186 153.1 218.129C143.479 246.871 129.287 271.14 111.464 289.329C93.6407 307.518 72.5932 319.212 49.7149 323.637C26.752 327.658 2.53839 324.307 -21.3235 313.803C-45.1854 303.299 -68.1516 285.883 -88.7021 262.707L-87.3484 259.954C-67.1162 282.778 -44.5042 299.93 -21.0096 310.273C2.4849 320.616 26.3259 323.916 48.9347 319.952C71.4787 315.608 92.2198 304.098 109.783 286.184C127.347 268.269 141.331 244.361 150.81 216.043C154.237 205.623 158.323 190.044 154.412 174.619L154.301 174.182C149.036 154.221 132.783 143.252 123.59 138.616C108.089 130.61 91.9363 126.981 76.2833 123.366C59.1683 119.514 41.4813 115.563 24.4703 105.85C13.1129 99.3534 2.16807 90.371 -8.4353 81.6564C-12.5978 78.2523 -16.915 74.7098 -21.1769 71.386C-33.9747 61.3659 -50.9088 49.7307 -67.6309 48.7093C-81.5314 47.8266 -97.9751 56.3328 -103.003 77.2288L-105.506 75.5159C-100.773 55.9529 -86.1422 44.0028 -68.0392 45.076C-50.6837 46.1004 -33.4719 58.0215 -20.345 68.2609C-16.0771 71.609 -11.7598 75.1515 -7.47336 78.5725C3.01945 87.1882 13.8979 96.1114 25.0307 102.463C41.7408 112.001 59.224 115.957 76.2347 119.735C91.987 123.269 108.264 126.916 124.037 135.053C133.86 140.083 150.973 151.746 156.698 173.452L156.747 173.985Z" fill="#5E4A2E" fill-opacity="0.5"/>
<path d="M127.865 182.522C130.396 192.976 130.836 203.72 129.129 213.404C127.05 225.838 122.044 237.381 113.362 249.731C87.9676 285.616 52.2244 303.648 13.2181 300.25C-25.8314 296.392 -65.1762 271.381 -97.0188 230.174L-95.5078 227.638C-64.1948 268.181 -25.4988 292.8 12.9117 296.614C51.2875 299.972 86.4557 282.243 111.441 246.942C119.84 234.959 124.668 223.857 126.669 211.992C129.184 196.962 126.571 180.519 119.845 169.093C109.937 152.267 94.5191 149.106 79.6029 146.038C75.6698 145.224 71.5968 144.399 67.7359 143.33C48.0346 137.841 28.8839 123.397 10.4751 109.654L9.56746 108.973C-6.88873 96.5258 -27.5586 81.0794 -47.8875 76.4186C-64.9129 72.5152 -86.8062 76.6539 -97.186 99.9754L-99.4955 97.6091C-88.6123 73.1038 -65.7877 68.7276 -48.022 72.786C-27.2389 77.5526 -6.41793 93.1905 10.3047 105.745L11.2061 106.401C29.4591 120.136 48.3383 134.319 67.643 139.66C71.4499 140.717 75.4911 141.552 79.3861 142.351C94.8583 145.522 110.855 148.805 121.506 166.879C124.293 171.583 126.46 176.913 127.865 182.522Z" fill="#5E4A2E" fill-opacity="0.5"/>
<path d="M90.2542 192.904C93.2718 204.806 90.4315 218.419 86.2964 227.867C69.6544 266.004 34.5843 285.196 -5.21257 277.922C-36.8143 272.155 -71.1924 251.19 -110.373 213.777L-109.234 210.851C-70.4957 247.869 -36.4689 268.595 -5.37903 274.298C33.5782 281.497 67.8142 262.724 84.0373 225.565C88.8804 214.458 91.8844 197.311 84.4535 185.668C80.9864 180.219 75.9984 177.335 71.5961 174.805L3.33699 135.442C-13.2995 125.857 -30.4935 115.961 -47.7799 111.299C-61.1893 107.7 -80.4674 105.97 -96.1382 118.266L-97.6631 114.949C-81.422 102.205 -61.5743 103.956 -47.7647 107.65C-30.2181 112.395 -12.8816 122.38 3.90349 132.079L72.1601 171.366C76.6606 173.945 82.1865 177.198 86.2042 183.402C88.0033 186.195 89.3912 189.451 90.2542 192.904Z" fill="#5E4A2E" fill-opacity="0.5"/>
<path d="M49.451 201.691C49.6358 202.419 49.8267 203.172 50.0176 203.925C52.5466 217.138 47.5295 228.502 41.4271 233.9C34.834 239.723 26.5541 240.712 18.6392 241.051C-28.609 242.286 -77.7726 217.96 -119.565 172.667L-118.277 169.856C-77.0582 214.548 -28.5636 238.563 18.0469 237.366C25.6745 237.108 33.579 236.121 39.7489 230.652C45.2001 225.855 49.671 215.843 47.481 204.305C45.1197 191.956 36.0342 182.89 29.4187 177.16C-7.1938 145.755 -48.1 132.793 -85.7223 140.676L-86.5343 137C-48.3206 129.004 -6.77417 142.172 30.4126 174.068C37.1387 179.896 46.2241 188.962 49.451 201.691Z" fill="#5E4A2E" fill-opacity="0.5"/>
<path d="M-1.51982 185.135C1.30683 196.285 -3.27766 206.928 -9.39252 210.793C-15.8214 214.903 -23.6971 213.644 -30.5374 211.882C-57.1903 205.002 -83.1467 187.719 -108.199 171.17L-107.503 167.849C-82.5962 184.361 -56.8449 201.442 -30.5922 208.227C-24.0981 209.904 -16.6802 211.111 -10.8082 207.367C-5.57293 204.011 -1.60429 195.052 -3.95675 185.773L-4.00603 185.578C-6.06289 177.465 -12.323 171.114 -22.3961 166.649C-43.7209 157.266 -65.3618 154.561 -85.7609 158.729L-86.573 155.053C-65.8094 150.812 -43.7818 153.568 -22.0765 163.122C-11.0015 168.033 -4.11942 175.353 -1.62563 184.853L-1.51982 185.135Z" fill="#5E4A2E" fill-opacity="0.5"/>
</svg>
