<svg width="1407" height="1680" viewBox="0 0 1407 1680" fill="none" xmlns="http://www.w3.org/2000/svg">
<path d="M1492 955.679C1490.94 950.583 1489.78 945.488 1488.54 940.393C1470.63 866.663 1435.26 797.009 1388.91 744.285C1353.53 703.934 1311.16 671.073 1270.24 639.28C1210.01 592.473 1147.7 544.056 1109.26 472.157C1101.56 457.808 1094.51 441.913 1087.72 426.647C1069.77 386.325 1051.22 344.651 1017.68 322.383C985.952 301.348 946.776 302.186 901.22 324.842C893.708 328.611 886.086 332.742 878.809 336.739C852.321 351.167 824.898 366.088 793.989 366.479C772.268 366.765 749.05 359.875 726.727 353.2C693.928 343.437 659.999 333.33 631.108 346.48C610.989 355.641 596.868 374.761 583.219 393.257C576.736 401.957 570.167 410.941 563.001 418.751C520.936 464.714 451.899 474.746 391.231 443.752L390.395 447.103C452.183 478.693 522.486 468.463 565.331 421.67C572.538 413.856 579.153 404.893 585.61 396.07C599.123 377.813 613.112 358.857 632.586 350.086C660.624 337.319 692.579 346.812 726.401 356.904C749.003 363.627 772.358 370.579 794.496 370.304C826 369.779 853.687 354.833 880.454 340.252C887.777 336.276 895.359 332.149 902.875 328.405C947.543 306.161 985.804 305.311 1016.56 325.66C1049.06 347.223 1067.33 388.295 1085.02 428.015C1091.85 443.353 1098.91 459.221 1106.68 473.713C1145.59 546.473 1208.27 595.157 1268.85 642.256C1309.61 673.965 1351.77 706.82 1386.87 746.846C1481.03 853.864 1522.16 1023.2 1484.79 1149.67L1487.79 1151.39C1504.92 1093.42 1506.36 1024.52 1492 955.679Z" fill="#5E4A2E" fill-opacity="0.5"/>
<path d="M1432.59 973.662C1412.88 896.786 1388.3 801.138 1331.1 733.263C1300.33 696.794 1261.66 670.141 1224.27 644.345C1173.39 609.238 1125.28 576.077 1094.93 520.198C1086.46 504.642 1079.42 487.211 1072.6 470.338C1058.28 434.896 1043.46 398.246 1014.75 377.372C992.734 361.312 964.184 357.1 932.245 364.885C921.197 367.611 910.335 371.426 899.823 375.132C885.699 380.117 871.072 385.276 855.966 387.74C830.72 391.811 803.453 388.481 777.066 385.292C743.558 381.181 708.946 376.95 678.189 387.917C650.348 397.847 628.163 419.38 606.704 440.215C598.648 448.035 590.333 456.107 581.843 463.44C513.374 522.541 417.285 542.704 324.81 517.345L324.526 522.151C418.12 547.805 515.389 527.427 584.68 467.593C593.241 460.202 601.586 452.078 609.678 444.229C630.878 423.646 652.799 402.339 679.99 392.673C710.016 381.978 744.246 386.171 777.342 390.196C803.973 393.461 831.495 396.817 857.198 392.551C872.589 390.06 887.332 384.864 901.614 379.839C912.044 376.141 922.871 372.355 933.735 369.646C955.242 364.351 986.436 362.045 1012.94 381.396C1040.34 401.389 1054.14 435.522 1068.79 471.762C1075.67 488.705 1082.8 506.378 1091.45 522.396C1122.49 579.539 1173.39 614.62 1222.61 648.581C1259.68 674.155 1298.03 700.612 1328.33 736.474C1384.68 803.249 1408.99 898.117 1428.54 974.354L1432.59 973.662Z" fill="#5E4A2E" fill-opacity="0.5"/>
<path d="M1038.58 479.255C1038.45 478.638 1038.32 478.022 1038.19 477.405C1034.35 462.458 1023.42 448.648 1004.82 435.351C990.42 424.743 975.096 416.521 959.364 410.963C938.358 403.935 915.57 402.387 887.628 406.164C880.623 407.092 873.594 408.5 866.926 409.847C862.444 410.733 857.824 411.656 853.26 412.449C849.895 413.025 846.627 413.868 843.461 414.702C837.777 416.508 831.811 417.455 825.692 417.524C823.77 417.458 821.812 417.32 819.859 417.206C813.51 416.499 807.245 416.74 801.215 417.924C794.202 419.707 785.674 425.661 784.825 436.609C784.287 443.377 786.817 451.332 791.971 459.034C794.769 463.039 797.781 466.843 800.983 470.414C802.65 472.341 804.399 474.36 806.025 476.392C809.753 481.233 813.3 486.256 816.652 491.439C822.424 500.113 828.379 509.071 836.012 515.93C856.72 534.557 882.259 531.59 895.618 528.112C904.187 525.702 912.573 522.761 920.747 519.299C930.259 515.182 940.12 511.911 950.256 509.509C965.152 506.533 980.899 507.167 996.612 511.374C997.93 511.725 999.233 512.102 1000.56 512.478C1008.38 514.691 1016.49 516.977 1023.83 514.684C1035.46 511.172 1041.9 495.183 1038.58 479.255ZM788.483 443.802C788.034 441.732 787.879 439.646 788.026 437.633C788.761 428.331 796.239 423.208 802.424 421.63C808.213 420.515 814.224 420.299 820.315 420.985C822.268 421.099 824.246 421.235 826.209 421.297C832.577 421.231 838.788 420.26 844.711 418.405C847.816 417.577 851.022 416.739 854.29 416.198C858.895 415.401 863.536 414.476 868.013 413.566C874.727 412.239 881.654 410.841 888.577 409.921C916.097 406.209 938.484 407.621 959.068 414.614C974.484 420.023 989.504 428.054 1003.62 438.435C1021.37 451.16 1031.78 464.065 1035.27 477.914C1039.11 492.635 1033.22 507.867 1022.68 511.148C1016.06 513.22 1008.35 511.047 1000.89 508.924C999.57 508.548 998.247 508.173 996.93 507.822C980.798 503.497 964.63 502.844 949.337 505.9C939.068 508.335 929.078 511.652 919.442 515.828C911.395 519.119 903.084 522.437 894.542 524.544C881.711 527.87 857.26 530.782 837.698 513.177C830.498 506.703 824.941 498.361 819.078 489.544C815.652 484.247 812.027 479.115 808.217 474.168C806.534 472.067 804.78 470.023 803.062 468.05C799.981 464.619 797.084 460.964 794.392 457.116C791.633 453.114 789.609 448.554 788.483 443.802Z" fill="#5E4A2E" fill-opacity="0.5"/>
<path d="M1025.25 479.787C1023.91 473.352 1019.58 466.45 1012.33 459.15C982.936 429.591 947.852 414.54 910.909 415.64C898.533 415.979 886.013 417.614 874.002 419.201C859.337 421.094 844.189 423.059 829.983 427.649C823.784 429.656 815.291 433.393 813.32 442.638C811.348 451.883 816.451 461.628 821.342 470.161C827.643 481.173 834.765 493.641 844.635 502.271C861.775 517.218 882.658 517.19 897.158 514.508C904.569 513.139 911.835 510.979 918.801 508.873C927.721 505.93 936.911 503.766 946.304 502.396C955.724 501.588 965.291 501.564 974.936 502.324C985.638 503.263 996.237 503.149 1006.62 501.983C1013.14 501.002 1024.27 497.765 1025.58 486.269C1025.82 484.172 1025.71 481.973 1025.25 479.787ZM816.494 451.689C815.929 449.125 815.881 446.541 816.354 444.156C818.004 436.452 825.664 433.197 831.242 431.3C845.235 426.781 860.281 424.826 874.824 422.945C886.78 421.389 899.061 419.801 911.426 419.413C947.546 418.443 981.77 433.049 1010.46 461.897C1019.14 470.617 1023.15 478.48 1022.36 485.247C1021.28 494.658 1011.41 497.496 1005.64 498.355C995.47 499.515 985.098 499.674 974.623 498.833C964.841 498.032 955.139 498.043 945.589 498.868C936.042 500.238 926.705 502.434 917.649 505.438C910.678 507.519 903.472 509.673 896.179 511.005C882.299 513.577 862.362 513.665 846.235 499.602C836.901 491.447 829.977 479.338 823.846 468.636C820.564 463.418 818.068 457.665 816.494 451.689Z" fill="#5E4A2E" fill-opacity="0.5"/>
<path d="M1006.88 471.372C1005.63 466.638 1003.07 462.293 999.648 459.091C989.276 448.346 976.033 443.235 966.971 440.362C943.461 432.871 919.992 431.338 902.174 430.844C899.524 430.773 896.844 430.654 894.185 430.533C878.573 429.877 862.422 429.222 848.227 436.351C841.585 439.709 833.499 445.997 832.706 456.914C832.483 463.845 834.553 471.064 838.495 477.107C846.749 490.723 861.161 500.248 877.005 502.618C890.276 504.582 902.733 501.946 917.401 497.387C919.347 496.771 921.293 496.156 923.234 495.516C933.737 492.163 944.625 488.673 955.891 487.988C961.016 487.695 966.259 487.969 971.497 488.218C978.887 488.837 986.201 488.696 993.355 487.794C996.644 487.25 1007.35 484.682 1007.11 474.192C1007.13 473.263 1007.05 472.317 1006.88 471.372ZM966.638 443.94C975.345 446.697 988.037 451.559 997.809 461.708C1000.61 464.607 1003.98 469.036 1004.06 473.681C1004.15 479.986 998.109 483.235 992.431 484.16C985.45 485.024 978.315 485.157 971.107 484.558C965.889 484.307 960.478 484.024 955.232 484.329C943.615 485.023 932.615 488.574 921.96 491.992L916.122 493.838C901.824 498.286 889.673 500.892 876.89 498.982C862.032 496.768 848.598 487.954 840.951 475.361C837.515 470.147 835.693 463.902 835.856 457.893C836.525 448.472 843.845 442.886 849.873 439.865C863.499 432.991 879.319 433.653 894.616 434.29C897.296 434.408 899.976 434.527 902.645 434.596C920.275 435.083 943.49 436.591 966.649 443.99L966.638 443.94Z" fill="#5E4A2E" fill-opacity="0.5"/>
<path d="M991.211 465.188C990.074 459.739 984.888 455.46 977.094 453.596C944.645 445.811 912.023 444.356 880.438 442.801C872.271 442.432 862.342 443.064 857.989 451.331C854.263 458.432 855.152 470.947 859.923 478.108C865.99 487.307 876.081 490.534 883.438 490.503C890.269 490.133 896.868 488.65 903.055 486.095C904.076 485.719 905.097 485.344 906.124 484.994C928.247 477.376 951.941 474.46 976.222 476.368L976.608 476.331C979.795 476.81 982.928 476.576 985.84 475.641C987.552 475.071 988.992 473.873 989.973 472.2C990.955 470.528 991.435 468.458 991.351 466.256C991.329 465.901 991.282 465.544 991.211 465.188ZM859.454 468.998C858.273 463.587 858.744 458.181 860.781 453.778C864.43 446.811 873.429 446.295 880.884 446.632C912.296 448.053 944.796 449.519 976.98 457.229C979.468 457.819 987.711 460.243 988.269 466.201C988.258 467.643 987.89 468.98 987.209 470.054C986.528 471.127 985.563 471.892 984.429 472.256C981.836 473.037 979.059 473.211 976.239 472.77L975.873 472.805C951.238 470.851 927.2 473.809 904.763 481.553C903.716 481.906 902.695 482.281 901.649 482.634C895.727 485.114 889.409 486.57 882.866 486.961C876.357 486.986 867.498 484.193 862.258 476.374C860.874 474.115 859.914 471.587 859.454 468.998Z" fill="#5E4A2E" fill-opacity="0.5"/>
<path d="M921.45 463.593C921.336 463.055 921.107 462.539 920.785 462.097C920.133 461.268 919.275 460.712 918.387 460.543L896.584 454.271C891.043 452.668 884.774 450.858 878.95 451.873C872.484 453 866.878 460.131 866.955 467.166C867.003 470.079 868.078 475.534 874.946 479.223C879.019 481.345 883.829 481.434 889.194 479.307C890.687 478.71 892.155 477.99 893.587 477.298C895.947 476.021 898.442 475.031 901.04 474.341C902.859 473.967 904.714 473.729 906.596 473.628C908.202 473.473 909.87 473.313 911.537 473.152C915.512 472.738 918.917 470.429 921.005 466.73C921.489 465.85 921.647 464.734 921.45 463.593ZM870.296 469.359C870.189 468.819 870.132 468.276 870.124 467.741C870.076 462.338 874.837 456.42 880.026 455.542C885.271 454.634 891.209 456.349 896.46 457.855L918.263 464.127C918.311 464.125 918.359 464.121 918.405 464.113L918.299 464.4C916.559 467.268 913.827 469.044 910.664 469.362C909.118 469.511 907.593 469.659 905.987 469.814C903.977 469.929 901.993 470.179 900.044 470.563C897.275 471.323 894.608 472.38 892.074 473.722C890.697 474.383 889.286 475.072 887.853 475.663C883.235 477.492 879.218 477.528 875.924 475.758C874.662 475.304 873.471 474.468 872.48 473.341C871.488 472.214 870.733 470.837 870.296 469.359Z" fill="#5E4A2E" fill-opacity="0.5"/>
<path d="M1463.49 925.229C1461.33 914.874 1458.73 904.461 1455.71 894.062C1438.79 836.133 1410.03 783.75 1372.47 742.527C1340.54 707.477 1302.52 679.856 1265.77 653.144C1214.42 615.818 1161.32 577.252 1126.4 518.721C1114.31 498.433 1104.72 476.118 1095.43 454.553C1089.5 440.763 1083.36 426.516 1076.6 412.831C1055.03 369.085 1030.11 340.602 1002.67 328.184C965.378 311.308 928.102 326.626 903.405 339.599C897.789 342.505 892.233 345.707 886.79 348.748C863.324 361.752 839.04 375.213 811.698 376.594C791.661 377.596 770.587 372.034 750.23 366.629C729.874 361.223 708.652 355.549 688.325 356.555C649.289 358.36 617.168 383.87 590.852 408.569C586.404 412.771 581.961 417.032 577.524 421.35C554.816 443.06 531.439 465.639 503.053 477.634C473.982 489.821 428.269 491.239 395.117 455.125L393.217 457.647C427.515 494.984 474.596 493.56 504.51 481.04C533.318 468.978 556.873 446.257 579.646 424.264C584.085 419.987 588.509 415.737 592.984 411.533C619.006 387.114 650.655 361.926 688.893 360.172C708.823 359.255 729.73 364.809 749.969 370.15C770.565 375.708 791.812 381.204 812.225 380.215C840.122 378.806 864.623 365.098 888.353 352.068C893.777 349.029 899.403 345.971 904.934 343.048C929.245 330.314 965.789 315.268 1001.95 331.623C1028.55 343.67 1052.77 371.491 1073.92 414.297C1080.62 427.836 1086.72 442.038 1092.63 455.754C1101.97 477.489 1111.64 499.949 1123.89 520.498C1159.27 579.815 1212.81 618.639 1264.42 656.217C1301.09 682.861 1338.87 710.305 1370.5 745.031C1446.64 828.61 1483.61 955.333 1462.5 1060.37L1465.57 1061.78C1474.09 1018.53 1473.38 971.743 1463.49 925.229Z" fill="#5E4A2E" fill-opacity="0.5"/>
<path d="M1443.59 932.507C1423.81 837.704 1371.81 746.312 1300.87 686.554C1281.01 669.832 1259.32 655.048 1238.35 640.722C1194.69 610.929 1149.55 580.096 1120.55 531.358C1108.77 511.543 1099.58 488.686 1090.72 466.577C1074.42 426.044 1057.61 384.252 1024.44 361.571C998.817 344.124 967.157 341.318 930.337 353.247C920.017 356.582 909.827 360.734 899.967 364.78C881.903 372.157 863.225 379.769 843.497 382.453C820.521 385.575 796.025 382.003 772.337 378.63C747.612 375.055 722.058 371.383 698.036 375.16C654.613 381.991 620.26 412.018 587.034 441.081C578.103 448.885 568.873 456.944 559.641 464.4C527.668 490.122 465.073 528.156 405.358 491.688L404.314 494.933C465.464 532.319 529.172 493.851 561.693 467.572C570.96 460.088 580.226 452 589.172 444.17C622.139 415.358 656.228 385.558 698.95 378.845C722.61 375.128 747.951 378.769 772.483 382.313C796.349 385.745 821.028 389.299 844.35 386.143C864.525 383.417 883.269 375.722 901.47 368.307C911.295 364.29 921.444 360.142 931.682 356.814C967.67 345.167 998.515 347.85 1023.29 364.701C1055.38 386.556 1071.21 425.951 1087.96 467.673C1096.92 489.948 1106.16 512.976 1118.2 533.119C1147.76 582.835 1193.28 613.907 1237.3 643.967C1258.2 658.225 1279.8 672.967 1299.51 689.578C1388.18 764.251 1446.99 888.966 1449.29 1007.29L1452.43 1007.84C1451.88 982.892 1448.91 957.621 1443.59 932.507Z" fill="#5E4A2E" fill-opacity="0.5"/>
<path d="M1505.59 929.719C1493.21 869.501 1466.92 811.835 1429.8 763.481C1388.09 709.881 1334.21 670.082 1282.12 631.595C1213.45 580.799 1148.41 532.821 1107.51 455.375C1100.3 441.733 1093.67 426.853 1087.27 412.48C1069.65 372.855 1051.42 331.905 1018.42 310.314C988.19 290.594 951.332 291.108 908.812 311.912C900.478 316.011 892.139 320.589 884.085 325.038C860.563 337.972 836.249 351.386 808.965 353.742C784.085 355.891 757.282 348.819 731.354 341.964C696.512 332.75 660.47 323.25 629.586 336.693C608.135 346.032 592.342 365.289 577.081 383.915C569.177 393.951 560.763 403.401 551.871 412.23C529.547 433.03 501.977 445.627 471.858 448.789C441.739 451.951 410.102 445.57 380.039 430.27L379.203 433.62C440.336 465.45 508.962 458.224 554.085 415.286C563.05 406.389 571.541 396.872 579.523 386.773C594.602 368.366 610.197 349.354 631.1 340.27C661.206 327.178 695.188 336.148 731.2 345.702C757.367 352.609 784.41 359.733 809.742 357.566C837.534 355.16 862.077 341.65 885.817 328.568C893.836 324.147 902.154 319.572 910.432 315.503C952.044 295.114 987.986 294.487 1017.24 313.622C1049.21 334.533 1067.17 374.855 1084.54 413.876C1090.98 428.346 1097.62 443.274 1104.89 457.06C1146.3 535.439 1214.74 585.93 1280.77 634.769C1332.64 673.101 1386.21 712.628 1427.64 765.877C1485.68 840.438 1517.04 942.976 1509.51 1033.45L1512.63 1034.4C1515.38 1000.3 1513 964.892 1505.59 929.719Z" fill="#5E4A2E" fill-opacity="0.5"/>
<path d="M1538.7 737.125C1501.27 685.532 1455.25 643.339 1404.53 614.094C1353.8 584.849 1299.84 569.406 1247.2 569.065C1245.12 569.064 1240.55 569.103 1238.73 572.825C1238.31 573.65 1238.06 574.602 1238 575.619C1237.93 576.635 1238.06 577.692 1238.36 578.721C1239.62 583.177 1243.86 587.471 1247.39 589.998C1259.8 598.861 1272.55 607.692 1284.88 616.262C1315.3 637.321 1346.75 659.112 1375.99 684.009C1423.3 724.341 1457.8 767.921 1478.72 813.516C1513.02 888.48 1513.21 975.314 1513.37 1045.1L1516.53 1045.72C1516.4 975.484 1516.16 888.102 1481.45 812.221C1460.3 765.995 1425.27 721.887 1377.53 681.144C1348.13 656.086 1316.6 634.203 1286.12 613.149C1273.77 604.481 1261.04 595.648 1248.65 586.783C1245.85 584.765 1242.23 581.24 1241.31 577.958C1241.14 577.426 1241.07 576.876 1241.1 576.347C1241.13 575.818 1241.26 575.323 1241.48 574.898C1242.45 572.944 1245.04 572.643 1247.71 572.637C1352.14 572.168 1462.78 635.968 1536.41 739.157L1538.7 737.125Z" fill="#5E4A2E" fill-opacity="0.5"/>
<path d="M1526.31 735.503C1477.16 671.419 1415.14 623.136 1348.23 596.868C1336.06 592.131 1328.16 592.718 1324.05 598.673C1319.94 604.629 1321.62 614.401 1325 620.866C1328.74 628.051 1334.62 633.47 1339.35 637.843C1345.76 643.79 1352.19 649.683 1358.74 655.616C1399.2 692.459 1441.07 730.675 1469.23 780.551C1506.24 846.224 1515.19 923.736 1523.09 992.143L1526.2 992.245C1518.26 923.415 1509.26 845.48 1471.74 778.875C1443.22 728.254 1401.12 689.909 1360.4 652.815C1353.9 646.903 1347.42 641.013 1341.01 635.067C1336.54 630.921 1330.97 625.774 1327.61 619.332C1324.82 613.993 1323.3 606.04 1326.61 601.294C1329.91 596.548 1336.86 596.154 1347.72 600.388C1414 626.416 1475.44 674.235 1524.14 737.7L1526.31 735.503Z" fill="#5E4A2E" fill-opacity="0.5"/>
<path d="M1523.73 742.821C1493.83 708.462 1461.29 677.537 1426.73 650.616C1421.58 646.586 1416.49 642.901 1410.98 641.924C1405.47 640.947 1398.74 643.684 1397.6 650.761C1396.46 657.838 1401.31 665.167 1406.73 671.787C1482.73 764.958 1529.32 883.866 1536.48 1002.95L1539.63 1003.3C1532.41 883.24 1485.44 763.357 1408.81 669.423C1404.09 663.667 1399.83 657.563 1400.69 651.971C1401.47 646.866 1406.57 644.739 1411.02 645.516C1415.83 646.386 1420.53 649.806 1425.31 653.545C1459.67 680.298 1492 711.041 1521.72 745.204L1523.73 742.821Z" fill="#5E4A2E" fill-opacity="0.5"/>
</svg>
