<svg width="941" height="1367" viewBox="0 0 941 1367" fill="none" xmlns="http://www.w3.org/2000/svg">
<path d="M103.275 732.383C117.838 692.97 137.953 656.235 162.606 624.027C192.151 585.952 227.326 555.088 265.716 533.555C304.106 512.021 344.802 500.329 385.009 499.279C399.616 499.008 414.255 500.154 428.413 501.254C446.276 502.665 464.756 504.128 483.173 502.655C505.559 500.888 547.099 492.284 573.797 454.569C598.985 418.883 601.984 370.926 604.861 324.476C607.889 275.102 611.027 224.037 641.15 187.87C677.129 144.559 732.801 148.381 769.086 174.568C798.76 195.944 820.279 229.639 841.078 262.218C846.127 270.058 851.257 278.161 856.434 285.926C878.158 318.531 912.628 362.579 959.485 367.901C978.714 370.083 998.968 365.644 1018.55 361.359C1028.69 359.132 1039.15 356.835 1049.43 355.459C1067.42 353.042 1111.22 351.399 1129.42 388.009C1138.97 407.059 1138.65 431.233 1138.4 454.57C1137.94 467.781 1138.35 480.877 1139.62 493.733C1142.12 512.102 1148.36 528.86 1157.8 542.563C1167.25 556.266 1179.61 566.505 1193.84 572.398C1208.23 577.829 1223.97 578.706 1239.69 574.956C1255.41 571.205 1270.65 562.938 1284.09 550.867L1286.13 554.443C1272.14 566.976 1256.3 575.556 1239.95 579.446C1223.6 583.336 1207.24 582.42 1192.27 576.778C1177.46 570.682 1164.58 560.062 1154.74 545.832C1144.89 531.602 1138.38 514.188 1135.76 495.09C1134.44 482.003 1134.02 468.669 1134.48 455.215C1134.8 431.423 1135.09 408.974 1126.07 390.83C1108.82 356.148 1066.69 357.817 1049.35 360.146C1039.19 361.499 1028.78 363.766 1018.71 365.97C998.88 370.331 978.369 374.766 958.557 372.546C910.439 367.083 875.417 322.322 853.273 289.134C848.07 281.332 842.88 273.23 837.873 265.382C817.233 233.073 795.924 199.67 766.753 178.655C732.514 154.032 677.72 149.987 643.546 191.009C614.609 225.753 611.668 273.606 608.558 324.274C605.626 371.569 602.726 420.384 576.47 457.338C548.692 496.57 505.881 505.489 482.836 507.315C464.179 508.791 445.579 507.329 427.63 505.933C413.549 504.84 398.988 503.701 384.578 503.977C344.907 504.763 304.709 516.192 266.811 537.458C228.913 558.725 194.235 589.313 165.217 627.071C136.199 664.829 113.545 708.84 98.8495 756.008C84.1538 803.177 77.7731 852.356 80.1562 900.088L76.3 901.041C73.6691 844.813 82.9483 786.796 103.275 732.383Z" fill="#5E4A2E" fill-opacity="0.5"/>
<path d="M215.292 825.534C216.989 820.961 218.764 816.413 220.617 811.887C247.362 746.387 288.552 689.306 336.613 651.186C373.321 621.99 414.908 601.738 455.082 582.125C514.219 553.248 575.394 523.378 619.57 464.956C628.412 453.306 636.929 440.014 645.129 427.254C666.794 393.553 689.178 358.72 721.527 346.252C752.122 334.486 785.794 345.47 821.628 378.874C827.532 384.413 833.475 390.326 839.142 396.022C859.785 416.638 881.158 437.966 907.766 446.376C926.463 452.295 947.55 451.776 967.831 451.229C997.625 450.467 1028.45 449.672 1051.36 469.698C1067.31 483.646 1076.57 505.511 1085.51 526.661C1089.77 536.624 1094.06 546.882 1099.05 556.176C1128.3 610.85 1186.33 638.347 1243.42 624.63L1243.63 628.035C1185.48 642.029 1126.39 614.015 1096.59 558.348C1091.57 549.039 1087.24 538.79 1083.02 528.715C1074.15 507.83 1064.99 486.154 1049.53 472.744C1027.3 453.306 998.272 454.03 967.546 454.839C947.016 455.359 925.801 455.902 906.742 449.883C879.642 441.193 858.044 419.771 837.184 398.937C831.475 393.249 825.566 387.351 819.654 381.834C784.523 349.053 751.643 338.296 721.992 349.662C690.648 361.73 668.59 396.059 647.25 429.257C639.009 442.076 630.483 455.339 621.557 467.108C576.844 526.226 515.311 556.254 455.827 585.319C415.806 604.893 374.4 625.195 337.979 654.153C240.351 731.503 178.93 881.937 191.794 1012L188.947 1012.86C183.042 953.245 192.359 887.305 215.292 825.534Z" fill="#5E4A2E" fill-opacity="0.5"/>
<path d="M263.796 858.093C292.574 790.066 328.428 705.442 388.175 655.729C420.315 629.029 457.758 613.721 493.966 598.897C543.245 578.721 589.836 559.677 624.576 514.396C634.268 501.796 643.01 487.04 651.477 472.757C669.261 442.756 687.663 411.735 715.627 399.337C737.085 389.78 762.363 393.196 788.726 408.909C797.84 414.376 806.628 420.83 815.129 427.09C826.551 435.505 838.38 444.218 851.036 450.49C872.194 460.928 896.23 464.85 919.484 468.677C949.023 473.478 979.533 478.451 1004.39 496.884C1026.89 513.572 1042.73 539.831 1058.05 565.236C1063.81 574.772 1069.74 584.614 1075.95 593.8C1125.97 667.84 1205.78 712.012 1289.45 711.926L1288.96 716.574C1204.28 716.648 1123.48 671.966 1072.86 597.014C1066.61 587.756 1060.65 577.855 1054.87 568.282C1039.74 543.184 1024.09 517.21 1002.11 500.941C977.84 482.957 947.666 478.046 918.495 473.271C895.018 469.454 870.759 465.491 849.236 454.748C836.339 448.375 824.415 439.598 812.863 431.103C804.431 424.872 795.67 418.454 786.711 413.052C768.967 402.421 742.406 392.116 716.578 403.638C689.873 415.537 672.739 444.429 654.546 475.102C646.02 489.438 637.162 504.401 627.244 517.393C591.707 563.696 542.419 583.842 494.757 603.361C458.855 618.057 421.71 633.259 390.077 659.505C331.233 708.393 295.727 792.345 267.181 859.804L263.796 858.093Z" fill="#5E4A2E" fill-opacity="0.5"/>
<path d="M216.538 549.457C284.386 500.698 360.569 478.096 433.723 485.021C438.278 485.456 442.894 485.993 447.502 486.551C473.486 489.673 500.37 492.836 524.755 477.753C558.08 457.187 578.281 408.938 584.763 334.341L585.466 326.335C589.852 274.536 594.921 215.642 628.181 176.922C666.369 132.485 722.772 137.018 759.033 160.055C791.236 180.515 815.471 214.29 838.883 246.957C843.596 253.56 848.484 260.388 853.342 266.974C878.978 301.637 914.295 342.333 960.423 349.242C979.482 352.043 999.614 349.111 1019.11 346.223C1028.44 344.834 1038.08 343.369 1047.53 342.692C1073.17 340.566 1107.71 343.843 1126.63 371.477C1141.15 392.822 1142.99 422.54 1144.72 451.371C1146 472.48 1147.32 494.323 1153.58 512.953C1161.91 537.73 1180.57 555.813 1204.81 562.574C1229.04 569.336 1254.54 563.524 1274.82 546.687L1276.2 549.507C1255.21 566.917 1228.82 572.922 1203.82 565.971C1178.83 559.02 1159.62 540.326 1150.92 514.606C1144.5 495.551 1143.17 473.451 1141.88 452.129C1140.08 422.506 1138.41 394.52 1124.35 373.978C1106.07 347.298 1072.41 344.158 1047.37 346.227C1037.99 347.006 1028.36 348.427 1019.08 349.807C999.414 352.705 979.069 355.728 959.709 352.827C912.756 345.78 877.005 304.648 851.155 269.488C846.279 262.894 841.375 256.059 836.696 249.471C813.424 217.015 789.372 183.444 757.541 163.215C722.111 140.727 667.164 136.185 630.18 179.309C597.837 216.954 592.849 275.039 588.48 326.257L587.794 334.271C581.18 410.294 560.362 459.615 525.952 480.853C500.761 496.393 473.447 493.154 446.949 489.973C442.349 489.443 437.758 488.892 433.229 488.442C360.696 481.575 285.16 503.968 217.876 552.284L216.538 549.457Z" fill="#5E4A2E" fill-opacity="0.5"/>
<path d="M632.298 231.814C636.752 219.808 643.157 208.77 651.082 199.442C659.007 190.113 668.269 182.71 678.246 177.728C702.098 166.331 730.053 169.504 754.98 186.46C763.959 192.559 815.546 236.866 815.883 261.313C815.963 263.061 815.676 264.864 815.048 266.558C814.419 268.251 813.469 269.779 812.285 271.003C810.522 272.635 808.487 273.703 806.399 274.092C804.312 274.482 802.251 274.177 800.441 273.212C797.635 271.703 795.088 269.657 792.884 267.141L791.718 265.993C769.616 244.056 735.969 241.1 709.821 258.95C703.75 263.315 697.891 268.171 692.288 273.48C686.651 278.828 680.762 283.73 674.663 288.15C662.717 296.368 646.079 301.465 635.166 291.142C626.932 283.359 623.927 267.814 627.295 249.577C628.436 243.534 630.114 237.576 632.298 231.814ZM812.458 265.713C812.903 264.472 813.111 263.158 813.065 261.88C812.779 240.569 764.712 197.34 753.404 189.635C729.169 173.171 702.063 170.018 678.992 181.025C667.071 186.943 656.255 196.457 647.664 208.582C639.072 220.707 633.018 235.002 630.128 249.987C627.013 266.899 629.647 281.243 637.236 288.247C647.148 297.62 663.031 292.414 673.638 285.121C679.618 280.791 685.392 275.985 690.917 270.741C696.628 265.322 702.604 260.368 708.796 255.92C735.986 237.354 770.961 240.325 793.84 263.12L795.006 264.319C797.017 266.608 799.332 268.48 801.878 269.877C804.327 270.892 808.041 271.285 810.728 268.442C811.481 267.683 812.097 266.74 812.526 265.69L812.458 265.713Z" fill="#5E4A2E" fill-opacity="0.5"/>
<path d="M650.423 228.609C651.898 224.683 653.74 220.929 655.907 217.429C667.605 198.41 687.705 185.864 708.387 184.666C725.74 183.645 743.873 190.173 760.821 203.536C761.22 203.855 801.037 237.789 800.585 251.389C800.585 252.15 800.429 252.924 800.131 253.642C799.833 254.361 799.402 255.001 798.877 255.506L798.016 256.323L797.193 255.701C794.097 253.318 791.051 250.803 788.187 248.389C779.204 240.96 770.725 233.944 760.327 229.63C745.222 223.363 729.366 224.316 716.841 232.217C710.764 236.402 705.024 241.391 699.742 247.081C695.89 251.076 691.881 254.826 687.732 258.311C678.034 266.21 663.363 272.174 653.967 263.017C651.481 260.425 649.605 257.079 648.488 253.243C647.37 249.407 647.041 245.186 647.527 240.914C647.942 236.734 648.921 232.576 650.423 228.609ZM759.053 206.531C742.547 193.529 724.957 187.15 708.168 188.15C688.419 189.301 669.26 201.241 658.164 219.284C654.018 225.688 651.323 233.173 650.395 240.853C649.989 244.577 650.278 248.254 651.241 251.604C652.203 254.954 653.815 257.89 655.952 260.189C663.712 267.749 676.831 263.286 686.403 255.512C690.457 252.1 694.376 248.433 698.143 244.528C703.588 238.636 709.513 233.474 715.791 229.152C729.062 220.794 745.739 219.773 761.559 226.311C772.267 230.754 781.276 238.22 789.998 245.439C792.507 247.526 795.118 249.657 797.73 251.736C798.047 242.038 766.799 212.681 759.062 206.56L759.053 206.531Z" fill="#5E4A2E" fill-opacity="0.5"/>
<path d="M660.111 225.508C662.427 219.268 667.66 213.32 674.957 208.995C690.025 199.927 703.065 200.231 719.866 201.61L720.56 201.669C724.162 201.937 728.655 202.27 729.429 205.706C730.142 208.555 727.563 211.698 726.731 212.706C724.68 214.526 722.361 215.771 719.971 216.335C718.657 216.741 717.362 217.289 716.1 217.971C712.693 220.299 709.462 223.052 706.466 226.179C705.016 227.62 703.584 229.119 702.16 230.596C698.487 234.62 694.597 238.324 690.524 241.675C685.728 245.43 678.472 249.645 671.13 248.463C663.788 247.281 658.583 240.397 658.755 232.375C658.819 230.058 659.28 227.719 660.111 225.508ZM675.94 212.083C672.639 214.059 661.852 221.353 661.619 232.006C661.49 238.463 665.903 243.996 671.854 245.01C678.32 246.033 684.837 242.201 689.203 238.804C693.136 235.583 696.894 232.02 700.442 228.147C701.891 226.655 703.332 225.134 704.808 223.678C707.98 220.373 711.398 217.459 714.999 214.987C716.456 214.186 717.954 213.542 719.474 213.065C721.335 212.593 723.154 211.711 724.837 210.464C726.324 208.656 726.743 207.527 726.642 207.103C726.311 205.689 721.878 205.356 720 205.215L719.288 205.149C702.942 203.831 690.27 203.552 675.915 212.15L675.94 212.083Z" fill="#5E4A2E" fill-opacity="0.5"/>
<path d="M672.545 223.747C673.421 221.318 674.942 219.235 676.837 217.869C679.005 216.424 681.44 215.985 683.637 216.645C685.834 217.305 687.624 219.011 688.636 221.411C689.115 222.626 689.379 223.976 689.412 225.385C689.445 226.794 689.248 228.235 688.83 229.624C688.412 231.013 687.783 232.324 686.977 233.481C686.172 234.639 685.207 235.62 684.137 236.37C683.067 237.12 681.913 237.623 680.74 237.85C679.568 238.078 678.401 238.026 677.306 237.697C676.21 237.368 675.207 236.769 674.355 235.933C673.503 235.098 672.817 234.043 672.338 232.828C671.413 230.365 671.382 227.424 672.251 224.647L672.545 223.747ZM686.019 223.261C685.528 222.016 684.723 221.026 683.706 220.417C682.689 219.808 681.505 219.607 680.304 219.84C679.102 220.073 677.938 220.728 676.958 221.725C675.979 222.721 675.227 224.012 674.799 225.436C674.371 226.859 674.285 228.351 674.553 229.721C674.821 231.092 675.43 232.281 676.304 233.136C677.177 233.992 678.276 234.477 679.461 234.529C680.646 234.582 681.863 234.199 682.96 233.43C684.373 232.335 685.468 230.689 686.034 228.81C686.599 226.931 686.594 224.953 686.019 223.261Z" fill="#5E4A2E" fill-opacity="0.5"/>
<path d="M244.55 803.969C248 794.677 251.845 785.447 256.042 776.337C279.51 725.613 312.352 683.247 351.069 653.787C383.989 628.738 421.02 612.341 456.818 596.478C506.836 574.311 558.556 551.421 597.651 504.807C611.193 488.646 622.886 469.906 634.204 451.801C641.429 440.22 648.914 428.261 656.837 416.995C682.149 380.977 708.013 360.355 733.59 355.673C768.348 349.311 798.162 373.579 817.483 392.345C821.884 396.571 826.186 401.062 830.417 405.371C848.671 423.847 867.56 442.97 890.939 451.393C908.072 457.558 927.106 457.744 945.497 457.894C963.889 458.044 983.067 458.163 1000.45 464.405C1033.85 476.272 1057.66 508.899 1076.58 539.244C1079.77 544.399 1082.95 549.608 1086.12 554.871C1102.39 581.433 1119.1 608.997 1141.75 627.792C1164.97 646.947 1204.19 660.183 1238.32 634.438L1239.58 637.333C1204.27 663.943 1163.86 650.345 1139.97 630.654C1116.97 611.686 1100.12 583.941 1083.84 557.092C1080.67 551.868 1077.5 546.674 1074.29 541.509C1055.58 511.507 1032.13 479.31 999.406 467.699C982.352 461.644 963.464 461.493 945.183 461.313C926.562 461.246 907.389 460.951 889.929 454.702C866.077 446.108 847.037 426.693 828.559 408.124C824.346 403.822 819.96 399.449 815.636 395.23C796.612 376.792 767.387 352.972 733.679 359.131C708.888 363.679 683.727 383.853 658.926 419.087C651.069 430.228 643.636 442.157 636.435 453.671C625.042 471.924 613.265 490.782 599.547 507.151C559.939 554.395 507.793 577.415 457.512 599.754C421.791 615.571 384.998 631.864 352.382 656.681C273.891 716.414 222.584 827.384 224.712 932.822L221.842 933.368C221.118 889.99 228.898 845.659 244.55 803.969Z" fill="#5E4A2E" fill-opacity="0.5"/>
<path d="M260.613 816.073C292.195 731.004 351.061 657.563 421.42 619.145C441.111 608.396 462.09 599.968 482.379 591.79C524.608 574.792 568.275 557.19 600.762 518.353C613.967 502.563 625.393 483.202 636.427 464.469C656.695 430.137 677.597 394.74 709.69 381.783C734.473 371.844 762.217 377.407 792.158 398.332C800.55 404.188 808.706 410.789 816.593 417.202C831.048 428.919 845.997 441.02 862.607 448.703C881.951 457.648 903.633 460.618 924.587 463.567C946.467 466.594 969.077 469.746 989.223 479.586C1025.64 497.377 1050.68 534.881 1074.9 571.176C1081.41 580.923 1088.13 590.992 1094.96 600.487C1118.6 633.277 1166.78 685.744 1223.89 666.569L1224.29 669.929C1165.81 689.604 1116.73 636.434 1092.7 602.972C1085.85 593.441 1079.1 583.336 1072.58 573.559C1048.55 537.571 1023.7 500.35 987.871 482.854C968.026 473.165 945.605 470.041 923.897 467.034C902.781 464.094 880.943 461.06 861.306 451.993C844.317 444.152 829.323 431.957 814.756 420.168C806.895 413.791 798.774 407.204 790.45 401.376C761.185 380.936 734.162 375.468 710.204 385.06C679.174 397.514 659.482 430.885 638.639 466.229C627.496 485.095 615.995 504.605 602.52 520.64C569.403 560.262 525.37 577.993 482.783 595.15C462.571 603.283 441.677 611.695 422.131 622.377C334.186 670.374 264.344 773.756 244.238 885.748L241.441 885.456C245.743 861.862 252.174 838.587 260.613 816.073Z" fill="#5E4A2E" fill-opacity="0.5"/>
<path d="M207.546 797.298C227.453 743.216 258.968 695.18 298.397 658.819C342.597 618.663 395.175 594.801 446.01 571.722C513.043 541.244 576.507 512.502 623.658 449.443C631.96 438.334 639.96 425.9 647.683 413.887C668.955 380.763 690.955 346.537 722.737 334.574C751.839 323.67 783.561 333.742 817.059 364.595C823.622 370.662 830.115 377.186 836.382 383.514C854.695 401.938 873.618 421.024 896.797 430.36C917.933 438.874 942.141 439.114 965.561 439.333C997.033 439.625 1029.58 439.957 1054.17 460.779C1071.25 475.243 1081.92 497.673 1092.24 519.366C1097.52 530.97 1103.33 542.151 1109.65 552.864C1125.73 578.461 1147.58 597.616 1173.08 608.456C1198.59 619.297 1226.86 621.451 1255.14 614.709L1255.35 618.115C1197.73 632.507 1139.63 607.787 1107.27 555.196C1100.9 544.399 1095.03 533.136 1089.69 521.45C1079.5 500.014 1068.96 477.868 1052.32 463.789C1028.35 443.503 997.655 443.202 965.121 442.93C941.487 442.698 917.065 442.446 895.541 433.797C871.931 424.281 852.826 405.044 834.347 386.423C828.106 380.131 821.63 373.615 815.111 367.591C782.333 337.369 751.419 327.428 723.246 338.028C692.459 349.612 670.794 383.313 649.831 415.927C642.058 428.021 634.042 440.5 625.655 451.727C577.925 515.542 511.137 545.789 446.689 575.093C396.067 598.081 343.794 621.764 299.89 661.66C238.398 717.518 195.631 806.933 188.275 894.981L185.433 895.078C188.284 861.913 195.763 828.839 207.546 797.298Z" fill="#5E4A2E" fill-opacity="0.5"/>
<path d="M677.403 316.787C678.979 312.771 681.048 309.009 683.53 305.644C705.295 274.997 742.393 262.278 769.865 276.025C772.973 277.57 776.069 279.468 779.078 281.278C787.952 286.696 797.154 292.301 807.243 289.568C809.905 288.732 812.535 287.637 815.105 286.294C819.111 284.003 823.345 282.63 827.571 282.249C837.084 282.085 843.689 291.362 848.365 299.456C849.334 301.134 850.609 303.221 852.052 305.607C860.334 319.103 874.166 341.718 872.364 355.039C872.058 357.421 871.262 359.748 870.051 361.798C868.841 363.848 867.257 365.553 865.45 366.75C856.77 372.978 841.967 371.739 835.598 368.151C827.448 363.57 821.158 355.802 815.112 348.29C812.378 344.934 809.591 341.454 806.646 338.343C779.864 309.767 735.153 306.866 700.358 331.443C694.234 335.771 686.688 341.091 680.657 337.287C678.598 335.734 677.053 333.396 676.223 330.576C675.394 327.756 675.317 324.582 676.004 321.466C676.337 319.872 676.806 318.303 677.403 316.787ZM868.899 357.942C869.266 356.945 869.523 355.909 869.663 354.864C871.272 342.918 857.31 320.12 849.801 307.864C848.315 305.435 847.022 303.341 846.123 301.691C841.772 294.167 835.734 285.559 827.403 285.703C823.548 286.096 819.693 287.383 816.046 289.493C813.317 290.918 810.52 292.065 807.69 292.92C796.604 295.98 787.012 290.085 777.715 284.415C774.757 282.626 771.687 280.765 768.674 279.233C742.307 266.047 706.666 278.272 685.772 307.698C682.595 311.747 680.252 316.616 678.981 321.808C678.16 326.165 678.851 331.967 682.38 334.095C687.078 337.091 693.549 332.525 699.249 328.481C735.17 303.121 781.185 306.102 808.805 335.638C811.784 338.815 814.641 342.324 817.376 345.731C823.316 353.046 829.432 360.64 837.184 365.005C842.896 368.218 856.644 369.403 864.376 363.853C866.335 362.551 867.931 360.482 868.866 358.031L868.899 357.942Z" fill="#5E4A2E" fill-opacity="0.5"/>
<path d="M818.037 304.182C818.245 303.617 818.494 303.071 818.782 302.55C821.406 297.894 826.487 296.913 829.91 298.359C833.126 300.042 835.821 302.769 837.735 306.278L839.21 308.524C845.178 317.587 856.262 334.417 852.361 344.926L852.287 345.125C850.27 350.237 847.536 351.758 845.597 352.103C837.656 353.608 828.703 339.399 826.757 335.528C823.791 329.615 821.18 323.414 818.942 316.966C817.69 313.587 816.378 308.651 818.037 304.182ZM849.783 343.83C852.953 335.29 841.711 318.243 836.884 310.929L835.383 308.647C833.742 305.593 831.436 303.196 828.678 301.677C826.229 300.661 822.737 301.332 821.07 304.266C819.213 307.555 820.459 312.183 821.572 315.351C823.749 321.625 826.289 327.66 829.173 333.415C832.02 339.039 839.974 349.667 845.414 348.631C846.362 348.361 847.262 347.774 848.009 346.94C848.756 346.105 849.319 345.058 849.63 343.92L849.783 343.83Z" fill="#5E4A2E" fill-opacity="0.5"/>
</svg>
