<svg width="671" height="1086" viewBox="0 0 671 1086" fill="none" xmlns="http://www.w3.org/2000/svg">
<path d="M-67.6072 -103.013C-27.9274 -97.702 10.6061 -86.397 46.0537 -69.6675C88.0538 -49.5008 124.76 -22.2476 153.651 10.221C182.542 42.6896 202.934 79.6043 213.426 118.43C217.137 132.561 219.553 147.039 221.897 161.041C224.833 178.711 227.867 196.994 233.586 214.555C240.515 235.908 258.267 274.336 299.262 291.817C338.034 308.286 382.826 300.447 426.205 292.828C472.308 284.699 519.991 276.298 560.373 297.453C608.711 322.696 618.391 377.64 602.918 418.763C590.301 452.385 564.428 480.845 539.41 508.356C533.4 515.02 527.168 521.821 521.257 528.591C496.434 557.007 464.114 600.371 470.325 647.087C472.876 666.257 481.756 684.939 490.335 703C494.785 712.352 499.376 722.003 503.078 731.683C509.562 748.62 521.45 790.796 492.113 816.693C476.864 830.236 454.567 835.347 433.058 840.34C420.804 842.853 408.863 846.186 397.348 850.307C381.055 856.852 367.13 866.671 356.772 878.919C346.414 891.166 339.933 905.475 337.886 920.614C336.305 935.816 339.228 951.301 346.401 965.735C353.575 980.17 364.785 993.121 379.066 1003.47L376.261 1006.25C361.427 995.474 349.785 982.002 342.335 966.991C334.885 951.981 331.849 935.881 333.489 920.074C335.583 904.323 342.293 889.428 353.04 876.673C363.788 863.918 378.251 853.685 395.184 846.855C406.903 842.645 419.059 839.241 431.535 836.675C453.48 831.648 474.185 826.901 488.725 814.066C516.516 789.529 504.998 748.973 498.749 732.648C495.099 723.087 490.547 713.479 486.134 704.188C477.427 685.904 468.49 666.972 465.836 647.227C459.454 599.254 492.3 555.194 517.559 526.239C523.497 519.435 529.715 512.576 535.742 505.953C560.55 478.656 586.205 450.465 598.608 417.413C613.128 378.628 603.862 324.488 558.056 300.486C519.262 280.162 474.578 288.035 427.267 296.374C383.099 304.129 337.541 312.257 297.35 295.035C254.705 276.844 236.362 237.252 229.222 215.273C223.444 197.478 220.38 179.08 217.41 161.33C215.078 147.405 212.675 133.003 209.006 119.065C198.882 80.7009 178.851 44.2101 150.322 12.1595C121.793 -19.891 85.4588 -46.7228 43.8748 -66.4485C2.29092 -86.1742 -43.5326 -98.3146 -90.3722 -102.016C-137.212 -105.717 -183.93 -100.889 -227.241 -87.872L-229.031 -91.4047C-177.969 -106.568 -122.44 -110.561 -67.6072 -103.013Z" fill="#5E4A2E" fill-opacity="0.5"/>
<path d="M-126.686 26.6983C-122.081 27.3222 -117.479 28.0268 -112.881 28.8118C-46.3346 40.1089 15.8957 67.3277 62.3247 105.472C97.8605 134.589 126.331 170.45 153.88 205.083C194.438 256.06 236.391 308.797 300.561 338.615C313.366 344.593 327.602 349.887 341.274 354.992C377.386 368.484 414.709 382.421 433.836 411.052C451.901 438.138 449.784 473.313 427.57 515.617C423.878 522.594 419.851 529.694 415.958 536.476C401.9 561.154 387.36 586.701 385.935 614.436C384.924 633.927 390.399 654.297 395.708 673.879C403.468 702.653 411.503 732.417 398.525 759.167C389.485 777.795 371.579 791.688 354.258 805.119C346.109 811.492 337.697 817.961 330.335 824.889C287.011 865.566 275.486 928.105 301.624 980.493L298.543 981.459C271.9 928.106 283.649 864.419 327.756 822.988C335.123 816.023 343.518 809.515 351.778 803.156C368.876 789.864 386.629 776.099 395.292 758.075C407.89 732.115 400.347 704.081 392.322 674.411C386.979 654.582 381.453 634.092 382.468 614.228C384.035 585.951 398.607 560.165 412.815 535.228C416.69 528.406 420.712 521.343 424.382 514.362C446.189 472.882 448.285 438.527 430.811 412.269C412.291 384.523 375.508 370.791 339.935 357.503C326.199 352.37 311.987 347.061 299.054 341.028C234.117 310.844 191.933 257.796 151.12 206.523C123.644 172.03 95.17 136.356 59.9213 107.465C-34.315 29.9605 -187.15 4.01837 -303.656 45.6783L-305.123 43.1056C-251.722 24.0016 -188.901 18.2687 -126.686 26.6983Z" fill="#5E4A2E" fill-opacity="0.5"/>
<path d="M-145.121 81.1218C-75.7702 93.827 10.5125 109.686 70.3681 156.586C102.527 181.824 125.471 214.767 147.678 246.621C177.901 289.972 206.447 330.966 256.302 354.564C270.181 361.155 285.817 366.339 300.952 371.362C332.743 381.913 365.619 392.836 383.641 417.224C397.511 435.927 400.362 461.251 392.166 490.387C389.3 500.467 385.45 510.451 381.711 520.114C376.682 533.098 371.476 546.543 368.71 560.245C364.129 583.141 366.22 607.371 368.213 630.821C370.8 660.595 373.458 691.351 362.405 719.633C352.397 745.233 332.014 766.511 312.293 787.094C304.891 794.821 297.251 802.796 290.276 810.88C234.072 876.077 212.383 963.522 232.289 1044.79L227.901 1045.35C207.766 963.102 229.69 874.586 286.591 808.605C293.62 800.454 301.31 792.448 308.739 784.687C328.222 764.352 348.389 743.325 358.135 718.325C368.915 690.717 366.279 660.3 363.756 630.89C361.701 607.226 359.595 582.77 364.37 559.451C367.171 545.493 372.414 531.94 377.485 518.812C381.214 509.223 385.037 499.273 387.88 489.357C393.447 469.736 396.625 441.621 379.913 419.112C362.647 395.835 332.03 385.667 299.523 374.87C284.326 369.801 268.472 364.55 254.18 357.828C203.197 333.684 172.998 290.317 143.761 248.389C121.745 216.805 98.9693 184.127 67.3477 159.279C8.46468 113.073 -77.1175 97.4019 -145.891 84.7936L-145.121 81.1218Z" fill="#5E4A2E" fill-opacity="0.5"/>
<path d="M127.38 -33.9908C188.277 20.9917 227.107 89.9376 238.076 162.56C238.756 167.083 239.357 171.688 239.935 176.29C243.224 202.234 246.687 229.062 266.33 249.37C293.131 277.135 342.269 285.942 412.375 275.514L419.901 274.402C468.554 267.049 523.89 258.769 567.364 282.399C617.26 309.536 626.459 365.349 613.876 405.743C602.701 441.616 577.398 472.733 552.918 502.803C547.966 508.862 542.848 515.141 537.945 521.338C512.158 554.016 483.119 597.451 487.699 643.815C489.641 662.959 497.107 681.86 504.383 700.156C507.87 708.91 511.501 717.945 514.361 726.969C522.393 751.406 527.566 785.699 506.646 810.269C490.467 829.164 463.587 837.617 437.496 845.765C418.396 851.739 398.631 857.922 382.989 868.177C362.188 881.828 349.988 904.01 349.516 929.07C349.044 954.13 360.429 977.6 380.711 993.528L378.447 995.501C357.469 979.013 345.696 954.723 346.161 928.877C346.627 903.031 359.258 880.179 380.839 865.961C396.833 855.453 416.833 849.209 436.124 843.168C462.928 834.779 488.258 826.883 503.807 808.614C524.001 784.88 518.911 751.476 511.075 727.608C508.135 718.667 504.549 709.638 501.079 700.924C493.756 682.472 486.156 663.384 484.235 643.925C479.586 596.729 508.923 552.774 535.116 519.777C540.021 513.562 545.142 507.264 550.089 501.242C574.408 471.356 599.567 440.462 610.618 405.002C622.893 365.539 614.048 311.138 565.643 284.877C523.375 261.896 468.801 270.073 420.686 277.313L413.158 278.442C341.709 289.063 291.44 279.896 263.763 251.228C243.509 230.239 240.014 202.977 236.659 176.52C236.056 171.933 235.475 167.349 234.815 162.848C223.938 90.8412 185.455 22.4772 125.098 -32.0568L127.38 -33.9908Z" fill="#5E4A2E" fill-opacity="0.5"/>
<path d="M517.882 298.706C529.974 300.342 541.638 304.09 552.09 309.698C562.543 315.305 571.543 322.643 578.487 331.219C594.616 351.837 598.323 379.707 588.645 407.726C585.166 417.816 556.664 477.868 534.272 483.676C532.684 484.147 530.958 484.272 529.253 484.041C527.548 483.81 525.917 483.23 524.512 482.354C522.594 481.007 521.13 479.269 520.277 477.328C519.425 475.387 519.216 473.318 519.674 471.342C520.397 468.278 521.674 465.345 523.465 462.64L524.243 461.25C539.17 434.858 533.914 401.506 511.31 380.105C505.859 375.187 500.006 370.583 493.799 366.33C487.547 362.053 481.645 357.43 476.137 352.496C465.752 342.733 457.124 327.712 464.028 314.795C469.23 305.05 482.807 298.646 500.369 297.829C506.194 297.583 512.068 297.877 517.882 298.706ZM529.416 481.336C530.662 481.49 531.919 481.398 533.083 481.066C552.604 476.009 580.95 419.619 585.352 406.906C594.743 379.67 591.218 352.629 575.633 332.684C567.368 322.429 556.06 314.054 542.879 308.426C529.698 302.798 515.123 300.121 500.664 300.673C484.38 301.439 471.819 307.214 467.179 316.157C460.913 327.889 469.462 342.151 478.679 350.822C484.077 355.66 489.862 360.192 495.992 364.384C502.327 368.717 508.296 373.412 513.852 378.431C537.361 400.684 542.919 435.328 527.387 462.666L526.561 464.069C524.934 466.535 523.761 469.204 523.081 471.991C522.728 474.597 523.247 478.294 526.497 480.267C527.373 480.828 528.386 481.215 529.453 481.397L529.416 481.336Z" fill="#5E4A2E" fill-opacity="0.5"/>
<path d="M525.123 315.597C529.082 316.149 532.969 317.097 536.7 318.418C556.955 325.518 573.25 342.232 579.252 362.057C584.303 378.687 582.6 397.767 574.332 417.228C574.133 417.687 552.377 463.979 539.769 466.589C539.069 466.76 538.321 466.782 537.59 466.653C536.859 466.525 536.168 466.25 535.58 465.853L534.624 465.2L535.001 464.26C536.458 460.719 538.048 457.195 539.588 453.871C544.288 443.479 548.728 433.668 550.229 422.599C552.411 406.519 547.777 391.329 537.546 380.932C532.26 375.966 526.313 371.509 519.832 367.652C515.247 364.806 510.85 361.751 506.663 358.503C497.103 350.852 488.144 337.936 494.336 326.754C496.129 323.758 498.76 321.185 502.021 319.24C505.282 317.294 509.084 316.028 513.126 315.542C517.067 315.008 521.121 315.026 525.123 315.597ZM571.161 416.182C579.2 397.231 580.896 378.711 575.998 362.625C570.26 343.697 554.744 327.761 535.529 321.026C528.661 318.435 521.142 317.494 513.862 318.315C510.343 318.755 507.032 319.86 504.18 321.547C501.329 323.233 499.012 325.457 497.405 328.049C492.295 337.283 499.507 349.028 508.92 356.584C513.017 359.757 517.317 362.742 521.799 365.526C528.506 369.496 534.655 374.094 540.115 379.224C550.943 390.243 555.833 406.216 553.572 423.052C552.026 434.451 547.298 444.877 542.729 454.97C541.405 457.875 540.065 460.89 538.773 463.893C547.763 462.026 567.343 425.086 571.136 416.197L571.161 416.182Z" fill="#5E4A2E" fill-opacity="0.5"/>
<path d="M530.27 324.313C536.554 325.165 543.262 328.915 548.967 335.034C560.873 347.639 563.684 360.377 566.397 377.008L566.508 377.696C567.115 381.255 567.874 385.695 564.899 387.217C562.449 388.549 558.949 386.748 557.825 386.165C555.666 384.581 553.972 382.607 552.887 380.412C552.202 379.227 551.392 378.091 550.466 377.018C547.518 374.23 544.222 371.708 540.638 369.499C538.97 368.413 537.253 367.357 535.557 366.305C530.989 363.64 526.661 360.691 522.616 357.486C518.028 353.667 512.434 347.563 511.781 340.165C511.128 332.768 516.222 326.167 523.637 324.536C525.781 324.078 528.041 324.002 530.27 324.313ZM546.361 336.682C543.763 333.918 534.502 325.074 524.655 327.235C518.689 328.558 514.648 334.086 515.126 340.095C515.718 346.606 520.785 352.078 524.943 355.558C528.835 358.657 533.001 361.509 537.401 364.088C539.116 365.161 540.856 366.219 542.544 367.327C546.334 369.668 549.822 372.335 552.948 375.279C554.03 376.516 554.976 377.827 555.775 379.195C556.65 380.898 557.892 382.468 559.437 383.823C561.451 384.862 562.588 385.016 562.954 384.823C564.176 384.184 563.431 379.803 563.116 377.947L563.007 377.24C560.345 361.065 557.599 348.691 546.294 336.672L546.361 336.682Z" fill="#5E4A2E" fill-opacity="0.5"/>
<path d="M534.835 335.999C537.276 336.305 539.551 337.316 541.256 338.851C543.098 340.633 544.077 342.9 543.992 345.182C543.906 347.465 542.762 349.586 540.796 351.107C539.793 351.845 538.614 352.404 537.326 352.753C536.039 353.101 534.668 353.232 533.292 353.137C531.916 353.043 530.562 352.725 529.307 352.202C528.053 351.68 526.922 350.962 525.979 350.091C525.036 349.219 524.3 348.211 523.813 347.123C523.326 346.035 523.098 344.89 523.14 343.752C523.183 342.613 523.496 341.505 524.062 340.49C524.628 339.474 525.436 338.572 526.439 337.834C528.483 336.383 531.179 335.693 533.938 335.915L534.835 335.999ZM538.475 348.98C539.503 348.224 540.222 347.22 540.541 346.095C540.86 344.97 540.764 343.775 540.265 342.66C539.767 341.546 538.888 340.562 537.74 339.833C536.592 339.104 535.227 338.664 533.817 338.567C532.407 338.47 531.016 338.721 529.819 339.289C528.623 339.857 527.675 340.715 527.095 341.756C526.515 342.796 526.33 343.972 526.563 345.135C526.795 346.298 527.435 347.395 528.402 348.288C529.743 349.415 531.517 350.11 533.378 350.238C535.239 350.366 537.055 349.918 538.475 348.98Z" fill="#5E4A2E" fill-opacity="0.5"/>
<path d="M-99.931 50.2881C-90.5721 51.5562 -81.1762 53.2218 -71.8079 55.2576C-19.6212 66.684 27.1046 89.0916 63.3594 120.1C94.1851 146.466 118.033 178.766 141.097 209.988C173.326 253.611 206.624 298.725 258.736 326.256C276.8 335.788 296.797 342.946 316.121 349.883C328.479 354.305 341.245 358.895 353.478 364.067C392.584 380.582 417.67 401.085 428.034 424.885C442.119 457.226 426.876 491.632 414.206 514.61C411.364 519.833 408.255 525.02 405.297 530.096C392.639 551.973 379.538 574.611 377.335 599.213C375.729 617.24 380.068 635.774 384.289 653.675C388.509 671.576 392.945 690.235 391.326 708.522C388.333 743.635 363.984 774.078 340.575 799.264C336.593 803.523 332.559 807.78 328.471 812.037C307.91 833.796 286.533 856.211 274.625 882.432C262.518 909.281 259.647 950.355 291.4 977.744L289.037 979.61C256.209 951.272 259.134 908.972 271.573 881.346C283.556 854.742 305.068 832.159 325.89 810.323C329.939 806.067 333.964 801.827 337.949 797.544C361.093 772.639 385.132 742.64 388.051 708.247C389.575 690.32 385.238 671.937 381.072 654.136C376.72 636.031 372.448 617.338 374.054 598.974C376.302 573.874 389.636 551.024 402.326 528.909C405.282 523.851 408.262 518.609 411.116 513.462C423.556 490.846 438.526 457.113 424.876 425.747C414.821 402.681 390.315 382.76 352.05 366.565C339.948 361.43 327.221 356.883 314.93 352.47C295.453 345.494 275.327 338.28 257.031 328.623C204.218 300.736 170.7 255.237 138.251 211.397C115.246 180.239 91.5516 148.147 61.0105 122.025C-12.4965 59.1625 -126.659 34.198 -223.074 59.9053L-224.255 57.2402C-184.555 46.8111 -141.962 44.4293 -99.931 50.2881Z" fill="#5E4A2E" fill-opacity="0.5"/>
<path d="M-107.25 68.6076C-21.5707 80.2165 59.8869 120.939 111.873 180.68C126.42 197.4 139.139 215.892 151.464 233.769C177.096 270.984 203.624 309.461 247.021 332.315C264.665 341.603 285.17 348.363 305.004 354.883C341.365 366.875 378.855 379.246 398.37 407.519C413.379 429.368 414.841 457.569 402.701 491.348C399.307 500.815 395.172 510.218 391.146 519.319C383.801 535.989 376.221 553.226 373.095 571.085C369.456 591.884 371.864 613.614 374.118 634.632C376.521 656.568 378.982 679.24 374.712 701.019C366.988 740.388 338.448 773.123 310.824 804.786C303.406 813.296 295.746 822.091 288.635 830.849C264.098 861.173 227.286 919.743 258.445 970.924L255.453 972.07C223.508 919.661 260.753 860.065 285.816 829.214C292.954 820.423 300.642 811.595 308.084 803.069C335.47 771.654 363.795 739.17 371.387 700.438C375.59 678.986 373.148 656.503 370.768 634.739C368.467 613.565 366.081 591.669 369.762 570.558C372.943 552.296 380.6 534.995 387.985 518.199C391.983 509.132 396.113 499.765 399.498 490.372C411.352 457.358 409.974 429.878 395.479 408.753C376.679 381.4 341.338 369.751 303.91 357.426C283.927 350.831 263.269 344.031 245.336 334.535C201.067 311.245 174.334 272.442 148.472 234.915C136.206 217.102 123.522 198.69 109.072 182.095C44.1115 107.417 -67.4682 62.7442 -175.176 68.3211L-175.57 65.5384C-152.863 64.4272 -129.945 65.4567 -107.25 68.6076Z" fill="#5E4A2E" fill-opacity="0.5"/>
<path d="M-102.567 12.8429C-48.1378 20.0566 3.48542 39.9035 46.2524 70.0575C93.6379 103.995 128.032 149.725 161.293 193.937C205.193 252.227 246.652 307.439 315.79 339.108C327.968 344.684 341.294 349.667 354.166 354.477C389.655 367.716 426.329 381.415 444.857 409.611C461.776 435.438 460.035 468.515 439.614 507.977C435.591 515.713 431.133 523.484 426.802 530.991C414.206 552.913 401.147 575.577 398.057 600.189C395.24 622.632 400.756 646.204 406.105 669.006C413.294 699.647 420.704 731.346 407.39 759.901C398.141 779.734 380.053 795.136 362.557 810.019C353.142 817.752 344.242 825.906 335.893 834.447C316.173 855.803 303.745 881.332 299.824 908.538C295.902 935.743 300.622 963.694 313.521 989.658L310.44 990.623C283.556 937.873 292.511 875.883 333.185 832.659C341.6 824.048 350.562 815.822 360.038 808.014C377.328 793.308 395.186 778.1 404.184 758.775C417.151 730.939 410.153 701.054 402.695 669.385C397.307 646.373 391.751 622.589 394.601 599.739C397.753 574.668 410.909 551.794 423.646 529.666C427.95 522.192 432.406 514.44 436.398 506.756C456.41 468.136 458.223 435.873 441.802 410.879C423.859 383.567 387.746 370.075 352.8 357.021C339.841 352.181 326.471 347.191 314.164 341.561C244.194 309.499 200.563 251.394 158.355 195.352C125.228 151.327 91.0712 105.853 43.995 72.1444C-21.9221 24.9286 -114.247 3.42766 -196.924 16.0227L-197.687 13.2835C-166.526 8.61677 -134.352 8.46775 -102.567 12.8429Z" fill="#5E4A2E" fill-opacity="0.5"/>
<path d="M450.464 361.579C454.528 362.21 458.477 363.376 462.159 365.033C495.487 379.307 515.969 412.497 509.843 442.268C509.159 445.634 508.149 449.068 507.198 452.397C504.321 462.233 501.349 472.429 506.252 481.618C507.651 484.017 509.281 486.326 511.125 488.522C514.18 491.901 516.446 495.706 517.797 499.726C520.202 508.931 513.24 517.428 506.908 523.786C505.595 525.104 503.979 526.81 502.128 528.747C491.685 539.819 474.174 558.327 461.503 559.564C459.241 559.801 456.913 559.549 454.742 558.832C452.571 558.116 450.628 556.959 449.1 555.472C441.318 548.436 438.95 533.777 440.738 526.785C443.018 517.84 448.667 509.988 454.14 502.43C456.577 499.021 459.115 495.533 461.277 491.975C481.198 459.548 473.268 415.46 442.431 387.167C437.002 382.188 430.324 376.049 432.392 369.338C433.331 366.988 435.114 364.963 437.509 363.525C439.905 362.087 442.804 361.301 445.831 361.27C447.376 361.236 448.929 361.34 450.464 361.579ZM458.013 556.848C459.016 556.982 460.03 556.999 461.024 556.901C472.386 555.786 490.033 537.109 499.519 527.066C501.4 525.078 503.019 523.353 504.322 522.109C510.208 516.195 516.689 508.399 514.583 500.337C513.307 496.68 511.211 493.224 508.407 490.154C506.45 487.822 504.734 485.362 503.277 482.804C497.838 472.72 500.983 462.08 503.992 451.776C504.935 448.501 505.919 445.101 506.612 441.831C512.485 413.259 492.801 381.373 460.802 367.672C456.327 365.494 451.296 364.309 446.223 364.239C442.023 364.417 436.854 366.39 435.734 370.295C434.093 375.531 439.824 380.794 444.892 385.425C476.715 414.637 484.879 460.01 464.274 493.465C462.06 497.072 459.512 500.634 457.028 504.055C451.711 511.466 446.181 519.11 444.006 527.62C442.406 533.89 444.575 547.512 451.508 553.78C453.17 555.391 455.45 556.477 457.924 556.836L458.013 556.848Z" fill="#5E4A2E" fill-opacity="0.5"/>
<path d="M495.377 495.381C495.945 495.456 496.507 495.576 497.053 495.739C501.955 497.244 504.061 501.96 503.543 505.61C502.758 509.112 500.89 512.341 498.118 514.988L496.403 516.924C489.486 524.754 476.643 539.296 466.059 537.862L465.858 537.835C460.681 537.021 458.635 534.707 457.859 532.9C454.594 525.523 465.533 513.639 468.63 510.88C473.362 506.673 478.443 502.747 483.84 499.127C486.65 497.152 490.876 494.771 495.377 495.381ZM466.455 535.112C475.056 536.277 488.062 521.533 493.641 515.204L495.383 513.234C497.801 510.955 499.458 508.177 500.201 505.157C500.554 502.55 499.111 499.308 496.019 498.347C492.555 497.279 488.597 499.528 485.948 501.319C480.697 504.842 475.751 508.662 471.144 512.754C466.649 516.781 458.765 526.892 461.007 531.944C461.48 532.804 462.232 533.548 463.176 534.086C464.121 534.625 465.217 534.936 466.336 534.984L466.455 535.112Z" fill="#5E4A2E" fill-opacity="0.5"/>
</svg>
