<svg width="464" height="600" viewBox="0 0 464 600" fill="none" xmlns="http://www.w3.org/2000/svg">
<path d="M85.3851 187.06C84.0871 191.871 83.3445 196.798 83.1867 201.645C82.5636 220.814 91.0153 237.634 108.333 251.606C146.051 282.026 200.291 290.144 243.307 271.758C263.899 262.985 270.842 247.282 273.039 235.702C279.135 203.638 257.844 164.487 239.905 150.472C219.126 134.292 199.609 125.273 180.222 122.915C156.533 120.021 132.811 127.587 113.272 144.106C102.133 153.587 90.2316 168.973 85.3851 187.06ZM269.806 238.9C266.191 252.391 257.2 262.275 243.012 268.329C200.64 286.42 147.173 278.41 109.969 248.374C93.3399 234.956 85.1955 219.031 85.788 201.06C86.542 178.404 101.045 158.222 114.351 146.907C133.296 130.82 156.52 123.516 179.584 126.316C198.634 128.658 217.876 137.554 238.389 153.514C255.77 167.06 276.436 204.713 270.617 235.3C270.382 236.545 270.095 237.785 269.759 239.011L269.806 238.9Z" fill="#5E4A2E" fill-opacity="0.5"/>
<path d="M91.3945 185.049C88.0136 197.667 89.3319 211.888 94.989 223.378C100.426 234.416 108.896 241.659 116.371 247.257C139.172 264.249 162.796 273.062 186.608 273.452C204.522 273.88 223.014 268.927 240.83 258.928L243.446 257.461C249.741 253.998 258.377 249.143 262.401 241.845C268.362 230.953 265.468 214.956 263.928 208.582C256.837 178.899 238.447 155.847 213.477 145.294C192.849 136.593 167.545 136.026 138.296 143.614C129.665 145.835 120.519 148.707 111.866 155.159C102.407 162.134 95.0882 172.54 91.7615 183.744L91.3945 185.049ZM262.354 235.256C261.924 236.981 261.287 238.644 260.473 240.171C257.03 246.639 248.856 251.052 242.915 254.338C241.974 254.85 241.071 255.347 240.261 255.82C222.803 265.604 204.685 270.448 187.134 270.021C163.707 269.66 140.412 260.96 117.934 244.104C110.626 238.649 102.463 231.66 97.247 221.076C91.8104 210.039 90.6695 196.432 94.1651 184.535C97.2075 174.265 103.999 164.679 112.782 158.188C121.046 152.1 129.967 149.241 138.349 147.052C167.208 139.581 192.11 140.115 212.378 148.694C236.725 158.957 254.632 181.388 261.521 210.229C262.626 215.229 264.737 226.362 262.329 235.348L262.354 235.256Z" fill="#5E4A2E" fill-opacity="0.5"/>
<path d="M107.078 195.233C104.504 204.84 105.556 215.714 109.918 224.32C114.279 232.927 120.6 237.92 125.802 241.603C138.068 250.243 151.619 255.916 165.968 258.417C179.025 260.73 212.506 264.275 239.214 246.647C246.633 241.736 250.885 234.993 252.109 226.404C254.399 209.183 242.459 189.557 232.958 182.013C206.939 161.439 174.893 154.924 141.973 163.515C135.171 164.973 128.392 168.091 121.967 172.716C118.666 175.125 115.642 178.357 113.08 182.213C110.518 186.068 108.473 190.465 107.071 195.133L107.078 195.233ZM127.301 238.433C122.304 234.878 116.055 229.806 112.1 222.047C108.144 214.288 107.167 204.47 109.458 195.92C110.732 191.731 112.583 187.788 114.896 184.336C117.208 180.884 119.934 177.996 122.906 175.849C129.04 171.438 135.512 168.472 142.005 167.095C174.342 158.675 205.818 165.073 231.386 185.262C240.14 192.212 251.671 210.941 249.587 226.566C248.633 233.7 244.894 239.423 238.452 243.684C212.414 260.852 179.602 257.362 166.711 255.069C152.62 252.617 139.311 247.05 127.264 238.571L127.301 238.433Z" fill="#5E4A2E" fill-opacity="0.5"/>
<path d="M124.795 205.101C123.94 208.842 123.744 212.648 124.226 216.18C124.708 219.711 125.853 222.861 127.559 225.349C131.061 230.215 135.437 233.789 140.393 235.83C155.214 243.27 171.344 246.897 188.089 246.555C188.996 246.552 189.995 246.524 191.051 246.536C200.761 246.475 215.429 246.412 223.663 236.991C225.14 235.392 226.392 233.418 227.326 231.216C228.259 229.014 228.85 226.64 229.055 224.271C229.978 214.444 225.076 204.411 220.605 198.83C201.257 174.634 169.757 178.048 146.716 185.18C135.081 188.789 128.011 194.951 125.117 204.029L124.795 205.101ZM225.969 227.558C225.229 230.22 223.926 232.647 222.247 234.493C214.869 242.888 200.812 242.967 191.51 243.038C190.453 243.026 189.444 243.027 188.515 243.049C172.062 243.374 156.21 239.813 141.64 232.518C137.011 230.618 132.918 227.297 129.633 222.776C126.437 217.733 125.584 210.706 127.436 204.945C129.884 197.275 136.217 191.951 146.805 188.677C169.288 181.716 200.004 178.289 218.677 201.688C223.106 207.234 227.253 216.448 226.486 224.544C226.399 225.551 226.225 226.563 225.969 227.558Z" fill="#5E4A2E" fill-opacity="0.5"/>
<path d="M160.924 213.246C159.36 219.084 162.703 223.772 166.049 226.022C173.298 230.87 187.27 234.168 195.62 226.55C199.922 222.554 200.632 218.754 200.454 216.292C199.988 209.739 192.639 205.136 187.719 204.483C182.372 203.764 176.878 203.845 171.328 204.725C165.963 205.605 162.335 208.426 160.963 212.911L160.924 213.246ZM167.554 222.829C165.409 221.393 162.054 217.834 163.401 213.638C164.747 209.442 168.825 208.514 171.237 208.125C176.613 207.271 181.935 207.193 187.113 207.893C191.221 208.451 197.657 212.44 197.992 217.185C198.141 219.245 196.977 221.421 194.55 223.653C187.189 230.451 174.085 227.164 167.544 222.802L167.554 222.829Z" fill="#5E4A2E" fill-opacity="0.5"/>
<path d="M77.0698 181.214C76.569 183.071 76.1406 184.947 75.7868 186.832C69.1321 222.195 88.6357 249.831 107.402 262.738C114.86 267.888 122.956 272.001 130.776 275.992C143.834 282.641 157.345 289.51 167.973 301.272C183.795 318.785 192.24 345.776 200.451 371.916C202.224 377.613 204.081 383.505 205.979 389.185C230.822 463.821 271.124 520.451 319.441 548.635C374.055 580.499 439.814 575.937 495.33 536.611L494.444 533.541C439.594 572.356 374.763 576.772 320.78 545.298C272.926 517.362 232.989 461.223 208.363 387.114C206.46 381.457 204.618 375.569 202.855 369.9C194.552 343.464 185.98 316.118 169.827 298.246C158.951 286.196 145.277 279.234 132.072 272.496C124.293 268.541 116.256 264.468 108.896 259.394C90.8598 246.954 72.045 220.511 78.3777 186.86C81.5921 169.887 91.422 152.789 104.719 141.127C115.407 131.673 128.138 125.376 144.798 121.068C182.785 111.451 219.994 116.652 252.024 136.057C262.015 142.156 271.616 149.776 280.924 157.145C297.577 170.348 314.761 183.989 334.781 189.472C374.327 200.306 417.139 177.26 446.081 156.017C450.918 152.386 455.77 148.759 460.495 145.097C476.529 132.665 493.109 119.788 510.351 114.33C531.582 107.699 556.994 115.71 562.252 143.941L564.747 142.54C559.238 112.567 532.583 103.902 510.285 110.938C492.631 116.532 475.842 129.55 459.61 142.151C454.9 145.816 450.049 149.567 445.243 153.083C416.652 174.1 374.432 196.788 335.63 186.177C315.993 180.796 298.911 167.281 282.4 154.19C273.056 146.762 263.361 139.24 253.317 132.955C220.875 113.298 183.185 108.028 144.708 117.768C127.647 122.166 114.569 128.739 103.53 138.419C91.0287 149.408 81.3806 165.126 77.0698 181.214Z" fill="#5E4A2E" fill-opacity="0.5"/>
<path d="M206.508 310.775C202.419 326.036 206.716 343.493 211.762 356.692C241.536 434.618 283.159 490.592 332.084 518.741C389.18 551.615 458.919 544.769 514.095 500.844L513.177 497.889C458.82 541.245 389.885 547.962 333.468 515.491C284.975 487.58 243.705 431.947 214.156 354.648C208.12 338.893 203.118 316.789 213.573 301.189C220.017 291.559 229.185 289.309 238.905 286.911C248.149 284.632 257.723 282.269 265.055 273.025C272.646 263.455 275.113 250.1 277.517 237.172L278.568 231.591C280.229 223.094 285.305 202.876 296.613 198.637C301.462 196.807 306.252 198.582 310.873 200.287L311.798 200.535C333.484 208.218 356.911 209.477 380.69 204.237C404.468 198.998 428.114 187.366 450.224 170.033C454.047 166.992 457.901 163.713 461.621 160.547C474.887 149.319 488.471 137.734 502.762 134.614C524.928 129.661 543.52 145.132 562.18 162.838L563.872 159.843C544.779 141.775 525.853 126.017 502.81 131.178C487.899 134.575 473.998 146.322 460.537 157.768C456.822 160.912 452.991 164.172 449.228 167.179C427.42 184.303 404.092 195.793 380.631 200.967C357.171 206.14 334.057 204.892 312.666 197.295L311.757 197.051C306.83 195.215 301.727 193.331 296.211 195.352C283.304 200.197 277.707 222.173 275.918 231.399C275.544 233.244 275.194 235.121 274.855 237.026C272.563 249.344 270.202 262.111 263.336 270.766C256.469 279.421 247.581 281.327 238.725 283.562C228.975 285.878 218.83 288.458 211.645 299.195C209.37 302.624 207.613 306.585 206.508 310.775Z" fill="#5E4A2E" fill-opacity="0.5"/>
<path d="M230.003 321.155C227.792 329.406 227.602 339.43 229.41 351.441C240.491 424.929 283.689 469.157 318.018 493.398C347.965 514.471 377.79 525.535 406.507 526.253C441.056 527.153 475.03 512.972 502.39 486.404L501.187 483.619C474.44 509.686 440.912 523.543 406.952 522.678C378.541 521.968 349.083 511.002 319.44 490.133C285.458 466.256 242.704 422.541 231.843 350.147C229.445 334.085 230.724 322.038 235.773 313.34C240.822 304.642 248.177 301.118 256.082 297.2C263.987 293.282 271.532 289.563 277.167 280.972C282.196 273.304 284.33 263.554 286.384 254.104C288.688 243.464 290.879 233.434 296.892 226.817C306.173 216.617 317.504 221.35 328.449 225.931C329.983 226.588 331.634 227.252 333.18 227.863C357.2 237.176 388.047 229.498 424.785 204.998C430.382 201.274 436.036 197.27 441.568 193.406C457.794 181.913 474.571 170.024 491.787 164.215C513.316 156.924 539.651 161.043 549.963 186.614L552.242 184.49C541.405 157.621 513.979 153.234 491.592 160.861C474.033 166.801 457.11 178.724 440.71 190.418C435.265 194.28 429.61 198.284 424.058 201.97C387.898 226.034 357.677 233.609 334.245 224.527C332.693 223.939 331.159 223.282 329.619 222.648C318.569 218.014 306.053 212.791 295.561 224.318C288.729 231.824 286.3 242.997 283.953 253.798C282.006 262.784 279.98 272.07 275.485 279.02C270.405 286.749 263.27 290.282 255.703 294.02C247.802 297.988 239.496 301.996 233.908 311.56C232.22 314.505 230.896 317.759 230.003 321.155Z" fill="#5E4A2E" fill-opacity="0.5"/>
<path d="M238.089 332.705C236.038 340.569 235.332 348.651 236.031 356.268C237.2 370.153 242.096 381.933 247.202 392.61C274.915 450.476 315.231 490.336 360.724 504.881C411.355 521.048 468.361 505.127 513.053 462.238L511.867 459.457C467.792 501.699 411.669 517.388 361.733 501.432C316.761 487.051 276.881 447.604 249.46 390.309C244.478 379.935 239.716 368.487 238.6 355.232C237.319 340.873 241.045 326.328 248.202 317.037C253.245 310.53 259.46 306.922 266.154 303.123C272.847 299.324 280.003 295.205 285.531 287.719C289.201 282.283 292.333 276.252 294.819 269.835C298.348 261.642 301.668 253.91 307.179 249.227C315.368 242.208 324.516 245.199 333.384 248.09C335.665 248.701 337.974 249.59 340.229 250.169C365.844 256.658 394.612 237.98 414.085 223.365C418.874 219.721 423.709 215.966 428.402 212.296C446.593 198.003 465.4 183.259 485.006 176.759C508.64 168.948 536.636 176.567 544.37 206.274L546.805 204.586C538.663 173.341 509.482 165.232 484.855 173.369C464.842 179.981 445.824 194.94 427.459 209.309C422.782 212.983 417.95 216.789 413.204 220.272C394.18 234.613 366.011 252.909 341.178 246.63C338.976 246.041 336.662 245.298 334.428 244.577C324.992 241.508 315.388 238.37 306.182 246.251C300.01 251.545 296.329 260.116 292.753 268.42C290.408 274.502 287.451 280.223 283.985 285.384C278.913 292.253 272.47 295.947 265.644 299.859C258.817 303.77 252.193 307.563 246.729 314.623C242.815 319.741 239.826 325.998 238.089 332.705Z" fill="#5E4A2E" fill-opacity="0.5"/>
<path d="M250.862 340.288C245.27 361.156 250.345 383.945 265.988 408.06C296.397 454.972 333.569 484.556 373.449 493.633C419.851 504.209 469.71 485.931 506.836 444.736L505.454 442.174C468.971 482.63 419.971 500.571 374.302 490.191C334.897 481.192 298.155 451.921 268.03 405.479C252.49 381.489 247.7 359.171 253.792 339.052C258.897 322.167 270.836 309.895 283.655 297.784C294.798 287.27 307.411 275.35 320.76 271.215C328.923 268.695 337.138 269.171 345.118 269.632C350.535 270.094 356.026 270.117 361.563 269.7C383.331 267.449 404.924 251.751 425.23 235.685L428.23 233.36C447.228 218.347 466.866 202.865 487.317 197.872C506.805 193.089 530.905 200.256 537.752 227.337L540.197 225.676C532.957 197.061 507.72 189.418 487.317 194.423C466.393 199.462 446.512 215.15 427.235 230.31L424.223 232.681C404.244 248.417 382.962 263.976 361.777 266.161C356.329 266.584 350.927 266.569 345.599 266.116C337.485 265.643 329.088 265.144 320.583 267.793C306.682 272.076 293.791 284.266 282.414 295.014C269.163 307.526 256.862 320.193 251.378 338.234L250.862 340.288Z" fill="#5E4A2E" fill-opacity="0.5"/>
<path d="M272.21 335.265C267.967 351.1 272.238 366.678 275.857 377.032C285.478 404.226 299.67 427.188 317.493 444.398C335.316 461.607 356.364 472.672 379.242 476.858C402.205 480.664 426.419 477.492 450.281 467.554C474.142 457.616 497.109 441.137 517.659 419.209L516.305 416.605C496.073 438.2 473.461 454.428 449.967 464.214C426.472 474.001 402.631 477.122 380.022 473.372C357.478 469.262 336.737 458.371 319.174 441.422C301.61 424.472 287.626 401.851 278.147 375.058C274.72 365.199 270.634 350.459 274.545 335.865L274.656 335.451C279.921 316.565 296.174 306.186 305.367 301.8C320.868 294.226 337.021 290.791 352.674 287.371C369.789 283.726 387.476 279.989 404.487 270.799C415.844 264.652 426.789 256.153 437.392 247.908C441.555 244.687 445.872 241.335 450.134 238.19C462.932 228.71 479.866 217.701 496.588 216.735C510.488 215.9 526.932 223.948 531.96 243.719L534.463 242.098C529.73 223.588 515.099 212.282 496.996 213.297C479.641 214.266 462.429 225.546 449.302 235.234C445.034 238.401 440.717 241.753 436.43 244.99C425.938 253.142 415.059 261.584 403.926 267.594C387.216 276.619 369.733 280.362 352.722 283.936C336.97 287.28 320.693 290.73 304.92 298.429C295.097 303.188 277.985 314.223 272.259 334.761L272.21 335.265Z" fill="#5E4A2E" fill-opacity="0.5"/>
<path d="M301.092 343.342C298.561 353.234 298.121 363.399 299.828 372.561C301.907 384.326 306.913 395.248 315.595 406.932C340.989 440.885 376.733 457.946 415.739 454.731C454.788 451.081 494.133 427.417 525.976 388.429L524.465 386.029C493.152 424.389 454.456 447.682 416.045 451.291C377.67 454.468 342.501 437.693 317.516 404.294C309.117 392.956 304.289 382.451 302.288 371.225C299.773 357.004 302.386 341.447 309.112 330.636C319.02 314.716 334.438 311.726 349.354 308.823C353.287 308.053 357.36 307.272 361.221 306.261C380.922 301.067 400.073 287.401 418.482 274.397L419.39 273.754C435.846 261.976 456.516 247.362 476.844 242.952C493.87 239.259 515.763 243.175 526.143 265.24L528.453 263.002C517.569 239.816 494.745 235.675 476.979 239.515C456.196 244.025 435.375 258.821 418.652 270.699L417.751 271.32C399.498 284.315 380.619 297.734 361.314 302.788C357.507 303.788 353.466 304.578 349.571 305.334C334.099 308.334 318.102 311.441 307.451 328.541C304.664 332.992 302.497 338.036 301.092 343.342Z" fill="#5E4A2E" fill-opacity="0.5"/>
<path d="M338.703 353.165C335.685 364.427 338.525 377.306 342.661 386.246C359.303 422.329 394.373 440.488 434.17 433.605C465.771 428.149 500.149 408.313 539.33 372.914L538.191 370.146C499.453 405.17 465.426 424.781 434.336 430.176C395.379 436.988 361.143 419.225 344.92 384.067C340.077 373.558 337.073 357.335 344.503 346.319C347.971 341.163 352.959 338.434 357.361 336.041L425.62 298.797C442.257 289.728 459.451 280.366 476.737 275.954C490.146 272.549 509.424 270.912 525.095 282.547L526.62 279.408C510.379 267.35 490.531 269.006 476.722 272.501C459.175 276.991 441.839 286.439 425.054 295.615L356.797 332.787C352.296 335.227 346.771 338.304 342.753 344.175C340.954 346.818 339.566 349.898 338.703 353.165Z" fill="#5E4A2E" fill-opacity="0.5"/>
<path d="M379.506 361.479C379.321 362.168 379.13 362.881 378.939 363.593C376.41 376.094 381.428 386.847 387.53 391.954C394.123 397.463 402.403 398.399 410.318 398.72C457.566 399.888 506.73 376.872 548.522 334.018L547.234 331.358C506.015 373.644 457.521 396.366 410.91 395.233C403.282 394.989 395.378 394.055 389.208 388.881C383.757 384.342 379.286 374.869 381.476 363.952C383.837 352.268 392.923 343.69 399.538 338.269C436.151 308.555 477.057 296.291 514.679 303.749L515.491 300.272C477.278 292.706 435.731 305.165 398.544 335.343C391.818 340.858 382.733 349.436 379.506 361.479Z" fill="#5E4A2E" fill-opacity="0.5"/>
<path d="M430.477 345.815C427.65 356.364 432.235 366.434 438.35 370.091C444.778 373.98 452.654 372.788 459.494 371.122C486.147 364.612 512.104 348.26 537.156 332.602L536.46 329.459C511.553 345.082 485.802 361.243 459.549 367.663C453.055 369.25 445.637 370.392 439.765 366.849C434.53 363.674 430.561 355.197 432.914 346.418L432.963 346.234C435.02 338.558 441.28 332.549 451.353 328.324C472.678 319.446 494.319 316.887 514.718 320.83L515.53 317.353C494.766 313.34 472.739 315.947 451.033 324.987C439.959 329.633 433.076 336.559 430.583 345.547L430.477 345.815Z" fill="#5E4A2E" fill-opacity="0.5"/>
</svg>
