<svg width="1192" height="1061" viewBox="0 0 1192 1061" fill="none" xmlns="http://www.w3.org/2000/svg">
<path d="M523.599 222.403C547.857 229.769 570.802 240.723 591.277 254.712C615.504 271.501 635.715 292.126 650.524 315.172C665.333 338.217 674.389 363.137 677.069 388.22C677.978 397.338 678.042 406.537 678.109 415.435C678.18 426.661 678.251 438.276 680.072 449.722C682.27 463.635 689.526 489.219 713.392 504.244C735.97 518.415 764.735 518.177 792.595 517.929C822.207 517.646 852.834 517.358 875.951 534.592C903.629 555.171 904.194 590.135 890.424 613.967C879.187 633.455 860.184 648.388 841.81 662.822C837.391 666.324 832.818 669.887 828.45 673.464C810.107 688.478 785.589 711.963 784.808 741.483C784.489 753.597 788.172 766.06 791.729 778.109C793.576 784.348 795.481 790.787 796.828 797.153C799.189 808.291 802.408 835.588 781.496 848.581C770.618 855.385 756.179 856.25 742.243 857.124C734.337 857.418 726.545 858.25 718.94 859.613C708.108 861.983 698.43 866.621 690.737 873.127C683.044 879.633 677.567 887.812 674.778 896.961C672.273 906.197 672.554 916.071 675.595 925.733C678.636 935.395 684.347 944.555 692.236 952.424L690.206 953.854C682.014 945.664 676.086 936.137 672.929 926.091C669.773 916.045 669.483 905.779 672.085 896.175C674.965 886.653 680.643 878.135 688.629 871.355C696.616 864.575 706.673 859.736 717.933 857.256C725.674 855.859 733.607 855.005 741.658 854.702C755.869 853.852 769.277 853.047 779.641 846.608C799.452 834.297 796.303 808.04 794.027 797.304C792.701 791.018 790.817 784.609 788.987 778.411C785.372 766.212 781.678 753.587 781.99 741.107C782.79 710.793 807.706 686.932 826.375 671.63C830.763 668.035 835.332 664.434 839.758 660.959C857.98 646.636 876.82 631.846 887.867 612.688C900.808 590.204 900.421 555.78 874.2 536.228C851.993 519.672 823.293 519.942 792.904 520.23C764.537 520.481 735.265 520.819 711.876 506.037C687.05 490.403 679.541 464.039 677.274 449.716C675.44 438.121 675.362 426.431 675.277 415.152C675.21 406.303 675.146 397.152 674.245 388.158C671.748 363.398 662.876 338.777 648.251 316.028C633.627 293.278 613.605 272.951 589.595 256.478C565.585 240.005 538.17 227.785 509.277 220.678C480.385 213.571 450.718 211.749 422.362 215.341L421.596 212.973C455.008 208.852 490.097 212.096 523.599 222.403Z" fill="#5E4A2E" fill-opacity="0.5"/>
<path d="M473.748 296.517C476.563 297.377 479.367 298.286 482.162 299.244C522.607 313.075 558.768 336.304 583.967 364.663C603.261 386.32 617.469 411.42 631.223 435.665C651.474 471.354 672.421 508.273 709.534 533.309C716.937 538.323 725.302 543.06 733.334 547.623C754.548 559.679 776.473 572.135 785.565 591.804C794.148 610.408 789.316 631.937 771.217 655.805C768.214 659.739 764.99 663.714 761.882 667.506C750.637 681.316 739.004 695.614 735.346 712.615C732.77 724.561 734.157 737.718 735.52 750.369C737.497 768.957 739.547 788.185 728.77 803.387C721.264 813.974 708.691 820.721 696.53 827.242C690.803 830.344 684.903 833.478 679.612 837.004C648.488 857.695 635.048 895.173 646.149 930.25L644.128 930.53C632.808 894.804 646.502 856.64 678.191 835.563C683.488 832.015 689.382 828.855 695.177 825.774C707.185 819.315 719.649 812.632 726.859 802.38C737.32 787.627 735.405 769.519 733.352 750.35C731.993 737.542 730.585 724.306 733.201 712.129C737.002 694.809 748.678 680.366 760.042 666.411C763.144 662.592 766.361 658.639 769.351 654.701C787.113 631.3 791.851 610.276 783.554 592.245C774.753 573.186 753.144 560.912 732.247 549.037C724.178 544.451 715.829 539.707 708.351 534.646C670.796 509.305 649.736 472.169 629.356 436.271C615.632 412.12 601.404 387.135 582.266 365.648C531.129 308.037 438.239 276.275 361.298 290.045L360.639 288.303C395.905 281.986 435.722 284.905 473.748 296.517Z" fill="#5E4A2E" fill-opacity="0.5"/>
<path d="M456.8 328.268C498.857 343.257 551.177 361.939 583.89 397.091C601.462 416.003 612.508 438.73 623.203 460.707C637.758 490.618 651.501 518.899 680.292 538.617C688.304 544.12 697.555 548.933 706.509 553.596C725.317 563.389 744.765 573.524 753.591 590.456C760.389 603.446 759.643 619.395 751.615 636.565C748.82 642.502 745.418 648.278 742.118 653.868C737.681 661.377 733.087 669.154 729.992 677.34C724.845 691.024 723.734 706.219 722.639 720.922C721.284 739.595 719.876 758.883 710.149 775.231C701.342 790.028 686.485 801.086 672.111 811.782C666.716 815.798 661.147 819.942 655.984 824.222C614.366 858.747 592.091 910.577 596.418 962.867L593.62 962.764C589.248 909.842 611.777 857.374 653.908 822.437C659.113 818.12 664.715 813.962 670.131 809.928C684.332 799.361 699.029 788.436 707.611 773.983C717.101 758.024 718.489 738.948 719.847 720.506C720.925 705.664 722.05 690.328 727.359 676.403C730.502 668.062 735.13 660.222 739.608 652.628C742.894 647.083 746.276 641.325 749.041 635.488C754.476 623.929 759.267 606.875 751.073 591.24C742.609 575.073 724.497 565.637 705.267 555.617C696.278 550.92 686.898 546.043 678.64 540.416C649.199 520.245 634.661 490.327 620.58 461.398C609.977 439.607 599.01 417.061 581.734 398.446C549.56 363.822 497.658 345.329 455.952 330.458L456.8 328.268Z" fill="#5E4A2E" fill-opacity="0.5"/>
<path d="M638.522 285.135C671.08 325.392 688.458 372.011 688.064 418.038C688.038 420.904 687.953 423.813 687.855 426.717C687.321 443.095 686.808 460.037 697.053 474.613C711.025 494.535 740.844 505.036 785.681 505.801L790.494 505.888C821.622 506.347 857.018 506.921 881.818 526.003C910.282 547.913 910.459 583.365 898.568 607.043C888.007 628.072 869.095 644.706 850.801 660.778C847.103 664.014 843.279 667.37 839.598 670.696C820.228 688.246 797.752 712.112 795.987 741.247C795.29 753.282 798.068 765.735 800.788 777.795C802.093 783.566 803.46 789.525 804.346 795.398C806.925 811.332 806.736 833.066 791.215 846.104C779.222 856.12 761.586 858.581 744.474 860.934C731.945 862.662 718.981 864.451 708.185 869.182C693.829 875.482 683.994 887.94 681.198 903.385C678.403 918.829 683.173 934.511 694.255 946.444L692.643 947.431C681.183 935.079 676.252 918.852 679.122 902.92C681.991 886.989 692.163 874.161 707.063 867.591C718.104 862.74 731.221 860.937 743.876 859.187C761.457 856.759 778.069 854.483 789.606 844.788C804.59 832.192 804.743 811.017 802.23 795.455C801.285 789.625 799.946 783.674 798.648 777.93C795.914 765.769 793.071 753.186 793.812 740.958C795.617 711.302 818.33 687.145 837.987 669.44C841.671 666.103 845.498 662.736 849.19 659.522C867.364 643.547 886.165 627.036 896.607 606.25C908.213 583.116 908.115 548.573 880.496 527.358C856.384 508.802 821.475 508.243 790.694 507.768L785.878 507.692C740.183 506.908 709.693 496.069 695.264 475.498C684.705 460.438 685.242 443.224 685.786 426.522C685.867 423.624 685.961 420.73 685.998 417.88C686.388 372.244 669.168 326.02 636.904 286.096L638.522 285.135Z" fill="#5E4A2E" fill-opacity="0.5"/>
<path d="M849.28 530.995C856.671 533.25 863.583 536.767 869.554 541.309C875.524 545.851 880.415 551.314 883.897 557.33C891.915 571.736 891.451 589.348 882.609 605.674C879.428 611.554 855.63 645.748 841.062 647.035C840.023 647.163 838.933 647.063 837.89 646.745C836.848 646.426 835.887 645.9 835.097 645.214C834.033 644.184 833.292 642.959 832.953 641.671C832.614 640.384 832.69 639.082 833.174 637.908C833.931 636.088 835.021 634.406 836.41 632.918L837.035 632.139C848.993 617.358 849.038 596.198 837.052 580.642C834.137 577.041 830.941 573.592 827.487 570.324C824.008 567.037 820.783 563.572 817.834 559.955C812.32 552.85 808.429 542.676 814.031 535.401C818.253 529.911 827.374 527.349 838.427 528.65C842.09 529.097 845.731 529.884 849.28 530.995ZM838.262 645.089C839.025 645.312 839.819 645.385 840.58 645.3C853.28 644.182 876.615 612.235 880.633 604.828C889.218 588.957 889.714 571.876 881.968 557.942C877.828 550.752 871.599 544.411 863.926 539.575C856.253 534.74 847.415 531.585 838.327 530.439C828.078 529.237 819.654 531.516 815.863 536.567C810.778 543.175 814.696 552.872 819.589 559.181C822.478 562.728 825.64 566.125 829.051 569.346C832.576 572.677 835.837 576.194 838.807 579.868C851.273 596.044 851.288 618.035 838.857 633.338L838.202 634.12C836.939 635.477 835.94 637.007 835.237 638.66C834.756 640.235 834.712 642.574 836.545 644.128C837.036 644.565 837.631 644.908 838.279 645.13L838.262 645.089Z" fill="#5E4A2E" fill-opacity="0.5"/>
<path d="M852.118 542.181C854.535 542.93 856.87 543.915 859.068 545.116C871.013 551.589 879.525 563.599 881.297 576.473C882.793 587.274 879.825 598.894 872.718 610.075C872.548 610.339 854.338 636.719 846.201 637.036C845.747 637.069 845.277 637.006 844.833 636.852C844.389 636.697 843.985 636.456 843.657 636.15L843.125 635.648L843.455 635.106C844.718 633.066 846.063 631.052 847.356 629.155C851.33 623.213 855.082 617.605 857.125 610.916C860.092 601.199 858.713 591.331 853.359 583.851C850.552 580.237 847.282 576.87 843.618 573.819C841.037 571.588 838.595 569.247 836.304 566.807C831.095 561.094 826.787 552.187 831.771 545.911C833.19 544.244 835.09 542.924 837.322 542.056C839.553 541.189 842.055 540.797 844.628 540.913C847.143 540.988 849.674 541.416 852.118 542.181ZM870.841 609.102C877.755 598.213 880.662 586.938 879.207 576.489C877.512 564.197 869.409 552.748 858.077 546.608C854.044 544.299 849.441 542.944 844.811 542.703C842.569 542.613 840.39 542.955 838.44 543.705C836.491 544.454 834.822 545.59 833.559 547.028C829.445 552.21 832.779 560.213 837.905 565.854C840.148 568.237 842.537 570.525 845.059 572.707C848.853 575.851 852.235 579.327 855.134 583.06C860.799 590.986 862.26 601.364 859.168 611.54C857.064 618.428 853.071 624.388 849.209 630.157C848.092 631.817 846.954 633.543 845.847 635.267C851.65 635.038 867.568 614.214 870.824 609.109L870.841 609.102Z" fill="#5E4A2E" fill-opacity="0.5"/>
<path d="M854.464 548.1C858.305 549.273 862.121 552.281 865.075 556.652C871.255 565.669 871.739 573.833 871.775 584.394L871.776 584.831C871.8 587.094 871.831 589.917 869.82 590.552C868.157 591.123 866.15 589.649 865.506 589.174C864.315 587.972 863.454 586.578 862.995 585.108C862.686 584.306 862.293 583.52 861.821 582.761C860.258 580.735 858.451 578.836 856.432 577.102C855.499 576.259 854.531 575.43 853.577 574.605C850.989 572.487 848.58 570.218 846.372 567.821C843.887 564.988 841.001 560.639 841.332 555.998C841.662 551.357 845.503 547.801 850.298 547.555C851.683 547.493 853.102 547.678 854.464 548.1ZM863.282 557.402C861.935 555.426 857.032 549.005 850.664 549.328C846.805 549.532 843.729 552.534 843.429 556.299C843.149 560.385 845.768 564.289 848.018 566.868C850.141 569.185 852.459 571.376 854.95 573.423C855.914 574.263 856.896 575.097 857.84 575.955C859.973 577.792 861.887 579.8 863.546 581.942C864.098 582.817 864.558 583.725 864.921 584.654C865.298 585.797 865.917 586.894 866.747 587.891C867.902 588.741 868.596 588.953 868.845 588.871C869.671 588.602 869.643 585.817 869.631 584.637L869.634 584.189C869.585 573.915 869.104 565.983 863.241 557.389L863.282 557.402Z" fill="#5E4A2E" fill-opacity="0.5"/>
<path d="M856.15 555.794C857.644 556.234 858.965 557.093 859.876 558.217C860.849 559.508 861.235 561.011 860.954 562.413C860.673 563.815 859.746 565.009 858.366 565.747C857.666 566.1 856.873 566.325 856.034 566.408C855.195 566.491 854.326 566.43 853.476 566.23C852.626 566.03 851.812 565.695 851.08 565.242C850.348 564.79 849.713 564.23 849.211 563.594C848.709 562.959 848.35 562.259 848.154 561.537C847.959 560.814 847.93 560.083 848.07 559.383C848.211 558.684 848.517 558.031 848.972 557.462C849.427 556.892 850.021 556.417 850.722 556.064C852.143 555.377 853.897 555.228 855.598 555.649L856.15 555.794ZM857.128 564.193C857.846 563.832 858.396 563.285 858.707 562.622C859.018 561.96 859.078 561.211 858.877 560.47C858.677 559.73 858.226 559.031 857.582 558.463C856.938 557.894 856.129 557.481 855.258 557.276C854.386 557.072 853.492 557.084 852.688 557.312C851.884 557.539 851.206 557.973 850.74 558.556C850.274 559.14 850.041 559.848 850.07 560.591C850.1 561.334 850.39 562.078 850.905 562.729C851.63 563.564 852.669 564.176 853.819 564.447C854.969 564.717 856.148 564.627 857.128 564.193Z" fill="#5E4A2E" fill-opacity="0.5"/>
<path d="M488.108 313.853C493.828 315.6 499.531 317.597 505.181 319.819C536.643 332.252 563.597 350.912 583.152 373.813C599.779 393.284 611.454 415.707 622.747 437.382C638.529 467.667 654.828 498.984 684.637 521.365C694.971 529.117 706.749 535.6 718.129 541.876C725.408 545.882 732.925 550.033 740.051 554.489C762.834 568.722 776.459 583.979 780.559 599.758C786.131 621.202 773.176 640.905 762.967 653.807C760.671 656.744 758.211 659.631 755.856 662.465C745.766 674.687 735.322 687.335 731.492 702.318C728.689 713.298 729.551 725.203 730.401 736.704C731.252 748.205 732.161 760.197 729.325 771.336C723.951 792.736 705.702 809.052 688.565 822.215C685.653 824.438 682.707 826.655 679.729 828.866C664.713 840.203 649.122 851.861 639.066 866.847C628.824 882.201 622.932 907.298 640.036 927.498L638.373 928.409C620.692 907.512 626.74 881.661 637.268 865.862C647.408 850.647 663.101 838.898 678.288 827.541C681.242 825.326 684.179 823.119 687.096 820.881C704.04 807.865 722.051 791.792 727.306 770.829C730.047 759.903 729.172 748.091 728.346 736.658C727.434 725.017 726.63 713.021 729.466 701.833C733.375 686.547 743.985 673.792 754.119 661.425C756.47 658.602 758.855 655.668 761.152 652.78C771.18 640.077 783.898 620.763 778.5 599.966C774.52 584.672 761.198 569.835 738.91 555.886C731.862 551.466 724.365 547.346 717.127 543.353C705.655 537.036 693.802 530.506 683.335 522.653C653.125 499.979 636.726 468.402 620.829 437.96C609.566 416.331 597.966 394.053 581.493 374.761C541.844 328.335 473.016 301.156 410.218 307.13L409.746 305.361C435.589 302.998 462.435 305.907 488.108 313.853Z" fill="#5E4A2E" fill-opacity="0.5"/>
<path d="M481.708 324.426C534.075 340.417 580.9 373.974 607.416 416.256C614.835 428.09 620.936 440.83 626.852 453.15C639.151 478.795 651.884 505.312 676.715 523.906C686.81 531.463 698.945 537.752 710.686 543.823C732.204 554.978 754.391 566.483 763.761 585.97C770.957 601.022 769.057 618.607 758.102 638.242C755.037 643.745 751.516 649.133 748.092 654.345C741.841 663.896 735.385 673.772 731.65 684.492C727.302 696.976 726.637 710.658 725.949 723.884C725.261 737.693 724.536 751.963 719.695 764.988C710.942 788.533 689.845 805.834 669.429 822.568C663.946 827.066 658.283 831.715 652.966 836.397C634.612 852.62 605.771 885.044 620.129 919.89L618.145 920.291C603.418 884.604 632.633 851.591 651.368 835.097C656.705 830.396 662.388 825.729 667.889 821.224C688.132 804.62 709.068 787.451 717.676 764.286C722.442 751.457 723.16 737.306 723.845 723.606C724.52 710.278 725.215 696.496 729.621 683.823C733.43 672.86 739.94 662.952 746.229 653.328C749.632 648.134 753.147 642.768 756.198 637.309C766.898 618.118 768.779 600.987 761.832 586.436C752.817 567.591 731.901 556.753 709.748 545.283C697.923 539.15 685.696 532.82 675.44 525.105C650.109 506.152 637.28 479.412 624.868 453.551C618.983 441.277 612.896 428.589 605.524 416.842C572.394 363.991 507.146 324.893 439.302 317.26L439.333 315.499C453.63 317.148 467.845 320.143 481.708 324.426Z" fill="#5E4A2E" fill-opacity="0.5"/>
<path d="M490.197 290.432C523.481 300.492 553.75 318.073 577.459 341.115C603.675 366.971 620.598 398.781 636.966 429.537C658.575 470.09 678.965 508.489 718.997 535.181C726.049 539.881 733.876 544.333 741.438 548.631C762.287 560.467 783.832 572.709 792.593 592.046C800.586 609.755 796.197 630.024 779.502 652.32C776.217 656.689 772.657 661.035 769.202 665.23C759.146 677.488 748.726 690.155 744.34 705.053C740.34 718.639 741.434 733.779 742.5 748.427C743.934 768.11 745.4 788.469 734.234 804.753C726.477 816.063 713.64 823.724 701.225 831.126C694.572 834.938 688.198 839.063 682.129 843.484C667.679 854.659 657.368 869.163 652.203 885.579C647.039 901.995 647.198 919.761 652.666 937.139L650.645 937.419C639.114 902.041 650.893 864.638 680.616 842.101C686.732 837.642 693.152 833.479 699.851 829.627C712.12 822.314 724.793 814.749 732.343 803.727C743.221 787.852 741.832 768.656 740.332 748.31C739.263 733.529 738.165 718.253 742.226 704.42C746.696 689.244 757.197 676.456 767.362 664.087C770.797 659.909 774.354 655.574 777.615 651.235C793.971 629.417 798.322 609.658 790.558 592.516C782.074 573.785 760.86 561.728 740.331 550.063C732.718 545.737 724.863 541.277 717.737 536.53C677.224 509.51 655.765 469.099 634.989 430.109C618.687 399.483 601.886 367.856 575.84 342.173C539.372 306.201 483.84 283.41 430.933 282.691L430.73 280.919C450.663 281.24 470.777 284.457 490.197 290.432Z" fill="#5E4A2E" fill-opacity="0.5"/>
<path d="M772.315 695.116C772.896 695.289 773.463 695.507 774.008 695.766C779.705 698.415 781.783 704.434 781.214 708.881C780.575 712.462 779.281 715.877 777.377 719.011C776.939 719.859 776.491 720.693 776.08 721.549C770.497 732.945 769.197 745.863 772.339 758.715C774.192 765.339 776.577 771.898 779.477 778.345C784.661 790.624 790.01 803.39 787.264 815.551C784.518 827.712 773.584 838.113 757.301 843.994C751.573 846.076 731.482 852.771 713.772 851.425C708.489 851.025 703.734 850.167 703.395 844.158C703.028 837.461 711.134 834.321 717.045 832.028C718.161 831.593 719.222 831.189 720.151 830.781C733.586 824.964 743.421 813.089 747.687 797.317C751.522 783.293 750.809 768.075 750.121 753.361C749.508 739.228 748.706 723.279 752.851 708.78C754.009 704.987 755.572 700.65 759.226 697.655C762.207 695.255 767.371 693.606 772.315 695.116ZM708.949 848.983C710.51 849.391 712.104 849.629 713.691 849.691C727.371 850.728 744.681 846.603 756.271 842.394C772.013 836.675 782.549 826.699 785.19 815.027C787.831 803.355 782.825 791.373 777.514 778.728C774.577 772.215 772.168 765.587 770.304 758.894C767.08 745.692 768.416 732.423 774.146 720.716C774.573 719.852 775.011 719.004 775.466 718.148C777.282 715.168 778.524 711.922 779.151 708.517C779.599 704.664 777.927 699.509 773.196 697.301C768.919 695.315 763.714 696.66 760.763 699.009C757.411 701.745 755.906 705.797 754.866 709.396C750.803 723.629 751.537 739.46 752.18 753.444C752.876 768.379 753.582 783.716 749.696 797.954C745.25 814.169 735.136 826.42 721.222 832.442C720.276 832.857 719.195 833.279 718.062 833.721C712.303 835.952 705.143 838.725 705.454 844.338C705.638 847.001 706.689 848.292 708.963 848.987L708.949 848.983Z" fill="#5E4A2E" fill-opacity="0.5"/>
<path d="M767.595 784.394C770.174 785.286 772.479 786.76 774.234 788.64C783.284 798.013 781.913 810.497 776.626 818.742C770.925 827.66 760.605 833.761 751.402 838.785L750.957 839.025C744.645 842.481 732.886 848.907 724.166 843.867C721.257 842.179 719.845 840.559 719.843 838.909C719.842 835.841 724.767 833.949 729.101 832.29C730.298 831.831 731.427 831.399 732.281 830.993C739.554 827.565 745.568 822.642 749.841 816.619C754.113 810.596 756.525 803.643 756.881 796.317C757.028 791.887 757.298 785.202 763.337 784.1C764.714 783.854 766.191 783.956 767.595 784.394ZM727.463 843.407C734.79 845.644 744.319 840.429 749.678 837.506L750.11 837.262C759.544 832.115 769.221 826.364 774.75 817.768C779.555 810.274 780.953 798.283 772.657 789.662C770.506 787.441 767.12 785.267 764.007 785.808C759.692 786.576 759.162 791.532 758.988 796.536C758.618 804.141 756.116 811.36 751.682 817.613C747.249 823.866 741.008 828.979 733.461 832.542C732.539 832.976 731.39 833.425 730.162 833.887C726.692 835.253 721.95 837.03 721.95 839.08C721.951 840.05 723.052 841.175 725.219 842.418C725.918 842.834 726.674 843.167 727.463 843.407Z" fill="#5E4A2E" fill-opacity="0.5"/>
<path d="M767.778 703.346C768.771 703.637 769.677 704.154 770.39 704.835C772.394 706.805 772.694 709.334 772.806 711.551C773.052 713.726 772.796 715.872 772.053 717.87C771.637 718.957 770.877 719.9 769.849 720.607C768.821 721.314 767.561 721.76 766.191 721.9C765.232 721.937 764.25 721.79 763.317 721.472C762.384 721.153 761.524 720.671 760.798 720.059C759.755 719.2 758.914 718.184 758.331 717.078C757.747 715.972 757.434 714.801 757.412 713.641C757.427 709.789 760.108 706.667 762.258 704.207L762.582 704.415C762.879 704.028 763.281 703.71 763.759 703.483C764.237 703.256 764.78 703.126 765.351 703.102C766.15 703.031 766.979 703.115 767.778 703.346ZM764.201 719.934C764.754 720.103 765.331 720.176 765.893 720.148C766.893 720.02 767.809 719.674 768.553 719.141C769.297 718.608 769.844 717.907 770.142 717.104C770.782 715.312 770.994 713.393 770.767 711.45C770.662 709.551 770.428 707.393 768.925 705.928C768.517 705.558 768.021 705.266 767.477 705.077C766.934 704.888 766.36 704.807 765.802 704.841C765.488 704.843 765.189 704.916 764.936 705.051C764.683 705.187 764.484 705.381 764.36 705.613L763.952 705.488C761.964 707.804 759.545 710.655 759.529 713.924C759.548 714.824 759.793 715.732 760.247 716.589C760.701 717.447 761.354 718.234 762.164 718.9C762.743 719.352 763.42 719.7 764.146 719.918L764.201 719.934Z" fill="#5E4A2E" fill-opacity="0.5"/>
<path d="M800.889 562.929C803.365 563.737 805.716 564.865 807.85 566.268C827.247 578.521 836.731 601.147 829.933 618.923C829.17 620.933 828.196 622.952 827.27 624.913C824.491 630.697 821.617 636.695 823.763 642.881C824.398 644.508 825.186 646.103 826.118 647.65C827.69 650.053 828.725 652.639 829.169 655.263C829.753 661.202 824.555 665.739 819.966 669.018C819.014 669.697 817.834 670.586 816.484 671.593C808.855 677.364 796.069 687.005 788.03 686.466C786.593 686.379 785.164 685.984 783.879 685.318C782.594 684.652 781.496 683.737 780.69 682.66C776.53 677.509 776.513 668.203 778.328 664.064C780.645 658.769 784.958 654.496 789.131 650.386C790.993 648.529 792.927 646.634 794.633 644.656C810.313 626.659 809.759 598.586 793.318 577.922C790.423 574.285 786.863 569.803 788.825 565.866C789.646 564.51 790.962 563.442 792.602 562.799C794.242 562.157 796.132 561.969 798.026 562.261C798.994 562.399 799.954 562.623 800.889 562.929ZM786.121 684.428C786.734 684.613 787.365 684.729 787.997 684.77C795.206 685.25 808.094 675.518 815.022 670.285C816.396 669.25 817.579 668.35 818.517 667.715C822.784 664.664 827.611 660.511 827.1 655.311C826.668 652.918 825.703 650.566 824.258 648.38C823.268 646.736 822.441 645.039 821.786 643.308C819.394 636.514 822.421 630.259 825.329 624.199C826.245 622.271 827.199 620.271 827.958 618.32C834.478 601.26 825.363 579.522 806.74 567.76C804.161 565.953 801.137 564.703 797.974 564.137C795.333 563.815 791.906 564.503 790.817 566.802C789.27 569.871 792.325 573.714 795.028 577.098C811.995 598.432 812.567 627.323 796.357 645.886C794.614 647.888 792.666 649.828 790.773 651.688C786.712 655.723 782.495 659.879 780.286 664.917C778.662 668.629 778.657 677.273 782.363 681.861C783.24 683.029 784.556 683.935 786.066 684.411L786.121 684.428Z" fill="#5E4A2E" fill-opacity="0.5"/>
<path d="M815.596 650.27C815.943 650.375 816.282 650.507 816.607 650.664C819.519 652.099 820.364 655.231 819.676 657.434C818.836 659.518 817.347 661.322 815.352 662.674L814.087 663.694C808.984 667.823 799.51 675.493 793.041 673.517L792.919 673.48C789.766 672.444 788.718 670.802 788.414 669.606C787.11 664.709 795.129 658.487 797.34 657.101C800.716 654.986 804.282 653.081 808.015 651.399C809.967 650.467 812.845 649.43 815.596 650.27ZM793.563 671.857C798.82 673.463 808.416 665.685 812.533 662.347L813.818 661.308C815.556 660.148 816.868 658.601 817.634 656.81C818.115 655.235 817.536 653.082 815.701 652.169C813.643 651.153 810.946 652.136 809.113 652.971C805.481 654.609 802.01 656.461 798.723 658.518C795.514 660.545 789.579 665.984 790.476 669.338C790.685 669.919 791.081 670.456 791.617 670.886C792.153 671.316 792.807 671.621 793.501 671.766L793.563 671.857Z" fill="#5E4A2E" fill-opacity="0.5"/>
</svg>
