<svg width="1042" height="852" viewBox="0 0 1042 852" fill="none" xmlns="http://www.w3.org/2000/svg">
<path d="M763.488 795.778C762.255 792.06 760.953 788.355 759.581 784.662C739.786 731.213 706.775 683.242 666.617 649.605C635.949 623.85 600.466 604.729 566.191 586.219C515.74 558.967 463.548 530.777 427.984 481.522C420.862 471.697 414.123 460.61 407.632 449.965C390.481 421.849 372.761 392.79 344.971 380.493C318.686 368.883 288.379 374.873 254.874 398.277C249.352 402.16 243.774 406.334 238.452 410.359C219.072 424.918 199.006 439.978 175.073 444.5C158.255 447.686 139.701 445.636 121.859 443.627C95.6463 440.708 68.5303 437.684 47.1844 451.603C32.3199 461.297 22.9041 477.723 13.8038 493.612C9.47475 501.093 5.10207 508.802 0.171825 515.703C-28.7577 556.299 -81.4799 573.341 -131.002 558.136L-131.381 560.791C-80.9434 576.294 -27.2558 558.929 2.21278 517.597C7.17426 510.688 11.5841 502.989 15.8833 495.417C24.8968 479.729 34.2235 463.445 48.6193 454.134C69.3344 440.623 94.8704 443.452 121.902 446.48C139.965 448.487 158.631 450.565 175.773 447.331C200.157 442.626 220.425 427.511 240.009 412.798C245.368 408.782 250.916 404.617 256.444 400.751C289.293 377.782 318.889 371.908 344.365 383.131C371.293 395.036 388.754 423.675 405.647 451.371C412.171 462.066 418.92 473.131 426.108 483.055C462.106 532.898 514.604 561.239 565.351 588.666C599.493 607.133 634.813 626.279 665.242 651.825C746.822 720.088 792.282 842.842 773.45 943.834L775.91 944.731C784.549 898.44 780.138 846.005 763.488 795.778Z" fill="#5E4A2E" fill-opacity="0.5"/>
<path d="M718.864 817.533C697.423 761.944 670.702 692.791 620.913 649.151C594.127 625.71 562.012 610.789 530.956 596.343C488.69 576.682 448.728 558.118 420.722 519.903C412.906 509.267 406.053 497.015 399.414 485.154C385.47 460.243 371.041 434.483 347.11 422.582C328.751 413.416 306.277 414.125 282.138 424.394C273.791 427.97 265.675 432.347 257.822 436.594C247.271 442.303 236.344 448.214 224.83 452.147C205.582 458.684 184.174 459.887 163.46 461.076C137.151 462.54 109.976 464.063 87.0086 476.581C66.2187 487.916 50.7443 507.273 35.7764 526.002C30.1571 533.031 24.3573 540.287 18.363 547.008C-29.9856 601.172 -102.87 629.593 -176.601 623.008L-176.436 626.691C-101.813 633.346 -28.0317 604.601 20.8954 549.768C26.9402 542.995 32.7593 535.695 38.4038 528.638C53.1913 510.136 68.4794 490.986 88.7862 479.941C111.209 467.729 138.084 466.228 164.067 464.756C184.977 463.591 206.584 462.373 226.17 455.626C237.903 451.633 248.918 445.679 259.588 439.917C267.378 435.688 275.469 431.338 283.676 427.799C299.926 420.845 323.927 414.833 346.025 425.881C368.874 437.292 382.309 461.284 396.574 486.755C403.262 498.66 410.206 511.085 418.198 522.045C446.848 561.124 489.124 580.762 530.002 599.782C560.795 614.103 592.654 628.918 619.019 651.964C668.06 694.886 694.513 763.486 715.783 818.611L718.864 817.533Z" fill="#5E4A2E" fill-opacity="0.5"/>
<path d="M373.748 496.565C373.599 496.116 373.449 495.666 373.3 495.216C369.122 484.41 359.542 475.434 344.054 467.896C332.04 461.821 319.5 457.682 306.858 455.619C290.007 453.163 272.215 455.104 250.854 461.787C245.497 463.448 240.16 465.476 235.099 467.409C231.694 468.693 228.186 470.025 224.711 471.249C222.148 472.146 219.683 473.232 217.295 474.297C213.032 476.443 208.483 477.976 203.744 478.865C202.248 479.077 200.719 479.24 199.196 479.421C194.216 479.753 189.379 480.792 184.798 482.514C179.504 484.825 173.369 490.504 173.588 498.92C173.714 504.124 176.313 509.81 180.927 514.945C183.417 517.598 186.057 520.07 188.826 522.34C190.273 523.573 191.79 524.865 193.215 526.183C196.493 529.344 199.645 532.666 202.66 536.138C207.83 541.925 213.165 547.902 219.633 552.059C237.182 563.35 256.745 557.609 266.824 553.147C273.274 550.149 279.541 546.772 285.6 543.03C292.646 538.609 300.028 534.781 307.695 531.575C319.005 527.283 331.265 525.61 343.786 526.652C344.836 526.738 345.876 526.846 346.931 526.95C353.176 527.558 359.648 528.182 365.156 525.44C373.892 521.188 377.6 508.187 373.748 496.565ZM177.001 503.873C176.487 502.365 176.2 500.805 176.152 499.259C175.977 492.106 181.364 487.2 186.032 485.159C190.432 483.522 195.075 482.536 199.853 482.224C201.376 482.043 202.921 481.876 204.447 481.655C209.379 480.734 214.117 479.149 218.56 476.933C220.901 475.881 223.32 474.808 225.811 473.95C229.317 472.717 232.841 471.381 236.239 470.079C241.338 468.156 246.597 466.149 251.891 464.505C272.93 457.929 290.4 455.939 306.92 458.427C319.307 460.421 331.595 464.457 343.369 470.398C358.155 477.618 367.259 485.979 371.075 496.001C375.231 506.637 371.887 518.99 363.979 522.917C359.013 525.393 352.858 524.8 346.908 524.21C345.852 524.106 344.797 524.002 343.747 523.916C330.893 522.843 318.305 524.557 306.693 528.965C298.926 532.214 291.447 536.095 284.31 540.577C278.335 544.173 272.158 547.824 265.703 550.589C256.022 554.864 237.298 560.414 220.72 549.741C214.619 545.817 209.642 540.252 204.389 534.37C201.308 530.822 198.086 527.427 194.735 524.197C193.262 522.834 191.738 521.524 190.248 520.264C187.585 518.084 185.045 515.709 182.65 513.159C180.19 510.502 178.255 507.322 177.001 503.873Z" fill="#5E4A2E" fill-opacity="0.5"/>
<path d="M363.455 498.791C361.898 494.096 357.993 489.454 351.789 484.911C326.626 466.52 298.218 459.905 269.663 465.788C260.095 467.737 250.519 470.688 241.334 473.533C230.115 476.973 218.528 480.533 207.882 485.955C203.237 488.323 196.952 492.318 196.164 499.596C195.377 506.875 200.114 513.565 204.59 519.365C210.358 526.853 216.88 535.331 225.223 540.525C239.711 549.514 255.9 546.638 266.927 542.623C272.563 540.572 278.023 537.941 283.256 535.392C289.936 531.942 296.887 529.045 304.06 526.722C311.299 524.823 318.715 523.497 326.254 522.754C334.626 522.003 342.835 520.468 350.794 518.164C355.768 516.53 364.136 512.555 364.235 503.66C364.252 502.037 363.987 500.385 363.455 498.791ZM199.35 506.024C198.707 504.157 198.463 502.205 198.638 500.332C199.3 494.266 204.978 490.751 209.151 488.551C219.638 483.212 231.147 479.673 242.271 476.259C251.416 473.445 260.811 470.563 270.367 468.578C298.293 462.905 325.999 469.301 350.555 487.25C357.988 492.673 361.723 498.087 361.655 503.325C361.567 510.608 354.148 514.108 349.74 515.549C341.949 517.818 333.92 519.356 325.731 520.15C318.082 520.88 310.561 522.215 303.223 524.145C295.93 526.489 288.867 529.43 282.087 532.945C276.849 535.476 271.435 538.094 265.887 540.101C255.331 543.948 239.881 546.74 226.25 538.282C218.359 533.376 212.021 525.142 206.409 517.867C203.446 514.36 201.05 510.339 199.35 506.024Z" fill="#5E4A2E" fill-opacity="0.5"/>
<path d="M348.538 494.923C347.192 491.504 344.861 488.559 341.948 486.6C333.045 479.872 322.368 477.807 315.111 476.868C296.283 474.402 277.964 476.448 264.109 478.509C262.05 478.817 259.962 479.093 257.891 479.365C245.734 481.002 233.159 482.713 222.725 490.058C217.844 493.512 212.079 499.384 212.339 507.769C212.722 513.054 214.905 518.244 218.446 522.287C225.937 531.481 237.874 536.732 250.349 536.363C260.796 536.038 270.242 532.337 281.25 526.875C282.709 526.143 284.169 525.41 285.622 524.66C293.496 520.683 301.658 516.548 310.339 514.489C314.288 513.566 318.375 513.057 322.456 512.53C328.236 511.99 333.895 510.882 339.37 509.221C341.876 508.359 349.972 504.949 348.946 497.028C348.886 496.322 348.749 495.615 348.538 494.923ZM315.14 479.626C322.112 480.526 332.342 482.477 340.732 488.836C343.138 490.65 346.107 493.547 346.539 497.058C347.115 501.825 342.69 505.115 338.362 506.592C333.018 508.201 327.498 509.277 321.861 509.809C317.795 510.331 313.577 510.857 309.534 511.805C300.583 513.919 292.339 518.115 284.352 522.162L279.973 524.36C269.244 529.687 260.032 533.324 249.968 533.622C238.271 533.975 227.149 529.129 220.211 520.627C217.129 517.144 215.215 512.658 214.86 508.081C214.624 500.847 219.851 495.612 224.282 492.497C234.296 485.423 246.615 483.762 258.526 482.154C260.613 481.878 262.7 481.602 264.776 481.289C278.484 479.249 296.604 477.218 315.152 479.662L315.14 479.626Z" fill="#5E4A2E" fill-opacity="0.5"/>
<path d="M335.896 492.376C334.578 488.4 330.214 485.865 324.021 485.518C298.239 484.051 272.83 487.407 248.216 490.545C241.855 491.382 234.207 493.218 231.495 500.081C229.175 505.973 230.868 515.34 235.141 520.117C240.582 526.261 248.664 527.328 254.366 526.299C259.633 525.085 264.63 523.059 269.222 520.276C269.984 519.852 270.746 519.428 271.513 519.022C288.055 510.222 306.192 504.773 325.171 502.901L325.467 502.82C327.976 502.747 330.387 502.141 332.57 501.035C333.852 500.368 334.872 499.263 335.499 497.861C336.126 496.459 336.332 494.824 336.09 493.166C336.045 492.9 335.98 492.636 335.896 492.376ZM234.047 513.274C232.697 509.333 232.629 505.17 233.856 501.554C236.127 495.773 243.062 494.152 248.87 493.388C273.338 490.172 298.653 486.841 324.225 488.287C326.201 488.394 332.786 489.105 333.696 493.546C333.803 494.641 333.625 495.705 333.184 496.612C332.742 497.518 332.055 498.23 331.205 498.661C329.256 499.608 327.117 500.119 324.896 500.17L324.615 500.247C305.358 502.133 286.958 507.661 270.183 516.599C269.399 517.01 268.638 517.434 267.854 517.844C263.462 520.534 258.681 522.501 253.638 523.692C248.594 524.601 241.502 523.695 236.812 518.483C235.558 516.959 234.611 515.174 234.047 513.274Z" fill="#5E4A2E" fill-opacity="0.5"/>
<path d="M281.68 500.702C281.549 500.31 281.33 499.95 281.045 499.659C280.473 499.119 279.763 498.815 279.061 498.809L261.654 497.034C257.229 496.576 252.224 496.061 247.789 497.626C242.867 499.364 239.091 505.537 239.715 510.86C239.986 513.062 241.257 517.051 246.878 518.908C250.205 519.961 253.942 519.371 257.931 517.024C259.041 516.368 260.121 515.621 261.176 514.901C262.903 513.61 264.759 512.518 266.717 511.64C268.097 511.108 269.517 510.674 270.968 510.341C272.201 510.004 273.481 509.654 274.761 509.304C277.81 508.447 280.264 506.231 281.587 503.141C281.891 502.408 281.925 501.54 281.68 500.702ZM242.481 512.066C242.355 511.671 242.267 511.267 242.219 510.862C241.748 506.773 244.965 501.636 248.918 500.261C252.912 498.855 257.653 499.344 261.845 499.768L279.252 501.542C279.289 501.535 279.326 501.525 279.361 501.513L279.302 501.745C278.183 504.157 276.207 505.877 273.78 506.55C272.594 506.875 271.423 507.195 270.19 507.532C268.641 507.894 267.123 508.355 265.643 508.912C263.556 509.867 261.573 511.033 259.716 512.397C258.702 513.086 257.662 513.802 256.599 514.445C253.166 516.463 250.054 517.039 247.358 516.148C246.343 515.976 245.353 515.505 244.494 514.786C243.635 514.067 242.939 513.127 242.481 512.066Z" fill="#5E4A2E" fill-opacity="0.5"/>
<path d="M738.946 776.59C736.441 769.034 733.585 761.496 730.41 754.025C712.651 712.42 686.15 676.639 653.727 650.52C626.159 628.313 594.469 612.569 563.835 597.341C521.032 576.062 476.772 554.082 445.004 514.482C434.001 500.754 424.776 485.147 415.845 470.068C410.145 460.423 404.239 450.462 397.905 441.01C377.674 410.794 356.069 392.607 333.798 386.943C303.533 379.246 275.86 395.955 257.752 409.165C253.63 412.136 249.579 415.323 245.602 418.372C228.451 431.439 210.702 444.963 189.614 449.748C174.159 453.247 157.374 451.91 141.158 450.595C124.941 449.28 108.033 447.879 92.3537 451.42C62.2325 458.124 39.3729 481.855 20.9489 504.177C17.8373 507.971 14.7344 511.808 11.6402 515.688C-4.2258 535.251 -20.541 555.564 -41.5873 568.538C-63.1501 581.751 -98.4793 589.075 -127.077 566.227L-128.349 568.399C-98.7636 592.017 -62.3745 584.502 -40.1845 570.921C-18.8164 557.839 -2.37493 537.393 13.5192 517.607C16.6181 513.758 19.7074 509.931 22.8398 506.132C41.0581 484.062 63.5774 460.64 93.0839 454.084C108.463 450.665 125.117 452.018 141.237 453.3C157.652 454.699 174.565 455.961 190.313 452.421C211.829 447.54 229.727 433.798 247.081 420.676C251.042 417.631 255.16 414.543 259.213 411.571C277.041 398.594 304.169 382.192 333.52 389.648C355.106 395.146 376.117 412.926 395.943 442.488C402.226 451.836 408.089 461.77 413.771 471.361C422.76 486.562 432.052 502.268 443.198 516.172C475.381 556.306 520.01 578.421 563.034 599.856C593.603 615.043 625.09 630.685 652.403 652.687C718.133 705.644 756.954 796.662 749.004 879.18L751.501 879.831C754.639 845.872 750.337 810.502 738.946 776.59Z" fill="#5E4A2E" fill-opacity="0.5"/>
<path d="M724.093 784.828C701.163 715.658 653.517 653.48 593.725 617.873C576.991 607.909 558.989 599.666 541.58 591.672C505.344 575.052 467.875 557.847 441.483 524.861C430.756 511.45 421.801 495.377 413.157 479.827C397.274 451.325 380.893 421.94 353.357 409.278C332.089 399.554 307.318 401.754 279.726 415.831C271.992 419.77 264.425 424.311 257.104 428.726C243.69 436.788 229.818 445.112 214.738 449.843C197.175 455.351 177.896 455.991 159.26 456.672C139.803 457.341 119.696 458.051 101.374 464.197C68.2545 475.312 44.0267 502.772 20.595 529.347C14.2962 536.484 7.78584 543.856 1.22598 550.77C-21.5019 574.641 -66.9847 612.032 -116.206 592.547L-116.756 595.15C-66.3478 615.135 -20.0372 577.262 3.07089 552.895C9.65601 545.954 16.1917 538.556 22.5 531.396C45.7513 505.047 69.7927 477.795 102.378 466.866C120.424 460.814 140.364 460.111 159.668 459.444C178.447 458.784 197.866 458.105 215.695 452.524C231.119 447.7 245.035 439.304 258.552 431.194C265.847 426.806 273.384 422.274 281.055 418.352C308.024 404.602 332.154 402.42 352.715 411.808C379.343 423.992 394.774 451.695 411.106 481.035C419.839 496.698 428.851 512.893 439.802 526.517C466.704 560.169 504.488 577.503 541.03 594.275C558.374 602.227 576.302 610.452 592.913 620.351C667.651 664.842 723.244 751.353 734.509 840.743L736.991 840.731C734.559 821.894 730.233 803.141 724.093 784.828Z" fill="#5E4A2E" fill-opacity="0.5"/>
<path d="M771.941 774.24C757.514 730.279 732.509 690.155 699.856 658.569C663.217 623.636 618.256 600.827 574.787 578.769C517.468 549.646 463.195 522.163 425.276 469.04C418.599 459.682 412.266 449.307 406.151 439.285C389.314 411.653 371.898 383.099 344.578 371.242C319.559 360.424 291.024 365.851 259.724 387.436C253.591 391.683 247.493 396.293 241.605 400.767C224.405 413.788 206.628 427.281 185.663 432.797C166.546 437.827 145.198 436.129 124.546 434.476C96.793 432.253 68.0867 429.977 45.2195 444.391C29.3367 454.403 18.6351 471.161 8.29572 487.368C2.97251 496.057 -2.79387 504.372 -8.98029 512.28C-24.6216 531.101 -44.9873 544.419 -68.0859 550.934C-91.1845 557.448 -116.225 556.935 -140.76 549.445L-141.14 552.099C-91.1906 567.874 -38.5616 553.015 -7.01875 514.295C-0.780771 506.324 5.0392 497.949 10.4184 489.201C20.6338 473.185 31.2018 456.64 46.6797 446.895C68.9725 432.855 96.0387 435.01 124.726 437.331C145.567 438.99 167.105 440.695 186.572 435.589C207.927 429.967 225.873 416.369 243.231 403.207C249.093 398.759 255.176 394.153 261.268 389.937C291.896 368.791 319.713 363.403 343.93 373.911C370.395 385.394 387.546 413.509 404.141 440.718C410.295 450.808 416.64 461.218 423.384 470.675C461.77 524.436 518.886 553.359 573.994 581.359C617.282 603.33 661.984 625.974 698.376 660.68C749.349 709.274 781.886 782.724 783.295 852.343L785.794 852.641C785.193 826.411 780.507 799.893 771.941 774.24Z" fill="#5E4A2E" fill-opacity="0.5"/>
<path d="M782.179 623.702C749.019 589.705 709.961 564.007 668.287 548.769C626.613 533.531 583.542 529.199 542.695 536.137C541.086 536.42 537.541 537.075 536.431 540.145C536.172 540.828 536.055 541.584 536.087 542.363C536.119 543.142 536.301 543.926 536.619 544.665C537.954 547.871 541.582 550.548 544.525 551.98C554.856 557.004 565.451 561.955 575.694 566.767C600.972 578.574 627.102 590.795 651.765 605.674C691.676 629.785 721.918 658.109 741.792 689.816C774.399 741.959 781.506 807.764 787.223 860.647L789.722 860.689C783.992 807.457 776.8 741.244 743.811 688.46C723.704 656.306 693.012 627.654 652.728 603.292C627.931 588.313 601.73 576.032 576.405 564.238C566.138 559.354 555.558 554.398 545.243 549.37C542.906 548.224 539.818 546.047 538.847 543.683C538.673 543.303 538.572 542.896 538.553 542.491C538.533 542.086 538.595 541.693 538.734 541.34C539.323 539.727 541.309 539.145 543.382 538.774C624.311 524.144 715.204 557.39 780.564 625.556L782.179 623.702Z" fill="#5E4A2E" fill-opacity="0.5"/>
<path d="M772.443 624.166C729.199 582.3 677.242 554.173 623.257 543.405C613.443 541.477 607.361 543.003 604.652 548.079C601.943 553.156 604.033 560.334 607.173 564.773C610.648 569.709 615.641 573.014 619.658 575.683C625.101 579.316 630.564 582.904 636.116 586.507C670.438 608.908 705.962 632.158 731.793 666.122C765.755 710.851 778.906 768.391 790.514 819.173L792.935 818.825C781.257 767.729 768.035 709.874 733.607 664.507C707.435 630.029 671.72 606.713 637.175 584.157C631.66 580.563 626.167 576.984 620.724 573.351C616.923 570.819 612.188 567.68 609.069 563.254C606.475 559.588 604.664 553.766 606.846 549.716C609.027 545.667 614.384 544.418 623.144 546.143C676.618 556.816 728.086 584.671 770.932 626.129L772.443 624.166Z" fill="#5E4A2E" fill-opacity="0.5"/>
<path d="M771.027 630.067C745.087 608.106 717.384 589.108 688.43 573.422C684.11 571.071 679.873 568.973 675.52 568.986C671.166 568.999 666.167 571.994 665.852 577.515C665.538 583.035 669.884 587.929 674.621 592.206C741.013 652.454 786.665 736.233 801.764 825.535L804.229 825.371C789.007 735.337 742.981 650.871 676.044 590.13C671.917 586.412 668.125 582.367 668.348 578.009C668.545 574.032 672.325 571.723 675.842 571.703C679.639 571.705 683.554 573.656 687.562 575.837C716.344 591.423 743.879 610.31 769.658 632.148L771.027 630.067Z" fill="#5E4A2E" fill-opacity="0.5"/>
<path d="M780.005 648.311C769.733 638.09 758.362 629.389 746.247 622.479C742.912 620.585 739.4 618.975 736.182 620.051C731.504 621.605 730.322 628.05 731.857 633.143C733.3 637.908 736.524 641.677 739.655 645.471L739.903 645.757C784.104 698.593 813.43 763.707 823.495 831.366L825.969 831.278C815.798 763.012 786.191 697.319 741.575 644.024L741.343 643.734C738.494 640.275 735.382 636.692 734.238 632.571C733.093 628.45 733.946 623.782 737.201 622.716C739.588 621.906 742.48 623.235 745.348 624.903C757.241 631.684 768.404 640.224 778.487 650.257L780.005 648.311Z" fill="#5E4A2E" fill-opacity="0.5"/>
</svg>
