<svg width="549" height="888" viewBox="0 0 549 888" fill="none" xmlns="http://www.w3.org/2000/svg">
<g clip-path="url(#clip0_353_4)">
<path d="M-67.2163 836.727L-70.7854 836.727C-68.372 784.067 -28.1975 728.747 42.4316 680.693C85.7419 651.283 136.023 626.547 184.662 602.635C204.817 592.727 225.639 582.473 245.675 572.036C304.309 541.52 376.436 499.048 414.16 441.119C418.063 435.125 421.752 428.767 425.346 422.624C439.437 398.449 453.908 373.464 485.747 359.874C491.766 357.431 497.978 355.226 504.355 353.268C517.799 348.909 530.53 344.781 538.312 336.755C550.663 324.123 544.742 306.833 533.418 295.307C523.546 285.25 509.414 277.407 495.758 269.81C492.499 268.01 489.239 266.194 486.051 264.361C419.165 226 373.22 172.901 355.86 113.897C338.5 54.8922 350.77 -6.46161 390.63 -59.9595L393.818 -58.8201C354.323 -5.82936 342.16 54.9465 359.352 113.396C376.544 171.846 422.054 224.446 488.312 262.445C491.5 264.278 494.736 266.078 497.971 267.878C511.865 275.574 526.187 283.549 536.369 293.903C548.383 306.123 554.542 324.552 541.262 338.142C532.909 346.713 519.155 351.188 505.854 355.498C499.599 357.428 493.506 359.6 487.603 362.004C456.882 375.215 442.53 399.753 428.654 423.549C425.06 429.725 421.346 436.099 417.396 442.143C379.314 500.583 306.783 543.32 247.816 574.018C227.732 584.487 206.887 594.742 186.731 604.65C138.211 628.512 88.0257 653.182 44.9296 682.51C-25.0569 730.002 -64.8745 784.793 -67.2163 836.727Z" fill="#5E4A2E" fill-opacity="0.5"/>
<path d="M-74.6363 817.704L-78.2053 817.704C-77.1012 768.362 -40.1157 716.478 25.9206 671.628C67.1844 643.555 115.395 620.305 162.011 597.78C180.001 589.078 198.609 580.095 216.528 570.963C271.854 542.775 340.007 503.589 376.183 450.201C381.753 441.945 386.727 433.292 391.535 424.837C405.126 401.008 419.169 376.354 448.034 360.188C454.055 356.885 460.836 353.714 467.404 350.709C485.275 342.452 502.17 334.807 506.86 321.546C514.645 299.584 482.312 281.551 456.309 267.053L453.049 265.236C388.099 228.907 344.259 172.448 329.591 106.181C317.704 52.7436 324.307 -7.0179 349.589 -76.5222L353.063 -75.9112C327.876 -6.73718 321.345 52.6941 333.112 105.735C347.637 171.408 391.026 227.338 455.286 263.238L458.546 265.055C485.334 279.917 518.666 298.56 510.333 322.058C505.31 336.26 487.035 344.616 469.379 352.691C462.882 355.663 456.172 358.734 450.342 362.037C422.215 377.791 408.338 402.131 394.914 425.679C390.153 434.15 385.084 442.919 379.491 451.176C342.957 505.075 274.376 544.525 218.717 572.862C200.75 582.027 182.142 591.026 164.129 599.729C117.631 622.204 69.5396 645.438 28.49 673.329C-36.9514 717.766 -73.5561 769.023 -74.6363 817.704Z" fill="#5E4A2E" fill-opacity="0.5"/>
<path d="M-122.118 886.994C-141.738 835.637 -121.359 775.942 -66.1708 723.215C-18.6936 677.837 45.1754 643.753 117.658 607.028L125.106 603.246C188.975 570.897 255.057 537.457 305.008 494.259C345.916 458.904 379.189 414.582 409.728 354.771C417.083 340.372 423.438 326.286 420.729 312.018C417.853 296.892 404.959 283.648 392.47 270.851L387.926 266.144C295.435 169.872 273.284 42.5052 330.148 -66.2842L333.503 -65.442C277.019 42.6208 299.028 169.145 390.877 264.823L395.42 269.513C408.147 282.542 421.279 296.033 424.274 311.738C427.079 326.599 420.58 340.966 413.082 355.646C382.424 415.738 348.962 460.291 307.792 495.86C257.531 539.257 191.187 572.812 127.2 605.244L119.775 609.009C47.5306 645.603 -16.1004 679.571 -63.2921 724.602C-117.837 776.735 -138.026 835.654 -118.668 886.3L-122.118 886.994Z" fill="#5E4A2E" fill-opacity="0.5"/>
<path d="M-167.731 888.15C-183.064 813.84 -118.76 747.787 -79.0658 714.992C-42.5842 684.888 0.535224 658.351 42.2982 632.689C67.2846 617.332 93.1039 601.43 117.234 584.933C247.046 496.224 317.947 392.966 316.92 294.167C316.499 254.304 304.443 214.491 292.792 175.982C287.442 158.346 281.925 140.115 277.598 122.083C260.124 49.6225 268.867 -6.3079 304.376 -48.9121L307.468 -47.6736C272.388 -5.58132 263.764 49.7546 281.072 121.67C285.399 139.653 290.916 157.867 296.242 175.47C307.917 214.095 320.021 254.04 320.441 294.134C321.469 393.627 250.186 497.561 119.637 586.733C95.4353 603.246 69.6636 619.198 44.5344 634.621C3.03323 660.151 -40.0148 686.622 -76.3298 716.577C-115.643 749.009 -179.328 814.368 -164.209 887.803L-167.731 888.15Z" fill="#5E4A2E" fill-opacity="0.5"/>
<path d="M-211.454 839.023L-215 838.742C-209.068 802.248 -182.174 764.432 -137.244 729.226C-105.047 704.043 -66.9724 682.229 -30.1594 661.125C-21.7989 656.359 -13.4623 651.564 -5.14941 646.742C152.74 554.846 237.866 469.77 262.82 378.98C279.487 318.062 267.793 254.85 256.455 193.734C254.53 183.397 252.557 172.696 250.751 162.227C238.867 93.3333 232.934 13.9045 279.202 -52.8091L282.414 -51.7357C236.551 14.3999 242.46 93.3829 254.296 161.929C256.103 172.399 258.075 183.083 260.001 193.404C271.386 254.734 283.152 318.145 266.317 379.442C241.221 470.827 155.69 556.365 -2.86558 648.608C-11.1467 653.447 -19.5231 658.236 -27.8756 663.024C-64.5934 684.161 -102.572 705.827 -134.58 730.878C-179.009 765.638 -205.594 803.057 -211.454 839.023Z" fill="#5E4A2E" fill-opacity="0.5"/>
<path d="M-188.162 847.18L-192.92 846.652C-180.085 791.267 -131.82 736.607 -45.3668 679.554C-21.8556 664.048 3.05938 649.005 27.1652 634.456C73.8778 606.252 122.185 577.106 161.951 543.402C241.592 475.717 285.917 391.332 287.723 303.96C288.468 263.668 279.982 223.045 271.781 183.644C267.573 163.416 263.223 142.493 260.158 121.835C248.752 44.9824 260.184 -12.203 296.193 -58.1594L300.38 -56.5081C264.895 -11.2948 253.677 45.2631 264.869 121.422C267.911 142.014 272.261 162.904 276.468 183.116C284.693 222.566 293.108 263.387 292.458 303.943C290.662 392.062 245.985 477.174 165.686 545.45C125.682 579.368 77.2323 608.613 30.3532 636.9C6.29489 651.416 -18.5963 666.443 -42.0123 681.899C-127.681 738.474 -175.445 792.538 -188.162 847.18Z" fill="#5E4A2E" fill-opacity="0.5"/>
<path d="M63.1579 426.835C47.0971 426.835 31.2511 423.962 18.5467 416.514C-6.6956 401.784 -8.80824 375.974 -8.80378 353.021C-8.91198 297.503 -9.0663 234.571 -45.6745 181.514C-62.2779 157.603 -85.9247 136.02 -108.691 115.147L-120.586 104.281C-145.589 81.2618 -173.256 54.081 -186.312 22.7058C-200.296 -10.8161 -193.723 -44.6518 -168.782 -67.7869L-165.928 -66.3007C-190.201 -43.7931 -196.537 -10.7666 -182.886 21.9792C-169.996 52.9416 -142.448 79.8912 -117.826 102.729C-113.877 106.362 -109.912 109.984 -105.931 113.595C-82.974 134.616 -59.2083 156.315 -42.5574 180.507C-5.61611 234.076 -5.46185 297.305 -5.35371 353.087C-5.35805 375.479 -3.22149 400.562 20.8074 414.681C44.8364 428.8 81.5983 425.448 107.773 417.554C185.726 394.039 224.093 333.221 234.025 284.127C242.575 241.837 236.421 198.357 230.694 156.298C228.912 143.352 227.035 129.877 225.634 116.782C220.385 67.6219 219.874 4.49166 262.856 -47.4921L265.948 -46.2536C223.467 5.1687 223.978 67.787 229.203 116.6C230.604 129.811 232.458 143.12 234.264 156.067C240.109 198.258 246.144 241.936 237.57 284.474C227.495 334.228 188.485 395.906 109.057 419.883C94.575 424.294 78.971 426.658 63.1579 426.835Z" fill="#5E4A2E" fill-opacity="0.5"/>
<path d="M106.413 313.95C84.4037 313.95 61.2063 306.338 44.244 292.896C24.0462 276.977 14.4852 255.658 8.4211 238.881C6.6851 234.026 5.04428 229.056 3.45104 224.25C-1.30495 210.065 -6.06085 195.385 -14.4098 181.844C-29.7757 156.81 -56.8726 135.607 -83.0893 114.965C-115.349 89.6836 -148.702 63.4606 -159.689 30.2359C-172.007 -6.86942 -152.846 -43.2316 -134.615 -67.1924L-131.474 -66.0364C-149.419 -42.4225 -168.152 -6.67126 -156.262 29.7405C-145.442 62.2881 -112.374 88.2305 -80.4003 113.331C-53.9695 134.038 -26.706 155.456 -11.1499 180.886C-2.70578 194.625 2.16905 209.405 6.90123 223.689C8.49448 228.494 10.1353 233.448 11.8713 238.27C17.8403 254.783 27.211 275.739 46.9092 291.261C67.3211 307.345 96.6097 314.743 121.57 310.119C149.529 304.951 167.616 286.092 177.85 271.181C205.53 230.889 208.798 184.965 208.377 149.462C208.261 136.631 207.644 123.585 207.052 110.953C205.701 82.4838 204.303 53.0407 208.52 24.2085C215.668 -24.0763 238.874 -63.6751 275.903 -90.2944L278.472 -88.6431C242.015 -62.4201 218.975 -23.3332 212.066 24.3902C207.872 53.0572 209.27 82.4178 210.597 110.804C211.214 123.453 211.83 136.515 211.946 149.379C212.272 185.147 209.075 231.433 180.99 272.188C170.423 287.562 151.694 307.031 122.426 312.448C117.206 313.431 111.822 313.936 106.413 313.95Z" fill="#5E4A2E" fill-opacity="0.5"/>
<path d="M104.908 224.432C77.402 224.432 51.7547 212.163 35.4824 199.2C22.8023 189.094 12.835 177.402 3.22452 166.074C-2.88907 158.874 -9.21676 151.427 -16.1632 144.491C-31.9591 128.738 -51.848 114.767 -70.8803 101.26C-80.1824 94.6543 -89.9127 87.9334 -98.9054 81.0143C-134.377 54.0812 -152.765 30.236 -156.947 5.81291C-160.299 -13.8544 -153.87 -35.9491 -138.519 -58.0934C-124.762 -77.9093 -105.605 -95.7271 -87.1136 -113L-84.2349 -111.53C-102.655 -94.3565 -121.693 -76.5883 -135.307 -57.0366C-150.42 -35.3051 -156.682 -13.6727 -153.402 5.46615C-149.314 29.2948 -131.212 52.7436 -96.3115 79.2804C-87.2713 86.216 -77.7551 92.9864 -68.4531 99.5917C-49.2066 113.1 -29.2226 127.152 -13.2363 143.088C-6.21849 150.089 0.156774 157.586 6.29415 164.819C15.8095 176.048 25.7054 187.64 38.1714 197.581C56.7038 212.328 87.7043 226.182 119.066 220.7C149.808 215.399 166.848 194.279 174.274 182.175C194.862 148.62 193.633 110.771 192.426 74.1448C192.3 70.5119 192.19 66.879 192.095 63.246C190.985 21.9629 194.491 -20.9716 227.809 -53.899L230.735 -52.4624C198.131 -20.0303 194.625 22.3097 195.736 63.2626C195.83 66.8955 195.94 70.5284 196.067 74.1613C197.273 111.035 198.431 149.165 177.629 183.149C169.941 195.682 152.235 217.546 119.993 223.111C115.059 223.971 109.994 224.415 104.908 224.432Z" fill="#5E4A2E" fill-opacity="0.5"/>
<path d="M73.0372 157.553C50.6948 157.553 30.9952 149.561 18.3145 142.774C6.70013 136.259 -4.19476 129.149 -14.2788 121.505C-17.8712 118.912 -21.4159 116.32 -25.1272 113.776C-34.6435 107.171 -44.9924 100.566 -54.937 94.2908C-77.7524 79.7757 -101.424 64.9137 -118.624 46.617C-141.865 21.9792 -153.445 -16.348 -124.007 -42.1087L-121.224 -40.573C-149.567 -15.8031 -138.201 21.3022 -115.625 45.296C-98.6876 63.2624 -75.2061 78.1243 -52.5335 92.4579C-42.5651 98.7659 -32.2399 105.305 -22.581 112.026C-18.9172 114.58 -15.2932 117.167 -11.7088 119.787C-1.75391 127.359 8.99732 134.408 20.4563 140.875C32.9943 147.48 52.5274 155.456 74.4177 155.109C113.13 154.515 141.259 128.919 151.019 105.404C157.947 88.6928 159.021 70.875 160.047 53.6517C160.572 44.8006 161.121 35.6357 162.432 26.6855C169.416 -19.1276 197.071 -62.2413 241.451 -96.5034L244.092 -94.8521C200.225 -60.9791 172.894 -18.3563 166.001 26.9332C164.667 35.8008 164.141 44.9162 163.616 53.7508C162.566 71.1062 161.492 89.0726 154.445 106.081C144.328 130.405 114.962 156.909 74.5124 157.537L73.0372 157.553Z" fill="#5E4A2E" fill-opacity="0.5"/>
<path d="M280.454 484.516C279.1 484.516 277.75 484.405 276.433 484.185C274.658 483.9 272.997 483.343 271.573 482.555C270.148 481.766 268.996 480.766 268.201 479.628C264.372 474.228 268.774 471.157 272.677 468.448C273.898 467.641 275.035 466.775 276.08 465.856C288.693 454.296 297.499 439.203 304.473 427.116C320.561 399.479 329.996 370.196 332.4 340.438C333.789 323.67 332.868 306.85 329.65 290.204L329.65 289.824C328.512 286.04 328.513 282.132 329.652 278.348C331.295 274.368 336.411 270.405 343.002 270.487C349.236 270.586 353.685 274.054 357.277 277.307C371.265 289.659 387.157 303.729 392.221 320.39C399.616 344.632 383.456 368.378 364.797 392.586L305.25 469.902C302.013 474.112 298.348 478.868 292.161 481.923C288.73 483.595 284.646 484.499 280.454 484.516ZM333.195 289.874C336.433 306.673 337.362 323.648 335.969 340.57C333.547 370.617 324.024 400.185 307.78 428.09C300.64 440.31 291.833 455.519 278.935 467.392C277.783 468.401 276.535 469.355 275.199 470.248C271.058 473.138 268.821 474.938 271.414 478.588C271.969 479.414 272.789 480.141 273.812 480.714C274.835 481.286 276.033 481.688 277.314 481.89C279.507 482.197 281.767 482.189 283.956 481.868C286.145 481.547 288.216 480.92 290.044 480.024C295.541 477.299 299.016 472.808 301.943 468.861L361.585 391.53C379.958 367.734 395.833 344.45 388.7 321.018C383.778 304.868 368.172 291.096 354.421 278.942C351.257 276.151 347.475 273.146 342.787 273.08C338.1 273.014 334.173 276.151 332.959 279.14C331.935 282.594 331.935 286.156 332.957 289.61L333.195 289.874Z" fill="#5E4A2E" fill-opacity="0.5"/>
</g>
<defs>
<clipPath id="clip0_353_4">
<rect width="764" height="888" fill="white" transform="translate(-215)"/>
</clipPath>
</defs>
</svg>
