<svg width="729" height="662" viewBox="0 0 729 662" fill="none" xmlns="http://www.w3.org/2000/svg">
<g clip-path="url(#clip0_29_5295)">
<path d="M-209.994 446.202L-214.71 445.569C-208.107 403.699 -189.612 363.982 -160.291 328.705C-130.97 293.429 -91.4019 263.291 -43.8672 240.028C-3.09376 220.327 43.3304 205.917 88.228 191.968C103.887 187.105 120.071 182.081 135.866 176.92C188.067 159.72 253.165 134.804 293.396 94.5027C302.968 84.5229 311.773 74.1608 319.777 63.4555C331.371 48.6506 343.256 33.285 359.339 20.4489C373.97 8.76756 388.806 2.34544 404.715 0.799217C437.651 -2.39309 470.565 17.0713 483.344 37.7311C494.586 55.9017 496.18 77.0759 488.351 104.416C486.41 111.17 484.129 117.961 481.807 124.514C476.95 138.674 471.886 153.306 470.743 168.231C468.827 193.199 479.43 215.583 499.865 229.656C524.297 246.499 563.945 251.589 596.288 241.919C599.616 240.916 603.083 239.765 606.335 238.619C621.093 233.669 636.308 228.531 652.54 233.16C669.54 237.958 678.008 251.041 684.631 264.46C692.156 279.915 698.887 296.098 689.245 309.065C680.839 320.333 663.256 324.87 646.22 329.264C640.823 330.655 635.25 332.106 630.129 333.768C589.552 346.648 566.895 375.529 544.777 403.433C542.656 406.114 540.545 408.78 538.444 411.43C517.374 437.792 483.073 473.274 428.806 476.918L427.884 473.596C480.283 470.101 513.736 435.388 534.347 409.581C536.461 406.954 538.571 404.294 540.678 401.6C562.997 373.273 586.119 343.971 627.924 330.706C633.189 329.047 638.837 327.573 644.297 326.24C660.589 322.029 677.425 317.692 685.074 307.406C693.87 295.557 687.516 280.142 680.235 265.369C674.041 252.874 666.258 240.583 651.246 236.352C636.997 232.339 622.664 237.163 608.784 241.83C605.38 243.039 601.882 244.236 598.467 245.177C564.43 255.303 522.556 249.981 496.703 232.097C475.194 217.263 463.984 193.865 465.987 167.892C467.17 152.673 472.254 137.893 477.175 123.609C479.448 117.066 481.772 110.314 483.68 103.622C491.297 76.9701 489.81 56.4268 479.001 38.964C467.011 19.5765 436.36 1.31571 405.786 4.25869C390.946 5.7151 376.945 11.8162 363.011 22.958C347.227 35.5342 335.392 50.7066 323.96 65.3833C315.886 76.187 307.004 86.6443 297.347 96.716C256.564 137.559 190.903 162.733 138.225 180.086C122.499 185.272 106.289 190.31 90.5828 195.166C45.8613 209.056 -0.388975 223.423 -40.8294 242.969C-134.497 288.058 -197.678 364.066 -209.994 446.202Z" fill="#5E4A2E" fill-opacity="0.5"/>
<path d="M-191.583 422.299L-195.036 421.552C-170.257 347.401 -108.111 284.364 -19.5121 243.515C19.3864 225.795 63.2241 212.586 105.587 199.813C157.433 184.181 211.031 168.018 255.49 143.58C296.199 121.147 328.644 92.2834 350.607 58.9641C351.907 56.9726 353.186 54.9616 354.441 52.9475C359.892 44.3657 365.501 35.5051 373.915 28.104C385.841 17.6091 402.482 12.0458 418.386 13.2147C448.91 15.4634 469.194 39.4133 473.417 61.9235C477.458 83.476 472.09 104.648 466.89 125.11C464.424 134.876 461.818 144.973 460.354 154.973C454.702 192.719 470.142 225.016 501.56 241.33C530.977 256.626 569.783 256.021 597.175 252.818L597.956 252.723C617.029 250.502 640.762 247.723 656.273 258.42C670.421 268.183 668.854 283.768 661.392 294.096C649.28 310.964 625.177 320.241 601.882 329.226C588.034 334.548 573.727 340.075 561.942 347.19C539.38 360.722 525.641 380.237 512.345 399.129C510.007 402.414 507.69 405.718 505.332 408.967C489.797 430.408 469.248 453.607 434.595 462.967L433.061 460.628C466.72 451.518 486.875 428.749 502.147 407.657C504.503 404.424 506.817 401.136 509.132 397.848C522.548 378.772 536.437 359.044 559.425 345.202C571.437 338.001 585.895 332.428 599.871 327.04C623.822 317.826 646.408 309.112 658.127 292.841C665.01 283.252 666.592 268.986 653.835 260.125C639.775 250.423 617.994 252.964 598.799 255.202L598.018 255.297C557.75 259.987 523.711 255.851 499.543 243.292C466.983 226.374 451.061 193.196 456.817 154.498C458.342 144.406 460.905 134.27 463.4 124.459C468.529 104.17 473.87 83.1943 469.899 62.0177C465.964 41.1124 446.579 17.7997 418.363 15.7108C403.576 14.6252 388.021 19.9677 376.761 29.7858C368.587 37.019 363.073 45.7091 357.712 54.1532C356.431 56.1805 355.15 58.2078 353.848 60.2156C331.676 93.8443 298.934 122.979 257.856 145.63C213.061 170.24 159.266 186.443 107.267 202.138C65.0227 214.744 21.3095 227.919 -17.3504 245.471C-105.334 286.038 -167.028 348.651 -191.583 422.299Z" fill="#5E4A2E" fill-opacity="0.5"/>
<path d="M355.252 475.441L354.626 472.957C416.923 469.408 457.749 429.321 483.033 399.476C485.888 396.094 488.75 392.662 491.615 389.215C518.543 356.958 546.364 323.605 594.713 308.27C597.772 307.298 600.967 306.394 604.039 305.507C613.251 302.878 622.786 300.176 629.897 295.499C638.979 289.554 643.375 278.465 634.714 270.92C623.833 261.495 604.31 264.922 587.238 267.979L581.216 269.019C537.278 276.366 483.749 259.166 459.239 229.867C435.75 201.721 439.314 168.077 445.033 141.97C446.039 137.34 447.145 132.69 448.25 128.04C453.852 104.233 459.828 79.6096 452.724 55.1299C449.527 44.0873 440.861 33.5435 430.618 28.3028C427.968 26.8518 424.969 25.7771 421.814 25.1469C418.658 24.5167 415.414 24.3448 412.288 24.6422C397.497 26.0886 389.872 37.6276 384.297 46.0595C353.87 92.0593 307.865 131.36 249.928 160.844C204.919 183.659 153.07 200.207 102.949 216.22C71.7657 226.196 39.5071 236.494 9.22113 248.189C-58.2124 274.225 -141.68 319.7 -156.663 388.633L-160.157 388.014C-144.982 318.191 -60.7772 272.231 7.19112 245.967C37.5802 234.219 69.8904 223.895 101.123 213.909C151.117 197.945 202.816 181.444 247.569 158.745C305.158 129.495 350.896 90.4826 381.152 44.8043C387.029 35.913 395.052 23.7442 411.57 22.1299C415.155 21.7859 418.876 21.9778 422.499 22.6936C426.121 23.4093 429.567 24.6334 432.618 26.2887C443.621 31.9479 452.917 43.1596 456.294 54.8261C463.525 79.7894 457.593 104.618 451.841 128.655C450.737 133.289 449.634 137.922 448.604 142.549C442.989 168.237 439.456 201.302 462.323 228.715C485.909 257.023 537.622 273.63 580.062 266.532C582.026 266.212 584.019 265.847 586.06 265.488C604.259 262.266 624.918 258.609 637.366 269.41C647.361 278.1 642.595 290.689 632.434 297.339C624.902 302.293 615.091 305.091 605.629 307.786C602.583 308.66 599.412 309.567 596.404 310.513C548.959 325.553 521.392 358.624 494.72 390.581C491.856 394.029 488.994 397.455 486.136 400.859C460.507 431.124 419.054 471.777 355.252 475.441Z" fill="#5E4A2E" fill-opacity="0.5"/>
<path d="M-173.899 551.817C-181.459 488.055 -162.465 424.642 -118.899 368.461C-75.3336 312.279 -11.2147 268.221 66.6569 241.155C92.5968 232.141 120.46 224.719 147.399 217.556C196.399 204.524 246.996 191.04 287.051 167.577C327.106 144.114 355.014 111.356 382.223 77.1875C391.813 65.1459 407.793 54.6787 423.906 61.4405C434.066 65.687 438.147 74.7989 436.041 88.4951C434.799 96.6591 433.204 104.776 431.652 112.748C427.568 133.66 423.342 155.269 425.222 176.998C428.17 211.316 447.639 240.788 478.599 257.824C504.665 272.154 540.815 278.807 580.403 276.491C591.577 275.875 603.02 275.762 609.7 281.791C616.38 287.819 612.804 296.203 605.63 300.455C600.049 303.754 592.972 305.32 586.048 306.823C584.341 307.193 582.635 307.564 580.95 307.954C534.75 318.913 508.429 349.868 482.969 379.773C457.286 410.081 430.606 441.388 383.315 452.6L381.882 450.224C428.106 439.269 454.427 408.314 479.863 378.406C505.546 348.098 532.226 316.791 579.54 305.583C581.228 305.176 582.96 304.792 584.69 304.424C591.294 302.979 598.096 301.493 603.183 298.477C609.209 294.904 612.191 287.906 606.989 283.209C601.786 278.512 591.163 278.419 581.145 279.006C540.622 281.313 503.516 274.449 476.692 259.684C444.824 242.076 424.796 211.946 421.784 176.853C419.928 154.944 424.131 133.148 428.231 112.122C429.776 104.199 431.383 96.0005 432.611 87.9347C434.565 75.3677 431.11 67.1396 422.404 63.5048C408.609 57.7206 393.877 68.0056 385.475 78.5404C358.097 112.886 330.18 145.71 289.573 169.532C248.965 193.354 198.135 206.79 148.863 219.885C121.996 227.041 94.0926 234.408 68.3951 243.404C-89.7895 298.376 -185.754 422.332 -170.352 551.86L-173.899 551.817Z" fill="#5E4A2E" fill-opacity="0.5"/>
<path d="M-153.207 460.774L-156.712 460.054C-132.904 376.377 -50.086 318.768 15.1963 285.163C98.3225 242.407 196.22 214.597 290.9 187.688C306.051 183.391 322.122 179.567 337.495 184.33C340.059 185.167 342.562 186.109 344.99 187.153C349.698 189.101 354.084 190.939 358.877 191C364.988 191.087 369.714 188.256 374.704 185.244C379.695 182.232 384.73 179.242 391.571 178.894C403.076 178.323 413.098 185.917 416.683 193.362C418.801 198.51 419.888 203.773 419.911 208.991C420.077 211.146 420.233 213.383 420.541 215.557C424.118 240.196 451.301 264.256 485.181 272.787C489.825 273.96 494.742 274.887 499.468 275.805C508.713 277.579 518.191 279.402 526.818 283.092C530.942 284.867 534.606 287.165 537.602 289.854C540.598 292.543 542.866 295.571 544.277 298.765C545.176 300.773 545.486 302.851 545.186 304.865C544.887 306.879 543.984 308.785 542.536 310.461C538.323 315.194 530.634 317.027 523.217 318.798C520.24 319.514 517.14 320.248 514.377 321.159C498.273 326.478 490.267 338.699 482.534 350.507L480.634 353.384C452.568 395.707 408.531 431.047 352.858 455.925L350.746 453.775C405.916 429.112 449.561 394.089 477.391 352.149L479.289 349.288C487.264 337.113 495.508 324.541 512.594 318.887C515.579 317.951 518.647 317.128 521.784 316.422C529.027 314.696 535.825 313.059 539.47 308.983C540.664 307.569 541.399 305.965 541.626 304.274C541.853 302.583 541.569 300.842 540.79 299.164C538.183 293.391 532.553 288.347 525.106 285.112C517.025 281.644 508.156 279.937 498.772 278.127C493.973 277.216 488.987 276.264 484.204 275.055C448.954 266.174 420.655 241.131 416.925 215.488C416.6 213.262 416.425 210.989 416.296 208.739C416.289 203.757 415.259 198.731 413.237 193.816C410.082 187.278 401.302 180.801 392.069 181.261C386.316 181.554 381.826 184.234 377.096 187.098C371.873 190.229 366.468 193.468 359.062 193.374C353.334 193.305 348.217 191.185 343.259 189.136C340.964 188.173 338.604 187.3 336.192 186.521C322.13 182.184 306.804 185.824 292.351 189.932C197.847 216.782 100.147 244.551 17.3301 287.149C-47.3554 320.601 -129.613 377.786 -153.207 460.774Z" fill="#5E4A2E" fill-opacity="0.5"/>
<path d="M235.553 494.692L233.261 492.635C331.762 440.415 418.442 378.338 490.951 308.084C493.508 306.03 495.234 303.507 495.971 300.744C496.887 293.936 485.591 288.67 474.993 284.282C443.745 271.166 418.937 251.201 404.846 227.829C404.222 226.762 403.601 225.662 402.884 224.566C398.55 216.986 394.031 209.165 384.684 204.945C378.574 202.175 371.155 201.462 364.701 200.896C318.755 197.293 270.177 203.083 220.325 218.167C175.059 231.817 134.096 251.326 96.0106 270.138C25.5229 304.961 -47.3322 343.464 -95.8506 397.197L-98.8912 395.706C-50.0885 341.644 23.0502 302.996 93.7957 268.041C132.01 249.163 173.128 229.575 218.643 215.858C269.138 200.628 318.302 194.766 364.905 198.49C371.794 199.032 379.725 199.864 386.561 202.947C396.992 207.68 401.743 215.916 406.331 223.929C406.954 225.013 407.553 226.093 408.295 227.175C422.047 249.984 446.258 269.468 476.752 282.269C485.853 286.006 500.798 292.162 499.688 301.31C498.927 304.503 496.997 307.426 494.081 309.804C421.321 380.199 334.36 442.39 235.553 494.692Z" fill="#5E4A2E" fill-opacity="0.5"/>
<path d="M-102.899 477.476L-106.304 476.552C-82.1773 420.493 -33.5234 367.894 34.407 324.414C93.4042 286.666 165.844 255.538 255.887 229.19C283.9 221.004 316.572 212.812 349.728 219.412C381.107 225.658 404.769 243.047 430.238 263.428C445.561 275.699 458.454 286.943 461.119 300.514C463.881 314.613 454.431 327.224 443.833 338.73C405.072 380.587 353.525 415.436 292.459 441.068L290.352 438.886C351.013 413.419 402.219 378.796 440.723 337.213C450.984 326.078 460.132 313.927 457.53 300.598C455.028 287.783 442.492 276.919 427.612 264.925C402.575 244.902 379.355 227.789 349.003 221.764C316.971 215.381 284.943 223.427 257.432 231.446C167.746 257.643 95.6109 288.645 36.876 326.229C-30.5778 369.556 -78.9218 421.813 -102.899 477.476Z" fill="#5E4A2E" fill-opacity="0.5"/>
<path d="M145.529 487.87L143.413 485.753C236.029 442.772 331.656 398.462 407.286 339.854C422.886 327.753 438.417 313.127 435.339 296.202C433.509 286.243 425.032 275.724 410.113 264.908C397.205 255.56 376.443 243.559 351.099 239.573C317.049 234.268 284.849 244.124 254.788 254.684C121.79 301.424 29.7423 350.363 -34.8093 408.708L-37.7077 407.053C27.2608 348.463 119.67 299.34 253.074 252.437C282.33 242.153 316.534 231.667 351.641 237.147C378.045 241.291 399.455 253.646 412.754 263.296C428.287 274.545 437.148 285.599 439.066 296.153C442.328 314.035 426.319 329.181 410.238 341.65C334.126 400.443 238.265 444.888 145.529 487.87Z" fill="#5E4A2E" fill-opacity="0.5"/>
<path d="M11.0434 419.796L8.22228 418.101C86.1867 351.776 177.509 300.74 279.697 266.375C295.84 260.945 314.822 255.113 335.223 254.62C357.741 254.094 378.989 260.695 390.668 271.86C400.498 281.244 403.91 294.432 399.824 307.146C396.104 318.743 387.193 328.776 378.126 337.822C337.603 378.271 284.021 411.061 221.163 433.878L219.305 431.629C281.713 408.964 334.924 376.411 375.191 336.262C384.07 327.357 392.777 317.596 396.376 306.366C400.245 294.373 397.087 281.969 387.918 273.207C374.877 260.743 352.387 256.774 335.727 257.12C315.929 257.594 297.346 263.313 281.362 268.631C179.648 302.86 88.6852 353.728 11.0434 419.796Z" fill="#5E4A2E" fill-opacity="0.5"/>
<path d="M88.9965 464.968L87.063 462.742C153.857 437.36 215.146 405.972 269.557 369.281C278.773 363.054 287.442 356.787 292.115 348.817C297.226 340.09 295.924 330.135 288.825 323.467C282.433 317.443 271.179 313.65 258.768 313.283C247.263 312.971 236.228 315.405 226.024 318.084C150.751 337.968 89.4704 378.059 35.384 413.567L32.8317 411.658C87.1222 376.061 148.678 335.707 224.488 315.762C235.039 312.996 246.445 310.479 258.547 310.821C272.131 311.212 284.48 315.436 291.599 322.123C301.169 331.122 299.843 342.407 295.414 349.993C290.519 358.366 281.611 364.801 272.133 371.193C217.527 408.006 156.023 439.5 88.9965 464.968Z" fill="#5E4A2E" fill-opacity="0.5"/>
<path d="M100.675 446.859L98.5545 444.775C129.397 429.655 161.292 414.027 184.539 392.722C188.754 388.873 192.826 384.654 193.911 379.802C194.946 375.492 193.274 369.719 187.23 366.642C179.98 362.886 169.76 364.08 156.864 370.179C117.62 388.779 81.8674 410.6 50.2601 435.242L47.5207 433.474C79.3051 408.697 115.267 386.764 154.746 368.079C168.95 361.355 180.532 360.211 189.173 364.687C196.581 368.514 198.685 375.361 197.473 380.447C196.226 385.794 191.923 390.298 187.487 394.368C163.799 415.913 131.721 431.65 100.675 446.859Z" fill="#5E4A2E" fill-opacity="0.5"/>
<path d="M76.7638 448.813L74.4716 446.756C99.0593 433.794 122.297 419.662 144.045 404.447C146.877 402.494 151.198 398.743 148.575 395.758C147.688 394.953 146.511 394.326 145.188 393.953C143.865 393.58 142.454 393.478 141.126 393.658C138.018 394.092 135.139 394.995 132.68 396.306C110.726 406.131 89.82 416.992 70.0886 428.823L67.7146 426.838C87.5348 414.954 108.528 404.038 130.568 394.157C133.421 392.667 136.748 391.65 140.333 391.169C142.365 390.917 144.518 391.108 146.516 391.717C148.513 392.327 150.263 393.327 151.541 394.59C154.519 397.972 152.824 402.01 146.675 406.316C124.808 421.59 101.459 435.784 76.7638 448.813Z" fill="#5E4A2E" fill-opacity="0.5"/>
</g>
<defs>
<clipPath id="clip0_29_5295">
<rect width="880.817" height="625.112" fill="white" transform="translate(-144.819 -75) rotate(7.64681)"/>
</clipPath>
</defs>
</svg>
