<svg width="314" height="634" viewBox="0 0 314 634" fill="none" xmlns="http://www.w3.org/2000/svg">
<path d="M-256.51 201.875L-284.486 204.693C-287.629 204.693 -290.458 204.693 -292.344 202.188C-294.23 199.683 -292.344 196.708 -291.244 194.047C-289.917 191.348 -288.338 188.779 -286.529 186.375C-284.725 184.109 -282.25 182.465 -279.456 181.678C-272.541 180.739 -265.783 181.678 -258.868 180.739C-245.689 180.336 -232.519 181.759 -219.733 184.966C-215.647 186.062 -211.246 186.062 -207.16 187.001L-189.714 191.542C-187.223 192.382 -184.636 192.908 -182.013 193.107C-181.187 193.171 -180.357 193.072 -179.569 192.815C-178.782 192.558 -178.053 192.149 -177.425 191.611C-176.797 191.072 -176.282 190.416 -175.91 189.678C-175.537 188.941 -175.315 188.138 -175.255 187.314C-172.741 172.336 -172.741 157.045 -175.255 142.067C-176.845 131.414 -179.423 120.931 -182.956 110.753C-185.638 101.288 -190.003 92.3789 -195.844 84.4498C-198.749 80.7467 -201.08 76.6301 -202.759 72.2376C-203.321 71.2201 -203.454 70.0221 -203.13 68.9066C-202.806 67.7912 -202.051 66.8495 -201.03 66.2881L-192.386 60.0254C-188.143 57.0506 -184.685 57.99 -182.013 62.687C-177.77 70.3588 -173.212 78.3438 -168.811 85.3893C-168.089 86.8086 -167.459 88.2729 -166.925 89.7731C-164.882 95.8792 -162.368 101.985 -160.796 108.405C-158.281 118.425 -156.238 128.758 -154.195 139.718C-154.195 142.066 -154.195 144.415 -152.938 146.764C-150.661 155.438 -150.661 164.549 -152.938 173.223C-153.881 176.824 -153.881 180.739 -154.509 184.496C-155.069 188.142 -155.856 191.751 -156.867 195.299C-157.498 196.891 -157.61 198.639 -157.187 200.298C-156.764 201.956 -155.827 203.439 -154.509 204.537C-150.423 207.668 -146.022 210.173 -141.779 212.991C-137.535 215.81 -131.877 218.784 -127.162 222.072C-122.447 225.36 -119.304 227.865 -115.532 230.84C-111.76 233.815 -106.102 238.825 -101.23 242.582C-99.8155 243.678 -97.458 243.522 -95.572 243.992C-94.7577 241.952 -94.3829 239.765 -94.4718 237.572C-94.4718 234.911 -97.1437 232.406 -97.9295 229.744C-101.073 219.097 -104.059 208.294 -106.888 197.491C-107.831 194.047 -107.988 190.602 -108.774 187.001C-109.571 181.414 -110.673 175.873 -112.074 170.405C-115.359 155.282 -117.617 139.956 -118.833 124.531C-121.137 105.889 -121.873 87.0877 -121.033 68.3235C-121.033 61.7476 -119.618 55.1718 -118.99 48.4394C-118.361 41.7071 -117.89 37.4798 -117.418 32.7827C-117.56 29.3044 -116.374 25.9017 -114.1 23.2585C-111.826 20.6154 -108.631 18.9279 -105.159 18.5352C-103.259 18.1216 -101.413 17.4911 -99.6582 16.6564C-95.8862 16.6564 -93.686 16.6563 -93.2145 21.0402C-92.822 22.5815 -92.822 24.196 -93.2145 25.7372C-98.3435 46.6237 -100.408 68.1403 -99.344 89.6166C-99.344 94.9399 -99.344 100.107 -99.344 105.273C-99.344 107.152 -97.7723 109.031 -96.9864 110.91C-95.1378 110.276 -93.3909 109.38 -91.7999 108.248C-84.3678 99.7643 -78.1771 90.2764 -73.4115 80.066L-61.1526 57.8334C-60.6917 57.0427 -60.3226 56.2023 -60.0524 55.3284L-52.98 38.7323C-52.98 37.7929 -52.037 36.8535 -51.7226 35.9141C-48.7365 26.3635 -45.7503 16.9695 -42.607 7.41891C-42.3313 5.30055 -41.2463 3.36964 -39.5776 2.02814C-37.909 0.686638 -35.7852 0.0378424 -33.6485 0.216782H-25.633C-20.7609 0.216782 -18.4034 3.03498 -19.8179 7.73199C-23.9043 20.1008 -28.3048 32.313 -32.3912 44.5253C-35.3275 54.3046 -39.1684 63.7915 -43.8643 72.8639C-44.5991 74.5622 -45.4936 76.1873 -46.5361 77.7175C-47.5176 79.0675 -48.4101 80.4796 -49.2079 81.9448C-53.4819 92.3262 -59.2531 102.031 -66.3391 110.753C-73.8831 120.93 -82.0557 131.107 -89.2853 142.067C-91.0999 144.627 -92.0369 147.701 -91.9571 150.834C-91.5659 157.735 -90.6198 164.594 -89.1281 171.345C-87.085 181.835 -84.4131 192.011 -81.7413 202.658C-79.8324 211.519 -77.3653 220.252 -74.3546 228.805C-70.9235 237.153 -68.4967 245.878 -67.1249 254.795C-66.9442 255.727 -66.5533 256.606 -65.9815 257.365C-65.4097 258.125 -64.6721 258.745 -63.8244 259.179C-62.8814 259.179 -60.3667 258.083 -59.4237 256.674C-56.6102 252.061 -54.0397 247.305 -51.7226 242.426C-49.8366 238.825 -48.4221 235.224 -46.6933 231.779C-46.159 230.582 -45.5282 229.43 -44.8073 228.335C-41.0353 220.663 -37.892 212.678 -33.4913 205.476C-25.3564 191.702 -15.8242 178.796 -5.04429 166.961C-0.643637 162.107 3.59989 157.097 7.52905 151.304C8.03411 150.554 8.37847 149.707 8.54071 148.818C8.70296 147.929 8.67957 147.017 8.472 146.137C6.27168 138.465 3.28551 130.481 1.08518 123.278C-1.11515 116.076 -1.42944 110.753 -2.68677 104.49C-2.68677 102.925 -2.68682 101.359 -3.47265 99.7934C-7.13875 86.6517 -8.78146 73.0319 -8.34476 59.3991C-8.34476 50.0051 -8.34476 40.7677 -8.34476 31.3736C-8.58518 29.9747 -8.58518 28.5453 -8.34476 27.1463C-6.0851 21.196 -4.9656 14.8763 -5.04429 8.51487C-5.04429 3.6613 -3.15832 0.999624 1.55666 0.529923C5.77051 -0.176641 10.0733 -0.176641 14.2872 0.529923C17.2733 0.529923 17.902 3.50469 17.4305 6.63603C15.9192 15.0272 14.8699 23.4945 14.2872 31.9999C14.2872 44.995 14.2872 58.3032 14.2872 71.2982C14.2544 83.5754 16.3821 95.7633 20.5737 107.309C20.6192 107.934 20.6192 108.562 20.5737 109.187C22.4699 119.364 25.8036 129.221 30.4753 138.465C31.471 140.736 32.6264 142.933 33.933 145.041C39.0397 155.22 45.1466 164.87 52.1642 173.85C53.2643 175.259 53.4215 177.451 54.5217 178.703C55.7604 180.416 57.526 181.681 59.551 182.304C60.9655 182.304 63.1657 180.112 63.7944 178.547C66.3091 170.405 68.6666 162.107 70.5526 153.809C73.0672 142.067 75.2676 130.167 77.6251 118.268C81.5543 97.758 85.3262 77.0912 89.4126 55.6415C91.1414 46.5606 93.3416 37.4798 95.2276 28.3989C95.3845 25.8963 95.3845 23.3863 95.2276 20.8836C95.1572 19.9591 95.3047 19.031 95.6582 18.1734C96.0118 17.3157 96.5616 16.5523 97.2639 15.9439C97.9662 15.3355 98.8016 14.8991 99.7033 14.6694C100.605 14.4397 101.548 14.4231 102.457 14.621C105.052 14.7707 107.578 15.5121 109.839 16.7879C112.101 18.0638 114.038 19.84 115.502 21.9796C116.878 24.5727 117.426 27.5223 117.074 30.4342C115.659 38.7323 113.459 46.8737 111.73 55.0152C109.53 65.5052 107.644 75.8386 105.601 86.3286C103.557 96.8186 101.357 108.874 99.1568 119.991C98.2138 124.844 96.7993 129.385 96.3278 134.238C96.3278 136.117 97.428 138.152 98.2138 140.188C100.099 139.664 101.898 138.873 103.558 137.839C113.302 129.385 123.36 121.243 132.319 112.162C141.277 103.081 146.778 94.7832 153.851 86.0155C157.465 81.475 160.923 76.778 164.224 72.081C167.524 67.384 167.681 65.9749 169.724 63.1567C171.087 60.927 172.723 58.8757 174.597 57.0506C175.945 55.7497 177.749 55.0223 179.626 55.0223C181.503 55.0223 183.307 55.7497 184.655 57.0506L186.541 58.4597C194.714 65.9749 194.714 67.6972 187.798 76.3084C184.28 80.8884 181.077 85.7008 178.211 90.7125C162.681 115.285 142.439 136.566 118.645 153.339C110.63 159.289 101.986 164.299 93.656 168.996C91.4733 170.59 89.6574 172.629 88.3293 174.978C87.0012 177.327 86.1917 179.932 85.9549 182.617C85.0119 187.471 83.4403 192.325 82.1829 197.178C80.9256 202.032 80.1397 207.042 79.0395 212.052C76.3677 223.012 73.6959 233.971 71.1812 244.931C70.2452 249.318 69.6151 253.765 69.2953 258.239C69.2077 259.115 69.3333 260 69.6616 260.817C69.9899 261.635 70.5112 262.362 71.1812 262.936C72.2814 262.936 74.4817 262.936 76.2105 262.936C77.9394 262.936 77.7822 261.684 78.5681 260.901C87.3694 252.916 95.8564 245.244 105.129 236.79C110.473 232.406 117.231 229.587 122.889 225.517C134.316 218.274 146.692 212.637 159.666 208.764C162.008 208.44 164.196 207.412 165.937 205.818C167.678 204.223 168.889 202.138 169.41 199.84C172.082 188.723 174.597 177.607 177.268 166.491C178.211 162.264 179.626 158.193 180.883 153.966C182.141 149.738 184.341 142.536 186.227 136.743C187.327 133.768 188.742 130.95 189.999 128.132C193.928 118.895 197.543 109.501 201.786 100.263C204.425 94.8544 207.418 89.6243 210.745 84.6064C210.745 83.667 214.674 82.8842 215.302 83.5104C219.403 86.9402 223.094 90.8277 226.304 95.0964C227.562 96.8186 226.304 100.42 226.304 103.081C222.532 109.344 219.389 116.076 216.088 122.809C212.023 131.846 208.455 141.097 205.401 150.521C202.415 158.506 200.529 166.961 198.329 175.102C197.071 179.486 195.814 183.713 194.714 188.097C194.409 189.859 194.409 191.659 194.714 193.42C194.647 194.252 194.797 195.087 195.149 195.844C195.501 196.601 196.042 197.255 196.721 197.742C197.401 198.23 198.195 198.535 199.027 198.629C199.859 198.722 200.701 198.6 201.472 198.274C211.732 195.595 222.445 195.114 232.905 196.865C240.764 197.618 248.58 198.768 256.323 200.309C262.295 201.562 268.11 203.441 274.083 205.163C277.54 206.102 280.841 207.355 284.298 208.138C288.88 208.94 293.135 211.033 296.561 214.168C299.987 217.303 302.44 221.35 303.63 225.83C303.63 227.239 304.887 228.648 305.359 230.057C306.183 232.544 306.711 235.119 306.93 237.729C306.93 242.113 303.944 243.679 300.172 241.173C290.735 235.442 280.855 230.469 270.625 226.3C267.946 225.241 265.15 224.505 262.295 224.108C254.437 222.385 246.579 220.976 238.72 219.097C227.043 216.826 215.035 216.826 203.358 219.097C196.443 220.193 189.527 222.385 182.612 223.638C175.634 224.564 168.935 226.966 162.966 230.683C162.115 231.224 161.144 231.546 160.137 231.623C153.139 233.07 146.639 236.308 141.277 241.017C137.82 243.365 137.505 245.87 139.706 248.689C146.621 256.987 152.908 265.754 160.294 273.583C170.667 284.229 181.512 294.406 191.728 304.896C194.788 307.231 198.561 308.447 202.415 308.341C216.235 308.316 230.041 307.427 243.75 305.679C254.569 303.591 265.115 300.282 275.183 295.815C282.749 292.173 290.096 288.095 297.186 283.603C300.742 281.609 304.416 279.832 308.188 278.28C310.545 277.34 313.217 277.497 313.531 280.315C314.156 285.149 314.156 290.042 313.531 294.876C312.974 297.585 311.705 300.099 309.856 302.162C308.006 304.224 305.641 305.762 303.001 306.618C299.544 308.027 296.557 310.063 293.257 311.785L289.013 313.664L273.297 320.553C270.67 321.396 267.993 322.076 265.281 322.588C257.894 324.467 250.508 326.189 243.121 328.225C241.734 328.483 240.484 329.223 239.593 330.312C238.701 331.401 238.225 332.769 238.249 334.174C238.249 337.462 241.392 337.932 243.907 338.871C246.421 339.811 252.394 342.942 256.637 344.821L264.024 347.482L274.868 351.24C283.198 353.902 291.528 356.563 300.172 358.599C301.631 358.815 303.029 359.335 304.274 360.124C305.518 360.913 306.583 361.954 307.398 363.18C308.213 364.405 308.76 365.787 309.005 367.237C309.249 368.686 309.185 370.17 308.816 371.594C308.816 374.255 308.03 376.917 307.402 379.422C306.773 381.927 305.201 388.033 304.101 392.261C303.001 396.488 301.43 400.872 300.015 405.099C300.015 406.665 300.015 408.7 298.129 409.64C293.414 413.397 288.385 416.685 283.513 420.129C283.513 420.129 281.627 420.13 280.841 420.912C269.461 426.605 257.569 431.218 245.321 434.69C242.313 435.616 239.195 436.142 236.048 436.256C234.219 436.087 232.377 436.087 230.548 436.256C228.645 436.958 227.038 438.283 225.99 440.013C225.99 440.013 227.561 442.832 228.819 444.084C236.52 451.599 244.535 458.958 251.922 466.63C255.369 469.844 258.333 473.535 260.724 477.59C261.313 479.498 261.475 481.513 261.196 483.491C260.917 485.469 260.205 487.361 259.11 489.035C258.015 490.708 256.565 492.121 254.861 493.173C253.157 494.226 251.242 494.892 249.25 495.125C247.586 494.883 246.043 494.114 244.85 492.933C237.306 484.948 230.076 477.276 222.218 468.978C216.726 463.897 210.898 459.19 204.772 454.887C201.57 453.031 198.265 451.358 194.871 449.877C180.38 443.041 164.541 439.511 148.507 439.544C139.012 438.609 129.426 439.405 120.217 441.892C114.108 443.334 108.158 445.379 102.457 447.998C94.0966 452.47 86.4223 458.111 79.6682 464.751C73.6593 470.674 68.7625 477.62 65.209 485.261C61.4457 492.148 59.1414 499.731 58.4385 507.541C57.7356 515.351 58.6491 523.222 61.1226 530.666C61.7413 533.836 62.5283 536.972 63.4801 540.06C66.3091 545.54 69.7668 550.706 73.0673 555.717C80.731 566.126 90.4019 574.909 101.514 581.55C105.609 583.94 109.925 585.933 114.402 587.5C115.039 587.805 115.738 587.964 116.445 587.964C117.153 587.964 117.851 587.805 118.488 587.5C123.518 585.151 128.233 582.49 133.105 579.984C135.839 578.987 138.471 577.728 140.963 576.227L177.426 549.141C180.883 546.479 184.027 543.035 187.484 540.373C188.613 539.391 189.975 538.713 191.441 538.402C192.907 538.092 194.428 538.159 195.86 538.598C197.293 539.037 198.589 539.833 199.626 540.911C200.663 541.989 201.407 543.313 201.786 544.757C202.64 546.999 202.811 549.442 202.28 551.78C201.749 554.119 200.539 556.25 198.8 557.908C193.472 563.528 187.747 568.76 181.669 573.565C171.925 580.767 161.552 587.343 151.336 593.919C144.578 598.146 137.348 602.06 130.433 606.131L127.918 607.384C122.732 609.732 117.545 612.237 112.202 614.429C109.641 615.48 107.016 616.369 104.343 617.091L95.6992 619.596C89.4126 621.475 83.1259 623.667 76.8392 625.389C69.2887 627.602 61.6301 629.431 53.893 630.869C44.0251 632.608 34.0466 633.654 24.0314 634C8.31481 634 -8.34474 634 -24.5328 634C-44.0027 632.646 -63.2798 629.288 -82.0557 623.98C-92.8743 620.972 -103.396 616.989 -113.489 612.081C-122.29 608.166 -131.406 604.565 -140.05 600.182C-146.622 596.713 -152.973 592.843 -159.067 588.596C-163.863 585.63 -168.481 582.389 -172.898 578.888C-181.07 572.626 -188.614 566.05 -196.787 559.631C-197.599 558.925 -198.337 558.138 -198.987 557.282C-200.529 556.13 -201.713 554.567 -202.401 552.773C-203.089 550.979 -203.253 549.028 -202.875 547.145C-202.497 545.262 -201.592 543.524 -200.264 542.132C-198.937 540.739 -197.241 539.75 -195.372 539.277C-193.607 538.572 -191.637 538.572 -189.872 539.277C-187.749 540.287 -185.789 541.607 -184.056 543.191C-174.469 550.863 -165.039 558.848 -155.138 565.737C-149.166 570.121 -142.407 573.565 -136.121 577.479L-127.948 582.333C-124.72 584.888 -120.81 586.443 -116.703 586.804C-112.596 587.166 -108.473 586.319 -104.845 584.368C-97.3007 579.056 -90.2047 573.139 -83.6273 566.676C-79.8772 563.335 -76.552 559.55 -73.7259 555.403C-69.1173 549.088 -65.1677 542.321 -61.9385 535.206C-59.7342 528.7 -58.6191 521.876 -58.638 515.009C-58.3302 509.359 -58.9675 503.698 -60.5239 498.256C-62.8541 489.412 -66.9132 481.112 -72.4686 473.832C-75.1404 470.544 -78.1265 467.569 -80.6411 464.281C-87.0017 458.167 -94.1342 452.904 -101.859 448.625C-103.752 447.691 -105.76 447.007 -107.831 446.589C-111.038 446.014 -114.192 445.176 -117.261 444.084C-127.708 439.844 -139.056 438.283 -150.266 439.544C-158.255 440.004 -166.138 441.585 -173.683 444.241C-182.746 447.298 -191.571 451.013 -200.087 455.357C-205.565 457.942 -210.56 461.436 -214.861 465.69C-224.448 474.615 -233.407 483.852 -242.679 493.09C-244.094 494.499 -245.351 496.065 -246.766 497.317C-248.18 498.57 -252.267 500.292 -254.781 497.317C-256.367 494.767 -258.099 492.31 -259.968 489.958C-260.77 489.253 -261.413 488.386 -261.854 487.414C-262.294 486.442 -262.522 485.388 -262.522 484.322C-262.522 483.256 -262.294 482.202 -261.854 481.23C-261.413 480.258 -260.77 479.391 -259.968 478.686C-248.426 465.333 -235.521 453.212 -221.462 442.519C-219.987 441.222 -218.281 440.213 -216.433 439.544C-211.729 438.073 -207.607 435.171 -204.645 431.246C-201.973 428.271 -202.602 426.079 -206.217 424.044C-209.832 422.008 -213.761 419.19 -217.69 417.311C-225.391 413.554 -233.407 410.109 -241.108 406.665L-249.909 402.907C-253.367 401.655 -256.824 399.932 -260.439 398.993C-268.926 396.801 -277.413 394.922 -285.9 393.043C-289.086 392.267 -292.368 391.951 -295.644 392.104C-297.844 392.51 -300.116 392.096 -302.028 390.941C-303.941 389.786 -305.361 387.971 -306.017 385.841C-307.292 381.907 -308.238 377.875 -308.846 373.786C-309.189 373.015 -309.309 372.165 -309.194 371.33C-309.078 370.495 -308.732 369.709 -308.194 369.059C-307.656 368.409 -306.947 367.921 -306.146 367.65C-305.345 367.379 -304.484 367.335 -303.66 367.523C-289.986 364.235 -276.313 360.791 -262.482 357.972C-256.242 356.951 -249.942 356.324 -243.622 356.094C-227.408 354.115 -211.078 353.226 -194.744 353.432C-190.5 353.432 -186.1 353.432 -181.699 353.432C-179.1 353.62 -176.522 354.039 -173.998 354.685C-171.642 355.43 -169.222 355.954 -166.768 356.25C-148.138 356.505 -129.631 359.297 -111.76 364.548L-85.3562 372.377C-77.1342 374.679 -69.1384 377.718 -61.4669 381.457C-58.6379 382.867 -55.3375 385.215 -52.3513 382.553C-49.3652 379.892 -50.151 375.508 -51.2512 371.75L-59.2665 344.664C-60.2095 341.689 -61.4669 338.558 -62.7242 335.583C-63.9724 333.553 -64.8752 331.331 -65.396 329.007C-68.6036 314.893 -75.676 301.94 -85.8277 291.588C-92.2661 282.664 -99.2469 274.141 -106.731 266.068C-109.708 262.903 -113.153 260.211 -116.947 258.083C-117.948 257.586 -119.05 257.328 -120.168 257.328C-121.287 257.328 -122.389 257.586 -123.39 258.083C-128.262 261.371 -132.663 265.441 -137.221 269.042C-145.357 276.093 -153.969 282.58 -162.996 288.457C-170.697 292.84 -178.713 297.694 -186.728 301.452C-194.744 305.209 -206.688 309.437 -216.747 313.194C-222.562 315.386 -229.006 316.012 -234.978 317.891C-249.478 322.362 -264.594 324.529 -279.771 324.31C-287.629 324.31 -295.487 324.31 -303.503 324.31C-311.518 324.31 -313.404 321.336 -312.933 314.134C-312.147 302.235 -309.632 301.139 -298.631 301.608C-285.898 302.284 -273.133 302.022 -260.439 300.825C-248.699 298.852 -237.097 296.133 -225.705 292.684C-219.86 291.731 -214.286 289.542 -209.36 286.265C-208.839 285.861 -208.255 285.544 -207.631 285.325L-185.471 275.618C-184.236 275.09 -183.074 274.406 -182.013 273.583L-151.995 251.663C-148.866 249.514 -145.97 247.048 -143.35 244.305C-139.578 240.391 -140.521 236.946 -145.394 234.284C-154.038 229.901 -162.368 224.89 -171.012 220.82C-178.924 216.967 -187.121 213.721 -195.53 211.113C-205.227 208.331 -215.097 206.187 -225.077 204.693C-232.475 203.627 -239.925 202.948 -247.394 202.658H-256.51V201.875ZM-0.0149777 616.151L32.9899 612.707L36.4475 611.768C37.316 611.494 38.1164 611.041 38.796 610.436C39.4755 609.832 40.019 609.092 40.3902 608.263C40.7615 607.435 40.9523 606.537 40.95 605.63C40.9477 604.723 40.7522 603.826 40.3767 603C39.6519 601.168 38.7017 599.432 37.5477 597.833C30.4851 588.407 25.1632 577.804 21.8311 566.52C21.8903 566.052 21.8903 565.578 21.8311 565.111C18.0701 559.871 15.643 553.799 14.7587 547.418C13.3442 540.53 10.5152 533.797 9.25788 526.908C5.85746 502.061 4.9623 476.937 6.58597 451.913C8.50615 429.955 11.8662 408.145 16.6446 386.624C18.3734 374.882 21.8311 363.609 24.6601 352.023C27.4891 340.437 30.1609 330.26 32.9899 319.3C32.9899 316.639 34.5615 313.977 35.1902 311.315C36.919 304.583 38.4907 297.694 40.2195 290.805L43.52 278.593C44.463 274.679 45.7204 270.765 46.6634 266.85C48.0779 259.961 49.3351 252.916 50.9068 246.027C52.4785 239.138 54.836 229.431 56.722 221.133C57.1275 219.222 57.0055 217.238 56.369 215.39C55.7325 213.543 54.6052 211.903 53.1071 210.643C48.5493 205.789 44.7774 200.153 40.6911 194.986C36.6048 189.819 32.6755 183.713 28.432 178.234C27.0312 176.632 25.3873 175.258 23.5599 174.163C20.5738 172.44 17.4304 172.754 16.0159 175.885C11.9274 182.907 7.02139 189.423 1.39958 195.299C-2.21524 200.153 -5.51575 205.163 -8.81624 210.173C-12.1167 215.183 -12.1168 215.81 -13.6885 218.628C-15.2601 221.446 -16.6746 223.794 -17.9319 226.456C-19.1892 229.118 -19.0321 229.431 -19.8179 230.84L-32.7056 255.891C-33.0926 257.018 -33.4076 258.168 -33.6485 259.335C-35.063 262.936 -36.3203 266.694 -37.5777 270.451C-38.8058 273.183 -39.8046 276.011 -40.5639 278.906C-42.607 286.578 -44.493 294.563 -46.2218 302.078C-46.8515 304.756 -46.8515 307.542 -46.2218 310.219C-43.2357 320.866 -39.7779 331.199 -36.7918 341.533C-34.4343 349.361 -32.7056 357.19 -30.5052 365.018C-29.0907 370.341 -27.0475 375.508 -25.7902 380.675C-24.5329 385.841 -23.5899 391.478 -22.4897 396.331C-21.3896 401.185 -18.7178 410.579 -17.6176 417.781C-15.8888 428.114 -14.9458 438.604 -13.5313 449.094C-13.6937 449.816 -13.6937 450.565 -13.5313 451.286C-11.4692 456.233 -10.8165 461.651 -11.6452 466.943C-12.0367 469.012 -12.0367 471.136 -11.6452 473.206C-9.05853 492.482 -9.05853 512.016 -11.6452 531.292C-12.9026 545.227 -16.3602 559.004 -18.8749 572.782C-19.5154 575.484 -20.3024 578.15 -21.2324 580.767C-23.9042 588.752 -26.5761 596.424 -28.7764 604.722C-30.1909 609.732 -28.7764 611.924 -23.1184 612.081C-17.4604 612.237 -15.5745 612.081 -11.9596 612.081C-8.34481 612.081 -3.1583 615.525 -0.0149777 616.151ZM24.6601 477.746H26.3889C25.9954 485.204 25.9954 492.677 26.3889 500.135C27.3319 511.095 29.0607 521.898 30.7896 532.858C31.3065 535.268 32.043 537.626 32.9899 539.903C34.0127 541.432 34.7575 543.128 35.1902 544.913C36.7619 556.03 45.0917 564.015 48.235 574.348C48.235 574.348 49.3352 575.601 49.6496 576.227L53.4215 581.863C57.665 587.969 61.7513 594.232 66.3091 600.025C67.9945 602.023 70.3859 603.299 72.9891 603.591C75.5923 603.882 78.2085 603.166 80.2969 601.591C81.221 601.058 82.0211 600.336 82.6442 599.472C83.2674 598.609 83.6994 597.623 83.9118 596.581C83.9118 595.015 81.5543 593.449 79.9826 592.197C77.1066 590.355 74.3263 588.37 71.6527 586.247C67.8305 582.962 64.3068 579.347 61.1226 575.444C56.5648 569.651 52.3214 563.545 48.3922 557.439C45.8279 553.348 43.7199 548.99 42.1055 544.444C37.9499 530.384 36.6673 515.637 38.3336 501.075C38.4196 495.047 39.4809 489.073 41.4769 483.383C45.0888 475.25 49.4008 467.445 54.3645 460.054C62.4457 448.183 73.2125 438.369 85.7977 431.402C96.5459 425.474 108.245 421.448 120.374 419.503C138.467 417.938 156.661 417.938 174.754 419.503C184.363 419.477 193.966 420 203.515 421.069C212.751 421.01 221.922 419.531 230.705 416.685C240.199 415.493 249.406 412.631 257.895 408.23C258.883 408.07 259.892 408.07 260.881 408.23C270.153 406.665 276.597 399.463 285.084 396.018C286.184 396.018 287.127 393.983 287.913 392.887C291.842 386.937 290.271 383.963 283.198 382.553C278.64 381.614 274.083 380.205 269.525 378.952L250.036 373.942C247.364 373.942 244.535 373.003 241.864 372.533C232.276 370.654 222.689 368.149 212.945 367.053C200.271 365.516 187.521 364.68 174.754 364.548C162.652 364.548 150.707 365.644 138.763 365.801C123.749 365.977 108.813 367.975 94.2847 371.75C86.7407 373.786 78.5681 375.038 71.4956 376.917C64.4232 378.796 58.9224 380.831 52.4786 382.397C48.8779 382.946 45.5012 384.481 42.7258 386.831C39.9504 389.181 37.8857 392.253 36.7619 395.705C35.3511 399.805 34.1964 403.988 33.3043 408.23C31.7326 417.155 30.4753 426.079 29.3751 435.003L24.6601 477.746ZM-203.074 374.255H-223.662C-226.15 374.327 -228.624 374.642 -231.049 375.195C-231.93 375.304 -232.777 375.597 -233.535 376.056C-234.294 376.515 -234.946 377.129 -235.45 377.856C-235.45 378.952 -234.192 380.988 -233.249 382.397C-232.589 383.368 -231.661 384.129 -230.578 384.589C-222.562 388.973 -214.861 393.043 -206.374 397.584C-197.887 402.124 -193.172 405.412 -186.571 409.64C-179.97 413.867 -178.084 416.215 -173.683 419.347C-172.275 420.074 -170.712 420.454 -169.126 420.454C-167.539 420.454 -165.976 420.074 -164.568 419.347C-162.346 418.512 -160.019 417.985 -157.653 417.781C-149.382 417.311 -141.091 417.311 -132.82 417.781C-121.976 419.034 -111.289 421.539 -100.601 423.417C-99.4438 423.81 -98.3361 424.335 -97.3008 424.983L-87.8708 429.837L-79.2267 435.16C-70.6736 441.124 -63.1384 448.42 -56.9091 456.766C-49.8272 464.745 -44.9047 474.39 -42.607 484.792C-42.607 488.549 -39.3065 492.15 -39.3065 495.908C-38.6844 509.402 -39.3158 522.924 -41.1925 536.302C-42.9776 547.625 -47.4497 558.361 -54.2372 567.616C-60.9179 577.771 -69.7743 586.327 -80.1697 592.666C-84.7275 595.171 -84.5703 599.086 -80.1697 601.278C-76.0349 603.255 -71.7837 604.98 -67.4393 606.444C-61.1526 608.48 -54.8659 606.444 -53.2943 602.217C-49.3651 591.101 -45.9075 579.984 -42.2927 568.868C-40.721 564.171 -39.1494 559.318 -37.7349 554.307C-37.0391 552.116 -36.5651 549.861 -36.3203 547.575C-36.4898 544.707 -36.4898 541.832 -36.3203 538.964C-34.4212 530.65 -33.6808 522.115 -34.12 513.6C-34.12 506.241 -34.12 499.039 -34.12 491.837C-34.12 481.504 -35.5345 471.17 -36.3203 460.524C-36.1661 458.334 -36.1661 456.137 -36.3203 453.948C-38.3635 442.675 -40.2495 431.402 -42.607 420.286C-43.2875 417.538 -44.9677 415.139 -47.322 413.554C-52.8675 410.322 -58.5864 407.395 -64.4531 404.786L-71.2112 400.872C-72.6637 399.966 -74.1881 399.181 -75.769 398.523C-81.2699 396.488 -86.9278 394.609 -92.5858 392.887C-101.073 390.382 -109.717 388.503 -117.89 385.528C-126.296 382.753 -134.999 380.967 -143.822 380.205C-148.065 380.205 -152.466 378.952 -156.71 378.17L-180.285 374.255H-203.074ZM165.481 340.75V341.689C172.711 341.689 179.783 341.689 186.855 341.689C189.213 341.689 192.513 340.437 193.299 338.715C194.085 336.992 191.57 334.331 189.527 332.765L188.113 331.982C183.144 328.766 178.369 325.264 173.811 321.492C164.852 313.507 156.365 304.896 147.721 296.442C144.184 293.231 140.875 289.778 137.82 286.108C131.69 278.28 126.189 270.451 120.217 261.997C119.763 261.286 119.136 260.7 118.394 260.294C117.652 259.889 116.82 259.676 115.974 259.676C115.127 259.676 114.295 259.889 113.553 260.294C112.811 260.7 112.184 261.286 111.73 261.997L106.858 267.164C95.2277 279.063 83.5974 290.805 72.2814 302.704C69.04 306.342 66.1462 310.274 63.6373 314.447C59.2367 322.119 54.6788 330.103 50.9068 337.775C48.8171 342.789 47.3907 348.052 46.6634 353.432C46.6634 357.033 48.7065 359.068 52.1642 358.286C55.6218 357.503 62.8514 355.78 67.8808 354.371C72.9101 352.962 81.0827 350.77 87.6837 349.518C94.2847 348.265 99.9426 347.482 106.072 346.386C112.202 345.29 118.645 343.412 124.932 342.942C138.605 341.689 152.122 341.376 165.481 340.75Z" fill="#FBB459" fill-opacity="0.3"/>
</svg>
