<svg width="1044" height="770" viewBox="0 0 1044 770" fill="none" xmlns="http://www.w3.org/2000/svg">
<g clip-path="url(#clip0_372_14)">
<path d="M836.642 839.308C794.591 844.417 752.24 844.09 711.721 838.345C663.628 831.242 619.224 816.753 581.559 795.872C543.894 774.99 513.861 748.212 493.521 717.376C486.229 706.127 480.181 694.263 474.324 682.792C466.956 668.309 459.336 653.324 449.137 639.614C436.761 622.938 409.065 594.215 362.665 589.176C318.797 584.466 274.737 602.132 232.074 619.264C186.74 637.499 139.85 656.353 93.173 648.005C37.3208 638.081 13.8443 593.184 19.599 554.04C24.2698 522.044 43.8232 491.255 62.7327 461.491C67.2617 454.295 71.9856 446.925 76.3867 439.66C94.873 409.166 117.374 363.985 99.4852 325.319C92.1428 309.453 78.4218 295.55 65.1634 282.107C58.2901 275.149 51.1982 267.967 45.012 260.544C34.1808 247.558 11.5824 214.181 35.3248 184.751C47.645 169.384 69.2798 159.551 90.135 150.011C102.097 144.86 113.537 139.082 124.345 132.729C139.461 123.126 151.34 111.285 158.958 98.2245C166.576 85.1643 169.705 71.2764 168.076 57.7559C165.953 44.2948 159.138 31.6886 148.215 21.0229C137.293 10.3571 122.592 1.95155 105.377 -3.47012L107.573 -6.54461C125.46 -0.891922 140.733 7.857 152.081 18.9509C163.429 30.0449 170.513 43.1523 172.724 57.1478C174.454 71.2067 171.235 85.654 163.343 99.2457C155.45 112.837 143.121 125.166 127.417 135.171C116.422 141.649 104.779 147.542 92.6012 152.791C71.307 162.467 51.2177 171.599 39.4508 186.185C16.9607 214.067 38.7797 246.141 49.2193 258.658C55.3228 265.992 62.3634 273.146 69.1836 280.061C82.6291 293.664 96.4701 307.769 104.06 324.104C122.433 363.81 99.5641 409.717 80.7627 440.781C76.342 448.082 71.6476 455.498 67.0911 462.665C48.345 492.192 28.9492 522.696 24.3572 554.15C19.0045 591.051 41.859 635.357 94.8056 644.832C139.646 652.852 183.586 635.183 230.11 616.473C273.55 599.031 318.325 580.93 363.835 585.942C412.105 591.189 440.695 620.769 453.441 637.933C463.758 651.829 471.437 666.906 478.86 681.449C484.686 692.857 490.702 704.659 497.903 715.752C517.751 746.281 547.309 772.783 584.499 793.392C621.689 814.002 665.608 828.22 713.165 835.045C760.723 841.871 810.765 841.138 859.771 832.899C908.777 824.66 955.557 809.114 996.82 787.355L999.528 789.957C950.835 815.452 894.803 832.428 836.642 839.308Z" fill="#5E4A2E" fill-opacity="0.5"/>
<path d="M865.343 713.334C860.461 713.921 855.562 714.437 850.647 714.883C779.535 721.395 708.932 713.159 651.861 691.673C608.2 675.295 570.13 651.394 533.311 628.323C479.106 594.368 423.036 559.24 349.801 549.242C335.18 547.222 319.258 546.141 303.962 545.084C263.558 542.286 221.802 539.401 195.109 519.439C169.886 500.547 163.393 469.776 175.778 427.973C177.85 421.071 180.235 413.982 182.561 407.2C190.916 382.546 199.551 357.026 194.18 332.823C190.415 315.812 179.775 299.626 169.5 284.079C154.441 261.222 138.858 237.581 145.592 211.408C150.285 193.181 165.247 176.865 179.723 161.089C186.52 153.619 193.563 146.004 199.415 138.25C233.877 92.697 230.301 36.0955 190.555 -2.59006L193.481 -4.17221C233.983 35.2209 237.611 92.8638 202.531 139.256C196.683 147.043 189.667 154.688 182.752 162.172C168.471 177.775 153.635 193.943 149.181 211.559C142.641 236.96 157.294 259.233 172.844 282.796C183.217 298.548 193.939 314.823 197.791 332.157C203.149 356.86 194.54 382.593 186.097 407.507C183.798 414.319 181.409 421.375 179.361 428.274C167.19 469.27 173.503 499.331 197.914 517.655C223.767 537.003 264.919 539.844 304.718 542.598C320.087 543.663 335.987 544.764 350.754 546.799C424.867 556.924 481.25 592.265 535.79 626.412C572.501 649.379 610.527 673.12 653.838 689.373C769.694 733.055 933.014 718.096 1042.38 653.852L1044.51 655.707C994.391 685.161 931.301 705.412 865.343 713.334Z" fill="#5E4A2E" fill-opacity="0.5"/>
<path d="M870.862 662.027C796.523 668.011 704.023 675.412 631.008 649.67C591.77 635.805 560.095 613.065 529.445 591.083C487.73 561.166 448.319 532.869 391.315 524.73C375.44 522.445 358.109 521.799 341.33 521.17C306.088 519.847 269.641 518.47 245.127 501.889C226.277 489.184 217.111 468.098 218.348 441.039C218.806 431.67 220.3 422.143 221.758 412.92C223.722 400.526 225.754 387.692 225.219 375.232C224.281 354.422 216.164 334.091 208.34 314.408C198.347 289.429 188.04 263.623 192.42 236.603C196.389 212.143 212.075 188.87 227.252 166.357C232.949 157.906 238.829 149.183 243.998 140.529C285.644 70.7457 286.367 -9.75666 245.905 -74.801L250.271 -76.3566C291.212 -10.5215 290.51 70.9595 248.342 141.587C243.134 150.312 237.211 159.074 231.495 167.561C216.5 189.802 200.974 212.806 197.127 236.686C192.861 263.061 203.062 288.58 212.899 313.261C220.839 333.114 229.028 353.636 229.871 374.857C230.434 387.546 228.39 400.481 226.418 413.009C224.951 422.167 223.477 431.658 223.001 440.879C222.12 459.113 225.784 484.07 248.49 499.356C271.953 515.165 305.896 516.444 341.933 517.804C358.787 518.458 376.358 519.108 392.69 521.404C450.987 529.737 492.68 559.674 533.03 588.607C563.418 610.404 594.855 632.957 633.446 646.617C705.291 672 797.026 664.608 870.748 658.681L870.862 662.027Z" fill="#5E4A2E" fill-opacity="0.5"/>
<path d="M619.428 827.493C543.353 795.052 486.495 745.22 457.339 685.431C455.526 681.707 453.775 677.892 452.047 674.075C442.278 652.562 432.112 630.332 406.939 617.655C372.579 600.31 319.955 604.718 250.541 630.784L243.088 633.576C194.944 651.765 140.166 672.382 89.7057 662.659C31.7867 651.486 8.58988 605.724 11.5568 567.912C14.1923 534.332 32.5058 501.396 50.2324 469.563C53.8242 463.144 57.5322 456.495 61.0394 449.969C79.4653 415.574 98.58 371.133 82.4533 332.371C75.7429 316.379 63.4197 301.942 51.4409 287.98C45.7034 281.301 39.7494 274.415 34.5888 267.351C20.3214 248.291 6.55935 220.056 21.9858 193.821C33.9425 173.624 59.4601 159.799 84.2413 146.427C102.382 136.631 121.152 126.493 134.687 113.857C152.681 97.0435 159.742 74.9897 154.052 53.3198C148.362 31.6498 130.889 14.2391 106.139 5.48617L107.978 3.23619C133.581 12.3025 151.654 30.3231 157.544 52.6675C163.435 75.0119 156.096 97.7477 137.44 115.24C123.607 128.178 104.61 138.426 86.2903 148.327C60.8357 162.078 36.7732 175.047 25.3087 194.553C10.4218 219.892 23.8788 247.382 37.8058 266C43.0274 272.974 48.9342 279.865 54.6441 286.514C66.7095 300.599 79.2158 315.163 85.9833 331.432C102.385 370.892 83.0935 415.853 64.3289 450.622C60.8237 457.164 57.1176 463.829 53.5219 470.215C35.9153 501.852 17.6944 534.56 15.0846 567.754C12.2045 604.691 34.6908 649.324 90.8617 660.108C139.924 669.567 193.945 649.224 241.565 631.264L249.016 628.456C319.761 601.897 373.635 597.522 409.117 615.431C435.085 628.545 445.391 651.141 455.354 673.079C457.104 676.877 458.83 680.678 460.617 684.389C489.526 743.67 545.885 793.086 621.295 825.273L619.428 827.493Z" fill="#5E4A2E" fill-opacity="0.5"/>
<path d="M136.494 636.565C123.676 638.107 110.776 637.728 98.6618 635.454C86.5475 633.18 75.4983 629.063 66.256 623.38C44.6151 609.58 33.9411 586.512 36.975 560.053C38.0613 550.525 52.5303 491.923 74.0904 481.466C75.6051 480.674 77.3462 480.146 79.1541 479.928C80.962 479.711 82.7787 479.813 84.4376 480.223C86.7386 480.915 88.6702 482.052 90.0238 483.513C91.3774 484.975 92.1015 486.704 92.1179 488.515C92.1312 491.327 91.5421 494.161 90.3703 496.925L89.9134 498.31C81.0897 524.65 94.7043 552.055 123.186 564.95C129.996 567.851 137.139 570.383 144.56 572.528C152.033 574.682 159.232 577.219 166.104 580.119C179.172 585.984 191.732 596.8 187.827 609.593C184.886 619.244 172.524 628.063 154.693 633.049C148.772 634.681 142.669 635.861 136.494 636.565ZM79.6536 482.295C78.3362 482.466 77.0682 482.852 75.9543 483.421C57.1564 492.531 41.9458 547.946 40.5579 559.955C37.6264 585.671 47.9089 608.07 68.8254 621.424C79.838 628.229 93.5126 632.675 108.433 634.301C123.354 635.928 138.979 634.675 153.689 630.675C170.221 626.045 181.695 618.014 184.256 609.191C187.799 597.572 175.507 587.389 163.906 582.179C157.172 579.334 150.115 576.847 142.788 574.737C135.216 572.554 127.931 569.972 120.989 567.01C91.3672 553.603 77.1248 525.16 86.3365 497.858L86.8387 496.451C87.9021 493.933 88.4483 491.351 88.4601 488.788C88.1809 486.46 86.7364 483.407 82.9135 482.502C81.8761 482.234 80.7407 482.148 79.6004 482.251L79.6536 482.295Z" fill="#5E4A2E" fill-opacity="0.5"/>
<path d="M124.898 623.804C120.698 624.294 116.473 624.428 112.317 624.201C89.7701 623.033 68.9201 612.631 57.8727 597.043C48.5888 583.971 45.6366 567.145 49.3308 548.39C49.4214 547.946 60.3545 502.825 72.6573 497.505C73.3333 497.187 74.0965 496.986 74.8787 496.918C75.6608 496.85 76.4377 496.918 77.14 497.116L78.2817 497.445L78.1261 498.345C77.5034 501.746 76.739 505.164 75.9766 508.399C73.7111 518.484 71.5697 528.006 72.7552 537.892C74.4774 552.255 82.9779 564.19 96.0446 570.638C102.696 573.62 109.9 576.004 117.505 577.74C122.915 579.07 128.182 580.625 133.281 582.398C144.982 586.648 157.363 595.572 153.761 606.699C152.658 609.714 150.59 612.568 147.721 615.037C144.852 617.506 141.261 619.522 137.23 620.926C133.316 622.346 129.148 623.319 124.898 623.804ZM52.8448 548.516C49.259 566.777 52.0813 583.119 61.0739 595.761C71.6292 610.643 91.4871 620.565 112.876 621.672C120.567 622.226 128.519 621.201 135.791 618.72C139.297 617.483 142.424 615.725 144.936 613.579C147.448 611.433 149.279 608.956 150.29 606.334C153.262 597.146 142.964 588.803 131.436 584.599C126.448 582.869 121.297 581.35 116.009 580.048C108.145 578.27 100.698 575.814 93.8276 572.733C79.9952 565.896 71.038 553.35 69.2116 538.318C67.9907 528.136 70.276 518.016 72.4804 508.221C73.1246 505.399 73.757 502.479 74.3441 499.581C65.5733 503.379 54.5707 539.927 52.8664 548.497L52.8448 548.516Z" fill="#5E4A2E" fill-opacity="0.5"/>
<path d="M117.465 617.562C110.803 618.362 102.992 616.772 95.626 612.9C80.2957 604.962 74.2714 594.692 67.3874 581.049L67.1039 580.484C65.6043 577.57 63.7308 573.937 66.4104 571.902C68.5978 570.159 72.6353 570.855 73.9326 571.082C76.5405 571.918 78.7661 573.202 80.4207 574.826C81.4156 575.678 82.5277 576.458 83.7433 577.155C87.4562 578.834 91.4619 580.199 95.6863 581.226C97.6666 581.753 99.6903 582.242 101.69 582.733C107.038 583.912 112.208 585.393 117.151 587.163C122.803 589.328 130.051 593.215 132.544 599.418C135.037 605.622 131.433 612.541 124.222 615.752C122.133 616.669 119.831 617.286 117.465 617.562ZM97.8962 610.848C101.245 612.591 112.933 617.94 122.511 613.679C128.311 611.087 131.098 605.347 129.126 600.294C126.914 594.839 120.363 591.368 115.237 589.389C110.477 587.672 105.497 586.235 100.343 585.09C98.3178 584.585 96.2705 584.099 94.2646 583.559C89.7969 582.469 85.5575 581.026 81.6228 579.256C80.2075 578.456 78.9126 577.559 77.7548 576.577C76.4371 575.325 74.7756 574.278 72.8554 573.49C70.5305 573.087 69.3257 573.232 68.9969 573.487C67.9003 574.334 69.7443 577.921 70.5256 579.441L70.8109 580.022C77.5297 593.286 83.3985 603.259 97.9671 610.839L97.8962 610.848Z" fill="#5E4A2E" fill-opacity="0.5"/>
<path d="M109.899 608.624C107.317 608.956 104.731 608.642 102.603 607.738C100.273 606.654 98.7079 604.942 98.2336 602.959C97.7592 600.975 98.4116 598.871 100.055 597.083C100.903 596.204 101.976 595.435 103.212 594.822C104.448 594.208 105.824 593.761 107.26 593.507C108.696 593.253 110.164 593.196 111.581 593.34C112.999 593.483 114.337 593.825 115.519 594.344C116.702 594.864 117.706 595.552 118.474 596.369C119.242 597.185 119.759 598.115 119.996 599.104C120.232 600.094 120.184 601.123 119.853 602.135C119.522 603.146 118.915 604.119 118.067 604.999C116.326 606.745 113.727 607.996 110.84 608.478L109.899 608.624ZM102.963 598.347C102.093 599.248 101.602 600.287 101.552 601.332C101.502 602.377 101.895 603.382 102.681 604.219C103.468 605.056 104.613 605.688 105.971 606.035C107.329 606.382 108.839 606.428 110.311 606.167C111.782 605.907 113.149 605.351 114.238 604.571C115.326 603.791 116.088 602.822 116.427 601.785C116.766 600.749 116.666 599.692 116.141 598.749C115.616 597.806 114.688 597.018 113.476 596.486C111.82 595.843 109.828 595.678 107.886 596.022C105.943 596.366 104.189 597.194 102.963 598.347Z" fill="#5E4A2E" fill-opacity="0.5"/>
<path d="M832.059 699.569C822.137 700.76 812.079 701.619 801.958 702.153C745.559 705.051 692.061 697.173 647.195 679.344C609.047 664.183 576.602 642.218 545.227 620.988C501.387 591.326 456.082 560.643 395.791 549.672C374.895 545.879 352.598 544.598 331.048 543.344C317.27 542.554 303.031 541.72 289.195 540.255C244.973 535.587 214.164 524.069 197.658 506.126C175.227 481.743 182.401 448.433 189.749 425.58C191.38 420.394 193.294 415.175 195.081 410.087C202.687 388.184 210.561 365.517 206.761 343.819C203.969 327.922 194.947 313.039 186.203 298.671C177.458 284.304 168.307 269.337 165.462 253.213C159.884 222.282 177.385 190.159 195.215 162.787C198.254 158.153 201.348 153.507 204.495 148.849C220.246 125.12 236.672 100.627 242.439 75.1697C248.254 49.1242 241.082 13.0959 201.73 -2.71815L203.697 -4.90035C244.386 11.4684 251.806 48.5646 245.84 75.3599C240.092 101.165 223.567 125.835 207.568 149.694C204.459 154.342 201.372 158.971 198.335 163.626C180.708 190.692 163.416 222.357 168.894 252.651C171.746 268.441 180.728 283.196 189.392 297.49C198.321 312.002 207.313 327.038 210.189 343.225C214.066 365.362 206.004 388.268 198.423 410.384C196.635 415.455 194.866 420.691 193.204 425.813C186.003 448.3 178.944 480.964 200.688 504.615C216.696 522.002 246.767 533.159 290.046 537.757C303.738 539.223 317.926 540.031 331.633 540.829C353.351 542.079 375.793 543.376 396.959 547.22C458.057 558.327 503.683 589.288 547.803 619.082C579.101 640.271 611.337 662.095 649.132 677.115C740.097 713.258 863.467 706.89 956.13 661.266L958 663.27C919.806 681.922 876.659 694.358 832.059 699.569Z" fill="#5E4A2E" fill-opacity="0.5"/>
<path d="M835.061 682.027C744.227 692.937 650.554 677.776 582.456 639.069C563.399 628.236 545.784 615.432 528.724 603.062C493.236 577.303 456.518 550.678 406.327 541.604C385.923 537.918 363.203 537.104 341.232 536.333C300.942 534.885 259.4 533.388 232.396 513.829C211.602 498.697 203.152 474.797 207.294 442.782C208.447 433.812 210.375 424.716 212.267 415.906C215.701 399.777 219.237 383.103 218.047 366.979C216.658 348.203 208.831 330.099 201.338 312.571C193.466 294.29 185.353 275.389 184.371 255.615C182.601 219.869 203.841 184.753 224.403 150.783C229.922 141.654 235.621 132.221 240.764 122.955C258.487 90.8887 281.853 31.5338 237.249 -4.88859L240.039 -6.60411C285.752 30.6829 262.194 91.0256 244.062 123.673C238.898 132.975 233.18 142.444 227.639 151.591C207.26 185.29 186.18 220.138 187.929 255.304C188.898 274.78 196.945 293.523 204.751 311.662C212.332 329.313 220.176 347.564 221.598 366.619C222.832 383.103 219.232 399.851 215.788 416.099C213.917 424.872 211.984 433.936 210.823 442.84C206.786 474.128 214.972 497.427 235.06 512.062C261.103 531.005 300.261 532.406 341.728 533.879C363.871 534.679 386.758 535.489 407.511 539.283C458.703 548.519 495.713 575.376 531.514 601.346C548.497 613.676 566.057 626.42 584.984 637.169C670.084 685.559 795.658 696.772 904.877 665.709L905.967 668.006C882.926 674.499 859.139 679.203 835.061 682.027Z" fill="#5E4A2E" fill-opacity="0.5"/>
<path d="M843.992 731.133C786.328 738.202 728.432 733.721 677.09 718.214C620.074 700.58 573.491 669.634 528.446 639.718C469.008 600.288 412.836 562.91 334.043 552.531C320.165 550.705 305.254 549.669 290.852 548.671C251.151 545.938 210.12 543.099 184.149 523.366C160.412 505.277 154.05 476.403 165.295 437.481C167.519 429.846 170.182 422.075 172.78 414.562C180.311 392.634 188.136 369.956 185.244 348.034C182.607 328.043 171.135 309.113 160.025 290.805C145.093 266.204 129.675 240.746 136.31 212.939C140.92 193.624 155.697 175.966 169.994 158.897C177.756 149.95 184.885 140.767 191.354 131.384C206.34 108.206 212.811 83.2175 210.134 58.8611C207.457 34.5047 195.724 11.6145 176.082 -7.5712L179.008 -9.15335C219.608 29.6625 225.688 85.1648 194.575 132.261C188.057 141.72 180.881 150.981 173.075 160.008C158.945 176.873 144.357 194.309 139.879 213.125C133.424 240.229 147.972 264.228 163.433 289.647C174.636 308.127 186.2 327.229 188.904 347.577C191.845 369.91 183.973 392.793 176.347 414.931C173.769 422.409 171.104 430.164 168.898 437.747C157.866 475.845 163.954 504.037 186.972 521.53C212.126 540.646 252.53 543.444 291.628 546.149C306.127 547.152 321.084 548.183 335.108 550.025C414.852 560.539 473.967 599.875 531.114 637.785C575.976 667.573 622.252 698.356 678.894 715.869C758.21 740.405 858.305 736.383 940.093 705.387L941.551 707.557C910.705 719.171 877.707 727.145 843.992 731.133Z" fill="#5E4A2E" fill-opacity="0.5"/>
<path d="M148.671 377.773C147.665 377.899 146.654 377.96 145.649 377.953C135.178 377.964 128.092 371.43 126.091 365.334C124.759 360.314 124.539 355.114 125.439 349.911C125.564 348.549 125.714 347.2 125.791 345.844C127.004 327.731 120.649 310.231 107.508 295.499C100.378 288.047 92.4701 281 83.8428 274.408C67.9344 261.65 51.4591 248.36 47.8161 230.968C44.173 213.576 54.2536 193.522 75.4801 176.087C82.9383 169.935 109.49 149.15 137.582 140.204C145.961 137.534 153.826 135.775 158.233 143.345C163.127 151.789 152.698 160.742 145.094 167.277C143.661 168.513 142.29 169.676 141.127 170.764C124.237 186.397 116.798 207.698 120.441 230.678C123.613 251.137 134.549 270.397 145.122 289.019C155.202 306.935 166.749 327.087 169.753 348.347C170.426 353.955 170.828 360.509 167.148 366.59C164.117 371.494 157.246 376.743 148.671 377.773ZM146.575 140.454C143.912 140.868 141.307 141.522 138.828 142.399C117.131 149.313 93.1897 165.095 78.0982 177.535C57.5981 194.434 47.8543 213.7 51.342 230.395C54.8296 247.09 70.2735 259.572 86.6129 272.728C95.3388 279.383 103.328 286.504 110.52 294.04C124.012 309.175 130.54 327.149 129.303 345.755C129.204 347.13 129.08 348.492 128.934 349.874C128.069 354.826 128.259 359.776 129.496 364.559C131.301 369.814 137.204 375.475 145.903 375.478C153.762 375.465 160.893 370.584 163.91 365.764C167.293 360.202 166.987 354.052 166.257 348.767C163.3 327.9 151.934 307.86 141.903 290.154C131.177 271.251 120.173 251.833 116.94 231.065C113.288 207.404 120.913 185.449 138.406 169.261C139.592 168.154 140.982 166.956 142.437 165.7C149.846 159.338 159.058 151.429 154.951 144.355C152.945 141.02 150.496 139.983 146.551 140.457L146.575 140.454Z" fill="#5E4A2E" fill-opacity="0.5"/>
<path d="M98.1956 259.412C93.6538 259.814 89.1582 259.297 85.2443 257.924C65.2737 251.258 59.3076 234.278 62.1033 220.421C65.1 205.441 77.0183 191.32 87.9146 179.267L88.4442 178.688C95.9106 170.406 109.831 154.996 126.493 156.255C132.057 156.684 135.273 157.928 136.344 160.061C138.33 164.031 131.982 169.45 126.394 174.213C124.85 175.529 123.394 176.769 122.344 177.809C113.382 186.633 107.321 196.633 104.648 207.003C101.975 217.374 102.765 227.827 106.954 237.52C109.593 243.341 113.501 252.152 104.931 257.223C102.973 258.371 100.636 259.131 98.1956 259.412ZM121.723 158.84C109.013 160.367 97.7391 172.864 91.3911 179.88L90.885 180.457C79.7131 192.809 68.5567 206.091 65.6172 220.547C63.0776 233.143 68.6816 249.501 87.0085 255.65C91.7507 257.226 98.3612 257.995 102.797 255.417C108.932 251.819 106.543 245.087 103.573 238.508C99.2252 228.445 98.4037 217.595 101.175 206.829C103.946 196.062 110.232 185.681 119.529 176.517C120.665 175.4 122.142 174.125 123.731 172.786C128.18 168.925 134.32 163.764 132.995 161.112C132.365 159.857 129.946 159.067 125.812 158.765C124.469 158.65 123.091 158.675 121.723 158.84Z" fill="#5E4A2E" fill-opacity="0.5"/>
<path d="M150.323 364.386C148.608 364.608 146.881 364.487 145.345 364.036C140.99 362.696 138.894 359.605 137.288 356.804C135.503 354.138 134.509 351.207 134.36 348.174C134.297 346.516 134.854 344.837 135.977 343.302C137.1 341.767 138.75 340.43 140.764 339.422C142.215 338.796 143.819 338.393 145.458 338.242C147.098 338.091 148.733 338.196 150.245 338.549C152.404 339.032 154.353 339.839 155.965 340.918C157.576 341.997 158.815 343.323 159.599 344.81C162.067 349.803 159.965 355.461 158.25 359.941L157.618 359.867C157.412 360.548 157.001 361.202 156.412 361.783C155.824 362.365 155.073 362.861 154.212 363.237C153.028 363.811 151.7 364.203 150.323 364.386ZM145.095 340.764C144.134 340.88 143.202 341.134 142.356 341.509C140.9 342.278 139.716 343.279 138.918 344.417C138.119 345.555 137.731 346.792 137.792 348.011C137.967 350.717 138.882 353.328 140.488 355.704C141.877 358.099 143.633 360.749 146.891 361.738C147.757 361.97 148.708 362.048 149.666 361.965C150.623 361.882 151.558 361.64 152.393 361.26C152.875 361.067 153.287 360.793 153.588 360.465C153.89 360.137 154.069 359.766 154.11 359.39L154.819 359.305C156.376 355.11 158.251 349.962 156.161 345.722C155.551 344.569 154.588 343.541 153.336 342.706C152.083 341.871 150.57 341.246 148.894 340.873C147.712 340.638 146.446 340.597 145.189 340.753L145.095 340.764Z" fill="#5E4A2E" fill-opacity="0.5"/>
<path d="M190.225 566.046C185.897 566.494 181.554 566.454 177.366 565.927C139.629 561.777 110.42 538.225 109.375 511.124C109.248 508.063 109.439 504.863 109.595 501.767C110.126 492.606 110.665 483.111 103.366 476.403C101.339 474.681 99.0964 473.092 96.662 471.653C92.6931 469.492 89.4291 466.772 87.0506 463.644C82.3133 456.313 87.3682 447.306 92.3027 440.294C93.3266 438.84 94.5652 436.978 95.9889 434.861C103.983 422.791 117.403 402.601 130.109 398.448C132.373 397.692 134.825 397.341 137.231 397.428C139.637 397.515 141.916 398.036 143.852 398.942C153.576 403.097 159.62 415.128 159.507 421.578C159.369 429.827 155.504 437.959 151.746 445.794C150.084 449.32 148.338 452.94 146.994 456.527C134.53 489.276 153.535 525.263 192.168 542.078C198.969 545.037 207.339 548.689 206.87 554.965C206.485 557.215 205.153 559.391 203.047 561.213C200.942 563.034 198.159 564.417 195.058 565.182C193.481 565.588 191.861 565.878 190.225 566.046ZM134.361 399.933C133.298 400.063 132.253 400.294 131.256 400.622C119.865 404.351 106.347 424.719 99.0814 435.671C97.6401 437.84 96.4034 439.718 95.3717 441.106C90.7857 447.628 86.0518 455.913 90.2006 462.334C92.4113 465.169 95.4153 467.631 99.0503 469.587C101.635 471.116 104.003 472.813 106.129 474.658C114.199 482.005 113.591 491.924 113.04 501.52C112.878 504.566 112.706 507.731 112.8 510.713C113.81 536.72 141.877 559.345 178.109 563.326C183.241 564.108 188.698 563.901 193.925 562.724C198.193 561.546 203.015 558.589 203.202 554.957C203.597 550.053 196.416 546.924 190.071 544.176C150.198 526.812 130.636 489.777 143.549 455.976C144.934 452.334 146.673 448.649 148.38 445.101C152.013 437.43 155.808 429.506 155.945 421.656C156.043 415.873 150.46 404.685 141.796 400.986C139.693 400.005 137.085 399.626 134.455 399.921L134.361 399.933Z" fill="#5E4A2E" fill-opacity="0.5"/>
<path d="M111.142 461.914C110.54 461.988 109.934 462.022 109.333 462.015C103.929 461.916 100.604 458.373 100.237 455.108C100.18 451.904 101.303 448.671 103.496 445.718L104.78 443.635C109.953 435.213 119.557 419.573 130.778 418.226L130.991 418.2C136.507 417.637 139.178 419.129 140.42 420.494C145.591 426.043 137.287 438.932 134.786 442.06C130.964 446.833 126.714 451.449 122.065 455.879C119.667 458.263 115.914 461.341 111.142 461.914ZM131.049 420.688C121.931 421.783 112.209 437.637 108.04 444.441L106.737 446.56C104.815 449.11 103.799 451.903 103.78 454.682C104.06 457.01 106.341 459.447 109.752 459.52C113.572 459.593 117.082 456.694 119.36 454.507C123.884 450.197 128.021 445.705 131.743 441.062C135.366 436.502 140.97 425.883 137.424 422.084C136.726 421.459 135.77 421.003 134.668 420.77C133.566 420.537 132.364 420.537 131.203 420.769L131.049 420.688Z" fill="#5E4A2E" fill-opacity="0.5"/>
<path d="M673.05 810.425C618.672 795.569 571.345 771.415 535.051 739.993C498.756 708.571 474.553 670.8 464.478 629.854C464.092 628.237 463.28 624.659 466.365 622.21C467.046 621.653 467.875 621.194 468.798 620.863C469.72 620.531 470.715 620.335 471.718 620.286C476.049 620.032 480.783 622.141 483.761 624.195C494.211 631.406 504.695 638.895 514.86 646.123C539.864 663.993 565.731 682.458 594.043 698.334C639.898 724.012 686.365 738.805 732.167 742.451C807.454 748.378 887.329 724.414 951.521 705.162L952.682 707.451C888.076 726.853 807.688 750.928 731.483 744.945C685.058 741.29 638.008 726.234 591.695 700.329C563.205 684.375 537.238 665.872 512.228 647.953C501.968 640.736 491.487 633.263 481.038 626.069C478.662 624.442 474.751 622.6 471.564 622.8C471.043 622.815 470.524 622.911 470.043 623.081C469.562 623.251 469.131 623.491 468.782 623.782C467.164 625.074 467.368 627.179 467.858 629.265C486.789 710.8 565.964 779.328 674.493 808.072L673.05 810.425Z" fill="#5E4A2E" fill-opacity="0.5"/>
<path d="M669.261 801.216C601.226 780.697 545.332 745.757 508.774 700.892C502.162 692.721 501.236 686.396 505.95 681.538C510.663 676.681 519.961 675.282 526.533 676.123C533.832 677.042 539.905 680.121 544.802 682.593C551.458 685.935 558.07 689.316 564.739 692.773C606.116 714.082 649.017 736.106 700.097 744.208C767.344 754.825 840.272 740.278 904.634 727.442L905.305 729.84C840.545 742.757 767.219 757.385 699.022 746.632C647.189 738.454 604.127 716.283 562.471 694.841C555.829 691.415 549.213 688.001 542.558 684.659C537.916 682.323 532.15 679.406 525.605 678.579C520.178 677.884 512.585 678.912 508.834 682.805C505.083 686.699 506.009 692.226 511.916 699.516C548.136 743.956 603.495 778.57 670.878 798.91L669.261 801.216Z" fill="#5E4A2E" fill-opacity="0.5"/>
<path d="M675.512 797.173C638.375 783.401 603.909 766.628 572.748 747.162C568.086 744.262 563.756 741.323 561.835 737.296C559.915 733.269 561.183 727.262 567.479 724.41C573.776 721.558 581.413 723.302 588.506 725.694C688.264 759.066 806.233 762.365 917.054 734.882L917.959 737.235C806.23 764.943 687.293 761.617 586.718 727.971C580.549 725.884 574.147 724.258 569.166 726.486C564.616 728.513 563.606 733.075 565.147 736.333C566.837 739.839 570.853 742.55 575.177 745.24C606.146 764.593 640.408 781.263 677.329 794.942L675.512 797.173Z" fill="#5E4A2E" fill-opacity="0.5"/>
<path d="M700.773 796.999C684.29 792.254 669.09 785.788 655.647 777.804C651.956 775.602 648.517 773.105 648.341 769.633C648.072 764.593 655.059 760.51 661.68 759.566C667.877 758.688 673.704 759.918 679.519 761.049L679.962 761.145C761.213 777.46 850.163 774.338 933.515 752.247L934.512 754.573C850.405 776.848 760.656 779.977 678.686 763.494L678.245 763.414C672.946 762.387 667.385 761.176 662.071 762.03C656.758 762.884 651.696 765.837 651.9 769.339C652.018 771.919 654.852 773.974 658.073 775.849C671.267 783.688 686.186 790.036 702.366 794.695L700.773 796.999Z" fill="#5E4A2E" fill-opacity="0.5"/>
</g>
<defs>
<clipPath id="clip0_372_14">
<rect width="1016.95" height="813.882" fill="white" transform="translate(-63 -38.7314) rotate(-6.84868)"/>
</clipPath>
</defs>
</svg>
