<svg width="310" height="682" viewBox="0 0 310 682" fill="none" xmlns="http://www.w3.org/2000/svg">
<g clip-path="url(#clip0_380_16)">
<path d="M-28.8908 681.006L-32.4598 680.791C-27.6939 643.818 0.69941 605.623 49.5786 570.334C77.6591 550.072 109.784 532.205 140.838 514.915C156.234 506.345 172.13 497.477 187.36 488.494C226.315 465.375 274.146 433.422 298.496 391.379C304.089 381.686 311.254 363.885 296.124 353.597C283.253 344.845 264.503 347.355 244.682 350.014C236.791 351.203 228.794 352.025 220.745 352.474C177.916 354.126 143.254 329.537 125.151 305.956C99.4842 272.534 92.5678 233.744 89.1718 200.271C88.3406 192.015 87.6522 183.544 87.0114 175.369C84.8277 147.842 82.549 119.389 73.5365 92.1921C64.1672 63.8719 42.9032 25.1978 -4.96525 1.74899L-2.9186 -0.265626C45.9967 23.6291 67.6175 62.8976 77.1532 91.6472C86.2133 119.043 88.492 147.611 90.6994 175.237C91.3403 183.395 92.0049 191.833 92.836 200.106C96.2083 233.364 103.077 271.823 128.506 304.85C146.085 327.754 179.559 351.698 220.722 350.063C228.578 349.59 236.383 348.769 244.088 347.603C263.956 344.944 284.538 342.186 298.813 351.847C315.466 363.142 307.944 382.049 302.017 392.321C277.168 434.958 228.956 467.093 189.668 490.393C174.414 499.459 158.471 508.326 143.074 516.913C112.139 534.153 80.0619 551.971 52.1479 572.117C3.83993 606.993 -24.1726 644.676 -28.8908 681.006Z" fill="#5E4A2E" fill-opacity="0.5"/>
<path d="M-15.3167 620.749L-18.5287 619.675C13.0307 574.132 69.4759 540.313 124.065 507.616C150.098 492.011 176.988 475.894 200.928 458.671C217.586 446.616 236.624 430.45 233.892 412.269C231.848 398.431 217.574 387.499 205.988 380.778C197.857 376.261 189.366 372.065 180.555 368.211C173.798 365.123 166.803 361.936 160.237 358.469C117.698 335.994 88.0104 299.417 71.9355 249.762C64.9443 228.179 60.9037 205.919 56.863 184.386C53.2263 164.735 49.4709 144.44 43.55 124.756C28.7124 75.3652 1.02359 38.6397 -38.8026 15.5211L-36.4229 13.6221C4.02189 37.1204 32.1151 74.3744 47.1192 124.261C53.0638 144.077 56.8193 164.372 60.4559 184.055C64.4253 205.523 68.5373 227.75 75.4809 249.2C91.3655 298.261 120.672 334.359 162.474 356.537C168.921 359.955 175.868 363.142 182.601 366.18C191.535 370.05 200.145 374.267 208.391 378.813C220.287 385.881 235.275 397.324 237.437 412.005C240.265 431.209 220.774 447.937 203.498 460.372C179.463 477.678 152.477 493.844 126.396 509.466C72.0929 542.013 15.9332 575.684 -15.3167 620.749Z" fill="#5E4A2E" fill-opacity="0.5"/>
<path d="M-31.1907 640.498L-34.7121 640.168C-23.3036 582.025 39.4017 536.25 99.2263 499.161L103.986 496.189C121.357 485.455 139.324 474.342 153.103 461.181C169.88 445.097 177.831 427.626 175.455 411.955C172.342 391.231 152.382 374.172 133.112 357.659C128.212 353.481 123.168 349.171 118.505 344.878C64.3368 295.057 46.7178 232.29 37.424 183.18C36.9486 180.686 36.4732 178.226 36.0216 175.666C28.2254 133.772 20.1678 90.425 -22.8221 62.5836L-20.4423 60.7837C23.5943 89.236 31.7233 133.013 39.4956 175.353C39.971 177.863 40.4464 180.307 40.898 182.85C50.1442 231.663 67.6443 294.034 121.313 343.375C126.071 347.636 130.972 351.946 135.825 356.107C155.452 372.884 175.72 390.256 178.976 411.707C181.352 427.973 173.259 446.055 155.934 462.634C141.941 476.026 123.831 487.206 106.317 498.038L101.558 501.011C42.2567 537.802 -19.9251 583.148 -31.1907 640.498Z" fill="#5E4A2E" fill-opacity="0.5"/>
<path d="M-5.12291 571.225L-8.59668 570.614C0.925787 544.986 28.1258 525.318 54.5643 506.312C79.2181 488.56 104.729 470.197 115.583 447.062C125.533 425.677 122.73 399.917 107.532 370.49C101.134 358.188 93.2602 346.067 85.4582 334.326C77.6561 322.585 69.6162 310.233 63.1706 297.766C49.97 272.286 43.0275 245.187 36.3227 218.981C33.9451 210.031 31.5675 200.816 29.0709 191.75C19.8215 159.302 5.86179 122.098 -27.3484 92.1755L-24.5405 90.6562C9.14554 120.991 23.2241 158.542 32.5449 191.272C35.1367 200.337 37.5142 209.585 39.6777 218.551C46.3825 244.659 53.2774 271.642 66.3829 296.923C72.781 309.308 80.7971 321.512 88.5754 333.253C96.3536 344.994 104.298 357.213 110.744 369.582C126.299 399.537 129.031 425.842 118.819 447.756C107.798 471.452 82.0017 490.013 56.9434 507.963C31.0284 526.821 4.04253 546.224 -5.12291 571.225Z" fill="#5E4A2E" fill-opacity="0.5"/>
<path d="M-40.4304 559.336L-42.9998 557.602C-15.2287 537.786 13.4705 517.276 36.5549 494.174C62.3761 468.298 77.5139 442.455 81.5161 417.371C87.5909 379.193 68.3728 341.856 49.797 305.742C35.098 277.19 19.8995 247.664 16.7171 217.363C16.3133 213.383 16.1 209.337 15.8866 205.407C15.7604 197.019 14.656 188.653 12.5841 180.389C10.2063 172.38 3.64206 157.865 -14.2494 150.55L-12.4169 148.42C6.61659 156.214 13.7517 171.538 16.1295 179.894C18.2539 188.292 19.3822 196.798 19.5033 205.324C19.7166 209.222 19.93 213.251 20.3337 217.181C23.4687 247.136 38.5958 276.513 53.1996 304.916C71.9182 341.245 91.2552 378.912 85.1089 417.635C80.9876 443.214 65.6118 469.371 39.4336 495.595C16.254 518.862 -12.5641 539.437 -40.4304 559.336Z" fill="#5E4A2E" fill-opacity="0.5"/>
<path d="M-6.70585 510.077L-9.29905 508.425C46.7907 467.423 68.4312 405.828 45.8853 351.549C39.1548 335.366 28.6172 319.414 18.4127 303.991C-0.283639 275.687 -19.646 246.409 -15.4285 215.199L-11.8833 215.43C-15.9817 245.98 2.38165 273.656 21.6727 302.951C31.9248 318.457 42.5099 334.491 49.3117 350.839C72.2144 405.911 50.2406 468.447 -6.70585 510.077Z" fill="#5E4A2E" fill-opacity="0.5"/>
<path d="M-36.9496 519.935L-39.7807 518.416C-8.67687 490.343 30.0423 455.484 36.855 415.703C44.1918 372.769 15.6947 332.658 -19.4638 288.419L-16.3228 287.214C19.1212 331.799 47.9037 372.323 40.4002 416.017C33.4684 456.425 -5.58394 491.648 -36.9496 519.935Z" fill="#5E4A2E" fill-opacity="0.5"/>
<path d="M-4.62483 454.328L-7.57499 452.941C10.3607 434.396 18.6567 412.164 15.9454 389.91C12.8806 366.395 -2.20042 344.861 -18.0432 325.078L-14.926 323.873C1.1071 343.887 16.3784 365.718 19.4908 389.678C22.4514 412.513 13.9303 435.357 -4.62483 454.328Z" fill="#5E4A2E" fill-opacity="0.5"/>
</g>
<defs>
<clipPath id="clip0_380_16">
<rect width="352.029" height="681.271" fill="white" transform="translate(-43 -0.265625)"/>
</clipPath>
</defs>
</svg>
