<svg width="223" height="386" viewBox="0 0 223 386" fill="none" xmlns="http://www.w3.org/2000/svg">
<g clip-path="url(#clip0_380_17)">
<path d="M659.048 764.18C654.789 761.721 650.56 759.197 646.359 756.606C585.549 719.171 533.989 670.24 501.205 618.82C476.088 579.531 459.958 537.574 444.33 497.032C421.317 437.353 397.515 375.617 344.906 323.697C334.417 313.313 322.325 302.899 310.718 292.88C280.064 266.411 248.381 239.061 238.992 207.079C230.137 176.835 243.394 148.317 278.375 122.293C284.172 118.013 290.332 113.77 296.261 109.738C317.732 95.0195 339.945 79.7766 350.162 57.1881C357.351 41.3172 358.543 21.9844 359.644 3.38056C361.302 -23.9403 363.009 -52.2046 384.095 -69.1095C398.78 -80.8809 420.538 -84.9651 441.583 -88.9081C451.501 -90.8089 461.704 -92.679 471.038 -95.3751C525.933 -111.16 557.016 -158.598 548.41 -213.391L551.7 -212.903C560.486 -157.09 528.821 -108.787 472.928 -92.7011C463.578 -89.9764 453.379 -88.0659 443.358 -86.2246C422.573 -82.3031 401.004 -78.262 386.876 -66.8364C366.409 -50.4321 364.778 -23.8212 363.091 4.35969C361.944 23.1851 360.764 42.6394 353.451 58.82C342.925 81.8018 320.604 97.2306 298.906 112.104C292.981 116.177 286.838 120.391 281.061 124.683C246.737 150.19 233.76 178.031 242.306 207.334C251.391 238.32 282.618 265.273 312.814 291.345C324.474 301.413 336.538 311.83 347.134 322.314C400.369 374.862 424.294 436.956 447.459 496.989C463.063 537.384 479.255 579.185 504.166 618.166C570.681 722.6 710.343 808.573 836.385 822.748L836.984 825.515C779.21 819.026 716.58 797.396 659.048 764.18Z" fill="#5E4A2E" fill-opacity="0.5"/>
<path d="M694.233 726.433C631.157 686.641 552.697 637.09 509.707 572.704C486.623 538.077 474.913 500.884 463.569 464.913C448.129 415.956 433.562 369.677 392.827 328.978C381.494 317.63 368.012 306.719 354.963 296.154C327.554 273.961 299.215 251.001 289.542 223.031C282.077 201.56 287.387 179.189 304.604 158.278C310.59 151.055 317.498 144.328 324.196 137.822C333.201 129.082 342.523 120.03 349.567 109.739C361.297 92.5235 366.993 71.3865 372.537 50.9429C379.52 24.9619 386.748 -1.86974 406.458 -20.8653C424.302 -38.0586 450.811 -47.275 476.458 -56.1883C486.085 -59.535 496.021 -62.989 505.347 -66.8143C580.522 -97.6813 629.379 -161.667 636.007 -237.982L640.434 -236.609C633.714 -159.374 584.288 -94.5918 508.189 -63.362C498.789 -59.5033 488.795 -56.0445 479.131 -52.6811C453.793 -43.8752 427.573 -34.7781 410.174 -17.9758C390.943 0.571565 383.803 27.1101 376.873 52.7599C371.321 73.4084 365.567 94.7408 353.515 112.228C346.356 122.72 336.963 131.845 327.871 140.687C321.206 147.136 314.335 153.847 308.424 160.941C296.784 175.004 284.749 197.172 293.752 223.021C303.046 249.743 329.441 271.122 357.464 293.822C370.558 304.452 384.229 315.51 395.921 327.142C437.575 368.771 452.985 417.73 467.923 465.081C479.168 500.748 490.8 537.648 513.489 571.722C555.759 635.12 633.6 684.218 696.149 723.687L694.233 726.433Z" fill="#5E4A2E" fill-opacity="0.5"/>
<path d="M393.799 708.056C352.377 636.474 336.763 562.5 349.287 497.17C350.07 493.103 350.956 489 351.862 484.909C356.946 461.836 362.143 437.95 349.601 412.709C332.508 378.224 287.754 350.192 216.575 329.423L208.936 327.187C159.502 312.871 103.304 296.518 68.7555 258.476C29.1075 214.801 37.989 164.27 63.0388 135.791C85.2861 110.5 119.692 95.1273 152.968 80.284C159.692 77.3015 166.647 74.2044 173.366 71.0861C208.739 54.6119 250.686 30.5123 261.027 -10.1767C265.247 -26.9984 264.044 -45.9412 262.831 -64.298C262.246 -73.0834 261.61 -82.1641 261.717 -90.9118C261.73 -114.72 267.65 -145.567 295.728 -157.31C317.408 -166.301 346.119 -162.062 373.968 -157.901C394.36 -154.861 415.46 -151.717 433.868 -153.712C458.351 -156.376 477.227 -169.789 485.669 -190.542C494.112 -211.295 490.571 -235.706 476.015 -257.553L478.836 -258.25C493.886 -235.641 497.542 -210.382 488.855 -188.969C480.169 -167.556 460.662 -153.764 435.243 -150.954C416.414 -148.897 395.066 -152.088 374.469 -155.152C345.853 -159.413 318.82 -163.465 297.948 -154.732C270.84 -143.383 265.122 -113.315 265.102 -90.0637C265.098 -81.3518 265.692 -72.2949 266.274 -63.55C267.482 -45.0431 268.755 -25.8883 264.415 -8.81165C253.876 32.6017 211.474 57.0113 175.607 73.5812C168.879 76.7138 161.916 79.8251 155.209 82.779C122.148 97.5364 87.9519 112.783 65.9564 137.781C41.5009 165.611 32.7278 214.813 71.2101 257.128C104.799 294.12 160.226 310.238 209.104 324.423L216.751 326.645C289.29 347.818 335.025 376.626 352.678 412.235C365.593 438.302 360.29 462.565 355.106 486.095C354.229 490.184 353.33 494.261 352.535 498.302C340.118 563.077 355.582 636.42 396.624 707.399L393.799 708.056Z" fill="#5E4A2E" fill-opacity="0.5"/>
<path d="M121.845 265.655C110.663 259.201 100.567 251.162 92.237 242.077C83.9067 232.992 77.5338 223.072 73.5461 212.981C64.5045 188.96 69.7963 164.1 88.0923 144.745C94.6752 137.773 141.398 99.5549 164.921 104.117C166.608 104.392 168.319 105.013 169.896 105.923C171.473 106.834 172.865 108.004 173.947 109.328C175.374 111.261 176.237 113.33 176.444 115.311C176.651 117.292 176.193 119.11 175.12 120.569C173.444 122.827 171.273 124.742 168.678 126.25L167.482 127.085C144.625 142.872 139.085 172.966 154.144 200.365C157.853 206.77 162.05 213.081 166.703 219.248C171.391 225.453 175.631 231.8 179.39 238.242C186.331 250.773 189.895 266.96 179.097 274.855C170.957 280.814 155.775 280.458 138.517 273.755C132.8 271.51 127.208 268.793 121.845 265.655ZM168.876 108.117C167.719 107.464 166.473 107.012 165.24 106.799C144.735 102.816 99.3302 138.039 91.018 146.816C73.2503 165.636 68.0458 189.727 76.7747 212.957C81.5064 225.007 89.783 236.765 100.748 247.015C111.712 257.264 124.966 265.632 139.137 271.253C155.143 277.462 169.141 277.916 176.481 272.392C186.285 265.219 182.554 249.699 176.396 238.573C172.714 232.257 168.558 226.035 163.96 219.953C159.21 213.665 154.928 207.229 151.15 200.696C135.486 172.204 141.146 140.901 164.891 124.578L166.137 123.753C168.498 122.376 170.483 120.638 172.029 118.594C173.202 116.563 173.877 113.254 171.36 110.237C170.691 109.4 169.834 108.651 168.86 108.05L168.876 108.117Z" fill="#5E4A2E" fill-opacity="0.5"/>
<path d="M120.219 248.488C116.563 246.362 113.103 243.935 109.913 241.261C92.5708 226.805 82.1243 205.978 82.6321 186.879C83.0422 170.851 90.7706 155.615 104.974 142.822C105.313 142.522 141.121 112.971 154.157 116.092C154.888 116.244 155.62 116.54 156.286 116.955C156.953 117.369 157.534 117.89 157.977 118.47L158.693 119.417L158.029 120.044C155.491 122.393 152.829 124.669 150.279 126.801C142.418 133.512 134.995 139.847 130.014 148.47C122.779 160.996 122.424 175.645 129.014 188.64C132.548 195.015 136.883 201.243 141.928 207.194C145.459 211.502 148.741 215.905 151.759 220.382C158.573 230.8 163.129 245.366 153.573 252.11C150.883 253.861 147.517 254.905 143.74 255.16C139.964 255.416 135.88 254.875 131.813 253.581C127.829 252.37 123.911 250.649 120.219 248.488ZM107.71 145.031C93.8903 157.493 86.3479 172.263 85.9629 187.772C85.4848 206.011 95.4249 225.86 111.877 239.573C117.699 244.628 124.677 248.577 131.985 250.953C135.531 252.065 139.088 252.534 142.385 252.323C145.683 252.113 148.634 251.228 151.015 249.737C158.904 244.166 155.666 231.314 148.962 221.037C146.008 216.661 142.797 212.356 139.346 208.144C134.12 202.004 129.633 195.573 125.983 188.988C119.014 175.221 119.37 159.81 126.924 146.685C132.053 137.805 139.951 131.077 147.589 124.561C149.796 122.69 152.054 120.732 154.261 118.765C144.965 116.544 114.243 139.192 107.739 145.029L107.71 145.031Z" fill="#5E4A2E" fill-opacity="0.5"/>
<path d="M118.014 239.036C112.203 235.681 106.906 229.725 103.334 222.209C95.8266 206.663 97.165 194.831 99.8379 179.786L99.9498 179.164C100.497 175.933 101.177 171.902 104.541 171.88C107.337 171.797 110.151 174.776 111.053 175.735C112.638 177.968 113.649 180.33 113.999 182.622C114.284 183.901 114.707 185.192 115.261 186.478C117.226 190.049 119.612 193.543 122.377 196.898C123.646 198.508 124.972 200.112 126.278 201.705C129.85 205.855 133.099 210.141 135.993 214.522C139.217 219.644 142.686 227.1 140.961 233.56C139.236 240.019 132.203 243.395 124.506 241.64C122.284 241.121 120.073 240.234 118.014 239.036ZM106.381 221.928C108.015 225.331 114.161 236.621 124.381 238.955C130.577 240.359 136.249 237.437 137.701 232.212C139.203 226.519 136.042 219.813 133.127 215.155C130.347 210.927 127.223 206.79 123.786 202.784C122.468 201.165 121.121 199.548 119.84 197.912C116.919 194.361 114.392 190.664 112.305 186.888C111.652 185.399 111.153 183.905 110.816 182.425C110.512 180.633 109.81 178.799 108.747 177.016C107.128 175.299 106.077 174.693 105.66 174.7C104.275 174.72 103.599 178.697 103.313 180.381L103.193 181.017C100.615 195.66 99.331 207.16 106.443 221.964L106.381 221.928Z" fill="#5E4A2E" fill-opacity="0.5"/>
<path d="M117.319 227.346C115.054 226.063 113.174 224.261 112.013 222.261C110.798 219.997 110.572 217.689 111.382 215.817C112.192 213.945 113.976 212.652 116.364 212.208C117.57 212.012 118.889 212.041 120.246 212.291C121.603 212.542 122.972 213.009 124.273 213.666C125.575 214.324 126.784 215.159 127.832 216.124C128.88 217.089 129.746 218.165 130.381 219.29C131.015 220.415 131.406 221.568 131.531 222.682C131.656 223.796 131.512 224.85 131.108 225.783C130.704 226.717 130.048 227.512 129.176 228.123C128.305 228.734 127.236 229.148 126.03 229.344C123.589 229.697 120.759 229.139 118.16 227.793L117.319 227.346ZM117.932 214.963C116.696 215.162 115.68 215.699 115.013 216.505C114.346 217.311 114.058 218.351 114.185 219.493C114.313 220.635 114.85 221.827 115.729 222.919C116.607 224.011 117.788 224.953 119.122 225.627C120.456 226.301 121.883 226.676 123.222 226.705C124.561 226.734 125.752 226.415 126.645 225.789C127.537 225.162 128.091 224.257 128.237 223.187C128.382 222.117 128.112 220.931 127.461 219.778C126.522 218.271 125.027 216.944 123.266 216.054C121.506 215.164 119.605 214.775 117.932 214.963Z" fill="#5E4A2E" fill-opacity="0.5"/>
<path d="M640.668 733.204C632.013 728.207 623.45 722.863 615.031 717.22C568.16 685.717 530.075 647.33 504.864 606.156C483.43 571.147 470.639 534.112 458.264 498.308C440.97 448.281 423.117 396.558 381.45 351.622C367.003 336.055 349.929 321.659 333.436 307.732C322.884 298.837 311.99 289.63 301.798 280.16C269.209 249.904 251.462 222.211 249.014 197.954C245.687 164.991 271.404 142.637 290.99 128.756C295.404 125.585 300.066 122.556 304.547 119.556C323.769 106.59 343.664 93.1738 353.635 73.5323C360.934 59.136 362.64 41.8158 364.259 25.0746C365.878 8.33338 367.53 -9.13209 374.924 -23.7405C389.01 -51.8371 422.278 -67.0473 452.961 -78.2582C458.172 -80.1438 463.434 -82.0064 468.746 -83.8461C495.581 -93.3891 523.414 -103.138 543.295 -120.051C563.568 -137.406 579.436 -170.538 557.429 -206.792L560.312 -207.359C583.055 -169.859 566.746 -135.724 545.903 -117.859C525.828 -100.657 497.809 -90.825 470.698 -81.327C465.423 -79.4723 460.176 -77.62 454.955 -75.7153C424.618 -64.6285 391.791 -49.6593 378.007 -22.1323C370.819 -7.78607 369.159 9.40783 367.519 26.0419C365.962 43.0094 364.141 60.4345 356.734 75.112C346.561 95.1515 326.373 108.647 307.044 121.798C302.571 124.784 298.016 127.913 293.614 131.015C274.367 144.691 249.129 166.597 252.345 198.562C254.728 222.076 272.1 249.038 303.976 278.672C314.053 288.056 324.922 297.21 335.412 306.07C352.042 320.094 369.223 334.59 383.855 350.36C426.086 395.889 444.03 448.026 461.468 498.327C473.806 534.052 486.514 570.849 507.751 605.534C558.868 689.009 661.411 757.898 762.922 776.959L763.217 779.684C721.467 771.705 679.483 755.781 640.668 733.204Z" fill="#5E4A2E" fill-opacity="0.5"/>
<path d="M653.59 720.967C574.36 675.224 508.493 606.916 477.212 535.103C468.459 515.006 462.042 494.197 455.809 474.066C442.858 432.171 429.442 388.845 394.72 351.485C380.603 336.298 362.91 322.022 345.79 308.229C314.418 282.908 282.073 256.797 272.193 224.951C264.628 200.372 272.199 176.179 294.713 153.044C301.015 146.557 308.013 140.435 314.81 134.52C327.231 123.672 340.06 112.449 348.777 98.8334C358.926 82.9748 363.52 63.7944 368.035 45.274C372.699 25.9245 377.541 5.93392 388.615 -10.478C408.635 -40.1439 446.691 -55.5075 483.517 -70.3604C493.408 -74.3552 503.625 -78.4861 513.298 -82.8167C546.711 -97.8482 601.004 -131.333 587.154 -187.228L590.415 -186.927C604.635 -129.675 549.595 -95.5156 515.506 -80.2644C505.796 -75.9171 495.542 -71.7696 485.622 -67.7724C449.105 -53.0269 411.338 -37.7827 391.648 -8.59341C380.744 7.57306 375.943 27.3968 371.312 46.5939C366.793 65.2644 362.124 84.5734 351.835 100.675C342.936 114.606 330.012 125.849 317.513 136.786C310.754 142.684 303.771 148.778 297.502 155.207C275.509 177.823 268.087 201.377 275.384 225.135C284.865 255.912 315.36 280.516 347.659 306.562C364.899 320.481 382.728 334.855 397.059 350.337C432.485 388.428 445.995 432.114 459.07 474.366C465.266 494.418 471.676 515.146 480.374 535.099C519.453 624.856 613.217 709.137 719.244 749.778L718.739 752.27C696.407 743.648 674.552 733.147 653.59 720.967Z" fill="#5E4A2E" fill-opacity="0.5"/>
<path d="M631.288 765.619C580.905 736.695 537.263 698.388 505.477 655.19C470.427 606.886 451.708 554.186 433.603 503.233C409.686 436.035 387.151 372.437 330.324 316.88C320.313 307.096 309.003 297.324 298.076 287.889C267.946 261.893 236.814 235.015 227.866 203.649C219.719 174.939 231.944 148.018 264.284 123.615C270.642 118.839 277.434 114.218 284.018 109.763C303.195 96.7331 323.057 83.2785 333.89 64.0009C343.768 46.4225 345.94 24.3946 348.029 3.08151C350.834 -25.5599 353.763 -55.1782 375.749 -73.4511C391.02 -86.1426 413.435 -91.4111 435.112 -96.4957C446.689 -99.0007 457.901 -102.074 468.705 -105.703C494.596 -115.263 514.76 -131.379 527.225 -152.475C539.689 -173.571 544.028 -198.924 539.816 -226.056L543.106 -225.568C552.317 -170.158 523.897 -122.098 470.756 -103.069C459.867 -99.4089 448.571 -96.3017 436.911 -93.7597C415.49 -88.7373 393.36 -83.5332 378.493 -71.1613C357.072 -53.3438 354.322 -25.4147 351.451 4.19874C349.333 25.7049 347.131 47.9257 337.092 65.8306C326.053 85.4657 306.03 99.0562 286.651 112.198C280.103 116.636 273.32 121.244 267.008 125.989C235.332 149.86 223.297 176.07 231.226 203.873C239.891 234.255 270.545 260.724 300.21 286.336C311.21 295.834 322.561 305.629 332.679 315.513C390.187 371.749 413.902 438.678 436.898 503.286C454.933 554.027 473.503 606.412 508.327 654.394C557.083 721.595 639.593 778.404 723.63 802.649L723.496 805.26C691.847 796.055 660.659 782.647 631.288 765.619Z" fill="#5E4A2E" fill-opacity="0.5"/>
<path d="M286.788 65.8662C285.908 65.364 285.062 64.8055 284.261 64.198C275.876 57.9266 274.124 48.4488 276.179 42.3703C278.123 37.5549 281.066 33.2622 284.907 29.6382C285.823 28.6227 286.752 27.6334 287.627 26.5941C299.46 12.8272 304.869 -4.98698 303.189 -24.6567C301.952 -34.8962 299.85 -45.2778 296.899 -55.7264C291.821 -75.4765 286.606 -95.9912 294.121 -112.093C301.636 -128.196 321.729 -138.198 349.171 -139.421C358.828 -139.87 392.541 -140.58 420.386 -130.892C428.692 -128.003 436.041 -124.695 435.027 -115.994C433.88 -106.302 420.165 -105.392 410.161 -104.723C408.273 -104.593 406.479 -104.484 404.895 -104.312C382.005 -101.93 363.278 -89.346 352.411 -68.7724C342.68 -50.4984 339.881 -28.5273 337.174 -7.28524C334.496 13.0968 331.651 36.1471 321.305 54.9623C318.481 59.8526 314.872 65.3391 308.281 67.9976C302.914 70.1048 294.268 70.1848 286.788 65.8662ZM427.432 -125.299C425.052 -126.564 422.576 -127.603 420.066 -128.388C398.557 -135.867 369.935 -137.596 350.397 -136.691C323.859 -135.463 304.508 -125.889 297.286 -110.438C290.065 -94.986 294.938 -75.736 300.123 -55.4095C303.115 -44.8515 305.238 -34.3617 306.474 -24.0182C308.194 -3.81518 302.639 14.4828 290.491 28.6289C289.587 29.6706 288.67 30.6861 287.725 31.704C284.064 35.1485 281.247 39.2233 279.369 43.7926C277.661 49.0801 278.99 57.1502 285.95 62.3696C292.246 67.0725 300.88 67.4429 306.184 65.3952C312.227 62.973 315.67 57.8678 318.256 53.2015C328.403 34.7296 331.326 11.8769 333.917 -8.30732C336.67 -29.8663 339.51 -52.0042 349.378 -70.5617C360.645 -91.6859 379.913 -104.683 403.62 -107.146C405.232 -107.321 407.063 -107.446 408.98 -107.578C418.724 -108.226 430.839 -109.03 431.795 -117.154C432.19 -121.026 430.852 -123.324 427.411 -125.31L427.432 -125.299Z" fill="#5E4A2E" fill-opacity="0.5"/>
<path d="M207.133 241.446C203.4 239.209 199.949 236.573 196.914 233.639C169.204 207.687 159.955 171.324 175.371 149.011C177.105 146.484 179.177 144.039 181.159 141.655C187.078 134.642 193.203 127.367 191.385 117.623C190.796 115.029 189.954 112.413 188.869 109.801C186.989 105.691 186.008 101.557 185.981 97.6275C186.587 88.92 196.033 84.7444 204.187 82.092C205.878 81.5429 207.986 80.7958 210.394 79.9556C224.03 75.091 246.877 66.9825 259.536 71.2784C261.801 72.0321 263.973 73.2217 265.846 74.7338C267.719 76.2458 269.231 78.03 270.236 79.9161C275.526 89.0722 273.148 102.324 269.189 107.418C264.132 113.937 256.162 118.125 248.456 122.142C245.012 123.967 241.443 125.816 238.217 127.881C208.603 146.612 202.23 186.808 223.061 223.432C226.729 229.878 231.237 237.82 227.097 242.561C225.439 244.131 223.069 245.073 220.291 245.268C217.514 245.463 214.458 244.901 211.518 243.654C210.012 243.032 208.542 242.292 207.133 241.446ZM262.047 75.0168C261.119 74.4833 260.144 74.0422 259.15 73.7062C247.798 69.8596 224.766 78.0516 212.384 82.4579C209.93 83.3292 207.814 84.0906 206.156 84.5825C198.575 87.051 189.818 90.8426 189.287 98.4685C189.356 102.063 190.284 105.834 192.019 109.58C193.17 112.353 194.048 115.131 194.642 117.883C196.695 128.601 190.26 136.174 184.064 143.523C182.107 145.864 180.072 148.293 178.359 150.736C163.57 172.153 172.462 207.09 199.068 232.004C202.705 235.707 207.197 238.814 212.085 241.007C216.207 242.624 221.839 243.149 224.167 240.355C227.424 236.667 223.554 229.857 220.125 223.854C198.631 186.046 205.187 144.678 235.791 125.375C239.083 123.29 242.684 121.384 246.178 119.569C253.686 115.609 261.475 111.544 266.292 105.345C269.838 100.775 272.08 88.4743 267.366 80.3183C266.271 78.2721 264.411 76.4051 262.13 75.0643L262.047 75.0168Z" fill="#5E4A2E" fill-opacity="0.5"/>
<path d="M206.297 110.691C205.77 110.389 205.265 110.053 204.788 109.687C200.524 106.367 199.988 101.538 201.652 98.7045C203.528 96.107 206.365 94.1929 209.891 93.1457L212.168 92.2484C221.358 88.6114 238.422 81.8553 248.21 87.5063L248.396 87.6133C253.147 90.4711 254.39 93.267 254.566 95.1036C255.375 102.645 241.001 107.98 237.124 108.983C231.203 110.51 225.034 111.656 218.657 112.412C215.308 112.881 210.459 113.094 206.297 110.691ZM246.951 89.6393C238.997 85.0471 221.71 91.9034 214.294 94.8483L211.98 95.7623C208.913 96.6509 206.424 98.2763 204.743 100.489C203.57 102.52 203.934 105.838 206.621 107.942C209.633 110.291 214.181 110.076 217.315 109.692C223.52 108.956 229.524 107.843 235.287 106.359C240.921 104.883 251.774 99.7462 251.214 94.5795C251.031 93.661 250.539 92.7228 249.797 91.8754C249.055 91.0281 248.093 90.3068 247.025 89.7965L246.951 89.6393Z" fill="#5E4A2E" fill-opacity="0.5"/>
</g>
<defs>
<clipPath id="clip0_380_17">
<rect width="288.18" height="300.648" fill="white" transform="translate(150.463 -19) rotate(30)"/>
</clipPath>
</defs>
</svg>
