<svg width="674" height="184" viewBox="0 0 674 184" fill="none" xmlns="http://www.w3.org/2000/svg">
<g clip-path="url(#clip0_380_18)">
<path d="M671.559 236.802C631.875 217.96 587.813 195.056 567.047 161.551C555.487 142.924 552.16 122.481 548.952 102.698C545.791 83.1955 542.511 63.0659 530.951 44.6041C518.178 24.2597 496.6 9.9262 471.713 5.12084C451.941 1.35581 428.504 3.32087 401.996 10.983C391.193 14.104 380.58 17.8691 370.324 21.5185C359.355 25.4156 348.004 29.4449 336.345 32.7145C314.477 38.8409 290.683 42.6225 267.65 46.1893C226.176 52.679 187.01 58.822 157.026 77.7297C129.97 94.7879 116.141 119.442 102.788 143.271C100.027 148.225 97.1707 153.294 94.2431 158.133C71.7269 196.113 42.0755 218.637 6.19334 225.011L5.31338 222.617C40.101 216.441 68.9195 194.429 90.9835 157.191C93.8873 152.238 96.7435 147.201 99.5046 142.33C113.024 118.22 126.996 93.3017 154.671 75.8472C185.345 56.4936 226.819 50.0039 266.913 43.7123C289.803 40.129 313.478 36.43 335.037 30.3696C346.553 27.1496 357.832 23.1368 368.754 19.2562C379.082 15.5902 389.742 11.8087 400.664 8.6547C427.933 0.777875 452.155 -1.25328 472.712 2.69339C498.623 7.64736 521.057 22.5093 534.283 43.5637C546.033 62.3063 549.336 82.6836 552.545 102.384C555.753 122.084 559.009 142.23 570.355 160.527C590.764 193.405 634.349 216.061 673.629 234.705L671.559 236.802Z" fill="#5E4A2E" fill-opacity="0.5"/>
<path d="M2.37931 262.233L0.000303659 260.334C54.6131 228.43 86.9101 182.193 118.16 137.491C121.793 132.284 125.427 127.105 129.06 121.952C143.674 101.344 160.31 80.273 188.698 68.9284C209.709 60.5231 234.289 58.7066 258.035 56.9397C274.572 55.7177 291.68 54.4627 307.48 50.9949C326.23 46.8831 343.482 39.5843 360.139 32.5331C367.825 29.2305 375.772 25.9278 383.792 22.8894C416.296 10.6365 444.754 7.33386 468.404 13.0805C506.639 22.3609 523.407 52.7123 530.731 76.5409C533.941 86.9773 536.318 97.711 538.648 108.098C542.809 126.692 547.111 145.93 556.197 163.896C572.585 196.262 604.226 218.869 640.844 224.401L640.082 226.828C602.251 221.115 569.634 197.897 552.842 164.722C543.614 146.557 539.311 127.187 535.127 108.478C532.749 98.1238 530.372 87.4232 527.233 77.1024C520.1 53.9012 503.902 24.3755 467.238 15.4749C444.587 9.97595 417.057 13.2126 385.48 25.1187C377.533 28.1241 369.633 31.4597 361.994 34.6963C345.147 41.8301 327.728 49.195 308.55 53.4058C292.417 56.9562 275.238 58.2277 258.415 59.4662C233.955 61.2662 210.827 62.9836 190.482 71.1246C163.046 82.0729 146.719 102.781 132.439 123.059C128.79 128.189 125.156 133.363 121.538 138.581C90.0507 183.514 57.587 229.982 2.37931 262.233Z" fill="#5E4A2E" fill-opacity="0.5"/>
<path d="M25.1742 260.812L22.7952 258.946C52.6836 240.897 71.5807 215.913 86.1229 193.851C90.0263 187.923 93.8582 181.829 97.5474 175.934C108.972 157.77 120.777 139.044 136.508 122.134C153.429 103.969 182.391 80.5866 224.388 72.1648C237.808 69.4732 251.894 68.4824 265.528 67.5081C279.686 66.5173 294.295 65.4935 308.001 62.5541C325.847 58.723 342.123 51.6388 357.852 44.7858C364.991 41.7309 372.13 38.5769 379.506 35.7201C409.727 23.9957 437.28 20.8581 459.17 26.6378C490.409 34.8944 505.18 59.1854 512.077 78.1261C516.429 90.0817 519.21 102.45 522.039 114.455C525.225 128.161 528.482 142.346 533.928 155.887C541.063 173.127 558.736 204.007 598.469 217.135L596.922 219.364C555.951 205.823 537.708 174.2 530.502 156.614C525.31 142.879 521.277 128.946 518.423 114.885C515.689 102.979 512.836 90.6597 508.508 78.8032C501.825 60.4404 487.601 36.909 457.813 29.0322C431.427 22.0636 401.564 30.056 381.148 37.9659C373.89 40.7897 366.656 43.9272 359.732 46.9821C343.788 53.9012 327.322 61.0844 309.024 65.0146C295.009 68.02 280.185 69.0603 265.861 70.0842C252.394 71.0254 238.474 72.0162 225.411 74.6418C184.484 82.8985 156.117 105.786 139.53 123.587C123.942 140.332 112.208 158.992 100.855 177.024C97.1416 182.919 93.3096 189.029 89.3825 194.974C74.6974 217.168 55.5861 242.45 25.1742 260.812Z" fill="#5E4A2E" fill-opacity="0.5"/>
<path d="M613.544 264.478C585.258 244.464 555.948 223.674 532.396 200.176C505.8 173.672 490.244 147.152 486.157 121.341C485.23 115.479 484.874 109.485 484.518 103.689C484.307 95.1784 483.204 86.6901 481.216 78.2913C476.794 62.0918 465.232 49.5912 449.553 43.9932C425.143 35.3238 395.756 43.8611 380.408 49.7233C373.626 52.2994 366.916 55.2222 360.419 58.0625C346.142 64.3045 331.293 70.7612 314.732 74.0639C298.885 77.2179 282.039 77.3665 265.764 77.4821C246.919 77.6473 227.456 77.8124 210.038 82.7499C176.582 92.2285 158.28 115.909 141.025 141.422L88.8543 218.373L85.6185 217.316L137.765 140.431C154.664 115.496 174.061 90.346 208.682 80.5206C226.719 75.4015 246.539 75.2364 265.788 75.0712C281.849 74.9391 298.433 74.807 313.829 71.7686C329.914 68.565 344.501 62.1908 358.588 56.0479C365.131 53.1911 371.889 50.2517 378.766 47.6261C394.733 41.5327 425.381 32.6817 451.243 41.8795C467.897 47.8243 480.149 60.9524 484.809 77.9115C486.832 86.4299 487.951 95.0399 488.159 103.672C488.491 109.419 488.847 115.364 489.773 121.16C493.79 146.557 509.155 172.681 535.395 198.772C558.827 222.105 587.97 242.78 616.281 262.761L613.544 264.478Z" fill="#5E4A2E" fill-opacity="0.5"/>
<path d="M84.8217 277.722L81.3241 277.21C96.2017 228.878 119.319 181.948 150.186 137.409C164.467 116.751 183.506 94.7549 215.867 88.3147C229.905 85.5239 244.681 86.1845 258.957 86.8285C265.501 87.1257 272.234 87.4065 278.825 87.3899C303.846 87.1834 328.288 82.1334 349.4 72.8087C354.159 70.695 358.918 68.3006 363.678 65.9722C380.953 57.3523 398.848 48.4186 419.739 50.3342C442.414 52.4148 457.329 67.0621 463.204 78.9847C468.199 89.0908 469.529 99.907 470.788 110.36C471.216 113.91 471.667 117.593 472.238 121.16C478.933 161.481 504.445 199.176 544.883 228.496L542.313 230.147C501.319 200.422 475.464 162.204 468.692 121.325C468.098 117.725 467.671 114.026 467.219 110.459C465.984 100.155 464.701 89.5036 459.825 79.6782C454.284 68.4327 440.319 54.6276 419.262 52.6956C399.799 50.9121 382.476 59.5321 365.771 67.8878C361.012 70.2327 356.253 72.6436 351.493 74.7903C329.814 84.3687 304.712 89.556 279.015 89.7679C272.353 89.7679 265.5 89.4871 258.909 89.2064C244.919 88.5789 230.357 87.9183 217.008 90.61C186.075 96.7695 167.56 118.22 153.589 138.383C122.765 182.767 99.679 229.544 84.8217 277.722Z" fill="#5E4A2E" fill-opacity="0.5"/>
<path d="M551.587 254.571C527.915 239.164 503.435 223.195 483.927 204.634C461.803 183.564 449.578 162.245 447.583 141.273C447.061 135.923 447.252 130.49 447.396 125.222C447.845 118.492 447.592 111.748 446.638 105.043C445.497 98.4377 440.813 82.5684 422.232 75.831C402.722 68.7468 379.046 75.6163 362.746 82.6345C359.081 84.2032 355.369 85.9371 351.776 87.5884C337.046 94.2763 321.817 101.195 304.186 102.632C292.598 103.573 280.868 102.038 269.519 100.568C255.671 98.7514 242.561 97.034 229.688 99.445C210.153 103.094 196.612 115.578 186.997 126.031C156.302 159.414 137.586 197.416 132.417 236.852L128.848 236.637C134.028 196.796 152.883 158.394 183.833 124.644C193.805 113.795 207.893 100.865 228.618 96.9845C242.3 94.4415 256.409 96.2744 270.043 98.0578C281.13 99.511 292.575 101.014 303.615 100.105C320.461 98.7349 335.334 91.981 349.706 85.4582C353.323 83.8069 357.059 82.1556 360.771 80.5042C377.976 73.1393 402.889 65.9726 423.874 73.6017C438.006 78.7208 447.664 90.1149 450.184 104.696C451.155 111.527 451.416 118.398 450.965 125.255C450.821 130.457 450.63 135.84 451.128 141.075C453.075 161.568 465.087 182.457 486.807 203.148C506.124 221.544 530.485 237.397 554.038 252.688L551.587 254.571Z" fill="#5E4A2E" fill-opacity="0.5"/>
<path d="M147.708 277.607L144.139 277.343C147.88 252.292 151.716 226.383 160.191 201.382C169.714 173.012 183.995 149.926 203.462 130.82C210.863 123.555 222.643 113.597 239.156 110.922C248.674 109.403 258.382 110.46 267.709 111.483C270.516 111.781 273.324 112.078 276.108 112.326C300.394 114.333 324.985 111.141 346.586 103.177C349.632 102.038 352.797 100.766 355.867 99.5278C370.144 93.7812 384.873 87.8364 400.767 90.5446C417.612 93.4014 427.152 104.961 430.457 114.836C432.513 122.143 433.405 129.586 433.118 137.029C433.117 140.332 433.116 143.767 433.496 147.103C435.519 171.843 449.592 195.372 473.409 213.833L470.744 215.484C446.373 196.611 431.957 172.554 429.856 147.251C429.595 143.849 429.524 140.398 429.477 137.046C429.756 129.786 428.896 122.527 426.912 115.397C423.987 106.662 415.138 95.5811 399.839 92.939C385.373 90.4785 371.286 96.2417 357.579 101.675C354.486 102.913 351.297 104.201 348.061 105.357C325.87 113.541 300.608 116.825 275.655 114.77C272.824 114.522 269.968 114.208 267.113 113.911C258.048 112.92 248.674 111.913 239.846 113.316C224.427 115.793 213.218 125.305 206.15 132.241C186.945 151.066 172.974 173.871 163.451 201.943C155.237 226.796 151.449 252.622 147.708 277.607Z" fill="#5E4A2E" fill-opacity="0.5"/>
<path d="M469.57 261.968C447.015 253.992 428.911 239.296 418.588 220.586C410.097 205.196 406.698 186.866 408.653 166.092C408.82 164.144 409.034 162.195 409.272 160.23C410.25 151.296 411.298 142.065 408.231 133.363C404.878 123.851 393.958 113.184 378.207 112.243C369.237 111.714 359.338 114.389 348.035 120.4C345.822 121.589 343.657 122.811 341.467 124.05C334.88 128.145 327.494 131.575 319.528 134.238C307.202 137.888 293.568 137.723 280.386 137.541C268.014 137.376 255.236 137.211 243.886 140.266C230.037 143.998 218.044 152.502 207.239 166.274C191.99 185.766 183.436 207.439 182.243 229.602L178.674 229.602C179.889 207.061 188.599 185.02 204.122 165.201C215.332 150.9 227.92 142.082 242.602 138.069C254.618 134.849 267.752 135.014 280.434 135.179C293.116 135.345 306.607 135.51 318.148 132.058C325.881 129.78 332.663 125.932 339.207 122.233C341.42 120.978 343.633 119.74 345.87 118.534C357.911 112.127 368.595 109.303 378.517 109.881C396.1 110.921 408.042 122.53 411.681 132.884C414.891 141.95 413.843 151.396 412.818 160.527C412.603 162.459 412.389 164.408 412.198 166.34C410.362 186.734 413.618 204.7 421.919 219.76C431.933 237.925 449.418 252.126 471.188 259.838L469.57 261.968Z" fill="#5E4A2E" fill-opacity="0.5"/>
<path d="M212.668 268.293L209.122 267.963C215.172 237.644 221.412 206.302 237.692 177.14C242.81 167.926 249.879 157.836 263.442 152.948C275.221 148.688 288.664 149.546 301.679 150.372C312.743 151.082 324.188 151.809 334.372 149.348C339.078 148.076 343.616 146.524 347.935 144.708C357.073 141.141 366.496 137.425 376.822 139.341C385.982 140.992 393.309 147.317 395.449 155.309C397.018 161.221 395.97 167.248 394.946 173.078C394.803 174.019 394.636 174.944 394.47 175.885C391.42 194.552 392.848 213.44 398.694 231.782L395.196 232.311C389.273 213.702 387.83 194.541 390.924 175.604L391.425 172.78C392.401 167.133 393.425 161.304 391.928 155.772C390.43 150.24 385.434 143.502 375.893 141.735C366.995 140.084 358.595 143.387 349.719 146.871C345.174 148.763 340.397 150.371 335.442 151.676C324.544 154.335 312.719 153.575 301.274 152.849C288.188 152.007 275.839 151.198 264.988 155.144C252.496 159.652 245.808 169.247 240.928 178.032C224.886 206.93 218.67 238.123 212.668 268.293Z" fill="#5E4A2E" fill-opacity="0.5"/>
<path d="M364.634 288.77C347.271 259.199 346.277 226.215 361.844 196.163L362.392 195.106C364.445 191.93 365.608 188.511 365.82 185.033C365.821 181.731 362.966 177.817 358.112 177.024C353.259 176.232 348.928 178.593 344.335 181.087C340.337 183.283 336.173 185.529 331.128 186.04C324.633 186.734 319.065 184.389 313.688 182.16C310.619 180.739 307.301 179.596 303.815 178.758C300.253 178.184 296.552 178.16 292.975 178.688C289.398 179.215 286.031 180.282 283.113 181.813C277.087 185.046 272.007 189.048 268.145 193.604C254.233 208.655 245.359 225.679 242.176 243.424L238.631 243.127C241.873 225.01 250.935 207.629 265.147 192.266C269.249 187.434 274.655 183.195 281.068 179.782C284.43 178.036 288.305 176.825 292.418 176.237C296.531 175.649 300.78 175.698 304.862 176.38C308.671 177.276 312.294 178.514 315.64 180.063C320.708 182.176 325.49 184.191 330.701 183.63C334.841 183.184 338.601 181.136 342.241 179.138C347.286 176.397 352.498 173.556 359.041 174.613C365.584 175.67 369.366 180.657 369.508 184.967C369.314 188.761 368.077 192.493 365.865 195.965L365.318 197.005C350.05 226.477 351.018 258.825 368.037 287.828L364.634 288.77Z" fill="#5E4A2E" fill-opacity="0.5"/>
</g>
<defs>
<clipPath id="clip0_380_18">
<rect width="673.675" height="288.035" fill="white" transform="translate(0 0.734375)"/>
</clipPath>
</defs>
</svg>
