<svg width="65" height="92" viewBox="0 0 65 92" fill="none" xmlns="http://www.w3.org/2000/svg">
<path d="M64.3638 75.8944H65.3638V74.8944H64.3638V75.8944ZM64.3638 91.7344V92.7344H65.3638V91.7344H64.3638ZM3.24375 91.7344H2.24375V92.7344H3.24375V91.7344ZM3.24375 75.8944V74.8944H2.24375V75.8944H3.24375ZM25.9638 75.8944V76.8944H26.9638V75.8944H25.9638ZM25.9638 20.0544H26.9638V17.0544L25.1638 19.4544L25.9638 20.0544ZM21.4838 24.0544L22.0484 24.8797L21.4838 24.0544ZM14.6038 28.0544L15.0352 28.9565L15.0431 28.9527L15.051 28.9488L14.6038 28.0544ZM7.08375 30.9344L6.80375 29.9744L7.08375 30.9344ZM0.0437503 32.0544H-0.95625V33.0544H0.0437503V32.0544ZM0.0437503 15.5744V14.5744H-0.95625V15.5744H0.0437503ZM7.40375 13.6544L6.98469 12.7464H6.98469L7.40375 13.6544ZM15.5638 9.17437L16.1028 10.0167L16.111 10.0113L15.5638 9.17437ZM22.6038 4.05437L23.2439 4.82259L23.2562 4.81238L23.2681 4.80178L22.6038 4.05437ZM25.9638 0.374367V-0.625633H25.3044L25.0446 -0.0195465L25.9638 0.374367ZM44.0438 0.374367H45.0438V-0.625633H44.0438V0.374367ZM44.0438 75.8944H43.0438V76.8944H44.0438V75.8944ZM63.3638 75.8944V91.7344H65.3638V75.8944H63.3638ZM64.3638 90.7344H3.24375V92.7344H64.3638V90.7344ZM4.24375 91.7344V75.8944H2.24375V91.7344H4.24375ZM3.24375 76.8944H25.9638V74.8944H3.24375V76.8944ZM26.9638 75.8944V20.0544H24.9638V75.8944H26.9638ZM25.1638 19.4544C24.2946 20.6132 22.8984 21.8748 20.9191 23.2291L22.0484 24.8797C24.1224 23.4606 25.7129 22.0555 26.7638 20.6544L25.1638 19.4544ZM20.9191 23.2291C18.9355 24.5863 16.6823 25.897 14.1565 27.1599L15.051 28.9488C17.6452 27.6517 19.9787 26.2958 22.0484 24.8797L20.9191 23.2291ZM14.1723 27.1522C11.7668 28.3027 9.31076 29.2432 6.80375 29.9744L7.36375 31.8944C9.97674 31.1322 12.534 30.1527 15.0352 28.9565L14.1723 27.1522ZM6.80375 29.9744C4.31306 30.7008 2.06214 31.0544 0.0437503 31.0544V33.0544C2.29203 33.0544 4.73444 32.6613 7.36375 31.8944L6.80375 29.9744ZM1.04375 32.0544V15.5744H-0.95625V32.0544H1.04375ZM0.0437503 16.5744C2.37026 16.5744 4.97068 15.8787 7.82281 14.5623L6.98469 12.7464C4.29015 13.99 1.98391 14.5744 0.0437503 14.5744V16.5744ZM7.82281 14.5623C10.6391 13.2625 13.3991 11.747 16.1028 10.0166L15.0247 8.3321C12.3951 10.0151 9.7151 11.4862 6.98469 12.7464L7.82281 14.5623ZM16.111 10.0113C18.9069 8.18324 21.2866 6.45373 23.2439 4.82259L21.9636 3.28615C20.0809 4.85501 17.7673 6.53883 15.0165 8.3374L16.111 10.0113ZM23.2681 4.80178C24.2417 3.93636 25.0298 3.17747 25.6222 2.52864C26.1958 1.90041 26.6532 1.30419 26.8829 0.768288L25.0446 -0.0195465C24.9543 0.191216 24.6917 0.581673 24.1453 1.1801C23.6177 1.75793 22.8858 2.46571 21.9394 3.30696L23.2681 4.80178ZM25.9638 1.37437H44.0438V-0.625633H25.9638V1.37437ZM43.0438 0.374367V75.8944H45.0438V0.374367H43.0438ZM44.0438 76.8944H64.3638V74.8944H44.0438V76.8944Z" fill="#A0845D"/>
</svg>
