<svg width="84" height="123" viewBox="0 0 84 123" fill="none" xmlns="http://www.w3.org/2000/svg">
<g clip-path="url(#clip0_29_5103)">
<path d="M57.1338 59.9744L56.9526 58.9909L56.9694 60.9608L57.1338 59.9744ZM68.8138 65.0944L68.186 65.8728L68.1997 65.8838L68.2138 65.8944L68.8138 65.0944ZM76.6538 75.0144L75.7409 75.4228L75.7451 75.4319L76.6538 75.0144ZM74.4138 105.734L73.5845 105.176L73.5803 105.182L73.5761 105.188L74.4138 105.734ZM60.6538 117.094L60.2461 116.181L60.2394 116.184L60.2326 116.187L60.6538 117.094ZM18.0938 116.934L18.5158 116.028L18.5093 116.025L18.5028 116.022L18.0938 116.934ZM3.21375 104.774L2.46362 104.113L1.94332 104.703L2.39452 105.348L3.21375 104.774ZM13.9338 92.6144L14.7658 92.0597L14.0441 90.9771L13.1836 91.9531L13.9338 92.6144ZM23.8538 101.734L24.3548 100.869L24.3462 100.864L24.3374 100.859L23.8538 101.734ZM55.3738 100.774L54.7598 99.985L55.3738 100.774ZM54.7337 72.7744L54.0878 73.5378L54.0974 73.5457L54.7337 72.7744ZM31.5338 67.4944H30.5338V68.4944H31.5338V67.4944ZM31.5338 53.7344V52.7344H30.5338V53.7344H31.5338ZM52.8138 48.7744L53.4663 49.5321L53.4722 49.527L53.4781 49.5218L52.8138 48.7744ZM56.1738 27.6544L55.3417 28.2091L55.3571 28.2322L55.3738 28.2544L56.1738 27.6544ZM49.7738 22.6944L49.4148 23.6277L49.7738 22.6944ZM25.7738 24.6144L26.2651 25.4854L25.7738 24.6144ZM15.8538 34.6944L15.1178 35.3714L16.0513 36.3861L16.7259 35.1836L15.8538 34.6944ZM4.81375 22.6944L3.96575 22.1644L3.56186 22.8106L4.07782 23.3714L4.81375 22.6944ZM13.6138 13.7344L14.1793 14.5591L13.6138 13.7344ZM26.4137 7.81437L26.6913 8.77509L26.6981 8.77311L26.7049 8.77104L26.4137 7.81437ZM72.8138 19.0144L71.9849 19.5738L71.9897 19.5809L71.9945 19.5878L72.8138 19.0144ZM74.8938 45.8944L75.8087 46.298L75.8129 46.2883L74.8938 45.8944ZM67.8538 55.1744L68.4752 55.9579L68.4833 55.9514L68.4913 55.9448L67.8538 55.1744ZM56.9694 60.9608C61.2917 61.6812 65.0226 63.3216 68.186 65.8728L69.4415 64.316C65.9916 61.5338 61.9358 59.7609 57.2982 58.988L56.9694 60.9608ZM68.2138 65.8944C71.4856 68.3483 73.994 71.5178 75.7409 75.4227L77.5666 74.606C75.6868 70.4043 72.9686 66.9605 69.4138 64.2944L68.2138 65.8944ZM75.7451 75.4319C77.4896 79.2289 78.3737 83.563 78.3737 88.4544H80.3737C80.3737 83.3191 79.4445 78.6932 77.5624 74.5969L75.7451 75.4319ZM78.3737 88.4544C78.3737 94.8929 76.767 100.453 73.5845 105.176L75.243 106.293C78.6738 101.202 80.3737 95.2425 80.3737 88.4544H78.3737ZM73.5761 105.188C70.4932 109.915 66.065 113.584 60.2461 116.181L61.0614 118.008C67.1892 115.272 71.9343 111.367 75.2514 106.281L73.5761 105.188ZM60.2326 116.187C54.4181 118.887 47.5278 120.254 39.5338 120.254V122.254C47.7531 122.254 54.9428 120.848 61.0749 118.001L60.2326 116.187ZM39.5338 120.254C31.5458 120.254 24.5477 118.836 18.5158 116.028L17.6717 117.841C24.0131 120.793 31.3084 122.254 39.5338 122.254V120.254ZM18.5028 116.022C12.4738 113.319 7.65833 109.38 4.03298 104.201L2.39452 105.348C6.23584 110.835 11.3403 115.003 17.6847 117.847L18.5028 116.022ZM3.96388 105.436L14.6839 93.2757L13.1836 91.9531L2.46362 104.113L3.96388 105.436ZM13.1017 93.1691C15.7508 97.1427 19.1771 100.292 23.3701 102.61L24.3374 100.859C20.4237 98.6963 17.2367 95.766 14.7658 92.0597L13.1017 93.1691ZM23.3527 102.6C27.5996 105.059 32.9059 106.254 39.2137 106.254V104.254C33.1483 104.254 28.2146 103.104 24.3548 100.869L23.3527 102.6ZM39.2137 106.254C46.2774 106.254 51.9112 104.734 55.9877 101.564L54.7598 99.985C51.1563 102.788 46.0168 104.254 39.2137 104.254V106.254ZM55.9877 101.564C60.1268 98.3444 62.1338 93.5383 62.1338 87.3344H60.1338C60.1338 93.0771 58.3007 97.231 54.7598 99.985L55.9877 101.564ZM62.1338 87.3344C62.1338 80.8891 59.8962 75.737 55.3701 72.003L54.0974 73.5457C58.1046 76.8517 60.1338 81.4063 60.1338 87.3344H62.1338ZM55.3797 72.011C50.9633 68.274 44.3938 66.4944 35.8538 66.4944V68.4944C44.1671 68.4944 50.1842 70.2347 54.0878 73.5378L55.3797 72.011ZM35.8538 66.4944H31.5338V68.4944H35.8538V66.4944ZM32.5338 67.4944V53.7344H30.5338V67.4944H32.5338ZM31.5338 54.7344H36.3338V52.7344H31.5338V54.7344ZM36.3338 54.7344C43.6226 54.7344 49.3826 53.0486 53.4663 49.5321L52.1612 48.0166C48.5649 51.1134 43.3382 52.7344 36.3338 52.7344V54.7344ZM53.4781 49.5218C57.5308 45.9194 59.5738 41.3811 59.5738 35.9744H57.5738C57.5738 40.8076 55.7767 44.8026 52.1494 48.027L53.4781 49.5218ZM59.5738 35.9744C59.5738 32.4057 58.736 29.404 56.9738 27.0544L55.3738 28.2544C56.8116 30.1714 57.5738 32.7164 57.5738 35.9744H59.5738ZM57.0058 27.0997C55.3859 24.6698 53.0781 22.8939 50.1327 21.761L49.4148 23.6277C52.016 24.6282 53.975 26.159 55.3417 28.2091L57.0058 27.0997ZM50.1327 21.761C47.2227 20.6418 43.8969 20.0944 40.1738 20.0944V22.0944C43.7039 22.0944 46.7782 22.6136 49.4148 23.6277L50.1327 21.761ZM40.1738 20.0944C34.5859 20.0944 29.6122 21.301 25.2824 23.7434L26.2651 25.4854C30.2553 23.2344 34.8816 22.0944 40.1738 22.0944V20.0944ZM25.2824 23.7434C20.9548 26.1846 17.5199 29.6804 14.9816 34.2051L16.7259 35.1836C19.0943 30.9617 22.2727 27.7375 26.2651 25.4854L25.2824 23.7434ZM16.5897 34.0173L5.54968 22.0173L4.07782 23.3714L15.1178 35.3714L16.5897 34.0173ZM5.66175 23.2244C7.71363 19.9414 10.5452 17.051 14.1793 14.5591L13.0482 12.9096C9.21561 15.5377 6.18054 18.6207 3.96575 22.1644L5.66175 23.2244ZM14.1793 14.5591C17.8159 12.0654 21.9834 10.1352 26.6913 8.77509L26.1362 6.85365C21.2441 8.26692 16.8783 10.2833 13.0482 12.9096L14.1793 14.5591ZM26.7049 8.77104C31.5116 7.30813 36.5864 6.57437 41.9338 6.57437V4.57437C36.4011 4.57437 31.1292 5.33394 26.1226 6.8577L26.7049 8.77104ZM41.9338 6.57437C48.8634 6.57437 54.9082 7.72923 60.091 10.0097L60.8965 8.17905C55.4127 5.76617 49.0841 4.57437 41.9338 4.57437V6.57437ZM60.091 10.0097C65.275 12.2906 69.224 15.4836 71.9849 19.5738L73.6426 18.4549C70.6435 14.0119 66.3792 10.5914 60.8965 8.17905L60.091 10.0097ZM71.9945 19.5878C74.8511 23.6687 76.2938 28.4768 76.2938 34.0544H78.2938C78.2938 28.1119 76.7497 22.8934 73.633 18.4409L71.9945 19.5878ZM76.2938 34.0544C76.2938 38.0823 75.52 41.8946 73.9746 45.5005L75.8129 46.2883C77.4676 42.4274 78.2938 38.3464 78.2938 34.0544H76.2938ZM73.9788 45.4907C72.4424 48.9734 70.1914 51.9417 67.2162 54.404L68.4913 55.9448C71.7027 53.287 74.1451 50.0687 75.8087 46.298L73.9788 45.4907ZM67.2324 54.3909C64.2729 56.738 60.8523 58.2725 56.9526 58.9909L57.3149 60.9578C61.5218 60.1829 65.2479 58.5174 68.4752 55.9579L67.2324 54.3909Z" fill="#A0845D"/>
</g>
<defs>
<clipPath id="clip0_29_5103">
<rect width="84" height="122" fill="white" transform="translate(0 0.734375)"/>
</clipPath>
</defs>
</svg>
