<svg width="75" height="94" viewBox="0 0 75 94" fill="none" xmlns="http://www.w3.org/2000/svg">
<path d="M0.493751 93.7344H-0.506249V94.7344H0.493751V93.7344ZM1.61375 81.4144L2.59435 81.6105L2.59537 81.6052L1.61375 81.4144ZM5.45375 70.5344L4.58218 70.0441L4.57628 70.0546L4.57063 70.0652L5.45375 70.5344ZM13.2938 60.9344L13.964 61.6765L13.9653 61.6754L13.2938 60.9344ZM26.2537 52.1344L26.7225 53.0177L26.7363 53.0104L26.7499 53.0026L26.2537 52.1344ZM36.8138 46.5344L37.2493 47.4345L37.2609 47.4289L37.2724 47.423L36.8138 46.5344ZM45.6138 41.5744L46.1438 42.4224L46.1562 42.4146L46.1685 42.4064L45.6138 41.5744ZM51.5338 36.1344L50.7444 35.5204L50.7335 35.5345L50.7231 35.5489L51.5338 36.1344ZM51.8538 23.0144L52.6992 22.4804H52.6992L51.8538 23.0144ZM46.0938 18.2144L45.6465 19.1088L45.6617 19.1164L45.6771 19.1234L46.0938 18.2144ZM28.8138 17.4144L28.5226 16.4576L28.5105 16.4614L28.8138 17.4144ZM22.2538 20.4544L22.7752 21.3076L22.7815 21.3038L22.7877 21.2999L22.2538 20.4544ZM16.9738 24.4544L17.6287 25.2101L17.6426 25.198L17.6561 25.1854L16.9738 24.4544ZM12.8138 28.6144L12.0606 29.2722L12.8258 30.1483L13.5771 29.2603L12.8138 28.6144ZM1.77375 15.9744L1.00553 15.3342L0.459338 15.9896L1.02058 16.6322L1.77375 15.9744ZM6.73375 11.6544L7.31501 12.4681L7.32192 12.4631L6.73375 11.6544ZM15.0538 6.69437L15.501 7.58887L15.5124 7.58299L15.0538 6.69437ZM26.2537 2.53436L26.5021 3.50303L26.5137 3.50006L26.5252 3.49682L26.2537 2.53436ZM57.6138 4.29437L57.1823 5.19651L57.1903 5.20036L57.1985 5.20406L57.6138 4.29437ZM68.8138 13.7344L67.9683 14.2684L67.9765 14.2814L67.9852 14.2942L68.8138 13.7344ZM70.4138 37.5744L69.5323 37.1021L69.5256 37.1146L69.5193 37.1272L70.4138 37.5744ZM64.4938 45.5744L65.168 46.3129L65.1766 46.305L65.185 46.297L64.4938 45.5744ZM56.6538 51.4944L57.1683 52.3519L57.1779 52.346L56.6538 51.4944ZM49.1338 55.8144L49.5717 56.7134L49.5924 56.7033L49.6126 56.6923L49.1338 55.8144ZM38.2538 61.4144L37.7707 60.5388L37.7641 60.5424L37.7576 60.5461L38.2538 61.4144ZM30.5738 66.5344L31.1738 67.3344L31.1862 67.325L31.1984 67.3152L30.5738 66.5344ZM25.2938 71.6544L26.0699 72.285L26.0792 72.2735L26.0881 72.2618L25.2938 71.6544ZM21.7738 77.8944L20.8425 77.53L20.3086 78.8944H21.7738V77.8944ZM74.5738 77.8944H75.5738V76.8944H74.5738V77.8944ZM74.5738 93.7344V94.7344H75.5738V93.7344H74.5738ZM1.49375 93.7344C1.49375 89.309 1.86261 85.2691 2.59433 81.6105L0.63317 81.2183C-0.128438 85.0263 -0.506249 89.1997 -0.506249 93.7344H1.49375ZM2.59537 81.6052C3.32338 77.8612 4.57052 74.3284 6.33687 71.0035L4.57063 70.0652C2.71031 73.567 1.39745 77.2876 0.632135 81.2235L2.59537 81.6052ZM6.32533 71.0246C8.18555 67.7176 10.7268 64.6005 13.964 61.6765L12.6235 60.1923C9.24741 63.2416 6.56196 66.5245 4.58218 70.0441L6.32533 71.0246ZM13.9653 61.6754C17.3027 58.6509 21.5494 55.7626 26.7225 53.0177L25.785 51.251C20.5047 54.0528 16.1115 57.0312 12.6222 60.1934L13.9653 61.6754ZM26.7499 53.0026C30.4666 50.8788 33.9663 49.0231 37.2493 47.4345L36.3782 45.6342C33.0479 47.2457 29.5075 49.1233 25.7576 51.2661L26.7499 53.0026ZM37.2724 47.423C40.5981 45.7065 43.5559 44.0398 46.1438 42.4224L45.0838 40.7264C42.5516 42.309 39.6428 43.9489 36.3551 45.6458L37.2724 47.423ZM46.1685 42.4064C48.7996 40.6523 50.8704 38.7608 52.3444 36.7199L50.7231 35.5489C49.4237 37.348 47.5479 39.0831 45.0591 40.7423L46.1685 42.4064ZM52.3231 36.7483C53.9542 34.6511 54.7738 32.248 54.7738 29.5744H52.7738C52.7738 31.8074 52.0999 33.7776 50.7444 35.5204L52.3231 36.7483ZM54.7738 29.5744C54.7738 27.0344 54.0779 24.6632 52.6992 22.4804L51.0083 23.5484C52.1896 25.4188 52.7738 27.421 52.7738 29.5744H54.7738ZM52.6992 22.4804C51.2987 20.2628 49.2153 18.545 46.5104 17.3053L45.6771 19.1234C48.0922 20.2304 49.8488 21.7126 51.0083 23.5484L52.6992 22.4804ZM46.541 17.3199C43.8101 15.9545 40.5553 15.2944 36.8138 15.2944V17.2944C40.3255 17.2944 43.2575 17.9143 45.6465 19.1088L46.541 17.3199ZM36.8138 15.2944C33.8471 15.2944 31.0811 15.679 28.5226 16.4577L29.1049 18.371C31.4531 17.6564 34.0205 17.2944 36.8138 17.2944V15.2944ZM28.5105 16.4614C26.0849 17.2332 23.8204 18.2822 21.7198 19.6089L22.7877 21.2999C24.7404 20.0666 26.8492 19.0888 29.117 18.3673L28.5105 16.4614ZM21.7323 19.6011C19.7563 20.8086 17.9422 22.1826 16.2914 23.7233L17.6561 25.1854C19.2053 23.7394 20.9112 22.4468 22.7752 21.3076L21.7323 19.6011ZM16.3188 23.6987C14.6861 25.1137 13.2619 26.5366 12.0504 27.9684L13.5771 29.2603C14.7123 27.9188 16.0614 26.5684 17.6287 25.2101L16.3188 23.6987ZM13.5669 27.9565L2.52692 15.3165L1.02058 16.6322L12.0606 29.2722L13.5669 27.9565ZM2.54197 16.6146C3.53012 15.4288 5.10565 14.0462 7.31499 12.4681L6.15251 10.8406C3.88186 12.4625 2.15072 13.96 1.00553 15.3342L2.54197 16.6146ZM7.32192 12.4631C9.61519 10.7953 12.3394 9.1696 15.501 7.5888L14.6065 5.79994C11.3681 7.41914 8.54565 9.10013 6.14558 10.8456L7.32192 12.4631ZM15.5124 7.58299C18.7429 5.91564 22.4041 4.55381 26.5021 3.50303L26.0054 1.5657C21.7834 2.64826 17.9779 4.05978 14.5951 5.80575L15.5124 7.58299ZM26.5252 3.49682C30.5859 2.3515 35.0267 1.77437 39.8538 1.77437V-0.225632C34.8675 -0.225632 30.2416 0.370575 25.9823 1.57191L26.5252 3.49682ZM39.8538 1.77437C46.6775 1.77437 52.4421 2.92944 57.1823 5.19651L58.0452 3.39223C52.9721 0.965965 46.8967 -0.225632 39.8538 -0.225632V1.77437ZM57.1985 5.20406C61.9511 7.37374 65.5247 10.3994 67.9683 14.2684L69.6592 13.2004C66.9828 8.96263 63.0897 5.69499 58.029 3.38468L57.1985 5.20406ZM67.9852 14.2942C70.5341 18.0666 71.8138 22.3495 71.8138 27.1744H73.8138C73.8138 21.9726 72.4268 17.2955 69.6423 13.1745L67.9852 14.2942ZM71.8138 27.1744C71.8138 30.9835 71.0425 34.283 69.5323 37.1021L71.2952 38.0466C72.985 34.8924 73.8138 31.2585 73.8138 27.1744H71.8138ZM69.5193 37.1272C68.0783 40.0093 66.1742 42.5832 63.8025 44.8517L65.185 46.297C67.72 43.8722 69.7626 41.1128 71.3082 38.0216L69.5193 37.1272ZM63.8195 44.8359C61.4116 47.0344 58.8484 48.9696 56.1297 50.6427L57.1779 52.346C60.0058 50.6058 62.6692 48.5944 65.168 46.3129L63.8195 44.8359ZM56.1393 50.6369C53.4825 52.2309 50.9878 53.664 48.6549 54.9365L49.6126 56.6923C51.973 55.4048 54.4917 53.9578 57.1683 52.3519L56.1393 50.6369ZM48.6958 54.9154C44.5249 56.9473 40.8826 58.8219 37.7707 60.5388L38.7368 62.2899C41.8116 60.5935 45.4226 58.7347 49.5717 56.7134L48.6958 54.9154ZM37.7576 60.5461C34.7369 62.2723 32.1317 64.0074 29.9491 65.7535L31.1984 67.3152C33.2825 65.648 35.7973 63.9698 38.7499 62.2826L37.7576 60.5461ZM29.9738 65.7344C27.7791 67.3804 25.9501 69.1498 24.4994 71.0469L26.0881 72.2618C27.4107 70.5323 29.1017 68.8884 31.1738 67.3344L29.9738 65.7344ZM24.5176 71.0238C23.0544 72.8247 21.8329 74.9989 20.8425 77.53L22.705 78.2588C23.6346 75.8832 24.7598 73.8974 26.0699 72.285L24.5176 71.0238ZM21.7738 78.8944H74.5738V76.8944H21.7738V78.8944ZM73.5738 77.8944V93.7344H75.5738V77.8944H73.5738ZM74.5738 92.7344H0.493751V94.7344H74.5738V92.7344Z" fill="#A0845D"/>
</svg>
