<svg width="668" height="759" viewBox="0 0 668 759" fill="none" xmlns="http://www.w3.org/2000/svg">
<path d="M502.888 709.32L505.799 709.491C506.351 666.426 476.233 619.385 420.928 576.813C387.012 550.753 347.187 528.172 308.662 506.342C292.698 497.297 276.207 487.936 260.365 478.466C214.005 450.771 157.211 412.679 129.216 363.627C126.319 358.551 123.615 353.19 120.977 348.008C110.642 327.616 100.035 306.546 74.7183 293.938C69.9264 291.658 64.965 289.562 59.8579 287.66C49.1015 283.461 38.9163 279.485 32.9534 272.567C23.4843 261.673 29.1411 247.855 38.9281 238.996C47.4613 231.267 59.3626 225.546 70.864 220.004C73.6084 218.692 76.3537 217.367 79.0415 216.024C135.43 187.939 175.443 146.831 192.426 99.5379C209.408 52.2451 202.337 1.61821 172.388 -43.9219L169.733 -43.1451C199.409 1.96381 206.42 52.1142 189.601 98.9626C172.783 145.811 133.147 186.533 77.2893 214.354C74.6015 215.696 71.8764 217.009 69.1513 218.322C57.4512 223.934 45.3884 229.753 36.5887 237.71C26.2058 247.102 20.3006 261.837 30.4808 273.557C36.8835 280.947 47.8867 285.255 58.5291 289.407C63.5375 291.28 68.4031 293.344 73.103 295.587C97.5259 307.831 108.057 328.532 118.236 348.603C120.871 353.813 123.595 359.189 126.528 364.307C154.79 413.793 211.9 452.12 258.524 479.979C274.403 489.479 290.914 498.841 306.878 507.886C345.308 529.67 385.059 552.193 418.804 578.175C473.611 620.258 503.464 666.851 502.888 709.32Z" fill="#5E4A2E" fill-opacity="0.5"/>
<path d="M509.851 694.161L512.762 694.332C514.223 654.036 486.541 609.949 434.829 570.21C402.519 545.339 364.311 524.069 327.369 503.467C313.114 495.509 298.367 487.291 284.19 478.986C240.415 453.348 186.706 418.127 159.755 372.853C155.608 365.852 151.965 358.557 148.449 351.431C138.504 331.346 128.231 310.566 105.463 296C100.71 293.018 95.331 290.108 90.1183 287.342C75.9383 279.753 62.5248 272.708 59.3344 261.669C54.0363 243.384 81.2691 230.224 103.171 219.644L105.917 218.318C160.628 191.797 199.086 147.848 214.221 94.5026C226.473 51.4888 223.948 2.43184 206.654 -55.4653L203.792 -55.1332C221.024 2.48998 223.506 51.2742 211.37 93.9704C196.38 146.838 158.316 190.378 104.188 216.582L101.443 217.907C78.8825 228.746 50.8055 242.357 56.4767 261.92C59.8939 273.743 74.3991 281.433 88.4131 288.864C93.5692 291.599 98.8951 294.425 103.492 297.398C125.678 311.592 135.831 332.109 145.653 351.956C149.13 359.093 152.845 366.488 157.012 373.489C184.229 419.198 238.275 454.655 282.314 480.43C296.528 488.765 311.274 496.995 325.549 504.955C362.396 525.511 400.508 546.762 432.652 571.474C483.899 610.849 511.3 654.405 509.851 694.161Z" fill="#5E4A2E" fill-opacity="0.5"/>
<path d="M545.26 752.946C563.72 711.999 549.956 662.337 507.468 616.692C470.918 577.409 420.458 546.554 363.1 513.133L357.206 509.692C306.664 480.251 254.368 449.816 215.696 412.193C184.024 381.4 159.008 343.659 136.963 293.416C131.654 281.32 127.144 269.527 130.037 258.021C133.107 245.821 144.257 235.637 155.055 225.797L158.986 222.176C239.029 148.084 263.191 45.2648 222.019 -46.1844L219.243 -45.6581C260.139 45.1803 236.133 147.319 156.643 220.958L152.713 224.565C141.709 234.582 130.353 244.957 127.159 257.622C124.16 269.609 128.773 281.637 134.185 293.969C156.314 344.447 181.473 382.385 213.349 413.366C252.264 451.165 304.767 481.708 355.403 511.221L361.278 514.647C418.449 547.95 468.72 578.699 505.054 617.685C547.046 662.815 560.692 711.835 542.479 752.215L545.26 752.946Z" fill="#5E4A2E" fill-opacity="0.5"/>
<path d="M582.406 756.071C598.467 696.198 549.183 639.249 518.378 610.601C490.065 584.303 456.167 560.596 423.334 537.668C403.69 523.947 383.393 509.741 364.503 495.132C262.875 416.569 209.99 328.96 215.557 248.429C217.807 215.937 229.545 184.043 240.891 153.193C246.099 139.065 251.471 124.46 255.863 109.96C273.583 51.6988 269.129 5.66397 242.207 -30.7831L239.625 -29.921C266.222 6.08803 270.607 51.6323 253.049 109.457C248.659 123.917 243.288 138.508 238.102 152.61C226.731 183.553 214.948 215.553 212.686 248.234C207.086 329.33 260.249 417.509 362.457 496.485C381.405 511.111 401.661 525.355 421.418 539.137C454.044 561.945 487.887 585.594 516.071 611.763C546.583 640.096 595.395 696.451 579.55 755.619L582.406 756.071Z" fill="#5E4A2E" fill-opacity="0.5"/>
<path d="M620.419 718.096L623.324 718.037C620.232 687.989 600.107 655.86 565.148 624.995C540.093 602.916 510.084 583.302 481.07 564.328C474.48 560.04 467.91 555.731 461.361 551.4C336.986 468.894 271.629 395.432 255.622 320.191C244.944 269.709 257.507 218.713 269.679 169.41C271.744 161.072 273.865 152.439 275.839 143.986C288.828 88.3664 297.469 23.8689 262.926 -32.7565L260.255 -32.0348C294.495 24.0998 285.896 88.2348 272.962 143.574C270.988 152.027 268.867 160.646 266.803 168.971C254.582 218.447 241.951 269.601 252.747 320.4C268.842 396.134 334.507 469.992 459.409 552.813C465.931 557.155 472.533 561.462 479.117 565.768C508.052 584.764 537.99 604.252 562.896 626.215C597.469 656.691 617.36 688.482 620.419 718.096Z" fill="#5E4A2E" fill-opacity="0.5"/>
<path d="M601.031 723.635L604.937 723.432C597.119 677.646 560.371 630.756 492.591 580.086C474.158 566.315 454.557 552.853 435.593 539.834C398.844 514.595 360.841 488.512 330.021 459.12C268.306 400.105 236.193 329.16 238.902 257.814C240.222 224.916 249.088 192.191 257.662 160.448C262.062 144.151 266.611 127.295 270.1 110.594C283.081 48.459 276.494 1.27196 249.325 -37.933L245.831 -36.7866C272.608 1.78724 279.051 48.4523 266.277 110.031C262.811 126.68 258.263 143.509 253.864 159.793C245.268 191.575 236.451 224.465 235.041 257.574C232.288 329.528 264.653 401.083 326.877 460.611C357.88 490.189 395.996 516.36 432.876 541.675C451.803 554.664 471.385 568.112 489.743 581.838C556.906 632.08 593.274 678.46 601.031 723.635Z" fill="#5E4A2E" fill-opacity="0.5"/>
<path d="M236.188 405.421C237.292 405.485 238.398 405.46 239.483 405.344C240.945 405.196 242.326 404.821 243.525 404.246C244.725 403.671 245.712 402.911 246.415 402.021C249.797 397.8 246.353 395.084 243.3 392.688C242.343 391.972 241.457 391.21 240.648 390.411C230.915 380.38 224.455 367.648 219.345 357.456C207.547 334.146 201.254 309.812 200.717 285.426C200.387 271.684 201.943 258.009 205.364 244.587L205.382 244.278C206.491 241.245 206.678 238.059 205.929 234.917C204.78 231.593 200.797 228.116 195.418 227.867C190.329 227.65 186.534 230.265 183.449 232.747C171.449 242.151 157.815 252.865 152.886 266.212C145.695 285.63 157.739 305.77 171.798 326.407L216.664 392.315C219.102 395.904 221.864 399.958 226.764 402.746C229.482 404.273 232.77 405.206 236.188 405.421ZM202.488 244.148C199.044 257.695 197.474 271.495 197.799 285.363C198.337 309.985 204.689 334.556 216.601 358.092C221.84 368.401 228.295 381.226 238.247 391.527C239.137 392.405 240.11 393.243 241.157 394.036C244.396 396.591 246.134 398.166 243.845 401.018C243.352 401.666 242.648 402.22 241.787 402.637C240.925 403.055 239.929 403.326 238.875 403.43C237.071 403.574 235.228 403.46 233.458 403.094C231.688 402.727 230.029 402.116 228.581 401.298C224.229 398.813 221.61 394.983 219.411 391.624L174.468 325.699C160.622 305.412 148.789 285.662 155.729 266.893C160.516 253.956 173.903 243.471 185.7 234.217C188.414 232.092 191.643 229.822 195.469 229.992C199.295 230.163 202.347 232.91 203.194 235.405C203.864 238.271 203.694 241.176 202.695 243.944L202.488 244.148Z" fill="#5E4A2E" fill-opacity="0.5"/>
<path d="M175.615 303.765C176.799 303.801 177.968 303.657 179.041 303.344C180.115 303.032 181.069 302.558 181.836 301.954C183.545 300.448 184.691 298.661 185.178 296.745C188.417 287.809 190.375 278.636 191.025 269.356C191.253 265.45 189.891 262.438 187.08 260.894C185.821 260.276 184.37 259.885 182.864 259.759C181.358 259.633 179.848 259.775 178.476 260.173C168.402 262.285 163.681 278.09 163.634 278.223C162.42 282.074 162.366 286.093 163.475 290.031C164.585 293.969 166.834 297.742 170.084 301.116C170.861 301.96 171.899 302.678 173.116 303.213C173.889 303.52 174.742 303.709 175.615 303.765ZM182.802 261.792C183.719 261.827 184.61 262.059 185.353 262.455C187.237 263.539 188.34 265.982 188.116 269.158C187.481 278.303 185.557 287.342 182.37 296.148C181.961 297.763 181.019 299.275 179.619 300.568C179.024 301.08 178.205 301.442 177.277 301.603C176.348 301.765 175.358 301.717 174.445 301.467C173.622 301.085 172.926 300.582 172.409 299.996C169.396 296.856 167.316 293.347 166.298 289.686C165.279 286.026 165.344 282.291 166.487 278.714C168.165 273.002 173.222 263.446 179.435 262.095C180.512 261.848 181.653 261.746 182.802 261.792Z" fill="#5E4A2E" fill-opacity="0.5"/>
</svg>
