<svg width="624" height="1032" viewBox="0 0 624 1032" fill="none" xmlns="http://www.w3.org/2000/svg">
<path d="M774.309 75.8148C748.99 77.1247 724.084 82.233 700.843 90.8825C673.288 101.346 648.706 116.499 628.785 135.303C608.864 154.106 594.076 176.113 585.437 199.813C582.36 208.444 580.083 217.358 577.876 225.977C575.105 236.857 572.24 248.113 567.718 258.784C562.235 271.759 549.034 294.844 522.254 303.682C496.928 312.001 469.066 304.846 442.086 297.899C413.412 290.497 383.755 282.845 357.17 294.008C325.351 307.319 316.387 341.119 324.015 367.564C330.23 389.184 345.08 408.253 359.439 426.686C362.886 431.148 366.466 435.707 369.845 440.231C384.034 459.219 402.178 487.914 395.83 516.755C393.224 528.589 386.649 539.799 380.296 550.638C377.002 556.249 373.603 562.04 370.763 567.894C365.791 578.136 356.096 603.856 373.266 621.5C382.185 630.723 395.992 635.039 409.307 639.242C416.91 641.429 424.273 644.113 431.326 647.266C441.269 652.174 449.547 659.005 455.447 667.172C461.348 675.339 464.695 684.596 465.199 694.147C465.407 703.714 462.758 713.23 457.481 721.876C452.203 730.522 444.455 738.038 434.904 743.777L436.53 745.653C446.452 739.676 454.5 731.856 459.982 722.865C465.464 713.874 468.216 703.98 468.003 694.033C467.5 684.097 464.039 674.462 457.919 665.959C451.799 657.456 443.203 650.339 432.871 645.221C425.694 642.002 418.199 639.263 410.459 637.032C396.87 632.785 384.05 628.777 375.54 620.032C359.276 603.315 368.653 578.587 373.445 568.715C376.246 562.933 379.618 557.166 382.885 551.591C389.331 540.62 395.955 529.257 398.656 517.068C405.177 487.452 386.737 458.296 372.301 438.95C368.906 434.404 365.339 429.809 361.879 425.371C347.641 407.083 332.915 388.193 326.805 366.939C319.657 342.001 328.318 308.682 358.475 296.017C384.014 285.294 411.805 292.464 441.231 300.059C468.703 307.13 497.033 314.505 523.293 305.787C551.152 296.589 564.787 272.808 570.435 259.452C575.006 248.639 577.896 237.312 580.693 226.384C582.888 217.812 585.153 208.945 588.193 200.433C596.576 177.002 611.114 155.241 630.785 136.681C650.456 118.12 674.781 103.211 702.051 93.0015C729.32 82.7922 758.871 77.5308 788.624 77.5875C818.378 77.6442 847.612 83.0175 874.269 93.3295L875.582 91.2153C844.144 79.1725 809.307 73.8749 774.309 75.8148Z" fill="#5E4A2E" fill-opacity="0.5"/>
<path d="M804.855 159.75C801.916 159.906 798.975 160.113 796.032 160.371C753.447 164.059 712.758 177.901 681.473 199.361C657.533 215.736 637.701 236.678 618.515 256.9C590.269 286.664 561.051 317.456 519.003 332.822C510.611 335.906 501.351 338.491 492.457 340.986C468.965 347.581 444.686 354.393 431.127 371.295C418.318 387.286 417.826 409.345 429.647 436.868C431.615 441.409 433.787 446.043 435.891 450.472C443.482 466.583 451.33 483.261 450.788 500.642C450.413 512.857 445.899 525.293 441.531 537.245C435.138 554.81 428.52 572.979 435.321 590.328C440.058 602.41 450.637 611.986 460.871 621.242C465.682 625.632 470.655 630.093 474.941 634.789C500.17 662.364 504.193 701.975 484.974 733.349L486.869 734.107C506.456 702.156 502.351 661.818 476.667 633.733C472.38 629.014 467.42 624.528 462.537 620.143C452.437 610.984 441.949 601.497 437.418 589.81C430.816 572.973 437.034 555.858 443.64 537.748C448.043 525.643 452.595 513.135 452.987 500.687C453.468 482.961 445.611 466.133 437.94 449.852C435.849 445.399 433.678 440.788 431.724 436.246C420.117 409.257 420.58 387.711 432.972 372.207C446.103 355.827 470.031 349.116 493.172 342.62C502.108 340.111 511.353 337.516 519.829 334.404C562.38 318.848 591.76 287.874 620.182 257.937C639.315 237.8 659.139 216.975 682.887 200.726C746.388 157.118 844.193 148.65 915.557 180.536L916.616 179.004C883.907 164.384 844.558 157.632 804.855 159.75Z" fill="#5E4A2E" fill-opacity="0.5"/>
<path d="M813.66 194.646C769.232 199.071 713.953 204.609 673.74 230.853C652.133 244.979 635.94 264.379 620.27 283.136C598.943 308.663 578.796 332.804 546.106 345.012C537.004 348.424 526.867 350.87 517.054 353.24C496.441 358.218 475.126 363.373 462.484 377.683C452.758 388.654 449.643 404.314 453.302 422.911C454.586 429.347 456.498 435.772 458.355 441.991C460.854 450.348 463.441 459.003 464.475 467.693C466.176 482.213 463.597 497.229 461.121 511.763C457.94 530.214 454.664 549.273 460.17 567.481C465.156 583.964 476.914 598.273 488.291 612.114C492.561 617.31 496.969 622.674 500.95 628.071C533.033 671.598 542.177 727.266 525.391 776.977L528.131 777.551C545.113 727.238 535.876 670.889 503.394 626.837C499.382 621.395 494.945 616.01 490.659 610.792C479.42 597.117 467.785 582.975 462.933 566.881C457.565 549.107 460.809 530.258 463.93 512.031C466.456 497.367 469.056 482.211 467.255 467.417C466.212 458.564 463.608 449.841 461.09 441.393C459.235 435.22 457.339 428.817 456.06 422.485C453.567 409.959 453.022 392.253 464.738 379.049C476.845 365.395 496.697 360.597 517.773 355.501C527.628 353.105 537.906 350.629 547.275 347.156C580.707 334.665 602.019 309.126 622.65 284.437C638.186 265.839 654.258 246.596 675.506 232.687C715.07 206.825 769.896 201.37 813.955 196.976L813.66 194.646Z" fill="#5E4A2E" fill-opacity="0.5"/>
<path d="M647.664 109.038C606.373 140.274 578.284 181.34 567.587 226.108C566.923 228.896 566.304 231.739 565.7 234.582C562.277 250.607 558.696 267.174 545.244 278.856C526.887 294.829 495.417 297.843 451.714 287.793L447.022 286.719C416.699 279.671 382.206 271.708 353.541 284.259C320.64 298.673 311.934 333.04 317.776 358.884C322.965 381.837 337.317 402.535 351.204 422.537C354.014 426.569 356.918 430.746 359.69 434.861C374.266 456.557 390.336 485.131 385.036 513.834C382.816 525.683 377.121 537.102 371.579 548.153C368.923 553.439 366.162 558.894 363.888 564.382C357.549 579.226 352.502 600.366 364.428 616.757C373.657 629.366 390.182 635.999 406.224 642.403C417.969 647.096 430.121 651.953 439.46 659.144C451.878 668.714 458.425 683.173 457.421 698.836C456.417 714.5 448.012 728.572 434.383 737.486L435.71 738.833C449.806 729.602 458.499 715.039 459.548 698.885C460.598 682.732 453.814 667.832 440.933 657.869C431.384 650.503 419.087 645.596 407.226 640.851C390.745 634.262 375.17 628.054 366.306 615.867C354.794 600.035 359.743 579.446 365.929 564.946C368.249 559.515 370.981 554.061 373.624 548.798C379.204 537.653 384.993 526.125 387.217 514.078C392.603 484.859 376.373 455.945 361.557 434.029C358.784 429.903 355.88 425.714 353.07 421.706C339.275 401.826 325.003 381.275 319.871 358.587C314.175 333.339 322.585 299.836 354.498 285.892C382.368 273.686 416.386 281.546 446.376 288.495L451.068 289.581C495.608 299.819 527.811 296.638 546.768 280.145C560.641 268.069 564.264 251.233 567.756 234.891C568.375 232.059 568.98 229.227 569.63 226.452C580.237 182.064 608.077 141.344 649.003 110.36L647.664 109.038Z" fill="#5E4A2E" fill-opacity="0.5"/>
<path d="M383.922 296.936C376.205 297.346 368.65 299.096 361.761 302.067C354.873 305.039 348.811 309.164 343.984 314.165C332.733 326.217 328.945 343.422 333.597 361.397C335.268 367.87 350.135 406.787 363.965 411.543C364.943 411.917 366.026 412.083 367.114 412.025C368.202 411.967 369.261 411.687 370.194 411.211C371.474 410.467 372.488 409.457 373.127 408.289C373.766 407.121 374.005 405.839 373.819 404.583C373.522 402.635 372.868 400.74 371.879 398.961L371.46 398.054C363.411 380.83 368.462 360.281 383.839 348.068C387.535 345.274 391.468 342.696 395.607 340.355C399.774 338.002 403.739 335.415 407.472 332.614C414.534 327.046 420.76 318.108 417.074 309.698C414.297 303.354 406.061 298.671 395.02 297.274C391.357 296.826 387.634 296.713 383.922 296.936ZM367.152 410.328C366.357 410.361 365.569 410.24 364.851 409.975C352.794 405.832 337.835 369.209 335.717 361.052C331.206 343.581 334.836 326.883 345.709 315.223C351.458 309.241 359.03 304.586 367.641 301.739C376.252 298.893 385.59 297.959 394.686 299.034C404.924 300.334 412.551 304.573 415.014 310.389C418.359 318.027 412.223 326.496 405.955 331.441C402.297 334.188 398.41 336.724 394.324 339.03C390.101 341.414 386.09 344.043 382.322 346.894C366.329 359.594 361.021 380.934 369.402 398.78L369.851 399.696C370.749 401.318 371.351 403.042 371.635 404.816C371.723 406.461 371.203 408.742 369.049 409.809C368.467 410.114 367.808 410.305 367.125 410.364L367.152 410.328Z" fill="#5E4A2E" fill-opacity="0.5"/>
<path d="M378.473 307.111C375.946 307.255 373.443 307.65 371.02 308.286C357.868 311.694 346.715 321.301 341.897 333.37C337.845 343.493 337.928 355.487 342.135 368.05C342.236 368.346 353.562 398.335 361.383 400.6C361.816 400.742 362.287 400.794 362.755 400.751C363.223 400.708 363.673 400.571 364.065 400.353L364.702 399.994L364.513 399.388C363.778 397.105 362.958 394.825 362.158 392.673C359.732 385.95 357.44 379.603 357.067 372.619C356.526 362.474 360.24 353.228 367.237 347.257C370.832 344.425 374.816 341.943 379.107 339.864C382.149 338.32 385.083 336.635 387.894 334.82C394.325 330.528 400.65 322.92 397.323 315.629C396.347 313.669 394.821 311.93 392.864 310.551C390.907 309.172 388.573 308.19 386.047 307.682C383.588 307.15 381.028 306.956 378.473 307.111ZM344.191 367.557C340.102 355.324 339.994 343.681 343.921 333.889C348.526 322.366 359.147 313.205 371.624 309.973C376.093 308.703 380.887 308.495 385.439 309.376C387.637 309.828 389.669 310.685 391.381 311.882C393.093 313.078 394.44 314.583 395.319 316.282C398.064 322.303 392.903 329.268 386.569 333.508C383.818 335.281 380.949 336.927 377.976 338.438C373.537 340.576 369.417 343.136 365.705 346.061C358.299 352.391 354.382 362.112 354.934 372.733C355.318 379.925 357.76 386.671 360.119 393.2C360.804 395.08 361.492 397.029 362.152 398.968C356.575 397.349 346.137 373.307 344.206 367.568L344.191 367.557Z" fill="#5E4A2E" fill-opacity="0.5"/>
<path d="M374.771 312.291C370.761 312.504 366.333 314.506 362.414 318.037C354.245 325.302 351.809 333.109 349.232 343.351L349.126 343.774C348.559 345.965 347.849 348.697 349.647 349.798C351.124 350.753 353.427 349.805 354.166 349.499C355.612 348.619 356.783 347.473 357.582 346.157C358.075 345.453 358.646 344.785 359.286 344.162C361.291 342.571 363.503 341.164 365.879 339.966C366.988 339.372 368.127 338.801 369.252 338.23C372.274 336.797 375.158 335.175 377.878 333.379C380.972 331.228 384.819 327.701 385.616 323.118C386.413 318.534 383.541 314.157 378.946 312.765C377.616 312.371 376.194 312.209 374.771 312.291ZM363.973 319.196C365.756 317.603 372.061 312.551 378.163 314.398C381.86 315.525 384.122 319.179 383.508 322.905C382.796 326.938 379.314 330.097 376.51 332.059C373.892 333.796 371.114 335.365 368.204 336.752C367.065 337.336 365.912 337.908 364.789 338.514C362.276 339.784 359.936 341.272 357.81 342.951C357.063 343.668 356.398 344.439 355.822 345.252C355.182 346.271 354.317 347.188 353.271 347.955C351.945 348.502 351.22 348.541 350.999 348.402C350.261 347.941 350.959 345.245 351.255 344.102L351.36 343.667C353.88 333.707 356.257 326.123 364.016 319.194L363.973 319.196Z" fill="#5E4A2E" fill-opacity="0.5"/>
<path d="M371.283 319.352C369.727 319.42 368.238 319.936 367.082 320.807C365.827 321.827 365.091 323.192 365.027 324.621C364.962 326.049 365.574 327.431 366.736 328.48C367.331 328.991 368.046 329.399 368.84 329.682C369.634 329.964 370.493 330.115 371.366 330.126C372.239 330.136 373.11 330.006 373.929 329.744C374.748 329.481 375.499 329.09 376.14 328.594C376.78 328.097 377.297 327.505 377.661 326.851C378.025 326.197 378.228 325.494 378.261 324.781C378.293 324.069 378.153 323.361 377.848 322.699C377.544 322.037 377.081 321.433 376.486 320.921C375.272 319.913 373.606 319.346 371.853 319.345L371.283 319.352ZM368.311 327.269C367.701 326.746 367.3 326.083 367.157 325.365C367.014 324.647 367.137 323.905 367.51 323.235C367.882 322.564 368.488 321.995 369.25 321.598C370.013 321.201 370.897 320.995 371.792 321.006C372.687 321.017 373.552 321.244 374.277 321.659C375.003 322.073 375.557 322.657 375.869 323.336C376.18 324.015 376.236 324.758 376.029 325.472C375.822 326.186 375.361 326.838 374.704 327.346C373.799 327.982 372.644 328.326 371.462 328.312C370.281 328.298 369.158 327.926 368.311 327.269Z" fill="#5E4A2E" fill-opacity="0.5"/>
<path d="M786.743 173.119C780.77 173.438 774.754 174.003 768.736 174.8C735.206 179.294 704.552 190.917 680.06 208.437C659.235 223.334 642.506 242.287 626.327 260.606C603.72 286.202 580.361 312.674 546.041 327.222C534.145 332.259 521.153 335.716 508.597 339.068C500.568 341.204 492.273 343.423 484.283 346.033C458.744 354.363 441.847 365.892 434.069 380.22C423.499 399.692 431.331 421.934 438.134 436.914C439.656 440.318 441.348 443.712 442.951 447.029C449.803 461.321 456.895 476.111 457.006 491.576C457.083 502.907 453.382 514.255 449.788 525.213C446.194 536.171 442.425 547.592 442.496 559.086C442.56 581.15 456.345 601.379 469.81 618.28C472.102 621.139 474.427 624 476.785 626.863C488.631 641.481 500.957 656.549 507.11 673.515C513.355 690.883 513.033 716.661 491.569 732.149L492.964 733.433C515.155 717.407 515.507 690.861 509.092 672.991C502.913 655.783 490.509 640.603 478.503 625.923C476.169 623.063 473.849 620.213 471.557 617.339C458.244 600.627 444.632 580.691 444.577 559.08C444.547 547.815 448.239 536.562 451.794 525.663C455.481 514.584 459.149 503.134 459.089 491.593C458.975 475.815 451.747 460.881 444.888 446.438C443.285 443.132 441.677 439.71 440.143 436.354C433.467 421.612 425.773 399.803 436.017 380.918C443.562 367.031 460.064 355.838 485.055 347.664C492.959 345.07 501.228 342.876 509.214 340.743C521.869 337.373 534.945 333.888 546.994 328.786C581.775 314.051 605.293 287.349 628.05 261.629C644.188 243.347 660.81 224.516 681.442 209.757C731.101 174.24 804.448 164.428 863.96 185.343L864.845 183.739C840.331 175.225 813.574 171.587 786.743 173.119Z" fill="#5E4A2E" fill-opacity="0.5"/>
<path d="M790.41 184.921C735.733 187.837 682.207 209.136 646.293 243.792C636.244 253.492 627.256 264.389 618.548 274.923C600.437 296.853 581.696 319.525 553.119 331.595C541.502 336.5 528.209 339.683 515.353 342.75C491.782 348.397 467.479 354.223 453.693 370.881C443.085 383.758 440.697 401.284 446.603 422.978C448.253 429.057 450.374 435.135 452.442 441.018C456.211 451.792 460.099 462.932 461.144 474.235C462.359 487.399 459.711 500.839 457.195 513.842C454.539 527.41 451.808 541.435 453.371 555.242C456.199 580.202 472.511 602.073 488.299 623.229C492.538 628.915 496.916 634.79 500.948 640.615C514.858 660.779 535.046 699.191 512.722 729.557L514.551 730.424C537.435 699.331 517.027 660.257 502.812 639.737C498.764 633.89 494.371 627.992 490.117 622.296C474.466 601.307 458.278 579.603 455.5 555.048C453.962 541.448 456.671 527.54 459.304 514.078C461.857 500.98 464.5 487.436 463.275 474.075C462.216 462.517 458.283 451.333 454.495 440.478C452.443 434.618 450.323 428.564 448.675 422.531C442.91 401.328 445.207 384.249 455.453 371.798C468.74 355.677 491.649 350.192 515.911 344.392C528.865 341.286 542.257 338.086 554.068 333.066C583.217 320.768 602.105 297.902 620.377 275.79C629.044 265.293 638.006 254.443 647.988 244.816C692.866 201.494 765.607 179.252 833.294 188.175L833.687 186.458C819.414 184.617 804.896 184.102 790.41 184.921Z" fill="#5E4A2E" fill-opacity="0.5"/>
<path d="M790.352 149.884C755.626 151.636 722.014 161.414 693.457 178.071C661.787 196.856 637.704 223.658 614.415 249.569C583.68 283.728 554.645 316.09 509.365 332.36C501.39 335.225 492.721 337.662 484.347 340.013C461.261 346.482 437.404 353.178 424.246 369.838C412.225 385.102 411.605 405.832 422.442 431.491C424.579 436.522 426.989 441.597 429.332 446.501C436.142 460.818 443.206 475.622 443.877 491.138C444.489 505.286 439.783 519.719 435.222 533.678C429.092 552.437 422.769 571.845 429.687 590.338C434.494 603.183 445.109 613.709 455.377 623.881C460.917 629.183 466.11 634.721 470.936 640.473C482.272 654.797 488.788 671.357 489.849 688.534C490.91 705.71 486.479 722.915 476.989 738.466L478.883 739.225C498.591 707.663 496.162 668.524 472.738 639.494C467.875 633.695 462.646 628.109 457.071 622.757C446.923 612.706 436.444 602.312 431.769 589.798C425.032 571.771 431.001 553.474 437.354 534.087C441.951 519.998 446.693 505.436 446.082 491.032C445.396 475.226 438.282 460.286 431.393 445.834C429.065 440.952 426.656 435.889 424.535 430.891C413.912 405.779 414.445 385.553 426.107 370.784C438.851 354.646 462.343 348.05 485.077 341.67C493.507 339.304 502.204 336.865 510.264 333.973C556.089 317.499 586.645 283.442 616.196 250.6C639.391 224.799 663.311 198.146 694.773 179.488C738.828 153.352 798.213 144.598 849.737 156.636L850.361 154.965C830.937 150.478 810.64 148.759 790.352 149.884Z" fill="#5E4A2E" fill-opacity="0.5"/>
<path d="M419.117 474.758C418.511 474.787 417.909 474.861 417.318 474.982C411.15 476.182 407.684 481.523 407.166 485.976C406.925 489.606 407.359 493.232 408.452 496.732C408.673 497.661 408.907 498.578 409.1 499.508C411.776 511.913 409.928 524.764 403.784 536.482C400.392 542.464 396.498 548.257 392.131 553.816C384.143 564.486 375.88 575.589 375.617 588.054C375.355 600.518 383.464 613.245 397.853 622.872C402.911 626.273 420.8 637.607 438.312 640.564C443.536 641.447 448.359 641.759 450.134 636.008C452.102 629.596 444.991 624.598 439.805 620.949C438.827 620.258 437.894 619.61 437.091 618.991C425.451 610.111 418.763 596.217 418.42 579.882C418.073 565.348 422.428 550.749 426.638 536.633C430.634 523.064 435.253 507.777 434.72 492.706C434.509 488.745 434.036 484.16 431.21 480.373C428.894 477.326 424.279 474.483 419.117 474.758ZM443.581 639.354C441.968 639.374 440.364 639.221 438.808 638.9C425.281 636.613 409.473 628.443 399.238 621.567C385.335 612.228 377.51 600.008 377.756 588.044C378.002 576.08 385.746 565.655 393.944 554.66C398.362 549.046 402.296 543.193 405.716 537.145C412.023 525.108 413.921 511.907 411.178 499.165C410.971 498.224 410.75 497.295 410.514 496.355C409.469 493.025 409.045 489.575 409.256 486.12C409.749 482.273 412.613 477.672 417.736 476.667C422.365 475.769 427.094 478.328 429.392 481.318C431.987 484.78 432.473 489.075 432.615 492.819C433.133 507.611 428.61 522.8 424.619 536.218C420.349 550.546 415.972 565.263 416.317 580.018C416.728 596.825 423.596 611.151 435.651 620.346C436.469 620.976 437.418 621.645 438.411 622.347C443.463 625.899 449.745 630.314 448.092 635.687C447.272 638.228 445.942 639.228 443.567 639.354L443.581 639.354Z" fill="#5E4A2E" fill-opacity="0.5"/>
<path d="M402.209 562.548C399.49 562.793 396.899 563.669 394.742 565.071C383.703 571.99 382.028 584.437 385.175 593.712C388.562 603.74 397.11 612.146 404.833 619.237L405.207 619.577C410.501 624.452 420.368 633.519 430.045 630.726C433.275 629.788 435.035 628.556 435.434 626.955C436.174 623.977 431.849 620.955 428.042 618.301C426.99 617.568 425.998 616.877 425.267 616.277C419.034 611.2 414.381 604.973 411.684 598.099C408.987 591.225 408.32 583.895 409.737 576.699C410.661 572.364 412.009 565.811 406.412 563.287C405.135 562.718 403.677 562.461 402.209 562.548ZM426.956 629.486C419.305 629.894 411.312 622.538 406.814 618.411L406.453 618.071C398.536 610.804 390.528 602.892 387.231 593.219C384.371 584.788 385.9 572.813 396.028 566.443C398.65 564.805 402.46 563.51 405.351 564.784C409.354 566.568 408.676 571.506 407.64 576.404C406.169 583.875 406.86 591.484 409.658 598.621C412.455 605.757 417.282 612.222 423.749 617.497C424.54 618.14 425.547 618.852 426.628 619.596C429.667 621.757 433.841 624.624 433.348 626.613C433.113 627.555 431.774 628.381 429.372 629.067C428.593 629.301 427.779 629.443 426.956 629.486Z" fill="#5E4A2E" fill-opacity="0.5"/>
<path d="M421.54 483.839C420.505 483.882 419.501 484.166 418.645 484.655C416.226 486.085 415.326 488.467 414.684 490.592C413.921 492.644 413.653 494.789 413.894 496.906C414.036 498.062 414.546 499.16 415.374 500.094C416.201 501.027 417.318 501.763 418.613 502.229C419.535 502.496 420.523 502.59 421.505 502.505C422.488 502.421 423.439 502.16 424.291 501.741C425.51 501.158 426.571 500.374 427.403 499.441C428.236 498.508 428.821 497.447 429.122 496.326C430.035 492.584 428.184 488.908 426.689 486.003L426.325 486.127C426.13 485.68 425.817 485.274 425.407 484.939C424.998 484.604 424.502 484.347 423.954 484.186C423.195 483.925 422.37 483.806 421.54 483.839ZM421.018 500.8C420.44 500.831 419.863 500.763 419.325 500.6C418.384 500.236 417.578 499.679 416.985 498.983C416.391 498.287 416.029 497.474 415.932 496.623C415.743 494.73 415.999 492.816 416.687 490.985C417.246 489.166 417.993 487.129 419.805 486.068C420.29 485.808 420.842 485.644 421.414 485.591C421.987 485.538 422.564 485.598 423.097 485.765C423.402 485.843 423.674 485.985 423.887 486.178C424.1 486.37 424.246 486.606 424.311 486.862L424.737 486.839C426.109 489.565 427.771 492.914 426.999 496.091C426.764 496.96 426.308 497.783 425.661 498.506C425.014 499.229 424.191 499.835 423.244 500.287C422.573 500.586 421.832 500.76 421.075 500.797L421.018 500.8Z" fill="#5E4A2E" fill-opacity="0.5"/>
<path d="M423.202 339.58C420.604 339.768 418.051 340.297 415.642 341.145C393.866 348.369 379.215 368.047 381.534 386.936C381.79 389.071 382.25 391.265 382.677 393.391C383.982 399.674 385.327 406.188 381.755 411.675C380.748 413.101 379.599 414.46 378.321 415.737C376.218 417.691 374.59 419.951 373.528 422.392C371.532 428.015 375.484 433.67 379.15 437.958C379.91 438.846 380.841 439.993 381.909 441.295C387.924 448.732 398.014 461.168 405.947 462.58C407.362 462.842 408.844 462.802 410.251 462.465C411.659 462.127 412.945 461.503 413.987 460.653C419.264 456.655 421.52 447.626 420.755 443.172C419.781 437.475 416.624 432.289 413.562 427.295C412.202 425.045 410.781 422.74 409.602 420.41C398.714 399.167 406.01 372.053 426.942 355.955C430.627 353.122 435.161 349.628 434.205 345.335C433.734 343.821 432.714 342.468 431.277 341.449C429.84 340.43 428.051 339.793 426.142 339.621C425.169 339.522 424.184 339.508 423.202 339.58ZM408.29 461.061C407.65 461.094 407.009 461.053 406.387 460.942C399.274 459.672 389.108 447.125 383.642 440.378C382.559 439.042 381.627 437.884 380.869 437.041C377.462 433.053 373.777 427.861 375.525 422.936C376.52 420.718 378.022 418.667 379.951 416.893C381.308 415.536 382.519 414.088 383.571 412.565C387.528 406.547 386.096 399.747 384.733 393.165C384.307 391.074 383.863 388.902 383.596 386.826C381.374 368.698 395.454 349.794 416.361 342.86C419.299 341.727 422.535 341.242 425.741 341.454C428.382 341.778 431.542 343.27 432.046 345.764C432.809 349.114 428.919 352.109 425.48 354.743C403.877 371.366 396.367 399.269 407.632 421.189C408.842 423.552 410.265 425.903 411.655 428.164C414.626 433.058 417.718 438.107 418.649 443.528C419.333 447.522 417.256 455.914 412.555 459.475C411.422 460.396 409.927 460.959 408.347 461.058L408.29 461.061Z" fill="#5E4A2E" fill-opacity="0.5"/>
<path d="M387.905 420.813C387.542 420.831 387.182 420.878 386.829 420.952C383.657 421.643 382.083 424.48 382.22 426.784C382.533 429.009 383.545 431.119 385.156 432.911L386.138 434.206C390.096 439.442 397.446 449.166 404.201 448.806L404.328 448.799C407.638 448.553 409.05 447.211 409.633 446.123C412.078 441.684 405.792 433.715 403.98 431.837C401.212 428.972 398.209 426.265 394.992 423.733C393.321 422.359 390.778 420.66 387.905 420.813ZM404.094 447.069C398.605 447.362 391.162 437.503 387.971 433.272L386.973 431.954C385.566 430.41 384.665 428.593 384.353 426.67C384.265 425.026 385.345 423.075 387.346 422.631C389.587 422.14 391.969 423.744 393.547 424.995C396.678 427.459 399.601 430.093 402.296 432.879C404.923 435.62 409.374 442.328 407.696 445.367C407.353 445.881 406.84 446.307 406.216 446.595C405.592 446.883 404.884 447.022 404.175 446.995L404.094 447.069Z" fill="#5E4A2E" fill-opacity="0.5"/>
</svg>
