<svg width="443" height="710" viewBox="0 0 443 710" fill="none" xmlns="http://www.w3.org/2000/svg">
<path d="M497.618 99.9406C495.033 99.2827 492.432 98.6711 489.814 98.1057C451.947 89.8877 412.818 91.6108 379.642 102.973C354.267 111.624 331.139 125.636 308.776 139.157C275.853 159.056 241.797 179.642 201.057 182.408C192.921 182.976 184.178 182.843 175.777 182.728C153.584 182.427 130.649 182.111 114.099 194.089C98.4566 205.426 91.728 225.761 94.0822 254.532C94.4856 259.284 95.0393 264.178 95.5928 268.863C97.5506 285.888 99.5698 303.51 94.1348 319.49C90.3199 330.722 82.8647 341.029 75.6735 350.925C65.1276 365.477 54.2151 380.529 55.1364 398.487C55.7791 410.993 62.1879 422.77 68.3893 434.157C71.2947 439.545 74.3183 445.045 76.6817 450.574C90.6116 483.058 82.7708 520.915 57.1922 544.774L58.6131 545.996C84.6752 521.701 92.6532 483.147 78.4757 450.066C76.1179 444.515 73.1124 438.997 70.1444 433.593C64.0306 422.332 57.6747 410.662 57.0975 398.579C56.2014 381.15 66.4666 366.969 77.3528 351.969C84.6176 341.939 92.127 331.577 96.0224 320.133C101.503 303.816 99.52 286.052 97.5413 268.848C97.0058 264.144 96.4467 259.271 96.0557 254.523C93.7337 226.307 100.29 206.439 115.433 195.44C131.465 183.829 154.067 184.142 175.927 184.44C184.369 184.554 193.103 184.673 201.319 184.102C242.548 181.298 276.796 160.586 309.92 140.575C332.214 127.118 355.302 113.213 380.474 104.625C447.829 81.5178 534.796 100.394 587.376 149.488L588.729 148.357C564.631 125.849 532.545 108.828 497.618 99.9406Z" fill="#5E4A2E" fill-opacity="0.5"/>
<path d="M495.259 134.729C455.588 126.691 406.22 116.72 363.958 130.082C341.243 137.284 321.702 150.86 302.796 163.982C277.065 181.841 252.751 198.735 221.003 201.128C212.16 201.806 202.698 201.305 193.538 200.821C174.297 199.807 154.397 198.765 139.38 208.587C127.838 216.11 120.67 229.79 118.519 248.047C117.79 254.37 117.607 260.855 117.435 267.134C117.208 275.572 116.971 284.309 115.381 292.656C112.703 306.595 106.183 319.824 99.8889 332.634C91.8676 348.886 83.5894 365.677 83.1461 384.078C82.7466 400.736 88.8222 417.228 94.7016 433.182C96.9081 439.171 99.1856 445.352 101.085 451.449C116.382 500.61 108.379 554.766 79.6637 596.306L81.8684 597.588C110.926 555.542 119.042 500.729 103.55 450.972C101.637 444.825 99.3401 438.616 97.1266 432.602C91.3182 416.84 85.301 400.537 85.7062 384.276C86.1441 366.316 94.3348 349.711 102.241 333.651C108.615 320.734 115.194 307.38 117.863 293.16C119.492 284.66 119.733 275.854 119.97 267.326C120.131 261.091 120.321 254.631 121.025 248.406C122.449 236.1 127.037 219.521 140.939 210.472C155.306 201.111 173.838 202.084 193.514 203.116C202.717 203.587 212.31 204.099 221.402 203.437C253.871 200.984 279.592 183.111 304.481 165.84C323.226 152.828 342.618 139.365 364.961 132.266C406.551 119.083 455.505 129.006 494.848 136.972L495.259 134.729Z" fill="#5E4A2E" fill-opacity="0.5"/>
<path d="M191.54 220.419C191.227 220.34 190.914 220.26 190.602 220.18C182.886 218.624 174.416 220.978 164.793 227.397C157.195 232.291 150.55 238.225 145.081 244.997C137.963 254.134 133.094 265.482 129.787 280.737C128.949 284.557 128.333 288.502 127.753 292.248C127.354 294.762 126.947 297.354 126.49 299.888C126.149 301.754 125.951 303.632 125.766 305.457C125.581 308.805 124.941 312.096 123.861 315.257C123.48 316.23 123.059 317.204 122.651 318.181C121.165 321.277 120.139 324.554 119.599 327.933C119.161 331.959 120.406 337.75 125.391 340.774C128.47 342.65 132.665 343.229 137.217 342.4C139.606 341.908 141.939 341.259 144.198 340.457C145.405 340.056 146.671 339.634 147.92 339.278C150.871 338.506 153.873 337.87 156.916 337.371C162.037 336.455 167.325 335.511 171.932 333.208C184.441 326.966 187.691 313.137 188.487 305.448C188.913 300.474 189.057 295.468 188.918 290.449C188.714 284.587 188.971 278.745 189.687 272.968C190.997 264.607 194.157 256.663 198.989 249.58C199.393 248.986 199.807 248.405 200.224 247.814C202.686 244.315 205.233 240.686 205.491 236.37C205.957 229.562 199.621 222.476 191.54 220.419ZM129.432 340.593C128.379 340.335 127.372 339.921 126.453 339.371C122.221 336.794 121.175 331.74 121.558 328.188C122.088 324.948 123.079 321.808 124.508 318.839C124.916 317.862 125.34 316.877 125.726 315.883C126.853 312.594 127.526 309.172 127.732 305.69C127.908 303.898 128.097 302.052 128.437 300.244C128.9 297.689 129.309 295.085 129.696 292.568C130.294 288.804 130.897 284.913 131.724 281.137C134.984 266.114 139.716 254.94 146.741 246.012C152.083 239.366 158.583 233.544 166.022 228.744C175.223 222.624 183.173 220.324 190.309 221.803C197.917 223.309 203.998 229.935 203.622 236.127C203.391 240.02 200.969 243.471 198.617 246.801C198.2 247.392 197.784 247.983 197.379 248.578C192.417 255.848 189.171 264.004 187.825 272.587C187.101 278.441 186.843 284.36 187.051 290.3C187.134 295.213 187.18 300.269 186.616 305.158C185.845 312.54 182.767 325.796 170.947 331.69C166.599 333.861 161.672 334.746 156.468 335.677C153.358 336.186 150.29 336.836 147.275 337.626C145.983 337.994 144.704 338.413 143.466 338.83C141.295 339.602 139.053 340.228 136.757 340.702C134.377 341.175 131.868 341.137 129.432 340.593Z" fill="#5E4A2E" fill-opacity="0.5"/>
<path d="M189.364 227.396C186.099 226.565 182.073 227.156 177.329 229.157C158.109 237.283 144.665 251.76 138.465 271.009C136.375 277.45 134.867 284.272 133.428 290.821C131.651 298.806 129.819 307.057 129.392 315.444C129.207 319.104 129.417 324.353 133.399 327.551C137.381 330.749 142.883 330.429 147.777 329.932C154.092 329.295 161.24 328.581 167.086 325.547C177.218 320.269 181.001 309.528 182.378 301.441C183.083 297.309 183.39 293.063 183.667 288.985C183.908 283.704 184.562 278.469 185.627 273.317C186.96 268.284 188.688 263.361 190.798 258.583C193.184 253.304 195.058 247.829 196.398 242.214C197.122 238.633 197.626 232.148 192.468 228.756C191.527 228.137 190.474 227.676 189.364 227.396ZM138.225 328.059C136.919 327.743 135.697 327.157 134.663 326.35C131.346 323.682 131.211 318.975 131.335 315.659C131.757 307.399 133.574 299.203 135.335 291.283C136.778 284.77 138.265 278.082 140.331 271.635C146.442 252.839 159.52 238.699 178.278 230.77C183.95 228.366 188.37 228.166 191.403 230.17C195.623 232.952 195.163 238.692 194.516 241.863C193.212 247.364 191.401 252.734 189.102 257.919C186.948 262.758 185.19 267.747 183.841 272.851C182.748 278.082 182.081 283.4 181.845 288.765C181.555 292.84 181.256 297.053 180.556 301.117C179.24 308.859 175.657 319.128 166.123 324.094C160.599 326.965 153.655 327.662 147.517 328.285C144.471 328.738 141.316 328.662 138.225 328.059Z" fill="#5E4A2E" fill-opacity="0.5"/>
<path d="M182.077 234.851C179.628 234.373 177.123 234.66 174.997 235.665C168.067 238.457 163.261 244.056 160.264 248.036C152.474 258.349 147.488 270.051 144.017 279.093C143.502 280.438 142.959 281.787 142.419 283.126C139.273 290.995 136.029 299.142 136.796 308.124C137.164 312.332 138.646 317.974 143.627 320.961C146.84 322.713 150.605 323.356 154.158 322.758C162.051 321.733 169.142 316.576 173.135 308.991C176.47 302.634 177.497 295.608 178.023 286.991C178.088 285.845 178.153 284.699 178.205 283.551C178.54 277.36 178.881 270.938 180.608 264.986C181.402 262.282 182.484 259.652 183.553 257.018C185.187 253.366 186.45 249.573 187.327 245.683C187.67 243.864 188.411 237.753 183.443 235.397C183.01 235.168 182.552 234.985 182.077 234.851ZM161.884 249.052C164.761 245.228 169.351 239.853 175.891 237.229C177.762 236.473 180.454 235.786 182.649 236.845C185.625 238.288 186.051 242.162 185.454 245.299C184.59 249.092 183.355 252.79 181.764 256.354C180.697 258.976 179.581 261.691 178.77 264.46C176.984 270.595 176.652 277.088 176.319 283.373L176.124 286.81C175.613 295.21 174.628 302.072 171.407 308.191C167.667 315.305 161.087 320.128 153.785 321.082C150.713 321.616 147.45 321.077 144.659 319.573C140.358 317.003 139.066 311.921 138.744 308.108C137.994 299.48 141.181 291.504 144.261 283.792C144.803 282.443 145.346 281.093 145.864 279.737C149.298 270.79 154.226 259.214 161.909 249.058L161.884 249.052Z" fill="#5E4A2E" fill-opacity="0.5"/>
<path d="M176.324 241.44C173.559 240.737 170.608 242.391 168.316 245.957C158.763 260.797 152.149 277.221 145.677 293.089C144.02 297.199 142.511 302.452 145.601 306.644C148.256 310.237 154.293 312.737 158.522 311.977C163.943 311.032 167.293 306.608 168.616 302.819C169.684 299.221 170.187 295.478 170.112 291.694C170.122 291.08 170.131 290.467 170.153 289.857C170.599 276.685 173.538 263.817 178.847 251.787L178.9 251.579C179.704 250.055 180.164 248.389 180.255 246.671C180.298 245.656 179.997 244.633 179.391 243.733C178.784 242.833 177.9 242.098 176.851 241.621C176.68 241.548 176.504 241.487 176.324 241.44ZM154.16 310.065C151.406 309.394 148.953 307.874 147.257 305.787C144.65 302.264 146.043 297.517 147.557 293.764C153.934 277.954 160.531 261.595 170.001 246.874C170.73 245.735 173.366 242.071 176.265 243.192C176.939 243.538 177.5 244.043 177.881 244.647C178.261 245.25 178.444 245.927 178.409 246.596C178.304 248.114 177.881 249.582 177.161 250.928L177.111 251.124C171.716 263.325 168.734 276.38 168.291 289.743C168.266 290.364 168.257 290.978 168.232 291.599C168.32 295.229 167.855 298.82 166.849 302.276C165.677 305.628 162.756 309.522 158.132 310.367C156.821 310.544 155.46 310.441 154.16 310.065Z" fill="#5E4A2E" fill-opacity="0.5"/>
<path d="M162.893 276.921C162.62 276.853 162.336 276.848 162.07 276.909C161.562 277.049 161.146 277.358 160.905 277.775L153.997 287.5C152.237 289.969 150.248 292.764 149.665 295.997C149.019 299.587 151.347 304.154 154.664 305.777C156.04 306.441 158.796 307.177 161.777 304.518C163.513 302.927 164.43 300.475 164.406 297.215C164.397 296.306 164.326 295.381 164.262 294.482C164.091 292.967 164.08 291.45 164.228 289.952C164.383 288.929 164.609 287.919 164.904 286.928C165.123 286.066 165.351 285.171 165.578 284.276C166.107 282.134 165.642 279.839 164.285 277.891C163.96 277.435 163.465 277.089 162.893 276.921ZM156.301 304.578C156.028 304.505 155.762 304.406 155.51 304.284C152.965 303.032 151.052 299.186 151.583 296.311C152.11 293.4 153.995 290.754 155.657 288.41L162.564 278.685C162.572 278.66 162.579 278.635 162.584 278.609L162.699 278.731C163.729 280.304 164.066 282.128 163.641 283.829C163.43 284.659 163.222 285.477 163.002 286.34C162.691 287.4 162.448 288.479 162.274 289.571C162.127 291.174 162.139 292.795 162.308 294.415C162.368 295.278 162.435 296.167 162.452 297.043C162.471 299.849 161.757 301.922 160.328 303.197C159.885 303.738 159.277 304.153 158.567 304.396C157.858 304.64 157.074 304.702 156.301 304.578Z" fill="#5E4A2E" fill-opacity="0.5"/>
<path d="M459.303 399.813C447.778 396.801 435.883 395.543 424.141 396.095C407.944 396.936 392.572 401.555 377.667 406.014C361.805 410.776 345.337 415.673 328.164 415.953C298.163 416.454 265.574 402.826 231.289 375.541L227.349 372.389C216.583 363.71 205.439 354.738 191.734 350.704C163.756 342.516 136.245 358.364 124.602 377.495C114.047 394.857 111.296 417.622 116.228 447.096C117.695 455.837 119.668 464.683 121.567 473.244C124.83 487.858 128.192 502.974 129.079 517.925C130.026 533.844 128.368 563.361 106.6 582.135L107.985 583.394C124.458 569.153 132.634 545.955 130.979 517.944C130.082 502.874 126.684 487.691 123.422 473.019C121.593 464.499 119.564 455.662 118.064 446.947C113.204 417.817 115.876 395.416 126.242 378.377C137.542 359.81 164.09 344.344 191.178 352.318C204.46 356.232 215.439 365.069 226.039 373.613L229.989 376.78C264.674 404.375 297.735 418.135 328.265 417.652C345.717 417.374 362.292 412.422 378.321 407.633C393.125 403.207 408.43 398.641 424.335 397.795C452.296 396.31 483.251 406.465 511.51 426.382C536.888 444.276 557.153 467.296 576.759 489.555L578.25 488.563C558.623 466.229 538.212 443.102 512.644 425.066C495.496 412.939 477.267 404.384 459.303 399.813Z" fill="#5E4A2E" fill-opacity="0.5"/>
<path d="M436.041 423.158C430.649 421.794 425.189 420.719 419.692 419.939C397.497 416.767 374.953 417.795 353.09 418.763L345.192 419.077C318.258 420.243 289.726 420.467 264.208 410.092C255.759 406.652 247.553 401.995 239.601 397.496C224.686 389.052 209.266 380.293 191.911 379.456C170.954 378.435 150.357 389.93 139.436 408.733C130.887 423.445 127.749 441.602 129.555 465.875C130.19 474.172 131.299 482.694 132.386 490.886C133.854 501.928 135.358 513.352 135.651 524.561C136.266 547.496 131.209 565.92 120.615 579.298L122.214 580.344C133.028 566.674 138.194 547.929 137.578 524.632C137.279 513.341 135.771 501.881 134.299 490.803C133.213 482.658 132.087 474.201 131.53 465.913C129.752 441.949 132.846 424.071 141.219 409.629C151.807 391.403 171.742 380.205 191.988 381.196C208.82 381.993 223.331 390.241 238.724 398.9C246.721 403.434 255.024 408.127 263.568 411.614C289.504 422.177 318.219 421.918 345.465 420.832L353.376 420.521C375.096 419.539 397.568 418.529 419.57 421.675C447.279 425.635 470.651 436.277 485.392 451.639L486.819 450.584C474.721 437.975 457.07 428.51 436.041 423.158Z" fill="#5E4A2E" fill-opacity="0.5"/>
<path d="M396.346 431.561C381.691 428.031 366.73 426.018 351.774 425.565C343.234 425.205 334.57 425.127 326.111 425.031C304.352 424.806 281.848 424.576 260.239 419.624C253.051 417.981 245.847 415.776 238.875 413.653C231.596 411.429 224.047 409.113 216.483 407.432C198.536 403.423 183.534 403.917 171.899 408.871C160.482 413.752 151.399 423.493 146.281 436.289C141.6 448.045 140.671 460.709 140.369 472.637C140.091 483.108 140.299 493.865 140.493 504.258C141.068 535.784 141.695 568.311 129.412 597.239L131.208 597.928C143.619 568.707 142.964 535.976 142.423 504.319C142.246 494.012 142.048 483.269 142.306 472.875C142.638 461.093 143.516 448.578 148.116 437.034C153.056 424.624 161.832 415.2 172.819 410.488C184.058 405.677 198.64 405.216 216.146 409.124C223.632 410.797 231.121 413.086 238.353 415.287C245.348 417.427 252.602 419.645 259.864 421.307C281.711 426.32 304.336 426.545 326.216 426.766C334.61 426.857 343.287 426.938 351.798 427.302C390.5 428.934 418.615 437.425 437.752 453.254L439.016 452.053C427.857 442.775 413.734 435.985 396.346 431.561Z" fill="#5E4A2E" fill-opacity="0.5"/>
<path d="M369.09 435.725C351.339 431.208 333.394 430.547 318.679 430.591C311.266 430.622 303.75 430.848 296.475 431.066C281 431.533 264.988 432.014 249.236 430.586C244.288 430.14 239.247 429.485 234.371 428.86C225.337 427.724 216.028 426.517 206.828 426.5C190.206 426.501 176.488 430.902 168.219 438.909C158.227 448.558 156.179 462.111 154.691 477.55L145.24 575.223L147.16 575.479L156.611 477.806C158.074 462.674 160.067 449.386 169.673 440.104C177.604 432.429 190.85 428.211 206.954 428.206C216.055 428.394 225.172 429.16 234.234 430.499C239.122 431.127 244.188 431.788 249.177 432.233C265.06 433.671 281.137 433.195 296.686 432.7C303.945 432.49 311.448 432.261 318.834 432.234C338.523 432.166 364.051 433.385 386.922 443.54C409.792 453.695 425.983 472.412 427.928 491.166L429.832 491.116C427.833 471.791 411.284 452.541 387.702 442.042C381.703 439.422 375.47 437.307 369.09 435.725Z" fill="#5E4A2E" fill-opacity="0.5"/>
<path d="M574.595 144.224C545.752 154.259 512.904 150.608 481.138 147.103C453.222 144.009 424.378 140.795 397.706 146.641C374.918 151.616 354.94 162.931 335.698 173.864C331.807 176.07 327.792 178.349 323.826 180.536C317.198 184.184 310.348 187.763 303.789 191.243C287.919 199.547 271.527 208.125 256.811 218.385C232.496 235.442 217.007 254.454 211.011 275.104C205.63 293.492 208.147 314.552 218.111 334.347C227.717 353.53 243.426 370.08 263.197 381.848C300.522 403.724 351.104 408.03 395.065 393.066C444.074 376.424 474.774 341.955 491.913 315.983L490.244 315.058C473.266 340.816 442.813 375.046 394.31 391.48C350.855 406.234 301.061 402.024 264.204 380.454C224.305 357.075 202.239 312.015 212.896 275.653C218.841 255.363 234.048 236.569 258.091 219.745C272.68 209.511 289.043 200.995 304.914 192.738C311.538 189.263 318.395 185.709 325.044 182.031C329.012 179.833 333.043 177.547 336.934 175.341C356.097 164.457 375.859 153.204 398.417 148.298C424.732 142.547 453.413 145.72 481.16 148.794C513.155 152.345 546.255 156.003 575.522 145.819L574.595 144.224Z" fill="#5E4A2E" fill-opacity="0.5"/>
<path d="M506.077 156.611C474.572 148.774 441.923 147.412 410.688 152.63C367.601 159.703 325.472 178.724 288.598 207.566C263.193 227.495 233.2 259.389 234.537 298.187C235.631 330.554 260.006 363.127 295.109 379.231C327.817 394.225 369.195 394.817 403.106 380.772C434.372 367.808 460.287 342.465 474.174 311.214L472.383 310.503C458.657 341.388 433.07 366.431 402.197 379.215C368.806 393.045 328.075 392.477 295.902 377.736C261.428 361.99 237.557 329.998 236.463 298.259C235.14 260.092 264.83 228.597 289.926 208.891C326.519 180.211 368.413 161.328 411.167 154.309C458.814 146.479 508.892 153.818 548.562 174.43L549.452 172.972C535.742 165.898 521.159 160.397 506.077 156.611Z" fill="#5E4A2E" fill-opacity="0.5"/>
<path d="M521.112 168.305C485.785 159.315 451.932 155.896 420.168 158.145C376.17 161.256 336.241 175.816 307.751 199.132C276.589 224.627 259.167 261.348 261.16 297.407C261.92 311.547 266.052 331.914 281.288 349.203C297.736 367.905 325.515 379.553 353.629 379.559C379.075 379.584 404.684 370.69 425.752 354.515C443.607 340.812 458.507 321.813 470.048 298.054L468.269 297.299C456.839 320.83 442.094 339.637 424.437 353.193C403.697 369.125 378.509 377.883 353.503 377.854C325.944 377.814 298.835 366.464 282.773 348.233C267.915 331.342 263.887 311.304 263.13 297.467C261.155 261.912 278.354 225.646 309.106 200.453C337.301 177.41 376.855 162.964 420.446 159.878C459.073 157.144 500.931 162.867 544.632 176.847L545.183 175.255C537.083 172.644 529.059 170.327 521.112 168.305Z" fill="#5E4A2E" fill-opacity="0.5"/>
<path d="M492.096 170.219C472.638 165.214 452.653 162.669 432.751 162.66C390.72 162.75 351.716 175.035 322.929 197.264C292.655 220.626 274.737 255.373 275.018 290.206C275.219 316.651 286.692 340.571 305.702 354.172C322.83 366.433 346.936 371.254 370.158 367.087C389.703 363.554 409.047 353.739 426.066 338.661C441.296 325.173 453.174 309.31 464.988 292.861L463.358 291.888C451.581 308.242 439.772 324.042 424.666 337.41C407.904 352.263 388.859 362.002 369.602 365.4C346.927 369.509 323.436 364.833 306.772 352.899C288.247 339.642 277.058 316.282 276.862 290.338C276.599 255.963 294.317 221.688 324.161 198.6C352.63 176.627 391.202 164.523 432.753 164.381C471.398 164.301 511.442 174.433 548.847 193.737L549.725 192.275C531.508 182.804 512.137 175.391 492.096 170.219Z" fill="#5E4A2E" fill-opacity="0.5"/>
<path d="M478.142 107.396C472.888 106.059 467.525 104.938 462.095 104.033C431.826 99.0386 402.006 101.445 375.827 111.008C353.568 119.139 333.69 132.154 314.47 144.731C287.613 162.303 259.856 180.483 226.031 184.602C214.309 186.023 202.089 185.68 190.277 185.359C182.726 185.146 174.921 184.938 167.269 185.176C142.811 185.925 124.91 192.004 114.092 203.175C99.3911 218.355 99.8056 241.135 101.406 256.895C101.749 260.469 102.242 264.081 102.68 267.598C104.519 282.733 106.423 298.396 102.101 312.776C98.9294 323.313 92.4872 332.83 86.249 342.017C80.0109 351.203 73.4894 360.77 70.2664 371.456C64.0173 391.948 70.1536 414.487 76.9641 433.851C78.1281 437.13 79.3205 440.421 80.541 443.722C86.6042 460.525 92.9539 477.877 93.4248 495.302C93.861 513.125 86.2164 536.957 63.2365 545.463L64.0752 547.036C87.8375 538.23 95.7277 513.693 95.2885 495.358C94.8634 477.7 88.479 460.223 82.2948 443.32C81.0942 440.027 79.9032 436.749 78.7429 433.455C72.0103 414.309 65.9395 392.088 72.0678 372.019C75.2603 361.558 81.6679 352.124 87.8546 342.983C94.208 333.71 100.65 324.087 103.897 313.361C108.307 298.689 106.326 282.855 104.523 267.578C104.082 264.073 103.67 260.458 103.303 256.924C101.744 241.419 101.325 219.079 115.577 204.355C126.067 193.531 143.531 187.654 167.47 186.9C175.044 186.655 182.819 186.878 190.332 187.081C202.235 187.414 214.534 187.754 226.408 186.313C260.685 182.146 288.645 163.797 315.667 146.151C334.842 133.597 354.592 120.667 376.645 112.611C429.721 93.2265 495.93 104.17 541.4 139.845L542.622 138.599C523.864 123.998 501.774 113.307 478.142 107.396Z" fill="#5E4A2E" fill-opacity="0.5"/>
<path d="M477.938 119.35C429.839 107.11 377.483 112.243 336.534 134.586C325.075 140.84 314.191 148.495 303.654 155.89C281.731 171.289 259.052 187.205 230.9 190.594C219.455 191.97 207.055 191.291 195.065 190.622C173.075 189.419 150.401 188.182 133.724 199.872C120.874 208.922 113.802 224.532 112.708 246.278C112.398 252.37 112.495 258.589 112.601 264.614C112.781 275.642 112.959 287.042 110.632 297.817C107.921 310.364 101.791 322.112 95.9012 333.49C89.7281 345.354 83.3591 357.622 80.7652 370.862C76.0782 394.796 83.929 419.55 91.532 443.497C93.5719 449.932 95.6772 456.581 97.4989 463.088C103.762 485.601 110.237 526.764 82.262 548.84L83.5953 550.144C112.263 527.547 105.785 485.71 99.3612 462.783C97.5325 456.251 95.4202 449.577 93.3706 443.128C85.8385 419.374 78.0462 394.809 82.6611 371.263C85.2175 358.223 91.5337 346.058 97.6569 334.286C103.606 322.829 109.762 310.984 112.52 298.25C114.907 287.236 114.703 275.783 114.53 264.674C114.431 258.675 114.328 252.478 114.628 246.429C115.702 225.179 122.569 209.958 134.983 201.204C151.076 189.877 172.447 191.05 195.078 192.299C207.164 192.957 219.654 193.648 231.299 192.218C260.011 188.774 282.873 172.719 304.987 157.194C315.479 149.822 326.326 142.204 337.706 136C388.881 108.066 458.118 107.31 514.08 134.091L514.911 132.605C503.098 126.996 490.695 122.549 477.938 119.35Z" fill="#5E4A2E" fill-opacity="0.5"/>
<path d="M487.901 86.8196C457.382 78.9533 425.532 78.8391 396.085 86.4905C363.34 95.2658 334.863 113.553 307.327 131.231C270.997 154.528 236.65 176.622 192.859 179.343C185.145 179.821 176.955 179.713 169.044 179.606C147.24 179.299 124.702 178.991 108.567 190.854C93.8144 201.732 87.3549 220.799 89.3915 247.572C89.8007 252.824 90.4337 258.192 91.0583 263.384C92.8542 278.531 94.7309 294.198 90.8769 308.78C87.363 322.076 79.1706 334.182 71.2393 345.889C60.5799 361.621 49.5677 377.903 50.2644 396.954C50.7489 410.187 56.9175 422.856 62.8872 435.102C66.1615 441.536 69.0684 448.095 71.5963 454.752C77.3023 471.142 78.2039 488.29 74.213 504.519C70.222 520.748 61.4752 535.502 48.8278 547.339L50.2486 548.56C76.3039 524.659 85.3875 487.676 73.4335 454.336C70.8868 447.625 67.9628 441.012 64.6729 434.522C58.7727 422.421 52.6834 409.912 52.2184 397.021C51.5456 378.452 61.9341 363.105 72.9657 346.852C80.9651 335.034 89.2256 322.817 92.8131 309.284C96.7364 294.43 94.8556 278.622 93.0305 263.328C92.4128 258.161 91.777 252.804 91.372 247.588C89.3648 221.38 95.6048 202.757 109.906 192.241C125.534 180.749 147.727 181.05 169.202 181.343C177.166 181.452 185.381 181.566 193.175 181.086C237.496 178.324 273.642 155.073 308.571 132.675C335.995 115.073 364.289 96.8785 396.818 88.1646C442.37 75.954 496.207 84.0635 537.308 109.317L538.325 107.937C522.816 98.4644 505.76 91.3216 487.901 86.8196Z" fill="#5E4A2E" fill-opacity="0.5"/>
</svg>
