<svg width="511" height="562" viewBox="0 0 511 562" fill="none" xmlns="http://www.w3.org/2000/svg">
<path d="M469.874 46.7808L471.547 47.5766C454.487 84.8337 418.915 115.579 371.26 134.319C342.054 145.769 310.994 152.312 280.953 158.627C268.505 161.244 255.639 163.962 243.087 166.984C206.362 175.812 159.692 190.212 124.48 223.376C120.837 226.808 117.184 230.548 113.64 234.156C99.7201 248.365 85.3767 263.07 66.3359 265.724C62.7746 266.135 59.1943 266.333 55.6122 266.316C47.9891 266.447 40.7708 266.571 34.694 270.596C25.081 276.908 22.6279 290.637 24.4513 301.435C26.0388 310.854 30.2931 319.635 34.3991 328.131C35.383 330.15 36.362 332.18 37.3025 334.207C57.0638 376.653 62.5469 425.007 52.8398 471.227C43.1327 517.446 18.8204 558.744 -16.0531 588.252L-17.2035 586.723C17.3454 557.498 41.4326 516.591 51.051 470.807C60.6693 425.024 55.2388 377.124 35.6629 335.078C34.7224 333.051 33.7496 331.038 32.7768 329.025C28.5892 320.404 24.2857 311.486 22.6431 301.784C20.706 290.335 23.3922 275.735 33.7302 268.942C40.2396 264.654 48.0427 264.509 55.5838 264.382C59.1004 264.391 62.6147 264.19 66.1102 263.782C84.5116 261.15 98.6643 246.739 112.369 232.755C115.922 229.123 119.592 225.377 123.273 221.92C158.807 188.468 205.746 173.969 242.682 165.085C255.267 162.049 268.144 159.337 280.592 156.72C310.562 150.413 341.558 143.897 370.638 132.458C417.822 113.978 453.066 83.5324 469.874 46.7808Z" fill="#5E4A2E" fill-opacity="0.5"/>
<path d="M463.491 60.1353L465.164 60.9312C449.721 96.098 416.684 125.089 372.151 142.554C344.31 153.501 314.67 159.438 285.998 165.209C274.93 167.444 263.486 169.742 252.322 172.301C217.852 180.195 174.04 193.122 140.927 223.372C135.818 228.056 130.868 233.158 126.056 238.154C112.475 252.225 98.4326 266.789 80.0071 271.955C76.1849 272.983 72.0457 273.746 68.0569 274.439C57.1794 276.38 46.9443 278.1 40.7341 286.571C30.4403 300.598 40.1472 320.75 47.9554 336.954L48.9343 338.984C68.402 379.541 71.8823 429.837 58.7157 480.669C48.1259 521.672 26.953 563.091 -5.92631 607.337L-7.37043 606.124C25.3643 562.094 46.4038 520.896 56.9295 480.204C69.9832 429.831 66.555 380.014 47.281 339.92L46.302 337.889C38.2355 321.249 28.2449 300.436 39.26 285.429C45.9112 276.357 57.0083 274.435 67.7304 272.576C71.6758 271.892 75.7515 271.183 79.4844 270.113C97.4391 265.078 111.309 250.703 124.726 236.796C129.521 231.777 134.551 226.614 139.671 221.936C173.106 191.398 217.199 178.376 251.87 170.45C263.067 167.878 274.515 165.568 285.594 163.339C314.196 157.577 343.775 151.625 371.461 140.76C415.59 123.459 448.259 94.8335 463.491 60.1353Z" fill="#5E4A2E" fill-opacity="0.5"/>
<path d="M506.714 20.9926C500.38 62.2264 472.767 100.526 430.939 126.063C394.95 148.045 354.69 158.266 309.592 168.462L304.956 169.515C265.221 178.491 224.119 187.756 187.629 207.622C157.752 223.875 128.743 248.266 96.3309 284.384C88.5263 293.079 81.2852 301.771 78.2403 312.615C75.0136 324.113 77.0537 336.493 79.0392 348.463L79.7462 352.853C93.9971 442.573 65.8581 538.925 6.28625 604.324L4.96787 602.972C64.1414 538.009 92.0925 442.293 77.963 353.144L77.2509 348.765C75.2239 336.576 73.1471 323.965 76.4929 312.026C79.6731 300.734 87.066 291.872 95.0225 283.008C127.575 246.715 156.743 222.201 186.808 205.852C223.503 185.913 264.763 176.623 304.579 167.614L309.199 166.568C354.145 156.413 394.258 146.223 430.009 124.426C471.355 99.1723 498.644 61.3869 504.886 20.7212L506.714 20.9926Z" fill="#5E4A2E" fill-opacity="0.5"/>
<path d="M196.199 220.09C196.834 220.392 197.433 220.773 197.985 221.224C198.731 221.824 199.341 222.595 199.771 223.478C200.2 224.362 200.438 225.337 200.466 226.331C200.629 231.06 197.635 232.283 194.986 233.356C194.169 233.663 193.374 234.032 192.606 234.458C183.195 239.942 174.5 248.811 167.573 255.931C151.67 272.179 138.388 291.092 128.259 311.914C122.536 323.638 117.88 335.916 114.354 348.58L114.239 348.853C113.628 351.823 112.446 354.627 110.767 357.089C108.793 359.579 105.195 361.283 102.129 359.754C99.2359 358.293 98.1987 354.812 97.4982 351.676C94.675 339.692 91.4788 326.051 94.1437 312.963C98.0085 293.916 112.769 280.476 128.842 267.262L180.151 225.05C182.943 222.75 186.1 220.154 189.925 219.341C192.04 218.906 194.228 219.168 196.199 220.09ZM112.592 348.027C116.155 335.248 120.854 322.858 126.626 311.023C136.85 289.998 150.26 270.9 166.317 254.495C173.362 247.316 182.092 238.365 191.732 232.719C192.577 232.252 193.451 231.845 194.348 231.502C197.164 230.351 198.757 229.558 198.645 226.361C198.635 225.644 198.47 224.939 198.164 224.3C197.857 223.661 197.417 223.105 196.877 222.675C195.942 221.966 194.88 221.467 193.756 221.21C192.633 220.952 191.471 220.94 190.344 221.176C186.942 221.906 183.954 224.354 181.387 226.534L130.028 268.737C114.215 281.718 99.7276 294.89 95.9849 313.298C93.4079 325.986 96.5602 339.351 99.3318 351.14C99.9713 353.848 100.836 356.849 103.014 357.941C105.192 359.034 107.982 357.657 109.456 355.783C110.981 353.533 112.058 350.976 112.624 348.269L112.592 348.027Z" fill="#5E4A2E" fill-opacity="0.5"/>
<path d="M121.813 287.993C122.479 288.346 123.066 288.848 123.532 289.465C123.998 290.082 124.332 290.799 124.512 291.567C124.847 293.418 124.758 295.328 124.254 297.135C122.436 305.878 119.817 314.41 116.433 322.61C114.984 326.047 113.019 328.199 110.847 328.618C109.903 328.743 108.945 328.609 108.064 328.23C107.183 327.851 106.408 327.239 105.813 326.452C101.111 321.37 104.881 306.233 104.908 306.104C105.792 302.394 107.383 298.917 109.582 295.886C111.782 292.855 114.543 290.335 117.695 288.482C118.464 288.007 119.325 287.726 120.212 287.659C120.762 287.645 121.309 287.759 121.813 287.993ZM108.85 326.459C109.37 326.726 109.955 326.815 110.524 326.714C111.999 326.392 113.593 324.645 114.75 321.838C118.087 313.76 120.671 305.353 122.465 296.74C122.89 295.216 122.981 293.61 122.73 292.043C122.609 291.409 122.304 290.832 121.857 290.393C121.41 289.953 120.845 289.673 120.241 289.593C119.633 289.655 119.046 289.863 118.525 290.2C115.598 291.927 113.037 294.275 110.999 297.097C108.962 299.919 107.491 303.155 106.679 306.605C105.301 312.067 104.236 321.932 107.116 325.108C107.61 325.669 108.198 326.127 108.85 326.459Z" fill="#5E4A2E" fill-opacity="0.5"/>
</svg>
