<svg width="819" height="851" viewBox="0 0 819 851" fill="none" xmlns="http://www.w3.org/2000/svg">
<path d="M-111.168 239.965L-156.151 244.376C-161.205 244.376 -165.754 244.376 -168.787 240.455C-171.819 236.534 -168.787 231.878 -167.018 227.713C-164.884 223.488 -162.346 219.468 -159.436 215.705C-156.535 212.158 -152.557 209.586 -148.064 208.354C-136.945 206.883 -126.078 208.354 -114.959 206.883C-93.7693 206.253 -72.5919 208.48 -52.0339 213.5C-45.4634 215.215 -38.3875 215.215 -31.817 216.685L-3.76608 223.792C0.239548 225.108 4.39972 225.931 8.61681 226.242C9.94504 226.342 11.2805 226.187 12.5466 225.785C13.8127 225.383 14.9844 224.742 15.9942 223.9C17.0041 223.057 17.8323 222.029 18.4311 220.875C19.0299 219.721 19.3874 218.464 19.4833 217.175C23.5267 193.732 23.5267 169.799 19.4833 146.356C16.9264 129.683 12.7811 113.276 7.10051 97.3454C2.78859 82.5309 -4.23009 68.587 -13.6218 56.1768C-18.2936 50.3808 -22.0418 43.9378 -24.7412 37.0629C-25.6441 35.4702 -25.8586 33.5951 -25.3374 31.8493C-24.8163 30.1035 -23.6021 28.6295 -21.9613 27.7509L-8.06213 17.9488C-1.23892 13.2928 4.32071 14.7632 8.61681 22.1147C15.44 34.1222 22.7686 46.6198 29.8446 57.6471C31.0067 59.8686 32.0197 62.1605 32.8771 64.5085C36.1623 74.0655 40.2057 83.6225 42.7328 93.6696C46.7762 109.353 50.0614 125.526 53.3466 142.68C53.3466 146.356 53.3467 150.031 55.3683 153.707C59.0295 167.283 59.0295 181.545 55.3683 195.121C53.8521 200.757 53.8521 206.883 52.8413 212.764C51.9412 218.471 50.6752 224.119 49.0506 229.673C48.0356 232.164 47.8555 234.901 48.536 237.496C49.2164 240.091 50.7229 242.413 52.8413 244.131C59.4118 249.032 66.4876 252.953 73.3108 257.364C80.134 261.775 89.2318 266.431 96.8131 271.577C104.394 276.723 109.449 280.644 115.514 285.3C121.579 289.956 130.676 297.797 138.51 303.678C140.785 305.394 144.575 305.149 147.608 305.884C148.917 302.692 149.52 299.269 149.377 295.837C149.377 291.671 145.081 287.75 143.817 283.584C138.763 266.921 133.961 250.012 129.413 233.104C127.896 227.713 127.644 222.321 126.38 216.685C125.099 207.94 123.327 199.269 121.073 190.71C115.792 167.04 112.162 143.053 110.207 118.91C106.501 89.7324 105.317 60.3054 106.669 30.9366C106.669 20.6444 108.943 10.3523 109.954 -0.184929C110.965 -10.7221 111.723 -17.3385 112.481 -24.69C112.254 -30.1342 114.16 -35.46 117.817 -39.5968C121.473 -43.7337 126.609 -46.375 132.193 -46.9897C135.248 -47.637 138.216 -48.6237 141.038 -49.9303C147.103 -49.9303 150.64 -49.9303 151.399 -43.0689C152.03 -40.6566 152.03 -38.1297 151.399 -35.7174C143.152 -3.02677 139.832 30.6499 141.543 64.2635C141.543 72.5953 141.543 80.682 141.543 88.7686C141.543 91.7093 144.07 94.6498 145.334 97.5904C148.306 96.5989 151.115 95.1958 153.673 93.4246C165.623 80.1462 175.578 65.2962 183.24 49.3154L202.952 14.5181C203.693 13.2804 204.286 11.965 204.721 10.5973L216.093 -15.3781C216.093 -16.8484 217.609 -18.3187 218.114 -19.789C222.916 -34.7371 227.717 -49.4402 232.772 -64.3883C233.215 -67.7038 234.96 -70.726 237.643 -72.8257C240.326 -74.9253 243.741 -75.9408 247.176 -75.6607H260.065C267.899 -75.6607 271.689 -71.2498 269.415 -63.8983C262.844 -44.5392 255.768 -25.4252 249.198 -6.3112C244.477 8.99498 238.301 23.8434 230.75 38.0431C229.569 40.7011 228.13 43.2447 226.454 45.6396C224.876 47.7526 223.441 49.9627 222.158 52.256C215.286 68.5045 206.006 83.6942 194.612 97.3454C182.482 113.274 169.341 129.202 157.716 146.356C154.799 150.362 153.292 155.175 153.42 160.079C154.049 170.88 155.571 181.615 157.969 192.18C161.254 208.599 165.551 224.527 169.847 241.19C172.916 255.06 176.883 268.728 181.724 282.114C187.241 295.181 191.143 308.836 193.349 322.792C193.639 324.251 194.268 325.627 195.187 326.816C196.107 328.005 197.293 328.975 198.656 329.654C200.172 329.654 204.215 327.938 205.732 325.733C210.256 318.513 214.389 311.07 218.114 303.433C221.147 297.797 223.421 292.161 226.201 286.77C227.06 284.896 228.074 283.093 229.234 281.379C235.299 269.371 240.353 256.874 247.429 245.601C260.509 224.043 275.836 203.843 293.17 185.319C300.246 177.722 307.069 169.881 313.387 160.814C314.199 159.639 314.752 158.315 315.013 156.923C315.274 155.532 315.237 154.104 314.903 152.727C311.365 140.719 306.563 128.222 303.025 116.949C299.487 105.677 298.982 97.3454 296.96 87.5433C296.96 85.0928 296.96 82.6423 295.697 80.1918C289.802 59.6231 287.161 38.306 287.863 16.9687C287.863 2.2656 287.863 -12.1924 287.863 -26.8955C287.476 -29.085 287.476 -31.3224 287.863 -33.5119C291.496 -42.8251 293.296 -52.7163 293.17 -62.6729C293.17 -70.2695 296.202 -74.4354 303.783 -75.1706C310.559 -76.2765 317.478 -76.2765 324.253 -75.1706C329.055 -75.1706 330.065 -70.5146 329.307 -65.6136C326.877 -52.4801 325.19 -39.2275 324.253 -25.9153C324.253 -5.57603 324.253 15.2533 324.253 35.5925C324.201 54.8082 327.622 73.8841 334.362 91.9542C334.435 92.9332 334.435 93.916 334.362 94.8949C337.41 110.822 342.771 126.25 350.282 140.719C351.883 144.273 353.741 147.712 355.842 151.012C364.053 166.944 373.873 182.047 385.157 196.101C386.926 198.306 387.178 201.737 388.947 203.698C390.939 206.379 393.778 208.358 397.034 209.334C399.308 209.334 402.846 205.903 403.857 203.453C407.901 190.71 411.691 177.722 414.724 164.734C418.767 146.356 422.305 127.732 426.096 109.108C432.414 77.0061 438.479 44.6594 445.049 11.0874C447.829 -3.12556 451.367 -17.3385 454.399 -31.5514C454.652 -35.4684 454.652 -39.397 454.399 -43.314C454.286 -44.7609 454.523 -46.2135 455.092 -47.5559C455.66 -48.8982 456.544 -50.0932 457.674 -51.0454C458.803 -51.9976 460.146 -52.6806 461.596 -53.0401C463.046 -53.3996 464.562 -53.4256 466.024 -53.116C470.196 -52.8815 474.257 -51.7212 477.894 -49.7243C481.531 -47.7275 484.646 -44.9474 486.999 -41.5985C489.211 -37.54 490.093 -32.9234 489.526 -28.3658C487.252 -15.3781 483.714 -2.63548 480.934 10.1072C477.396 26.5256 474.364 42.699 471.078 59.1174C467.793 75.5358 464.255 94.4048 460.717 111.803C459.201 119.4 456.927 126.506 456.168 134.103C456.168 137.044 457.937 140.229 459.201 143.415C462.232 142.595 465.125 141.357 467.793 139.739C483.461 126.506 499.635 113.764 514.039 99.5509C528.444 85.3379 537.289 72.3501 548.661 58.6273C554.473 51.5208 560.033 44.1693 565.34 36.8177C570.647 29.4662 570.899 27.2608 574.185 22.8498C576.375 19.36 579.007 16.1495 582.019 13.2929C584.187 11.2568 587.087 10.1183 590.105 10.1183C593.124 10.1183 596.024 11.2568 598.192 13.2929L601.225 15.4983C614.366 27.2608 614.366 29.9563 603.246 43.4341C597.588 50.6026 592.438 58.1348 587.831 65.9789C562.859 104.439 530.312 137.747 492.053 163.999C479.165 173.311 465.266 181.153 451.872 188.504C448.363 190.999 445.443 194.191 443.307 197.868C441.172 201.544 439.87 205.62 439.49 209.824C437.973 217.42 435.446 225.017 433.424 232.614C431.403 240.21 430.139 248.052 428.37 255.893C424.074 273.047 419.778 290.201 415.735 307.354C414.229 314.221 413.216 321.181 412.702 328.183C412.561 329.555 412.763 330.939 413.291 332.219C413.819 333.499 414.657 334.636 415.735 335.535C417.504 335.535 421.042 335.535 423.821 335.535C426.601 335.535 426.349 333.575 427.612 332.349C441.764 319.852 455.41 307.844 470.32 294.612C478.912 287.75 489.779 283.339 498.877 276.968C517.251 265.632 537.15 256.809 558.011 250.747C561.778 250.24 565.295 248.631 568.094 246.136C570.893 243.64 572.842 240.376 573.679 236.779C577.975 219.381 582.019 201.982 586.315 184.584C587.831 177.967 590.105 171.596 592.127 164.979C594.149 158.363 597.687 147.091 600.719 138.024C602.488 133.368 604.763 128.957 606.784 124.546C613.102 110.088 618.915 95.385 625.738 80.927C629.981 72.4616 634.793 64.2756 640.142 56.4219C640.142 54.9516 646.46 53.7263 647.471 54.7065C654.064 60.0746 659.999 66.159 665.161 72.8403C667.182 75.5358 665.161 81.172 665.161 85.3378C659.096 95.1399 654.041 105.677 648.734 116.214C642.198 130.359 636.461 144.838 631.55 159.588C626.748 172.086 623.716 185.319 620.178 198.061C618.156 204.923 616.135 211.539 614.366 218.401C613.875 221.158 613.875 223.975 614.366 226.732C614.259 228.034 614.5 229.34 615.065 230.525C615.631 231.71 616.502 232.733 617.594 233.497C618.686 234.26 619.963 234.738 621.301 234.884C622.639 235.03 623.993 234.838 625.232 234.329C641.729 230.135 658.956 229.383 675.774 232.124C688.412 233.302 700.979 235.102 713.428 237.515C723.031 239.475 732.382 242.416 741.985 245.111C747.544 246.581 752.852 248.542 758.411 249.767C765.778 251.023 772.62 254.298 778.128 259.205C783.636 264.112 787.581 270.446 789.495 277.458C789.495 279.663 791.516 281.869 792.274 284.074C793.6 287.967 794.448 291.997 794.801 296.082C794.801 302.943 790 305.394 783.935 301.473C768.76 292.503 752.874 284.718 736.425 278.193C732.118 276.536 727.621 275.384 723.031 274.762C710.396 272.067 697.76 269.861 685.125 266.921C666.349 263.365 647.041 263.365 628.265 266.921C617.146 268.636 606.026 272.067 594.907 274.027C583.687 275.476 572.916 279.236 563.318 285.055C561.95 285.9 560.387 286.405 558.769 286.525C547.516 288.791 537.065 293.858 528.444 301.228C522.884 304.904 522.379 308.825 525.917 313.235C537.036 326.223 547.144 339.946 559.022 352.199C575.701 368.862 593.138 384.79 609.564 401.209C614.486 404.863 620.552 406.766 626.748 406.6C648.971 406.562 671.169 405.171 693.212 402.434C710.609 399.166 727.566 393.987 743.754 386.996C755.919 381.295 767.732 374.913 779.133 367.882C784.851 364.761 790.759 361.979 796.823 359.55C800.614 358.08 804.91 358.325 805.415 362.736C806.42 370.301 806.42 377.96 805.415 385.525C804.519 389.766 802.48 393.701 799.505 396.929C796.531 400.157 792.728 402.564 788.484 403.904C782.924 406.11 778.123 409.295 772.816 411.991L765.992 414.932L740.721 425.714C736.497 427.034 732.193 428.098 727.833 428.899C715.955 431.84 704.078 434.536 692.201 437.721C689.971 438.126 687.961 439.283 686.527 440.988C685.093 442.692 684.328 444.834 684.367 447.033C684.367 452.179 689.421 452.914 693.464 454.385C697.508 455.855 707.111 460.756 713.934 463.697L725.811 467.863L743.248 473.744C756.642 477.91 770.036 482.076 783.935 485.261C786.281 485.6 788.528 486.414 790.53 487.649C792.531 488.884 794.242 490.513 795.553 492.431C796.863 494.349 797.744 496.512 798.137 498.781C798.529 501.049 798.427 503.373 797.834 505.6C797.834 509.766 796.57 513.932 795.56 517.853C794.549 521.774 792.022 531.331 790.253 537.947C788.484 544.564 785.957 551.425 783.682 558.041C783.682 560.492 783.682 563.678 780.65 565.148C773.068 571.029 764.982 576.175 757.148 581.566C757.148 581.566 754.115 581.566 752.851 582.792C734.554 591.702 715.432 598.922 695.739 604.356C690.901 605.805 685.888 606.628 680.829 606.807C677.887 606.543 674.926 606.543 671.984 606.807C668.924 607.906 666.341 609.979 664.655 612.688C664.655 612.688 667.182 617.099 669.204 619.059C681.587 630.822 694.475 642.339 706.352 654.347C711.894 659.376 716.66 665.153 720.504 671.5C721.453 674.488 721.712 677.641 721.264 680.737C720.815 683.832 719.671 686.794 717.91 689.413C716.15 692.032 713.817 694.243 711.078 695.891C708.338 697.538 705.258 698.581 702.056 698.946C699.38 698.566 696.9 697.364 694.981 695.515C682.85 683.018 671.226 671.01 658.59 658.022C649.76 650.069 640.389 642.701 630.539 635.968C625.391 633.062 620.075 630.444 614.618 628.126C591.318 617.427 565.849 611.901 540.068 611.953C524.801 610.49 509.387 611.736 494.581 615.628C484.757 617.884 475.191 621.086 466.024 625.185C452.581 632.183 440.241 641.013 429.381 651.406C419.719 660.677 411.845 671.548 406.132 683.508C400.081 694.287 396.375 706.156 395.245 718.379C394.115 730.603 395.584 742.921 399.561 754.572C400.556 759.535 401.821 764.443 403.352 769.275C407.901 777.852 413.46 785.939 418.767 793.781C431.09 810.074 446.64 823.82 464.508 834.214C471.091 837.955 478.031 841.073 485.23 843.526C486.255 844.004 487.378 844.252 488.516 844.252C489.653 844.252 490.776 844.004 491.801 843.526C499.888 839.85 507.469 835.684 515.303 831.764C519.7 830.202 523.932 828.232 527.938 825.882L586.567 783.488C592.127 779.323 597.181 773.932 602.741 769.766C604.556 768.229 606.746 767.167 609.103 766.681C611.46 766.195 613.906 766.3 616.209 766.988C618.513 767.675 620.596 768.921 622.264 770.608C623.931 772.295 625.127 774.367 625.738 776.627C627.11 780.136 627.386 783.96 626.532 787.62C625.678 791.281 623.732 794.616 620.936 797.211C612.369 806.007 603.164 814.196 593.391 821.716C577.722 832.989 561.044 843.281 544.617 853.573C533.751 860.189 522.126 866.316 511.007 872.687L506.963 874.647C498.624 878.323 490.284 882.244 481.692 885.675C477.575 887.319 473.354 888.71 469.057 889.841L455.158 893.761C445.049 896.702 434.941 900.133 424.832 902.828C412.692 906.292 400.377 909.155 387.936 911.405C372.07 914.127 356.025 915.765 339.921 916.306C314.65 916.306 287.863 916.306 261.834 916.306C230.527 914.186 199.531 908.93 169.341 900.623C151.946 895.916 135.028 889.682 118.799 881.999C104.647 875.873 89.9898 870.237 76.0907 863.375C65.5232 857.946 55.3112 851.89 45.5126 845.241C37.8019 840.6 30.3764 835.527 23.274 830.048C10.133 820.246 -1.99713 809.954 -15.1381 799.907C-16.4443 798.802 -17.6298 797.571 -18.6761 796.231C-21.1557 794.428 -23.0586 791.981 -24.1648 789.173C-25.271 786.366 -25.5354 783.312 -24.9275 780.365C-24.3196 777.418 -22.8643 774.697 -20.7296 772.518C-18.5949 770.339 -15.8679 768.79 -12.8637 768.05C-10.0254 766.946 -6.8571 766.946 -4.01875 768.05C-0.606094 769.632 2.54509 771.696 5.33153 774.177C20.7469 786.184 35.9096 798.682 51.8304 809.464C61.4334 816.325 72.3 821.716 82.4084 827.843L95.5494 835.439C100.74 839.438 107.027 841.872 113.631 842.438C120.234 843.004 126.864 841.678 132.698 838.625C144.828 830.31 156.238 821.049 166.814 810.934C172.844 805.705 178.191 799.78 182.735 793.291C190.145 783.406 196.496 772.814 201.688 761.679C205.232 751.495 207.025 740.815 206.995 730.067C207.49 721.225 206.465 712.364 203.963 703.847C200.216 690.003 193.689 677.013 184.757 665.619C180.46 660.473 175.659 655.817 171.616 650.671C161.388 641.101 149.92 632.864 137.499 626.166C134.454 624.704 131.226 623.634 127.896 622.98C122.74 622.08 117.668 620.768 112.734 619.059C95.9357 612.423 77.6887 609.979 59.6644 611.953C46.8188 612.673 34.1425 615.148 22.0105 619.304C7.43867 624.089 -6.75128 629.904 -20.445 636.703C-29.2519 640.749 -37.2847 646.218 -44.1998 652.876C-59.6152 666.844 -74.0198 681.302 -88.9298 695.76C-91.2042 697.966 -93.2259 700.416 -95.5003 702.377C-97.7747 704.337 -104.345 707.033 -108.389 702.377C-110.939 698.386 -113.723 694.54 -116.728 690.859C-118.019 689.755 -119.052 688.398 -119.761 686.877C-120.469 685.356 -120.835 683.706 -120.835 682.037C-120.835 680.368 -120.469 678.719 -119.761 677.198C-119.052 675.677 -118.019 674.319 -116.728 673.215C-98.1698 652.316 -77.4201 633.345 -54.8138 616.609C-52.4424 614.58 -49.6993 613 -46.727 611.953C-39.1643 609.651 -32.5358 605.109 -27.7737 598.965C-23.4776 594.309 -24.4884 590.878 -30.3008 587.693C-36.1131 584.507 -42.4309 580.096 -48.7487 577.155C-61.1315 571.274 -74.0198 565.883 -86.4027 560.492L-100.555 554.611C-106.114 552.65 -111.674 549.955 -117.486 548.484C-131.133 545.054 -144.779 542.113 -158.425 539.172C-163.549 537.958 -168.825 537.463 -174.094 537.702C-177.63 538.337 -181.283 537.689 -184.358 535.881C-187.434 534.074 -189.716 531.234 -190.772 527.9C-192.821 521.742 -194.343 515.431 -195.321 509.031C-195.872 507.825 -196.065 506.495 -195.88 505.188C-195.694 503.882 -195.138 502.651 -194.272 501.634C-193.407 500.616 -192.267 499.853 -190.979 499.428C-189.691 499.003 -188.307 498.935 -186.982 499.229C-164.996 494.083 -143.01 488.692 -120.771 484.281C-110.737 482.683 -100.608 481.701 -90.4461 481.34C-64.3744 478.243 -38.1173 476.852 -11.8528 477.175C-5.02963 477.175 2.04623 477.175 9.12215 477.175C13.3018 477.469 17.446 478.125 21.505 479.135C25.2926 480.302 29.1845 481.122 33.1297 481.585C63.0855 481.984 92.8443 486.354 121.579 494.573L164.034 506.826C177.254 510.429 190.111 515.186 202.446 521.039C206.995 523.244 212.302 526.92 217.104 522.754C221.905 518.588 220.641 511.727 218.872 505.845L205.984 463.452C204.468 458.796 202.446 453.895 200.425 449.239C198.418 446.061 196.966 442.583 196.129 438.947C190.971 416.855 179.599 396.582 163.276 380.379C152.924 366.412 141.699 353.073 129.665 340.436C124.878 335.483 119.339 331.269 113.239 327.938C111.63 327.162 109.857 326.757 108.059 326.757C106.261 326.757 104.488 327.162 102.878 327.938C95.044 333.085 87.9681 339.456 80.6395 345.092C67.5576 356.128 53.7102 366.281 39.1948 375.478C26.812 382.34 13.9237 389.936 1.03539 395.818C-11.8529 401.699 -31.0589 408.315 -47.2325 414.196C-56.5828 417.627 -66.9439 418.607 -76.547 421.548C-99.861 428.546 -124.167 431.936 -148.57 431.595C-161.205 431.595 -173.841 431.595 -186.729 431.595C-199.617 431.595 -202.65 426.939 -201.892 415.667C-200.628 397.043 -196.585 395.327 -178.895 396.063C-158.422 397.12 -137.897 396.71 -117.486 394.837C-98.6087 391.749 -79.9542 387.492 -61.637 382.095C-52.2372 380.603 -43.2756 377.177 -35.355 372.048C-34.5162 371.415 -33.5774 370.919 -32.5751 370.577L3.05713 355.384C5.04321 354.557 6.91171 353.487 8.61681 352.199L56.8846 317.891C61.9144 314.527 66.5722 310.667 70.7838 306.374C76.8488 300.248 75.3325 294.857 67.4985 290.691C53.5994 283.829 40.2056 275.988 26.3065 269.616C13.5838 263.586 0.404526 258.506 -13.1164 254.423C-28.7093 250.07 -44.58 246.714 -60.6261 244.376C-72.5222 242.707 -84.5002 241.644 -96.5111 241.19H-111.168V239.965ZM301.256 888.37L354.326 882.979L359.885 881.509C361.282 881.081 362.569 880.371 363.661 879.426C364.754 878.48 365.628 877.321 366.225 876.024C366.822 874.728 367.129 873.323 367.125 871.903C367.121 870.483 366.807 869.08 366.203 867.786C365.038 864.918 363.51 862.202 361.654 859.699C350.298 844.946 341.741 828.351 336.383 810.689C336.478 809.957 336.478 809.216 336.383 808.484C330.336 800.283 326.433 790.78 325.011 780.793C322.737 770.011 318.188 759.474 316.167 748.691C310.699 709.802 309.26 670.479 311.87 631.312C314.958 596.944 320.36 562.809 328.044 529.125C330.824 510.747 336.383 493.103 340.932 474.969C345.481 456.835 349.777 440.907 354.326 423.753C354.326 419.588 356.853 415.422 357.864 411.256C360.643 400.719 363.171 389.936 365.95 379.154L371.257 360.04C372.774 353.914 374.795 347.788 376.312 341.661C378.586 330.879 380.608 319.852 383.135 309.07C385.662 298.287 389.453 283.094 392.485 270.106C393.137 267.116 392.941 264.01 391.918 261.119C390.894 258.228 389.082 255.66 386.673 253.688C379.344 246.091 373.279 237.27 366.709 229.183C360.138 221.096 353.82 211.539 346.997 202.962C344.745 200.455 342.101 198.305 339.163 196.591C334.362 193.896 329.307 194.386 327.033 199.287C320.459 210.277 312.57 220.476 303.531 229.673C297.719 237.27 292.412 245.111 287.105 252.953C281.798 260.794 281.798 261.775 279.27 266.186C276.743 270.596 274.469 274.272 272.447 278.438C270.426 282.604 270.678 283.094 269.415 285.3L248.692 324.508C248.07 326.272 247.564 328.073 247.176 329.899C244.902 335.535 242.88 341.416 240.858 347.297C238.884 351.572 237.278 355.998 236.057 360.53C232.772 372.538 229.739 385.035 226.959 396.798C225.947 400.989 225.947 405.35 226.959 409.54C231.761 426.204 237.321 442.377 242.122 458.551C245.913 470.803 248.692 483.056 252.23 495.308C254.505 503.64 257.79 511.727 259.812 519.813C261.833 527.9 263.35 536.722 265.119 544.319C266.888 551.915 271.184 566.618 272.953 577.891C275.733 594.064 277.249 610.482 279.523 626.901C279.262 628.03 279.262 629.202 279.523 630.331C282.839 638.074 283.888 646.553 282.556 654.837C281.926 658.075 281.926 661.4 282.556 664.639C286.715 694.809 286.715 725.382 282.556 755.553C280.534 777.362 274.975 798.927 270.931 820.491C269.901 824.72 268.636 828.892 267.14 832.989C262.844 845.486 258.548 857.494 255.01 870.482C252.736 878.323 255.01 881.754 264.108 881.999C273.205 882.244 276.238 881.999 282.05 881.999C287.863 881.999 296.202 887.39 301.256 888.37ZM340.932 671.745H343.712C343.079 683.418 343.079 695.115 343.712 706.787C345.228 723.941 348.008 740.85 350.788 758.003C351.619 761.776 352.803 765.467 354.326 769.031C355.97 771.423 357.168 774.077 357.864 776.872C360.391 794.271 373.785 806.768 378.839 822.942C378.839 822.942 380.608 824.902 381.113 825.882L387.178 834.704C394.001 844.261 400.572 854.063 407.901 863.13C410.611 866.257 414.456 868.255 418.641 868.711C422.827 869.167 427.034 868.046 430.392 865.581C431.878 864.747 433.164 863.617 434.166 862.265C435.168 860.913 435.863 859.37 436.204 857.739C436.204 855.288 432.414 852.838 429.887 850.878C425.262 847.996 420.792 844.888 416.493 841.566C410.347 836.423 404.681 830.765 399.561 824.657C392.232 815.59 385.409 806.033 379.092 796.476C374.968 790.073 371.579 783.253 368.983 776.137C362.301 754.131 360.239 731.05 362.918 708.258C363.056 698.824 364.763 689.474 367.972 680.567C373.78 667.839 380.713 655.622 388.695 644.054C401.688 625.475 419.001 610.114 439.237 599.21C456.519 589.932 475.33 583.63 494.833 580.586C523.925 578.137 553.18 578.137 582.271 580.586C597.722 580.545 613.163 581.364 628.517 583.037C643.368 582.945 658.114 580.63 672.237 576.175C687.503 574.31 702.306 569.829 715.956 562.942C717.546 562.691 719.167 562.691 720.757 562.942C735.667 560.492 746.028 549.22 759.675 543.828C761.444 543.828 762.96 540.643 764.223 538.927C770.541 529.615 768.014 524.96 756.642 522.754C749.313 521.284 741.985 519.078 734.656 517.118L703.32 509.276C699.024 509.276 694.475 507.806 690.179 507.071C674.764 504.13 659.348 500.209 643.68 498.494C623.301 496.089 602.8 494.78 582.271 494.573C562.813 494.573 543.607 496.289 524.401 496.534C500.26 496.809 476.244 499.936 452.883 505.845C440.753 509.031 427.612 510.992 416.24 513.932C404.868 516.873 396.023 520.058 385.662 522.509C379.872 523.368 374.443 525.771 369.98 529.449C365.518 533.127 362.198 537.936 360.391 543.338C358.122 549.756 356.266 556.303 354.831 562.942C352.304 576.91 350.282 590.878 348.513 604.846L340.932 671.745ZM-25.2465 509.766H-58.3517C-62.3509 509.879 -66.3292 510.371 -70.2292 511.237C-71.645 511.407 -73.0075 511.867 -74.2271 512.585C-75.4466 513.303 -76.4956 514.263 -77.3051 515.403C-77.3051 517.118 -75.2834 520.304 -73.7671 522.509C-72.7047 524.029 -71.2132 525.22 -69.471 525.94C-56.5827 532.801 -44.1999 539.172 -30.5535 546.279C-16.9071 553.385 -9.32571 558.531 1.28816 565.148C11.902 571.764 14.9346 575.44 22.0105 580.341C24.2749 581.48 26.7884 582.074 29.3391 582.074C31.8899 582.074 34.4032 581.48 36.6677 580.341C40.2409 579.034 43.9824 578.21 47.787 577.891C61.0857 577.155 74.4167 577.155 87.7154 577.891C105.152 579.851 122.337 583.772 139.521 586.712C141.382 587.326 143.163 588.149 144.828 589.163L159.991 596.76L173.89 605.091C187.643 614.427 199.759 625.844 209.775 638.908C221.162 651.396 229.077 666.493 232.772 682.772C232.772 688.654 238.079 694.29 238.079 700.171C239.079 721.291 238.064 742.456 235.046 763.394C232.176 781.117 224.985 797.919 214.071 812.404C203.329 828.3 189.089 841.69 172.374 851.613C165.045 855.533 165.298 861.66 172.374 865.091C179.022 868.185 185.858 870.885 192.843 873.177C202.952 876.363 213.06 873.177 215.587 866.561C221.905 849.162 227.465 831.764 233.277 814.365C235.804 807.013 238.331 799.417 240.606 791.575C241.724 788.145 242.487 784.615 242.88 781.038C242.608 776.549 242.608 772.049 242.88 767.56C245.934 754.548 247.124 741.189 246.418 727.862C246.418 716.345 246.418 705.072 246.418 693.8C246.418 677.626 244.144 661.453 242.88 644.789C243.128 641.363 243.128 637.924 242.88 634.497C239.595 616.854 236.562 599.21 232.772 581.811C231.677 577.51 228.976 573.755 225.19 571.274C216.274 566.216 207.078 561.635 197.645 557.551L186.778 551.425C184.443 550.008 181.992 548.779 179.45 547.749C170.605 544.564 161.507 541.623 152.409 538.927C138.763 535.007 124.864 532.066 111.723 527.41C98.2061 523.067 84.212 520.27 70.0255 519.078C63.2024 519.078 56.1264 517.118 49.3032 515.893L11.3965 509.766H-25.2465ZM567.361 457.325V458.796C578.986 458.796 590.358 458.796 601.73 458.796C605.521 458.796 610.828 456.835 612.091 454.14C613.355 451.444 609.311 447.278 606.026 444.828L603.752 443.603C595.763 438.569 588.084 433.087 580.755 427.184C566.35 414.686 552.704 401.209 538.805 387.976C533.117 382.95 527.797 377.546 522.884 371.803C513.028 359.55 504.184 347.297 494.581 334.065C493.85 332.951 492.842 332.035 491.649 331.4C490.457 330.765 489.118 330.432 487.757 330.432C486.397 330.432 485.058 330.765 483.865 331.4C482.673 332.035 481.664 332.951 480.934 334.065L473.1 342.151C454.4 360.775 435.699 379.154 417.504 397.778C412.292 403.472 407.639 409.625 403.605 416.157C396.529 428.164 389.2 440.662 383.135 452.669C379.775 460.517 377.481 468.754 376.312 477.175C376.312 482.811 379.597 485.996 385.157 484.771C390.716 483.546 402.341 480.85 410.428 478.645C418.514 476.439 431.655 473.009 442.269 471.048C452.883 469.088 461.981 467.863 471.836 466.147C481.692 464.432 492.053 461.491 502.162 460.756C524.148 458.796 545.881 458.306 567.361 457.325Z" fill="#936D3D" fill-opacity="0.4"/>
<path d="M-98.8305 249.659L-143.813 254.07C-148.867 254.07 -153.416 254.07 -156.449 250.149C-159.481 246.228 -156.449 241.572 -154.68 237.406C-152.546 233.182 -150.008 229.162 -147.098 225.399C-144.197 221.852 -140.219 219.28 -135.726 218.047C-124.607 216.577 -113.74 218.047 -102.621 216.577C-81.4314 215.947 -60.254 218.174 -39.696 223.194C-33.1255 224.909 -26.0497 224.909 -19.4792 226.379L8.57181 233.486C12.5774 234.802 16.7376 235.625 20.9547 235.936C22.2829 236.036 23.6184 235.881 24.8845 235.479C26.1506 235.077 27.3223 234.436 28.3321 233.594C29.342 232.751 30.1702 231.723 30.769 230.569C31.3678 229.415 31.7253 228.158 31.8212 226.869C35.8646 203.426 35.8646 179.493 31.8212 156.05C29.2643 139.377 25.119 122.97 19.4384 107.039C15.1265 92.2248 8.1078 78.2809 -1.28392 65.8707C-5.95569 60.0747 -9.70393 53.6317 -12.4033 46.7568C-13.3063 45.1641 -13.5207 43.289 -12.9995 41.5432C-12.4784 39.7974 -11.2642 38.3234 -9.62344 37.4448L4.27576 27.6427C11.099 22.9867 16.6586 24.4571 20.9547 31.8086C27.7779 43.8161 35.1065 56.3138 42.1824 67.341C43.3446 69.5625 44.3576 71.8544 45.215 74.2025C48.5002 83.7594 52.5436 93.3164 55.0707 103.363C59.1141 119.047 62.3993 135.22 65.6845 152.374C65.6845 156.049 65.6846 159.725 67.7062 163.401C71.3674 176.977 71.3674 191.238 67.7062 204.815C66.19 210.451 66.19 216.577 65.1792 222.458C64.2791 228.165 63.0131 233.813 61.3885 239.367C60.3735 241.857 60.1934 244.595 60.8739 247.19C61.5543 249.785 63.0608 252.107 65.1792 253.825C71.7497 258.726 78.8255 262.647 85.6487 267.058C92.4719 271.469 101.57 276.125 109.151 281.271C116.732 286.417 121.786 290.337 127.852 294.993C133.917 299.649 143.014 307.491 150.848 313.372C153.123 315.088 156.913 314.843 159.946 315.578C161.255 312.386 161.858 308.963 161.715 305.531C161.715 301.365 157.419 297.444 156.155 293.278C151.101 276.615 146.299 259.706 141.751 242.798C140.234 237.406 139.982 232.015 138.718 226.379C137.437 217.634 135.665 208.962 133.411 200.404C128.13 176.734 124.5 152.747 122.545 128.604C118.839 99.4263 117.655 69.9993 119.007 40.6305C119.007 30.3383 121.281 20.0462 122.292 9.50898C123.303 -1.02821 124.061 -7.64459 124.819 -14.9961C124.592 -20.4403 126.498 -25.7661 130.155 -29.9029C133.811 -34.0398 138.947 -36.6811 144.53 -37.2958C147.585 -37.9431 150.553 -38.9298 153.375 -40.2364C159.441 -40.2364 162.978 -40.2364 163.737 -33.375C164.368 -30.9627 164.368 -28.4357 163.737 -26.0234C155.49 6.66714 152.17 40.3438 153.881 73.9574C153.881 82.2892 153.881 90.3759 153.881 98.4626C153.881 101.403 156.408 104.344 157.671 107.284C160.644 106.293 163.453 104.89 166.011 103.118C177.961 89.8401 187.915 74.9901 195.578 59.0093L215.29 24.212C216.031 22.9743 216.624 21.659 217.059 20.2912L228.431 -5.68416C228.431 -7.15446 229.947 -8.62478 230.452 -10.0951C235.254 -25.0432 240.055 -39.7463 245.11 -54.6944C245.553 -58.0099 247.297 -61.0321 249.981 -63.1317C252.664 -65.2314 256.078 -66.2469 259.514 -65.9668H272.402C280.236 -65.9668 284.027 -61.5559 281.753 -54.2044C275.182 -34.8453 268.106 -15.7313 261.536 3.38271C256.814 18.6889 250.639 33.5373 243.088 47.737C241.906 50.3951 240.468 52.9386 238.792 55.3335C237.214 57.4465 235.779 59.6566 234.496 61.9499C227.624 78.1984 218.344 93.3881 206.95 107.039C194.82 122.968 181.679 138.896 170.054 156.05C167.137 160.056 165.63 164.869 165.758 169.772C166.387 180.574 167.909 191.309 170.307 201.874C173.592 218.292 177.888 234.221 182.185 250.884C185.254 264.754 189.221 278.422 194.062 291.808C199.579 304.875 203.481 318.529 205.687 332.486C205.977 333.945 206.606 335.321 207.525 336.51C208.444 337.698 209.631 338.669 210.994 339.348C212.51 339.348 216.553 337.632 218.069 335.427C222.594 328.207 226.727 320.764 230.452 313.127C233.485 307.491 235.759 301.855 238.539 296.464C239.398 294.59 240.412 292.787 241.572 291.073C247.637 279.065 252.691 266.568 259.767 255.295C272.847 233.737 288.174 213.537 305.508 195.013C312.583 187.416 319.407 179.574 325.725 170.508C326.537 169.333 327.09 168.009 327.351 166.617C327.612 165.226 327.574 163.797 327.241 162.421C323.703 150.413 318.901 137.916 315.363 126.643C311.825 115.371 311.32 107.039 309.298 97.2372C309.298 94.7867 309.298 92.3362 308.035 89.8857C302.14 69.317 299.498 47.9999 300.201 26.6626C300.201 11.9595 300.201 -2.49852 300.201 -17.2016C299.814 -19.3911 299.814 -21.6284 300.201 -23.818C303.834 -33.1312 305.634 -43.0224 305.508 -52.979C305.508 -60.5756 308.54 -64.7415 316.121 -65.4767C322.897 -66.5826 329.816 -66.5826 336.591 -65.4767C341.393 -65.4767 342.403 -60.8207 341.645 -55.9197C339.215 -42.7862 337.528 -29.5336 336.591 -16.2214C336.591 4.11787 336.591 24.9472 336.591 45.2864C336.538 64.5021 339.96 83.578 346.699 101.648C346.773 102.627 346.773 103.61 346.699 104.589C349.748 120.516 355.109 135.944 362.62 150.413C364.221 153.967 366.079 157.406 368.18 160.705C376.391 176.637 386.211 191.741 397.494 205.795C399.263 208 399.516 211.431 401.285 213.391C403.277 216.073 406.116 218.052 409.372 219.028C411.646 219.028 415.184 215.597 416.195 213.146C420.238 200.404 424.029 187.416 427.062 174.428C431.105 156.05 434.643 137.426 438.434 118.802C444.752 86.7001 450.817 54.3533 457.387 20.7813C460.167 6.56834 463.705 -7.64457 466.737 -21.8575C466.99 -25.7745 466.99 -29.7031 466.737 -33.6201C466.624 -35.067 466.861 -36.5196 467.43 -37.862C467.998 -39.2043 468.882 -40.3993 470.011 -41.3515C471.141 -42.3037 472.484 -42.9867 473.934 -43.3462C475.384 -43.7057 476.9 -43.7317 478.362 -43.422C482.534 -43.1876 486.595 -42.0273 490.232 -40.0304C493.869 -38.0336 496.984 -35.2535 499.337 -31.9046C501.549 -27.8461 502.431 -23.2295 501.864 -18.6719C499.59 -5.68422 496.052 7.05843 493.272 19.8011C489.734 36.2195 486.702 52.3929 483.416 68.8113C480.131 85.2297 476.593 104.099 473.055 121.497C471.539 129.094 469.264 136.2 468.506 143.797C468.506 146.738 470.275 149.923 471.539 153.109C474.57 152.289 477.463 151.051 480.131 149.433C495.799 136.2 511.973 123.458 526.377 109.245C540.782 95.0318 549.627 82.0441 560.999 68.3212C566.811 61.2147 572.371 53.8632 577.677 46.5117C582.984 39.1601 583.237 36.9547 586.523 32.5437C588.713 29.0539 591.345 25.8434 594.357 22.9868C596.525 20.9507 599.425 19.8122 602.443 19.8122C605.462 19.8122 608.362 20.9507 610.53 22.9868L613.563 25.1922C626.704 36.9547 626.703 39.6502 615.584 53.128C609.926 60.2965 604.776 67.8287 600.169 75.6728C575.197 114.133 542.65 147.441 504.391 173.693C491.503 183.005 477.604 190.847 464.21 198.198C460.701 200.693 457.781 203.885 455.645 207.562C453.51 211.238 452.208 215.314 451.827 219.518C450.311 227.114 447.784 234.711 445.762 242.308C443.741 249.904 442.477 257.746 440.708 265.587C436.412 282.741 432.116 299.895 428.072 317.048C426.567 323.915 425.554 330.875 425.04 337.877C424.899 339.249 425.101 340.633 425.629 341.913C426.157 343.192 426.995 344.33 428.072 345.229C429.841 345.229 433.379 345.229 436.159 345.229C438.939 345.229 438.686 343.269 439.95 342.043C454.102 329.546 467.748 317.538 482.658 304.305C491.25 297.444 502.117 293.033 511.214 286.662C529.589 275.326 549.488 266.503 570.349 260.441C574.115 259.934 577.633 258.325 580.432 255.83C583.231 253.334 585.18 250.07 586.017 246.473C590.313 229.075 594.357 211.676 598.653 194.278C600.169 187.661 602.443 181.29 604.465 174.673C606.487 168.057 610.025 156.785 613.057 147.718C614.826 143.062 617.101 138.651 619.122 134.24C625.44 119.782 631.252 105.079 638.076 90.6209C642.319 82.1555 647.13 73.9695 652.48 66.1158C652.48 64.6455 658.798 63.4202 659.809 64.4004C666.402 69.7685 672.337 75.853 677.499 82.5342C679.52 85.2298 677.499 90.8659 677.499 95.0318C671.433 104.834 666.379 115.371 661.072 125.908C654.535 140.053 648.799 154.532 643.888 169.282C639.086 181.78 636.054 195.013 632.516 207.755C630.494 214.617 628.472 221.233 626.703 228.095C626.213 230.851 626.213 233.669 626.703 236.426C626.597 237.728 626.838 239.034 627.403 240.219C627.969 241.404 628.839 242.427 629.932 243.191C631.024 243.954 632.3 244.432 633.638 244.578C634.976 244.723 636.33 244.532 637.57 244.023C654.067 239.829 671.294 239.077 688.112 241.817C700.75 242.996 713.317 244.795 725.766 247.209C735.369 249.169 744.72 252.11 754.323 254.805C759.882 256.275 765.189 258.236 770.749 259.461C778.116 260.717 784.958 263.992 790.466 268.899C795.974 273.806 799.919 280.14 801.832 287.152C801.832 289.357 803.854 291.563 804.612 293.768C805.938 297.661 806.786 301.691 807.139 305.776C807.139 312.637 802.338 315.088 796.273 311.167C781.098 302.197 765.212 294.412 748.763 287.887C744.456 286.23 739.959 285.078 735.369 284.456C722.734 281.761 710.098 279.555 697.463 276.615C678.687 273.059 659.379 273.059 640.603 276.615C629.483 278.33 618.364 281.761 607.245 283.721C596.025 285.17 585.254 288.93 575.656 294.748C574.288 295.594 572.725 296.099 571.107 296.219C559.854 298.484 549.403 303.552 540.782 310.922C535.222 314.598 534.717 318.518 538.255 322.929C549.374 335.917 559.482 349.64 571.36 361.892C588.039 378.556 605.476 394.484 621.902 410.903C626.823 414.556 632.89 416.46 639.086 416.294C661.309 416.256 683.507 414.865 705.549 412.128C722.947 408.86 739.904 403.681 756.092 396.69C768.257 390.989 780.07 384.607 791.471 377.576C797.189 374.455 803.097 371.673 809.161 369.244C812.952 367.774 817.248 368.019 817.753 372.43C818.758 379.995 818.758 387.654 817.753 395.219C816.856 399.46 814.817 403.395 811.843 406.623C808.869 409.851 805.066 412.258 800.822 413.598C795.262 415.804 790.461 418.989 785.154 421.685L778.33 424.625L753.059 435.408C748.835 436.728 744.531 437.792 740.171 438.593C728.293 441.534 716.416 444.23 704.539 447.415C702.309 447.82 700.299 448.977 698.865 450.682C697.431 452.386 696.666 454.528 696.705 456.727C696.705 461.873 701.759 462.608 705.802 464.079C709.845 465.549 719.449 470.45 726.272 473.391L738.149 477.557L755.586 483.438C768.98 487.604 782.374 491.77 796.273 494.955C798.619 495.294 800.866 496.108 802.868 497.343C804.869 498.578 806.58 500.207 807.891 502.125C809.201 504.043 810.081 506.206 810.474 508.475C810.867 510.743 810.764 513.067 810.172 515.294C810.172 519.46 808.908 523.626 807.897 527.547C806.887 531.468 804.359 541.025 802.591 547.641C800.822 554.258 798.295 561.119 796.02 567.735C796.02 570.186 796.02 573.372 792.988 574.842C785.406 580.723 777.319 585.869 769.485 591.26C769.485 591.26 766.453 591.26 765.189 592.486C746.892 601.396 727.77 608.616 708.077 614.05C703.239 615.498 698.226 616.322 693.167 616.5C690.224 616.237 687.264 616.237 684.322 616.5C681.262 617.6 678.679 619.673 676.993 622.382C676.993 622.382 679.52 626.793 681.542 628.753C693.925 640.516 706.813 652.033 718.69 664.04C724.232 669.07 728.998 674.847 732.842 681.194C733.791 684.182 734.05 687.335 733.602 690.43C733.153 693.526 732.008 696.488 730.248 699.107C728.488 701.726 726.155 703.937 723.416 705.585C720.676 707.232 717.596 708.275 714.394 708.64C711.718 708.26 709.238 707.058 707.318 705.209C695.188 692.711 683.564 680.704 670.928 667.716C662.098 659.763 652.726 652.395 642.877 645.662C637.728 642.756 632.413 640.138 626.956 637.82C603.656 627.121 578.187 621.595 552.406 621.647C537.139 620.184 521.725 621.43 506.918 625.322C497.095 627.578 487.529 630.78 478.362 634.879C464.919 641.877 452.579 650.707 441.719 661.1C432.057 670.37 424.183 681.242 418.47 693.201C412.418 703.981 408.713 715.849 407.583 728.073C406.453 740.297 407.922 752.615 411.899 764.266C412.894 769.229 414.159 774.137 415.69 778.969C420.238 787.546 425.798 795.633 431.105 803.474C443.428 819.767 458.978 833.513 476.846 843.908C483.429 847.649 490.369 850.767 497.568 853.22C498.593 853.698 499.716 853.946 500.853 853.946C501.991 853.946 503.114 853.698 504.139 853.22C512.225 849.544 519.807 845.378 527.641 841.457C532.038 839.896 536.269 837.926 540.276 835.576L598.905 793.182C604.465 789.016 609.519 783.625 615.079 779.46C616.894 777.923 619.084 776.861 621.441 776.375C623.798 775.889 626.244 775.994 628.547 776.682C630.85 777.369 632.934 778.615 634.602 780.302C636.269 781.989 637.465 784.06 638.076 786.321C639.448 789.83 639.724 793.653 638.87 797.314C638.016 800.974 636.07 804.31 633.274 806.905C624.707 815.701 615.502 823.89 605.728 831.41C590.06 842.683 573.381 852.975 556.955 863.267C546.089 869.883 534.464 876.01 523.345 882.381L519.301 884.341C510.962 888.017 502.622 891.938 494.03 895.369C489.913 897.013 485.692 898.404 481.395 899.534L467.496 903.455C457.387 906.396 447.279 909.827 437.17 912.522C425.029 915.986 412.715 918.849 400.274 921.099C384.407 923.821 368.363 925.459 352.259 926C326.988 926 300.201 926 274.171 926C242.865 923.88 211.869 918.624 181.679 910.317C164.283 905.61 147.366 899.376 131.137 891.693C116.985 885.567 102.328 879.93 88.4286 873.069C77.8611 867.64 67.6491 861.584 57.8505 854.935C50.1398 850.294 42.7143 845.221 35.6119 839.742C22.4709 829.94 10.3408 819.648 -2.80022 809.601C-4.1064 808.496 -5.29193 807.265 -6.33817 805.925C-8.81778 804.122 -10.7207 801.675 -11.8269 798.867C-12.9331 796.06 -13.1975 793.006 -12.5896 790.059C-11.9818 787.111 -10.5265 784.391 -8.39171 782.212C-6.25697 780.033 -3.52997 778.484 -0.525818 777.744C2.31253 776.64 5.48079 776.64 8.31914 777.744C11.7318 779.326 14.883 781.39 17.6694 783.87C33.0848 795.878 48.2475 808.375 64.1683 819.158C73.7713 826.019 84.6379 831.41 94.7463 837.537L107.887 845.133C113.078 849.132 119.365 851.565 125.969 852.132C132.572 852.698 139.202 851.372 145.036 848.319C157.166 840.004 168.576 830.743 179.152 820.628C185.182 815.399 190.529 809.474 195.073 802.984C202.483 793.1 208.834 782.508 214.026 771.373C217.57 761.189 219.363 750.509 219.333 739.761C219.828 730.918 218.803 722.057 216.301 713.541C212.554 699.697 206.027 686.706 197.094 675.313C192.798 670.167 187.997 665.511 183.953 660.365C173.726 650.795 162.258 642.558 149.837 635.86C146.792 634.398 143.564 633.327 140.234 632.674C135.078 631.773 130.006 630.462 125.072 628.753C108.274 622.117 90.0266 619.673 72.0023 621.647C59.1567 622.367 46.4804 624.842 34.3484 628.998C19.7766 633.782 5.58661 639.598 -8.10713 646.397C-16.914 650.443 -24.9468 655.912 -31.862 662.57C-47.2773 676.538 -61.6819 690.996 -76.5919 705.454C-78.8663 707.659 -80.888 710.11 -83.1624 712.07C-85.4368 714.031 -92.0073 716.726 -96.0506 712.07C-98.6006 708.08 -101.385 704.234 -104.39 700.553C-105.681 699.449 -106.715 698.092 -107.423 696.571C-108.131 695.05 -108.497 693.4 -108.497 691.731C-108.497 690.062 -108.131 688.413 -107.423 686.892C-106.715 685.371 -105.681 684.013 -104.39 682.909C-85.8319 662.01 -65.0822 643.039 -42.4759 626.302C-40.1045 624.273 -37.3614 622.694 -34.3891 621.647C-26.8264 619.345 -20.1979 614.803 -15.4358 608.659C-11.1397 604.003 -12.1505 600.572 -17.9629 597.386C-23.7752 594.201 -30.093 589.79 -36.4108 586.849C-48.7936 580.968 -61.6819 575.577 -74.0648 570.186L-88.2167 564.305C-93.7763 562.344 -99.3359 559.649 -105.148 558.178C-118.795 554.748 -132.441 551.807 -146.087 548.866C-151.211 547.651 -156.487 547.156 -161.756 547.396C-165.292 548.031 -168.945 547.383 -172.02 545.575C-175.096 543.768 -177.379 540.927 -178.435 537.594C-180.483 531.436 -182.005 525.125 -182.983 518.725C-183.534 517.519 -183.727 516.188 -183.542 514.882C-183.356 513.575 -182.8 512.345 -181.934 511.327C-181.069 510.31 -179.929 509.546 -178.641 509.122C-177.353 508.697 -175.969 508.628 -174.644 508.923C-152.658 503.777 -130.672 498.386 -108.434 493.975C-98.399 492.377 -88.2704 491.395 -78.1082 491.034C-52.0365 487.937 -25.7794 486.545 0.485046 486.868C7.30826 486.868 14.3841 486.868 21.46 486.868C25.6397 487.162 29.7839 487.819 33.8429 488.829C37.6305 489.996 41.5224 490.816 45.4676 491.279C75.4234 491.678 105.182 496.047 133.917 504.267L176.372 516.52C189.592 520.123 202.449 524.88 214.784 530.733C219.333 532.938 224.64 536.614 229.441 532.448C234.243 528.282 232.979 521.421 231.21 515.539L218.322 473.146C216.806 468.49 214.784 463.589 212.763 458.933C210.756 455.755 209.304 452.277 208.466 448.64C203.309 426.549 191.937 406.276 175.614 390.073C165.261 376.106 154.037 362.767 142.003 350.13C137.216 345.177 131.677 340.963 125.577 337.632C123.968 336.855 122.194 336.451 120.397 336.451C118.599 336.451 116.825 336.855 115.216 337.632C107.382 342.778 100.306 349.15 92.9774 354.786C79.8954 365.822 66.0481 375.975 51.5327 385.172C39.1499 392.034 26.2616 399.63 13.3733 405.512C0.485016 411.393 -18.721 418.009 -34.8946 423.89C-44.2449 427.321 -54.606 428.301 -64.2091 431.242C-87.5231 438.24 -111.829 441.63 -136.232 441.289C-148.867 441.289 -161.503 441.289 -174.391 441.289C-187.279 441.289 -190.312 436.633 -189.554 425.361C-188.29 406.737 -184.247 405.021 -166.557 405.757C-146.084 406.813 -125.559 406.404 -105.148 404.531C-86.2708 401.442 -67.6164 397.186 -49.2991 391.789C-39.8993 390.297 -30.9377 386.871 -23.0171 381.742C-22.1783 381.109 -21.2395 380.613 -20.2373 380.271L15.395 365.078C17.3811 364.251 19.2496 363.181 20.9547 361.892L69.2225 327.585C74.2523 324.221 78.9101 320.361 83.1216 316.068C89.1867 309.942 87.6704 304.55 79.8364 300.385C65.9373 293.523 52.5435 285.682 38.6444 279.31C25.9217 273.279 12.7424 268.2 -0.778488 264.117C-16.3714 259.764 -32.2421 256.408 -48.2882 254.07C-60.1843 252.401 -72.1624 251.338 -84.1732 250.884H-98.8305V249.659ZM313.594 898.064L366.664 892.673L372.223 891.203C373.62 890.775 374.907 890.065 375.999 889.12C377.092 888.174 377.966 887.015 378.563 885.718C379.16 884.421 379.467 883.017 379.463 881.597C379.459 880.177 379.145 878.774 378.541 877.48C377.376 874.612 375.848 871.896 373.992 869.393C362.636 854.64 354.079 838.044 348.721 820.383C348.816 819.651 348.816 818.91 348.721 818.177C342.674 809.977 338.771 800.474 337.349 790.487C335.075 779.705 330.526 769.167 328.504 758.385C323.037 719.496 321.597 680.173 324.208 641.006C327.296 606.638 332.698 572.503 340.382 538.819C343.161 520.44 348.721 502.797 353.27 484.663C357.819 466.529 362.115 450.601 366.664 433.447C366.664 429.281 369.191 425.116 370.202 420.95C372.981 410.413 375.508 399.63 378.288 388.848L383.595 369.734C385.112 363.608 387.133 357.482 388.65 351.355C390.924 340.573 392.946 329.546 395.473 318.763C398 307.981 401.791 292.788 404.823 279.8C405.475 276.81 405.279 273.704 404.255 270.813C403.232 267.922 401.419 265.354 399.011 263.382C391.682 255.785 385.617 246.964 379.047 238.877C372.476 230.79 366.158 221.233 359.335 212.656C357.083 210.149 354.439 207.999 351.501 206.285C346.699 203.589 341.645 204.08 339.371 208.981C332.797 219.971 324.908 230.17 315.869 239.367C310.056 246.964 304.749 254.805 299.443 262.647C294.136 270.488 294.135 271.469 291.608 275.879C289.081 280.29 286.807 283.966 284.785 288.132C282.764 292.298 283.016 292.788 281.753 294.993L261.03 334.202C260.408 335.966 259.902 337.766 259.514 339.593C257.24 345.229 255.218 351.11 253.196 356.991C251.222 361.266 249.616 365.692 248.395 370.224C245.109 382.232 242.077 394.729 239.297 406.492C238.285 410.683 238.285 415.044 239.297 419.234C244.099 435.898 249.658 452.071 254.46 468.245C258.251 480.497 261.03 492.75 264.568 505.002C266.843 513.334 270.128 521.421 272.15 529.507C274.171 537.594 275.688 546.416 277.457 554.013C279.226 561.609 283.522 576.312 285.291 587.584C288.07 603.758 289.587 620.176 291.861 636.595C291.6 637.724 291.6 638.896 291.861 640.025C295.177 647.768 296.226 656.247 294.894 664.531C294.264 667.769 294.264 671.094 294.894 674.333C299.053 704.503 299.053 735.076 294.894 765.247C292.872 787.056 287.312 808.621 283.269 830.185C282.239 834.414 280.974 838.586 279.478 842.683C275.182 855.18 270.886 867.188 267.348 880.176C265.074 888.017 267.348 891.448 276.446 891.693C285.543 891.938 288.576 891.693 294.388 891.693C300.201 891.693 308.54 897.084 313.594 898.064ZM353.27 681.439H356.05C355.417 693.112 355.417 704.809 356.05 716.481C357.566 733.635 360.346 750.543 363.126 767.697C363.957 771.469 365.141 775.161 366.664 778.724C368.308 781.117 369.506 783.771 370.202 786.566C372.729 803.965 386.122 816.462 391.177 832.636C391.177 832.636 392.946 834.596 393.451 835.576L399.516 844.398C406.339 853.955 412.91 863.757 420.238 872.824C422.948 875.951 426.794 877.949 430.979 878.405C435.165 878.861 439.372 877.74 442.73 875.274C444.216 874.441 445.502 873.31 446.504 871.959C447.506 870.607 448.201 869.064 448.542 867.433C448.542 864.982 444.752 862.532 442.224 860.571C437.6 857.689 433.13 854.582 428.831 851.26C422.685 846.117 417.019 840.459 411.899 834.351C404.57 825.284 397.747 815.727 391.429 806.17C387.306 799.767 383.917 792.947 381.321 785.831C374.639 763.825 372.577 740.744 375.256 717.952C375.394 708.518 377.101 699.168 380.31 690.261C386.118 677.533 393.051 665.316 401.032 653.748C414.026 635.169 431.339 619.808 451.575 608.904C468.857 599.626 487.668 593.324 507.171 590.28C536.263 587.831 565.518 587.831 594.609 590.28C610.06 590.239 625.501 591.058 640.855 592.731C655.706 592.638 670.452 590.324 684.574 585.869C699.841 584.004 714.644 579.523 728.294 572.636C729.884 572.385 731.505 572.385 733.095 572.636C748.005 570.186 758.366 558.914 772.012 553.522C773.781 553.522 775.298 550.337 776.561 548.621C782.879 539.309 780.352 534.653 768.98 532.448C761.651 530.978 754.323 528.772 746.994 526.812L715.658 518.97C711.362 518.97 706.813 517.5 702.517 516.765C687.102 513.824 671.686 509.903 656.018 508.188C635.639 505.783 615.138 504.474 594.609 504.267C575.151 504.267 555.944 505.982 536.738 506.228C512.598 506.503 488.582 509.63 465.221 515.539C453.091 518.725 439.95 520.685 428.578 523.626C417.206 526.567 408.361 529.752 398 532.203C392.21 533.062 386.781 535.465 382.318 539.143C377.856 542.821 374.536 547.63 372.729 553.032C370.46 559.45 368.604 565.997 367.169 572.636C364.642 586.604 362.62 600.572 360.851 614.54L353.27 681.439ZM-12.9086 519.46H-46.0138C-50.013 519.573 -53.9913 520.065 -57.8913 520.931C-59.3071 521.101 -60.6696 521.561 -61.8892 522.279C-63.1087 522.997 -64.1577 523.957 -64.9672 525.096C-64.9672 526.812 -62.9455 529.997 -61.4292 532.203C-60.3668 533.723 -58.8753 534.914 -57.1331 535.634C-44.2448 542.495 -31.862 548.866 -18.2156 555.973C-4.56921 563.079 3.01218 568.225 13.6261 574.842C24.2399 581.458 27.2724 585.134 34.3484 590.035C36.6128 591.174 39.1263 591.768 41.677 591.768C44.2278 591.768 46.7411 591.174 49.0056 590.035C52.5788 588.728 56.3203 587.904 60.1249 587.584C73.4236 586.849 86.7546 586.849 100.053 587.584C117.49 589.545 134.675 593.466 151.859 596.406C153.72 597.02 155.501 597.843 157.166 598.857L172.329 606.453L186.228 614.785C199.98 624.121 212.097 635.538 222.113 648.602C233.5 661.09 241.415 676.187 245.11 692.466C245.11 698.348 250.417 703.984 250.417 709.865C251.417 730.985 250.402 752.149 247.384 773.088C244.514 790.811 237.323 807.613 226.409 822.098C215.667 837.994 201.427 851.384 184.712 861.307C177.383 865.227 177.636 871.354 184.712 874.784C191.36 877.879 198.196 880.579 205.181 882.871C215.29 886.057 225.398 882.871 227.925 876.255C234.243 858.856 239.803 841.457 245.615 824.059C248.142 816.707 250.669 809.111 252.944 801.269C254.062 797.839 254.824 794.309 255.218 790.732C254.946 786.243 254.946 781.743 255.218 777.254C258.272 764.242 259.462 750.883 258.756 737.556C258.756 726.038 258.756 714.766 258.756 703.494C258.756 687.32 256.482 671.147 255.218 654.483C255.466 651.057 255.466 647.618 255.218 644.191C251.933 626.548 248.9 608.904 245.11 591.505C244.015 587.204 241.314 583.449 237.528 580.968C228.611 575.91 219.416 571.329 209.983 567.245L199.116 561.119C196.781 559.702 194.33 558.473 191.787 557.443C182.943 554.258 173.845 551.317 164.747 548.621C151.101 544.701 137.202 541.76 124.061 537.104C110.544 532.761 96.5499 529.964 82.3634 528.772C75.5403 528.772 68.4643 526.812 61.6411 525.587L23.7344 519.46H-12.9086ZM579.699 467.019V468.49C591.324 468.49 602.696 468.49 614.068 468.49C617.859 468.49 623.166 466.529 624.429 463.834C625.693 461.138 621.649 456.972 618.364 454.522L616.09 453.297C608.101 448.263 600.422 442.781 593.093 436.878C578.688 424.38 565.042 410.903 551.143 397.67C545.455 392.644 540.135 387.24 535.222 381.497C525.366 369.244 516.521 356.991 506.918 343.759C506.188 342.645 505.18 341.729 503.987 341.094C502.795 340.459 501.456 340.126 500.095 340.126C498.734 340.126 497.396 340.459 496.203 341.094C495.01 341.729 494.002 342.645 493.272 343.759L485.438 351.845C466.737 370.469 448.037 388.848 429.841 407.472C424.63 413.166 419.977 419.319 415.942 425.851C408.867 437.858 401.538 450.356 395.473 462.363C392.113 470.21 389.819 478.448 388.65 486.868C388.65 492.505 391.935 495.69 397.494 494.465C403.054 493.24 414.679 490.544 422.766 488.339C430.852 486.133 443.993 482.703 454.607 480.742C465.221 478.782 474.319 477.557 484.174 475.841C494.03 474.126 504.391 471.185 514.5 470.45C536.486 468.49 558.219 468 579.699 467.019Z" fill="#F7971D" fill-opacity="0.3"/>
</svg>
