<svg width="113" height="116" viewBox="0 0 113 116" fill="none" xmlns="http://www.w3.org/2000/svg">
<path d="M10.1808 36.9361L5.13896 37.4518C4.57246 37.4518 4.06261 37.4518 3.72271 36.9934C3.38281 36.5351 3.72271 35.9908 3.92099 35.5038C4.16008 35.01 4.44458 34.5401 4.77074 34.1002C5.09588 33.6855 5.54182 33.3848 6.04536 33.2408C7.29166 33.0689 8.50963 33.2408 9.75593 33.0689C12.131 32.9952 14.5046 33.2555 16.8089 33.8423C17.5453 34.0429 18.3384 34.0429 19.0749 34.2147L22.2189 35.0455C22.6679 35.1993 23.1342 35.2956 23.6069 35.3319C23.7557 35.3437 23.9054 35.3255 24.0473 35.2785C24.1892 35.2315 24.3206 35.1566 24.4338 35.0581C24.5469 34.9596 24.6398 34.8395 24.7069 34.7046C24.774 34.5697 24.8141 34.4227 24.8248 34.272C25.278 31.5315 25.278 28.7338 24.8248 25.9932C24.5382 24.0442 24.0736 22.1263 23.4369 20.264C22.9536 18.5322 22.1669 16.9021 21.1143 15.4514C20.5906 14.7738 20.1705 14.0207 19.8679 13.217C19.7667 13.0308 19.7427 12.8116 19.8011 12.6075C19.8595 12.4034 19.9956 12.2311 20.1795 12.1284L21.7374 10.9826C22.5022 10.4383 23.1253 10.6102 23.6069 11.4696C24.3716 12.8732 25.1931 14.3342 25.9862 15.6233C26.1164 15.883 26.23 16.1509 26.3261 16.4254C26.6943 17.5426 27.1475 18.6598 27.4307 19.8343C27.8839 21.6676 28.2521 23.5583 28.6204 25.5635C28.6204 25.9932 28.6204 26.4229 28.847 26.8526C29.2573 28.4397 29.2573 30.1068 28.847 31.6939C28.677 32.3527 28.677 33.0689 28.5637 33.7564C28.4628 34.4235 28.3209 35.0837 28.1389 35.733C28.0251 36.0241 28.0049 36.3441 28.0812 36.6475C28.1574 36.9509 28.3263 37.2223 28.5637 37.4231C29.3002 37.9961 30.0933 38.4544 30.858 38.97C31.6228 39.4857 32.6425 40.0299 33.4923 40.6315C34.342 41.2331 34.9085 41.6914 35.5883 42.2357C36.2681 42.78 37.2878 43.6967 38.1659 44.3842C38.4208 44.5847 38.8457 44.5561 39.1856 44.642C39.3323 44.2689 39.3999 43.8687 39.3839 43.4675C39.3839 42.9805 38.9023 42.5222 38.7607 42.0352C38.1942 40.0872 37.656 38.1106 37.1462 36.134C36.9762 35.5038 36.9479 34.8736 36.8063 34.2147C36.6627 33.1924 36.4641 32.1787 36.2115 31.1782C35.6195 28.4113 35.2126 25.6071 34.9935 22.7849C34.5781 19.374 34.4455 15.934 34.597 12.5008C34.597 11.2977 34.8519 10.0945 34.9652 8.86274C35.0785 7.63095 35.1634 6.85749 35.2484 5.99811C35.2229 5.36169 35.4366 4.73911 35.8465 4.25551C36.2563 3.77191 36.832 3.46315 37.4578 3.39129C37.8002 3.31562 38.1329 3.20027 38.4492 3.04754C39.129 3.04754 39.5255 3.04753 39.6105 3.84963C39.6812 4.13163 39.6812 4.42702 39.6105 4.70902C38.6861 8.53053 38.314 12.4673 38.5058 16.3967C38.5058 17.3707 38.5058 18.316 38.5058 19.2614C38.5058 19.6051 38.7891 19.9489 38.9307 20.2926C39.2638 20.1767 39.5787 20.0127 39.8654 19.8056C41.2048 18.2534 42.3206 16.5174 43.1794 14.6493L45.3888 10.5815C45.4718 10.4368 45.5384 10.2831 45.587 10.1232L46.8617 7.08667C46.8617 6.91479 47.0316 6.74291 47.0883 6.57103C47.6264 4.82361 48.1646 3.10483 48.7311 1.3574C48.7808 0.969817 48.9764 0.616527 49.2771 0.371079C49.5778 0.125631 49.9606 0.00692385 50.3456 0.0396636H51.7902C52.6683 0.0396636 53.0932 0.555296 52.8382 1.41469C52.1018 3.67775 51.3087 5.91217 50.5723 8.14658C50.0431 9.93586 49.3508 11.6716 48.5045 13.3316C48.3721 13.6423 48.2109 13.9396 48.023 14.2196C47.8461 14.4666 47.6853 14.725 47.5415 14.9931C46.7712 16.8925 45.7311 18.6682 44.454 20.264C43.0944 22.126 41.6215 23.988 40.3186 25.9932C39.9916 26.4616 39.8227 27.0242 39.8371 27.5974C39.9076 28.8601 40.0781 30.115 40.3469 31.3501C40.7151 33.2694 41.1967 35.1314 41.6782 37.0794C42.0222 38.7007 42.4669 40.2985 43.0095 41.8633C43.6278 43.3908 44.0652 44.9871 44.3124 46.6186C44.345 46.7891 44.4154 46.95 44.5185 47.0889C44.6215 47.2279 44.7545 47.3413 44.9072 47.4207C45.0772 47.4207 45.5304 47.2202 45.7003 46.9624C46.2074 46.1184 46.6707 45.2483 47.0883 44.3555C47.4282 43.6967 47.6831 43.0378 47.9947 42.4076C48.091 42.1886 48.2046 41.9778 48.3346 41.7774C49.0144 40.3737 49.5809 38.9127 50.374 37.595C51.8401 35.0748 53.558 32.7135 55.5008 30.548C56.2939 29.66 57.0587 28.7433 57.7668 27.6834C57.8578 27.5461 57.9199 27.3913 57.9491 27.2286C57.9784 27.066 57.9741 26.899 57.9367 26.738C57.5402 25.3344 57.002 23.8734 56.6055 22.5557C56.2089 21.2379 56.1523 20.264 55.9257 19.1181C55.9257 18.8317 55.9257 18.5452 55.784 18.2587C55.1233 15.8543 54.8273 13.3623 54.906 10.868C54.906 9.1492 54.906 7.45907 54.906 5.74029C54.8626 5.48433 54.8626 5.22279 54.906 4.96684C55.3132 3.87813 55.515 2.72185 55.5008 1.55793C55.5008 0.66989 55.8407 0.182897 56.6904 0.0969576C57.4499 -0.0323192 58.2253 -0.0323192 58.9848 0.0969576C59.5229 0.0969576 59.6362 0.641236 59.5513 1.21416C59.2789 2.74946 59.0898 4.29868 58.9848 5.85488C58.9848 8.23252 58.9848 10.6675 58.9848 13.0451C58.9789 15.2914 59.3623 17.5214 60.1178 19.6338C60.126 19.7482 60.126 19.8631 60.1178 19.9775C60.4595 21.8394 61.0603 23.6429 61.9022 25.3344C62.0817 25.7498 62.2899 26.1518 62.5254 26.5375C63.4458 28.4 64.5464 30.1656 65.8111 31.8084C66.0094 32.0663 66.0377 32.4673 66.236 32.6965C66.4592 33.01 66.7774 33.2413 67.1424 33.3553C67.3973 33.3553 67.7938 32.9543 67.9071 32.6678C68.3603 31.1782 68.7852 29.66 69.1251 28.1417C69.5783 25.9932 69.9749 23.8161 70.3997 21.639C71.1079 17.8863 71.7877 14.105 72.5241 10.1805C72.8357 8.51898 73.2322 6.8575 73.5721 5.19601C73.6004 4.73812 73.6004 4.27887 73.5721 3.82098C73.5594 3.65183 73.586 3.48202 73.6497 3.3251C73.7134 3.16818 73.8125 3.02849 73.9391 2.91718C74.0657 2.80587 74.2162 2.72602 74.3788 2.68399C74.5413 2.64197 74.7112 2.63893 74.8751 2.67513C75.3427 2.70253 75.7979 2.83818 76.2055 3.07161C76.6131 3.30504 76.9623 3.63003 77.2261 4.02151C77.474 4.49596 77.5728 5.03563 77.5093 5.56841C77.2544 7.08666 76.8578 8.57627 76.5463 10.0659C76.1497 11.9852 75.8098 13.8758 75.4416 15.7951C75.0734 17.7144 74.6768 19.9202 74.2803 21.9541C74.1103 22.8421 73.8554 23.6729 73.7704 24.5609C73.7704 24.9047 73.9687 25.2771 74.1103 25.6495C74.45 25.5536 74.7744 25.4089 75.0734 25.2198C76.8295 23.6729 78.6423 22.1833 80.2568 20.5218C81.8713 18.8603 82.8627 17.342 84.1374 15.7379C84.7888 14.9071 85.412 14.0477 86.0068 13.1883C86.6016 12.3289 86.63 12.0711 86.9982 11.5555C87.2437 11.1475 87.5387 10.7722 87.8763 10.4383C88.1193 10.2003 88.4443 10.0672 88.7827 10.0672C89.121 10.0672 89.446 10.2003 89.689 10.4383L90.029 10.6961C91.5019 12.0711 91.5018 12.3862 90.2555 13.9618C89.6214 14.7998 89.0441 15.6803 88.5277 16.5972C85.7287 21.0932 82.0808 24.9869 77.7926 28.0558C76.348 29.1443 74.7901 30.061 73.2889 30.9204C72.8955 31.212 72.5682 31.5852 72.3289 32.015C72.0895 32.4448 71.9436 32.9213 71.901 33.4126C71.731 34.3007 71.4478 35.1887 71.2212 36.0768C70.9946 36.9648 70.8529 37.8815 70.6547 38.7982C70.1731 40.8034 69.6916 42.8086 69.2384 44.8139C69.0697 45.6166 68.9561 46.4302 68.8985 47.2488C68.8827 47.4091 68.9054 47.571 68.9645 47.7205C69.0237 47.8701 69.1176 48.0031 69.2384 48.1082C69.4367 48.1082 69.8332 48.1082 70.1448 48.1082C70.4564 48.1082 70.4281 47.879 70.5697 47.7358C72.1559 46.2748 73.6854 44.8712 75.3566 43.3243C76.3197 42.5222 77.5376 42.0065 78.5573 41.2617C80.6168 39.9366 82.8472 38.9052 85.1854 38.1966C85.6075 38.1373 86.0018 37.9492 86.3155 37.6575C86.6293 37.3657 86.8477 36.9842 86.9415 36.5637C87.423 34.5298 87.8763 32.496 88.3578 30.4621C88.5277 29.6886 88.7827 28.9438 89.0093 28.1704C89.2359 27.3969 89.6324 26.0792 89.9723 25.0193C90.1706 24.475 90.4255 23.9594 90.6521 23.4437C91.3602 21.7536 92.0117 20.0348 92.7765 18.3447C93.252 17.3551 93.7914 16.3981 94.391 15.48C94.391 15.3082 95.0991 15.1649 95.2124 15.2795C95.9514 15.907 96.6167 16.6183 97.1952 17.3993C97.4218 17.7145 97.1952 18.3733 97.1952 18.8603C96.5154 20.0062 95.9489 21.238 95.354 22.4697C94.6214 24.1232 93.9784 25.8159 93.4279 27.5401C92.8898 29.0011 92.5499 30.548 92.1533 32.0376C91.9267 32.8397 91.7001 33.6132 91.5018 34.4153C91.4469 34.7375 91.4469 35.067 91.5018 35.3892C91.4899 35.5414 91.5169 35.6941 91.5803 35.8326C91.6436 35.9711 91.7412 36.0908 91.8637 36.18C91.9861 36.2693 92.1292 36.3251 92.2791 36.3421C92.4291 36.3592 92.5809 36.3368 92.7198 36.2773C94.5689 35.787 96.4997 35.6991 98.3848 36.0195C99.8013 36.1572 101.21 36.3676 102.605 36.6497C103.682 36.8788 104.73 37.2226 105.806 37.5377C106.429 37.7096 107.024 37.9388 107.647 38.082C108.473 38.2288 109.24 38.6117 109.857 39.1853C110.474 39.7589 110.917 40.4994 111.131 41.319C111.131 41.5768 111.358 41.8347 111.443 42.0925C111.591 42.5475 111.686 43.0186 111.726 43.4962C111.726 44.2982 111.188 44.5847 110.508 44.1264C108.807 43.0778 107.026 42.1677 105.183 41.405C104.7 41.2112 104.196 41.0766 103.682 41.0039C102.265 40.6888 100.849 40.431 99.4328 40.0872C97.3283 39.6716 95.1642 39.6716 93.0597 40.0872C91.8134 40.2878 90.5671 40.6888 89.3208 40.918C88.0632 41.0874 86.856 41.5269 85.7802 42.2071C85.6268 42.3059 85.4517 42.365 85.2704 42.3789C84.0091 42.6438 82.8376 43.2361 81.8713 44.0977C81.2482 44.5274 81.1916 44.9858 81.5881 45.5014C82.8344 47.0196 83.9674 48.6238 85.2987 50.0562C87.1681 52.0041 89.1225 53.8661 90.9637 55.7854C91.5153 56.2126 92.1953 56.435 92.8898 56.4156C95.3806 56.4112 97.8686 56.2486 100.339 55.9287C102.289 55.5467 104.19 54.9412 106.004 54.1239C107.368 53.4575 108.692 52.7114 109.97 51.8895C110.611 51.5247 111.273 51.1995 111.952 50.9155C112.377 50.7437 112.859 50.7723 112.916 51.288C113.028 52.1723 113.028 53.0677 112.916 53.9521C112.815 54.4478 112.586 54.9077 112.253 55.2851C111.92 55.6625 111.494 55.9438 111.018 56.1005C110.395 56.3583 109.856 56.7308 109.262 57.0459L108.497 57.3896L105.664 58.6501C105.191 58.8044 104.708 58.9288 104.22 59.0225C102.888 59.3662 101.557 59.6813 100.226 60.0537C99.976 60.1011 99.7508 60.2363 99.59 60.4356C99.4293 60.6348 99.3435 60.8852 99.3479 61.1423C99.3479 61.7439 99.9144 61.8298 100.368 62.0017C100.821 62.1736 101.897 62.7465 102.662 63.0902L103.993 63.5772L105.948 64.2647C107.449 64.7517 108.95 65.2387 110.508 65.6111C110.771 65.6508 111.023 65.7459 111.247 65.8902C111.471 66.0346 111.663 66.2251 111.81 66.4493C111.957 66.6734 112.056 66.9263 112.1 67.1915C112.144 67.4567 112.132 67.7284 112.066 67.9888C112.066 68.4757 111.924 68.9627 111.811 69.4211C111.698 69.8794 111.414 70.9966 111.216 71.7701C111.018 72.5435 110.735 73.3456 110.48 74.1191C110.48 74.4055 110.48 74.7779 110.14 74.9498C109.29 75.6373 108.384 76.2389 107.505 76.8691C107.505 76.8691 107.166 76.8691 107.024 77.0124C104.973 78.0539 102.83 78.8979 100.622 79.5332C100.08 79.7026 99.5184 79.7989 98.9513 79.8197C98.6216 79.7888 98.2897 79.7888 97.9599 79.8197C97.617 79.9482 97.3274 80.1906 97.1385 80.5072C97.1385 80.5072 97.4218 81.0228 97.6484 81.252C99.0363 82.627 100.481 83.9734 101.812 85.3771C102.433 85.9651 102.967 86.6404 103.398 87.3823C103.505 87.7316 103.534 88.1002 103.483 88.4621C103.433 88.8239 103.305 89.1702 103.108 89.4764C102.91 89.7825 102.649 90.041 102.342 90.2336C102.035 90.4262 101.689 90.5481 101.331 90.5907C101.031 90.5463 100.753 90.4058 100.538 90.1897C99.1779 88.7287 97.875 87.325 96.4587 85.8068C95.469 84.8771 94.4186 84.0158 93.3146 83.2286C92.7376 82.8889 92.1418 82.5829 91.5302 82.3119C88.9185 81.0612 86.0639 80.4153 83.1743 80.4213C81.4631 80.2503 79.7354 80.3959 78.0758 80.851C76.9748 81.1147 75.9025 81.4889 74.8751 81.9682C73.3683 82.7862 71.9852 83.8184 70.768 85.0333C69.685 86.1171 68.8025 87.388 68.1621 88.786C67.4838 90.0461 67.0685 91.4335 66.9419 92.8625C66.8152 94.2914 66.9798 95.7314 67.4256 97.0934C67.5371 97.6735 67.6789 98.2473 67.8505 98.8122C68.3603 99.8148 68.9835 100.76 69.5783 101.677C70.9595 103.581 72.7024 105.188 74.7051 106.403C75.4431 106.841 76.2208 107.205 77.0278 107.492C77.1427 107.548 77.2685 107.577 77.396 107.577C77.5235 107.577 77.6493 107.548 77.7642 107.492C78.6706 107.062 79.5204 106.575 80.3985 106.117C80.8913 105.934 81.3656 105.704 81.8147 105.43L88.3861 100.474C89.0093 99.9867 89.5758 99.3565 90.1989 98.8695C90.4024 98.6899 90.6478 98.5658 90.912 98.5089C91.1762 98.4521 91.4504 98.4644 91.7085 98.5448C91.9667 98.6251 92.2002 98.7708 92.3871 98.968C92.574 99.1652 92.7081 99.4074 92.7765 99.6716C92.9303 100.082 92.9612 100.529 92.8655 100.957C92.7698 101.385 92.5517 101.775 92.2383 102.078C91.2781 103.106 90.2463 104.063 89.1509 104.943C87.3947 106.26 85.5253 107.463 83.6841 108.667C82.4662 109.44 81.1632 110.156 79.9169 110.901L79.4637 111.13C78.529 111.56 77.5943 112.018 76.6312 112.419C76.1697 112.611 75.6967 112.774 75.215 112.906L73.6571 113.365C72.5241 113.708 71.3911 114.109 70.2581 114.424C68.8973 114.829 67.5171 115.164 66.1227 115.427C64.3442 115.745 62.5459 115.937 60.7409 116C57.9084 116 54.906 116 51.9885 116C48.4796 115.752 45.0054 115.138 41.6215 114.167C39.6718 113.616 37.7756 112.888 35.9565 111.99C34.3703 111.273 32.7275 110.615 31.1696 109.812C29.9852 109.178 28.8406 108.47 27.7423 107.693C26.878 107.15 26.0458 106.557 25.2497 105.917C23.7768 104.771 22.4172 103.567 20.9443 102.393C20.7979 102.264 20.665 102.12 20.5478 101.963C20.2698 101.752 20.0565 101.466 19.9326 101.138C19.8086 100.81 19.7789 100.453 19.8471 100.109C19.9152 99.764 20.0783 99.446 20.3176 99.1913C20.5569 98.9365 20.8625 98.7555 21.1992 98.669C21.5174 98.5399 21.8725 98.5399 22.1906 98.669C22.5731 98.8539 22.9263 99.0952 23.2386 99.3851C24.9665 100.789 26.666 102.25 28.4504 103.51C29.5268 104.312 30.7447 104.943 31.8777 105.659L33.3507 106.547C33.9324 107.014 34.6371 107.299 35.3773 107.365C36.1174 107.431 36.8605 107.276 37.5144 106.919C38.874 105.947 40.1529 104.865 41.3383 103.682C42.0142 103.071 42.6134 102.378 43.1228 101.62C43.9533 100.464 44.6651 99.2258 45.2471 97.9242C45.6444 96.7337 45.8454 95.4852 45.842 94.2288C45.8974 93.1951 45.7826 92.1592 45.5021 91.1636C45.0821 89.5453 44.3506 88.0267 43.3494 86.6948C42.8678 86.0932 42.3297 85.549 41.8765 84.9474C40.7302 83.8287 39.4447 82.8658 38.0526 82.0828C37.7113 81.9119 37.3495 81.7868 36.9762 81.7104C36.3982 81.6051 35.8298 81.4518 35.2767 81.252C33.3939 80.4762 31.3487 80.1906 29.3285 80.4213C27.8887 80.5054 26.4679 80.7948 25.1081 81.2807C23.4748 81.8399 21.8843 82.5197 20.3495 83.3146C19.3624 83.7875 18.462 84.4268 17.6869 85.2052C15.9591 86.838 14.3446 88.5282 12.6734 90.2183C12.4185 90.4761 12.1919 90.7626 11.937 90.9918C11.682 91.2209 10.9456 91.536 10.4924 90.9918C10.2066 90.5252 9.89448 90.0757 9.55765 89.6454C9.41298 89.5163 9.29712 89.3577 9.21776 89.1798C9.13839 89.002 9.09735 88.8092 9.09735 88.6141C9.09735 88.419 9.13839 88.2262 9.21776 88.0484C9.29712 87.8706 9.41298 87.7119 9.55765 87.5828C11.6377 85.1397 13.9635 82.922 16.4973 80.9655C16.7631 80.7284 17.0705 80.5437 17.4037 80.4213C18.2513 80.1523 18.9943 79.6213 19.5281 78.903C20.0096 78.3587 19.8963 77.9577 19.2448 77.5853C18.5933 77.2129 17.8852 76.6972 17.1771 76.3535C15.7892 75.666 14.3446 75.0358 12.9567 74.4055L11.3705 73.718C10.7473 73.4889 10.1242 73.1737 9.47268 73.0019C7.94313 72.6008 6.41359 72.2571 4.88404 71.9133C4.30981 71.7713 3.71838 71.7134 3.12788 71.7414C2.73155 71.8156 2.32208 71.7399 1.97737 71.5286C1.63267 71.3173 1.37679 70.9852 1.25843 70.5956C1.02879 69.8757 0.858257 69.138 0.748582 68.3898C0.686908 68.2488 0.665247 68.0933 0.68601 67.9405C0.706773 67.7878 0.769146 67.6439 0.866153 67.525C0.963159 67.4061 1.09097 67.3168 1.23529 67.2672C1.3796 67.2176 1.53473 67.2095 1.68331 67.244C4.14759 66.6424 6.61186 66.0122 9.10445 65.4965C10.2292 65.3097 11.3644 65.1949 12.5035 65.1528C15.4257 64.7907 18.3687 64.628 21.3125 64.6658C22.0773 64.6658 22.8704 64.6658 23.6635 64.6658C24.132 64.7002 24.5965 64.7769 25.0514 64.895C25.476 65.0314 25.9122 65.1273 26.3544 65.1814C29.7119 65.228 33.0474 65.7388 36.2681 66.6997L41.0267 68.132C42.5085 68.5532 43.9495 69.1093 45.3321 69.7935C45.842 70.0513 46.4368 70.481 46.975 69.994C47.5131 69.507 47.3715 68.7049 47.1732 68.0174L45.7287 63.0616C45.5587 62.5173 45.3321 61.9444 45.1055 61.4001C44.8806 61.0286 44.7179 60.6221 44.624 60.197C44.0459 57.6144 42.7713 55.2445 40.9417 53.3505C39.7814 51.7178 38.5233 50.1584 37.1745 48.6811C36.6379 48.1022 36.0171 47.6095 35.3334 47.2202C35.153 47.1293 34.9543 47.0821 34.7527 47.0821C34.5512 47.0821 34.3525 47.1293 34.1721 47.2202C33.294 47.8217 32.5009 48.5665 31.6795 49.2254C30.2132 50.5155 28.6611 51.7023 27.0342 52.7776C25.6463 53.5797 24.2017 54.4677 22.7571 55.1552C21.3125 55.8427 19.1598 56.6162 17.347 57.3037C16.299 57.7047 15.1377 57.8193 14.0613 58.1631C11.4482 58.9811 8.72389 59.3775 5.98871 59.3376C4.57246 59.3376 3.15621 59.3376 1.71163 59.3376C0.267058 59.3376 -0.0728379 58.7933 0.0121371 57.4756C0.153762 55.2984 0.606961 55.0979 2.58971 55.1838C4.88439 55.3074 7.18497 55.2595 9.47268 55.0406C11.5886 54.6795 13.6794 54.182 15.7325 53.551C16.7861 53.3767 17.7905 52.9762 18.6783 52.3765C18.7723 52.3026 18.8775 52.2446 18.9899 52.2046L22.9837 50.4286C23.2063 50.3319 23.4157 50.2067 23.6069 50.0562L29.0169 46.0457C29.5807 45.6523 30.1028 45.2012 30.5748 44.6993C31.2546 43.9831 31.0846 43.3529 30.2066 42.8659C28.6487 42.0638 27.1475 41.1471 25.5896 40.4023C24.1636 39.6974 22.6864 39.1036 21.1709 38.6263C19.4232 38.1174 17.6443 37.7251 15.8458 37.4518C14.5124 37.2567 13.1699 37.1324 11.8237 37.0794H10.1808V36.9361ZM56.4072 112.734L62.3554 112.104L62.9786 111.932C63.1351 111.882 63.2793 111.799 63.4018 111.689C63.5243 111.578 63.6222 111.443 63.6892 111.291C63.7561 111.139 63.7905 110.975 63.79 110.809C63.7896 110.643 63.7544 110.479 63.6867 110.328C63.5561 109.993 63.3848 109.675 63.1769 109.383C61.904 107.658 60.9449 105.718 60.3444 103.653C60.355 103.568 60.355 103.481 60.3444 103.396C59.6665 102.437 59.2291 101.326 59.0697 100.159C58.8148 98.8981 58.305 97.6664 58.0784 96.4059C57.4655 91.8598 57.3042 87.263 57.5968 82.6843C57.9429 78.6668 58.5485 74.6764 59.4096 70.7388C59.7212 68.5903 60.3444 66.5278 60.8542 64.408C61.3641 62.2881 61.8456 60.4261 62.3554 58.4209C62.3554 57.9339 62.6387 57.4469 62.752 56.9599C63.0636 55.7281 63.3468 54.4677 63.6584 53.2073L64.2532 50.9728C64.4231 50.2567 64.6498 49.5405 64.8197 48.8244C65.0746 47.5639 65.3012 46.2748 65.5845 45.0144C65.8677 43.754 66.2926 41.9779 66.6325 40.4596C66.7056 40.11 66.6836 39.7469 66.5689 39.409C66.4542 39.071 66.251 38.7708 65.981 38.5403C65.1596 37.6523 64.4798 36.621 63.7434 35.6757C63.0069 34.7304 62.2988 33.6132 61.534 32.6105C61.2815 32.3175 60.9853 32.0661 60.6559 31.8657C60.1178 31.5506 59.5513 31.6079 59.2963 32.1808C58.5595 33.4656 57.6753 34.6579 56.6621 35.733C56.0107 36.621 55.4158 37.5377 54.821 38.4544C54.2262 39.3711 54.2262 39.4857 53.9429 40.0013C53.6597 40.5169 53.4047 40.9466 53.1781 41.4336C52.9515 41.9206 52.9799 41.9779 52.8382 42.2357L50.5156 46.8191C50.4458 47.0254 50.3891 47.2359 50.3456 47.4493C50.0907 48.1082 49.8641 48.7957 49.6375 49.4832C49.4162 49.9829 49.2362 50.5004 49.0993 51.0301C48.7311 52.4338 48.3912 53.8948 48.0796 55.2698C47.9662 55.7597 47.9662 56.2695 48.0796 56.7594C48.6178 58.7074 49.241 60.598 49.7792 62.4887C50.204 63.921 50.5156 65.3533 50.9121 66.7856C51.1671 67.7596 51.5353 68.7049 51.7619 69.6502C51.9885 70.5956 52.1584 71.6268 52.3567 72.5149C52.555 73.4029 53.0365 75.1217 53.2348 76.4394C53.5464 78.3301 53.7163 80.2494 53.9712 82.1687C53.942 82.3007 53.942 82.4377 53.9712 82.5697C54.3429 83.4748 54.4605 84.466 54.3111 85.4344C54.2406 85.813 54.2406 86.2016 54.3111 86.5802C54.7773 90.1071 54.7773 93.6811 54.3111 97.208C54.0845 99.7575 53.4614 102.278 53.0082 104.799C52.8928 105.294 52.7509 105.781 52.5833 106.26C52.1018 107.721 51.6203 109.125 51.2237 110.643C50.9688 111.56 51.2237 111.961 52.2434 111.99C53.2631 112.018 53.603 111.99 54.2545 111.99C54.906 111.99 55.8407 112.62 56.4072 112.734ZM60.8542 87.411H61.1658C61.0949 88.7755 61.0949 90.1429 61.1658 91.5074C61.3357 93.5126 61.6473 95.4892 61.9589 97.4945C62.0521 97.9355 62.1848 98.367 62.3554 98.7836C62.5398 99.0632 62.674 99.3735 62.752 99.7003C63.0352 101.734 64.5365 103.195 65.103 105.086C65.103 105.086 65.3012 105.315 65.3579 105.43L66.0377 106.461C66.8025 107.578 67.5389 108.724 68.3603 109.784C68.6641 110.149 69.0951 110.383 69.5642 110.436C70.0334 110.489 70.5049 110.358 70.8813 110.07C71.0478 109.973 71.192 109.841 71.3043 109.683C71.4166 109.525 71.4945 109.344 71.5327 109.154C71.5327 108.867 71.1079 108.581 70.8246 108.351C70.3063 108.015 69.8052 107.651 69.3234 107.263C68.6345 106.662 67.9995 106 67.4256 105.286C66.6042 104.226 65.8394 103.109 65.1313 101.992C64.6692 101.243 64.2892 100.446 63.9983 99.6143C63.2493 97.0419 63.0182 94.3437 63.3185 91.6793C63.334 90.5765 63.5253 89.4834 63.885 88.4422C64.5359 86.9544 65.3131 85.5262 66.2076 84.1739C67.6641 82.002 69.6045 80.2064 71.8726 78.9317C73.8097 77.847 75.9181 77.1104 78.1041 76.7545C81.3648 76.4682 84.6439 76.4682 87.9046 76.7545C89.6364 76.7498 91.367 76.8454 93.088 77.041C94.7525 77.0302 96.4054 76.7597 97.9883 76.2389C99.6994 76.0209 101.359 75.4971 102.888 74.692C103.067 74.6626 103.248 74.6626 103.427 74.692C105.098 74.4055 106.259 73.0878 107.789 72.4576C107.987 72.4576 108.157 72.0852 108.299 71.8847C109.007 70.7961 108.723 70.2518 107.449 69.994C106.627 69.8221 105.806 69.5643 104.985 69.3351L101.472 68.4185C100.991 68.4185 100.481 68.2466 99.9993 68.1606C98.2715 67.8169 96.5437 67.3585 94.7876 67.158C92.5034 66.8768 90.2055 66.7238 87.9046 66.6997C85.7236 66.6997 83.5709 66.9002 81.4182 66.9288C78.7124 66.9611 76.0205 67.3266 73.4022 68.0174C72.0426 68.3898 70.5697 68.619 69.2951 68.9627C68.0204 69.3065 67.0291 69.6789 65.8677 69.9653C65.2188 70.0658 64.6103 70.3466 64.1101 70.7766C63.6099 71.2066 63.2378 71.7688 63.0352 72.4003C62.781 73.1505 62.5729 73.9158 62.4121 74.692C62.1288 76.3248 61.9022 77.9577 61.704 79.5905L60.8542 87.411ZM19.8113 68.4757H16.1007C15.6525 68.4889 15.2066 68.5464 14.7695 68.6476C14.6108 68.6676 14.458 68.7213 14.3214 68.8052C14.1847 68.8892 14.0671 69.0014 13.9764 69.1346C13.9764 69.3351 14.203 69.7075 14.3729 69.9653C14.492 70.143 14.6592 70.2823 14.8544 70.3664C16.299 71.1685 17.6869 71.9133 19.2165 72.744C20.746 73.5748 21.5958 74.1764 22.7854 74.9498C23.9751 75.7233 24.315 76.153 25.1081 76.7259C25.3619 76.859 25.6436 76.9285 25.9295 76.9285C26.2154 76.9285 26.4971 76.859 26.7509 76.7259C27.1514 76.5731 27.5708 76.4767 27.9972 76.4394C29.4878 76.3535 30.982 76.3535 32.4726 76.4394C34.427 76.6686 36.3531 77.1269 38.2792 77.4707C38.4878 77.5425 38.6874 77.6386 38.874 77.7572L40.5735 78.6452L42.1314 79.6192C43.6729 80.7105 45.0309 82.0452 46.1535 83.5724C47.4299 85.0321 48.317 86.797 48.7311 88.7001C48.7311 89.3876 49.3259 90.0464 49.3259 90.7339C49.4381 93.2029 49.3243 95.677 48.986 98.1247C48.6643 100.196 47.8584 102.161 46.6351 103.854C45.4311 105.712 43.8349 107.277 41.9614 108.437C41.14 108.896 41.1683 109.612 41.9614 110.013C42.7066 110.375 43.4728 110.69 44.2558 110.958C45.3888 111.331 46.5218 110.958 46.805 110.185C47.5131 108.151 48.1363 106.117 48.7878 104.083C49.071 103.224 49.3543 102.336 49.6092 101.419C49.7346 101.018 49.82 100.605 49.8641 100.187C49.8336 99.6625 49.8336 99.1364 49.8641 98.6117C50.2064 97.0905 50.3398 95.529 50.2607 93.971C50.2607 92.6246 50.2607 91.3069 50.2607 89.9891C50.2607 88.0985 50.0057 86.2078 49.8641 84.2599C49.8919 83.8593 49.8919 83.4573 49.8641 83.0567C49.4959 80.9942 49.156 78.9317 48.7311 76.8978C48.6085 76.3949 48.3057 75.956 47.8814 75.666C46.8819 75.0747 45.8513 74.5391 44.7939 74.0618L43.576 73.3456C43.3142 73.18 43.0395 73.0363 42.7545 72.9159C41.7632 72.5435 40.7435 72.1998 39.7238 71.8847C38.1942 71.4263 36.6363 71.0826 35.1634 70.5383C33.6484 70.0305 32.0799 69.7037 30.4898 69.5643C29.725 69.5643 28.9319 69.3351 28.1672 69.1919L23.9184 68.4757H19.8113ZM86.2334 62.3454V62.5173C87.5363 62.5173 88.811 62.5173 90.0856 62.5173C90.5105 62.5173 91.1053 62.2881 91.2469 61.973C91.3885 61.6579 90.9353 61.1709 90.5671 60.8845L90.3122 60.7412C89.4168 60.1528 88.5561 59.512 87.7346 58.8219C86.1201 57.361 84.5906 55.7854 83.0327 54.2385C82.3951 53.651 81.7988 53.0193 81.2482 52.3479C80.1435 50.9155 79.1522 49.4832 78.0758 47.9363C77.9939 47.8062 77.881 47.699 77.7473 47.6248C77.6136 47.5506 77.4635 47.5117 77.311 47.5117C77.1585 47.5117 77.0085 47.5506 76.8748 47.6248C76.7411 47.699 76.6281 47.8062 76.5463 47.9363L75.6682 48.8817C73.5721 51.0588 71.4761 53.2072 69.4367 55.3844C68.8525 56.05 68.331 56.7693 67.8788 57.5328C67.0857 58.9365 66.2643 60.3975 65.5845 61.8012C65.2079 62.7185 64.9508 63.6814 64.8197 64.6658C64.8197 65.3246 65.1879 65.6971 65.8111 65.5538C66.4342 65.4106 67.7372 65.0955 68.6436 64.8377C69.55 64.5798 71.0229 64.1788 72.2125 63.9496C73.4022 63.7205 74.4219 63.5772 75.5266 63.3767C76.6312 63.1762 77.7925 62.8324 78.9255 62.7465C81.3898 62.5173 83.8258 62.46 86.2334 62.3454Z" fill="#F7971D"/>
</svg>
