<svg width="125" height="90" viewBox="0 0 125 90" fill="none" xmlns="http://www.w3.org/2000/svg">
<g clip-path="url(#clip0_136_1641)">
<path d="M16.414 78.5754L14.9232 82.1139L11.6087 90.0476H11.1012L8.24664 83.4626L5.48718 90.0476H4.96384L1.12598 81.2253L0.999114 81.0349C0.999114 80.8921 0.872243 80.7017 0.77709 80.4795C0.718766 80.3089 0.644421 80.1442 0.55506 79.9876L0 78.6548H1.58589L2.56914 80.8286L5.74093 88.2704C7.67571 83.653 8.42109 81.7648 8.42109 81.7648H9.08716L11.8783 88.2546L14.4475 82.1297C14.6061 81.7489 14.7329 81.3998 14.8281 81.1301L15.7796 78.6548L16.414 78.5754Z" fill="black"/>
<path d="M19.5538 80.1146C20.0558 79.5946 20.6606 79.185 21.3295 78.9118C21.9985 78.6386 22.717 78.5078 23.4393 78.5278C24.1659 78.5101 24.8885 78.6418 25.5623 78.9148C26.2361 79.1877 26.8467 79.5961 27.3564 80.1146C27.9253 80.6297 28.3747 81.263 28.6733 81.9702C28.9719 82.6773 29.1124 83.4412 29.085 84.2084C29.1241 84.9712 29.0032 85.7337 28.73 86.447C28.4569 87.1602 28.0376 87.8084 27.4991 88.3498C26.433 89.3738 25.0123 89.9456 23.5344 89.9456C22.0565 89.9456 20.6358 89.3738 19.5697 88.3498C19.0086 87.8184 18.565 87.1754 18.2673 86.4621C17.9695 85.7489 17.8244 84.9812 17.8411 84.2084C17.8106 83.4423 17.9482 82.6788 18.244 81.9716C18.5399 81.2644 18.987 80.6305 19.5538 80.1146ZM20.7591 88.2546C21.0734 88.699 21.4967 89.055 21.9883 89.2885C22.4799 89.5219 23.0233 89.6248 23.5661 89.5874C24.1012 89.6166 24.6349 89.5096 25.1174 89.2765C25.5999 89.0435 26.0156 88.6919 26.3256 88.2546C26.9104 87.014 27.2137 85.6594 27.2137 84.2877C27.2137 82.9161 26.9104 81.5614 26.3256 80.3209C25.9967 79.8663 25.558 79.5027 25.0504 79.264C24.5428 79.0254 23.983 78.9195 23.4234 78.9563C22.8991 78.924 22.3755 79.0301 21.9052 79.264C21.4348 79.498 21.0341 79.8515 20.7432 80.2891C20.0565 81.4983 19.6954 82.8652 19.6954 84.256C19.6954 85.6468 20.0565 87.0137 20.7432 88.2228L20.7591 88.2546Z" fill="black"/>
<path d="M33.7638 80.1146C34.2658 79.5946 34.8705 79.185 35.5395 78.9118C36.2084 78.6386 36.927 78.5078 37.6492 78.5278C38.3759 78.5101 39.0985 78.6418 39.7723 78.9148C40.446 79.1877 41.0567 79.5961 41.5664 80.1146C42.1352 80.6297 42.5847 81.263 42.8833 81.9702C43.1819 82.6773 43.3224 83.4412 43.295 84.2084C43.334 84.9712 43.2131 85.7337 42.94 86.447C42.6669 87.1602 42.2476 87.8084 41.7091 88.3498C40.6429 89.3738 39.2223 89.9456 37.7444 89.9456C36.2665 89.9456 34.8458 89.3738 33.7796 88.3498C33.2186 87.8184 32.7749 87.1754 32.4772 86.4621C32.1795 85.7489 32.0343 84.9812 32.051 84.2084C32.0206 83.4423 32.1581 82.6788 32.454 81.9716C32.7499 81.2644 33.197 80.6305 33.7638 80.1146ZM34.9691 88.2546C35.2834 88.699 35.7067 89.055 36.1983 89.2885C36.6899 89.5219 37.2332 89.6248 37.7761 89.5874C38.3111 89.6166 38.8448 89.5096 39.3274 89.2765C39.8099 89.0435 40.2256 88.6919 40.5355 88.2546C41.1204 87.014 41.4237 85.6594 41.4237 84.2877C41.4237 82.9161 41.1204 81.5614 40.5355 80.3209C40.2067 79.8663 39.7679 79.5027 39.2604 79.264C38.7528 79.0254 38.193 78.9195 37.6334 78.9563C37.1091 78.924 36.5855 79.0301 36.1151 79.264C35.6447 79.498 35.244 79.8515 34.9532 80.2891C34.2664 81.4983 33.9054 82.8652 33.9054 84.256C33.9054 85.6468 34.2664 87.0137 34.9532 88.2228L34.9691 88.2546Z" fill="black"/>
<path d="M46.403 78.5754H49.5748C50.9248 78.505 52.2711 78.7722 53.492 79.353C54.3866 79.8143 55.1175 80.5401 55.5854 81.4316C56.0656 82.3683 56.3054 83.4098 56.2831 84.4623C56.2924 85.2353 56.1635 86.0037 55.9025 86.7313C55.6857 87.3652 55.334 87.9444 54.8717 88.4291C54.4296 88.8943 53.8872 89.2525 53.2858 89.4764C52.7813 89.6971 52.2469 89.8415 51.6999 89.9048C50.9781 89.9784 50.2527 90.0102 49.5273 90H46.3555L46.403 78.5754ZM49.781 89.6826C50.6188 89.6898 51.4494 89.5279 52.2233 89.2066C52.9225 88.8815 53.4842 88.3195 53.8092 87.6199C54.2729 86.679 54.4963 85.6377 54.4594 84.5892C54.4729 83.7174 54.3443 82.8492 54.0788 82.0187C53.8713 81.336 53.5075 80.7112 53.0162 80.1939C52.5813 79.738 52.0345 79.4043 51.4303 79.226C50.726 79.0451 50.0006 78.9598 49.2735 78.9721C48.8453 78.9721 48.3696 78.9721 47.9889 78.9721V89.5716L49.781 89.6826Z" fill="black"/>
<path d="M71.2542 89.6192V90H63.3247V78.5754H64.9106V89.6826L71.2542 89.6192Z" fill="black"/>
<path d="M76.5671 89.6033H80.0719V90H73.4429V78.5754H80.1036V78.9563H75.0763V83.7165H78.375V84.2084H75.0763V89.6033H76.5671Z" fill="black"/>
<path d="M89.5232 85.1287H91.1091V86.9376C91.1107 87.274 91.0376 87.6065 90.895 87.9111C90.7524 88.2157 90.5438 88.4848 90.2845 88.6989C89.9509 89.0139 89.5712 89.2761 89.1585 89.4764C88.3404 89.8037 87.4702 89.9811 86.5893 90C85.8608 90.0244 85.1351 89.8986 84.4572 89.6303C83.7794 89.3621 83.164 88.9571 82.6493 88.4406C82.1346 87.9242 81.7316 87.3073 81.4655 86.6283C81.1993 85.9494 81.0756 85.2228 81.1022 84.494C81.0794 82.9781 81.6093 81.5059 82.5929 80.3526C83.0857 79.766 83.7067 79.3007 84.4079 78.9925C85.1091 78.6844 85.8718 78.5417 86.6369 78.5754C87.3194 78.5558 87.9977 78.688 88.623 78.9624C89.2483 79.2368 89.8049 79.6465 90.2528 80.1622L89.888 80.543C89.7342 80.3155 89.5531 80.1077 89.3488 79.9242C89.013 79.5978 88.6158 79.3414 88.1802 79.1698C87.7447 78.9982 87.2794 78.9148 86.8114 78.9245C86.3039 78.9201 85.8011 79.0206 85.3344 79.22C84.8677 79.4193 84.4472 79.7131 84.0995 80.0829C83.2003 81.2587 82.7911 82.7372 82.9576 84.2084C82.819 85.6847 83.2189 87.1614 84.0836 88.3656C84.4264 88.7586 84.8512 89.0717 85.3279 89.2828C85.8047 89.4938 86.3218 89.5978 86.8431 89.5874C87.3927 89.6072 87.9384 89.4871 88.429 89.2383C88.8233 89.0725 89.1482 88.7754 89.3488 88.3974C89.5277 88.0048 89.6093 87.5748 89.5867 87.1438L89.5232 85.1287Z" fill="black"/>
<path d="M97.0568 89.6033H100.562V90H93.9326V78.5754H100.593V78.9563H95.5661V83.7165H98.8647V84.2084H95.5661V89.6033H97.0568Z" fill="black"/>
<path d="M111.853 78.5754V90H111.552L103.623 79.4799V89.7144H103.258V78.6072H104.971L111.457 87.2867V78.5754H111.853Z" fill="black"/>
<path d="M115.152 78.5754H118.324C119.674 78.505 121.02 78.7722 122.241 79.353C123.136 79.8143 123.866 80.5401 124.334 81.4316C124.815 82.3683 125.054 83.4098 125.032 84.4623C125.041 85.2353 124.912 86.0037 124.652 86.7313C124.435 87.3652 124.083 87.9444 123.621 88.4291C123.179 88.8943 122.636 89.2525 122.035 89.4764C121.53 89.6971 120.996 89.8415 120.449 89.9048C119.727 89.9784 119.002 90.0102 118.276 90H115.104L115.152 78.5754ZM118.53 89.6826C119.358 89.7079 120.183 89.5676 120.956 89.2701C121.656 88.945 122.217 88.3829 122.542 87.6834C123.006 86.7424 123.229 85.7011 123.193 84.6527C123.206 83.7808 123.077 82.9126 122.812 82.0822C122.604 81.3995 122.241 80.7747 121.749 80.2574C121.314 79.8015 120.768 79.4678 120.163 79.2895C119.459 79.1086 118.734 79.0232 118.007 79.0356C117.578 79.0356 117.103 79.0356 116.722 79.0356V89.635L118.53 89.6826Z" fill="black"/>
<path d="M37.9506 20.4531L35.1278 20.7387C34.8106 20.7387 34.5251 20.7387 34.3348 20.4848C34.1445 20.231 34.3348 19.9295 34.4458 19.6597C34.5797 19.3862 34.739 19.1259 34.9216 18.8822C35.1036 18.6525 35.3533 18.486 35.6352 18.4062C36.333 18.311 37.015 18.4062 37.7127 18.311C39.0425 18.2702 40.3715 18.4144 41.6616 18.7394C42.074 18.8505 42.518 18.8505 42.9303 18.9457L44.6907 19.4059C44.942 19.4911 45.2031 19.5444 45.4678 19.5645C45.5511 19.571 45.6349 19.561 45.7144 19.5349C45.7938 19.5089 45.8674 19.4674 45.9307 19.4129C45.9941 19.3583 46.0461 19.2917 46.0837 19.217C46.1212 19.1423 46.1437 19.0609 46.1497 18.9774C46.4034 17.4594 46.4034 15.9098 46.1497 14.3918C45.9892 13.3122 45.7291 12.2498 45.3726 11.2183C45.102 10.259 44.6616 9.35612 44.0722 8.55254C43.779 8.17724 43.5438 7.76004 43.3744 7.31488C43.3177 7.21175 43.3043 7.09034 43.337 6.9773C43.3697 6.86425 43.4459 6.76881 43.5488 6.71192L44.4211 6.07722C44.8493 5.77574 45.1982 5.87095 45.4678 6.34697C45.896 7.12447 46.3559 7.93371 46.7999 8.64775C46.8728 8.79159 46.9364 8.93999 46.9902 9.09203C47.1964 9.71086 47.4501 10.3297 47.6087 10.9803C47.8625 11.9958 48.0686 13.043 48.2748 14.1537C48.2748 14.3917 48.2748 14.6298 48.4017 14.8678C48.6314 15.7469 48.6314 16.6703 48.4017 17.5494C48.3065 17.9143 48.3065 18.311 48.2431 18.6918C48.1866 19.0614 48.1071 19.427 48.0052 19.7867C47.9415 19.9479 47.9302 20.1252 47.9729 20.2932C48.0156 20.4613 48.1101 20.6116 48.2431 20.7229C48.6554 21.0402 49.0995 21.2941 49.5276 21.5797C49.9558 21.8653 50.5268 22.1668 51.0025 22.5C51.4783 22.8332 51.7955 23.0871 52.1761 23.3886C52.5567 23.6901 53.1276 24.1978 53.6192 24.5786C53.762 24.6897 53.9999 24.6738 54.1902 24.7214C54.2723 24.5148 54.3102 24.2931 54.3012 24.0709C54.3012 23.8011 54.0316 23.5472 53.9523 23.2775C53.6351 22.1985 53.3338 21.1037 53.0483 20.0088C52.9532 19.6597 52.9373 19.3106 52.858 18.9457C52.7776 18.3794 52.6664 17.8179 52.525 17.2638C52.1936 15.7311 51.9657 14.1779 51.8431 12.6146C51.6105 10.7253 51.5362 8.81987 51.621 6.9182C51.621 6.25177 51.7638 5.58533 51.8272 4.90303C51.8906 4.22074 51.9382 3.79231 51.9858 3.31629C51.9715 2.96378 52.0911 2.61892 52.3206 2.35105C52.5501 2.08319 52.8724 1.91216 53.2228 1.87236C53.4145 1.83044 53.6007 1.76655 53.7778 1.68195C54.1585 1.68195 54.3805 1.68195 54.4281 2.12624C54.4677 2.28244 54.4677 2.44606 54.4281 2.60226C53.9105 4.71902 53.7022 6.89964 53.8096 9.07617C53.8096 9.61566 53.8096 10.1393 53.8096 10.6629C53.8096 10.8533 53.9681 11.0437 54.0474 11.2341C54.234 11.1699 54.4102 11.0791 54.5708 10.9644C55.3207 10.1046 55.9454 9.14303 56.4263 8.10825L57.6633 5.85508C57.7098 5.77494 57.747 5.68976 57.7743 5.6012L58.4879 3.91926C58.4879 3.82405 58.5831 3.72885 58.6148 3.63364C58.9161 2.66573 59.2174 1.71368 59.5346 0.745772C59.5624 0.531086 59.6719 0.335396 59.8403 0.19944C60.0087 0.0634844 60.223 -0.00226834 60.4386 0.0158665H61.2474C61.739 0.0158665 61.9769 0.301479 61.8342 0.777502C61.4218 2.03103 60.9778 3.26869 60.5655 4.50635C60.2692 5.49745 59.8816 6.4589 59.4078 7.37835C59.3336 7.55047 59.2433 7.71516 59.1382 7.87024C59.0391 8.00706 58.9491 8.15017 58.8686 8.29866C58.4373 9.35078 57.8549 10.3343 57.1399 11.2183C56.3787 12.2496 55.554 13.281 54.8245 14.3918C54.6414 14.6512 54.5469 14.9628 54.5549 15.2803C54.5944 15.9797 54.6899 16.6748 54.8404 17.359C55.0466 18.4221 55.3162 19.4535 55.5858 20.5324C55.7784 21.4305 56.0273 22.3155 56.3311 23.1823C56.6773 24.0284 56.9222 24.9126 57.0606 25.8163C57.0789 25.9108 57.1183 25.9998 57.176 26.0768C57.2337 26.1538 57.3081 26.2166 57.3937 26.2606C57.4888 26.2606 57.7426 26.1495 57.8377 26.0067C58.1216 25.5392 58.381 25.0572 58.6148 24.5628C58.8051 24.1978 58.9478 23.8329 59.1223 23.4838C59.1762 23.3625 59.2399 23.2457 59.3126 23.1347C59.6932 22.3572 60.0104 21.548 60.4544 20.8181C61.2753 19.4221 62.2372 18.1141 63.3249 16.9147C63.769 16.4228 64.1972 15.915 64.5936 15.3279C64.6446 15.2519 64.6793 15.1661 64.6957 15.076C64.7121 14.9859 64.7097 14.8934 64.6888 14.8043C64.4668 14.0268 64.1654 13.2176 63.9434 12.4877C63.7214 11.7578 63.6897 11.2183 63.5628 10.5836C63.5628 10.4249 63.5628 10.2662 63.4835 10.1075C63.1136 8.77569 62.9478 7.39538 62.9919 6.01375C62.9919 5.06171 62.9919 4.12553 62.9919 3.17349C62.9676 3.03171 62.9676 2.88684 62.9919 2.74506C63.2199 2.14202 63.3328 1.50155 63.3249 0.856844C63.3249 0.364954 63.5152 0.0952043 63.991 0.047602C64.4162 -0.0240054 64.8504 -0.0240054 65.2756 0.047602C65.5769 0.047602 65.6403 0.349082 65.5927 0.66643C65.4402 1.51684 65.3344 2.37497 65.2756 3.23696C65.2756 4.55395 65.2756 5.90268 65.2756 7.21968C65.2723 8.46392 65.4869 9.69911 65.9099 10.8692C65.9145 10.9326 65.9145 10.9962 65.9099 11.0596C66.1012 12.0909 66.4376 13.0899 66.909 14.0268C67.0095 14.2569 67.1261 14.4796 67.2579 14.6932C67.7732 15.7248 68.3894 16.7028 69.0976 17.6128C69.2086 17.7556 69.2244 17.9778 69.3354 18.1047C69.4604 18.2784 69.6386 18.4065 69.8429 18.4697C69.9857 18.4697 70.2077 18.2475 70.2711 18.0889C70.5249 17.2638 70.7627 16.4228 70.953 15.5818C71.2068 14.3918 71.4288 13.1858 71.6667 11.9799C72.0632 9.90127 72.4438 7.80677 72.8561 5.63293C73.0306 4.71262 73.2526 3.79232 73.4429 2.87201C73.4587 2.61837 73.4587 2.364 73.4429 2.11037C73.4358 2.01667 73.4507 1.92261 73.4863 1.83569C73.522 1.74878 73.5775 1.6714 73.6484 1.60974C73.7192 1.54809 73.8035 1.50386 73.8945 1.48058C73.9855 1.4573 74.0807 1.45562 74.1724 1.47567C74.4342 1.49085 74.6891 1.56598 74.9173 1.69528C75.1455 1.82459 75.341 2.0046 75.4887 2.22144C75.6275 2.48424 75.6828 2.78317 75.6473 3.07828C75.5046 3.91925 75.2825 4.74436 75.1081 5.56946C74.8861 6.63258 74.6958 7.67983 74.4896 8.74295C74.2834 9.80606 74.0614 11.0279 73.8394 12.1544C73.7442 12.6463 73.6015 13.1065 73.5539 13.5984C73.5539 13.7888 73.6649 13.9951 73.7442 14.2013C73.9344 14.1483 74.116 14.0681 74.2834 13.9633C75.2667 13.1065 76.2816 12.2814 77.1856 11.3611C78.0896 10.4408 78.6446 9.59979 79.3583 8.71121C79.723 8.25106 80.0719 7.77503 80.405 7.29901C80.738 6.82299 80.7539 6.68018 80.96 6.39457C81.0975 6.1686 81.2626 5.96071 81.4517 5.77574C81.5877 5.6439 81.7697 5.57018 81.9591 5.57018C82.1486 5.57018 82.3305 5.6439 82.4666 5.77574L82.6569 5.91855C83.4816 6.68018 83.4816 6.85472 82.7838 7.72743C82.4287 8.1916 82.1055 8.67932 81.8164 9.18724C80.2493 11.6776 78.2068 13.8343 75.8059 15.5342C74.9971 16.1372 74.1248 16.6449 73.2843 17.1209C73.0641 17.2825 72.8808 17.4892 72.7468 17.7272C72.6128 17.9653 72.5311 18.2292 72.5072 18.5014C72.4121 18.9933 72.2535 19.4852 72.1266 19.9771C71.9997 20.469 71.9204 20.9767 71.8094 21.4845C71.5398 22.5952 71.2702 23.7059 71.0165 24.8166C70.922 25.2613 70.8584 25.7119 70.8262 26.1654C70.8173 26.2542 70.83 26.3438 70.8631 26.4267C70.8963 26.5095 70.9489 26.5832 71.0165 26.6414C71.1275 26.6414 71.3495 26.6414 71.524 26.6414C71.6984 26.6414 71.6826 26.5145 71.7619 26.4351C72.65 25.6259 73.5063 24.8484 74.442 23.9915C74.9812 23.5472 75.6631 23.2616 76.2341 22.8491C77.3871 22.1151 78.6359 21.5438 79.9451 21.1513C80.1814 21.1184 80.4021 21.0142 80.5778 20.8527C80.7535 20.6911 80.8758 20.4797 80.9283 20.2468C81.1979 19.1202 81.4516 17.9937 81.7212 16.8671C81.8164 16.4386 81.9591 16.0261 82.086 15.5977C82.2129 15.1693 82.4349 14.4394 82.6252 13.8523C82.7362 13.5508 82.879 13.2652 83.0058 12.9796C83.4023 12.0434 83.7671 11.0913 84.1952 10.1552C84.4615 9.607 84.7635 9.07695 85.0992 8.56841C85.0992 8.47321 85.4957 8.39386 85.5591 8.45733C85.9728 8.80492 86.3453 9.1989 86.6692 9.63152C86.7961 9.80607 86.6692 10.171 86.6692 10.4408C86.2886 11.0755 85.9714 11.7578 85.6384 12.4401C85.2282 13.3559 84.8682 14.2935 84.56 15.2486C84.2587 16.0578 84.0684 16.9147 83.8463 17.7398C83.7195 18.1841 83.5926 18.6125 83.4816 19.0568C83.4508 19.2353 83.4508 19.4177 83.4816 19.5963C83.4749 19.6805 83.49 19.7651 83.5255 19.8418C83.561 19.9186 83.6156 19.9848 83.6842 20.0343C83.7527 20.0837 83.8328 20.1146 83.9168 20.1241C84.0008 20.1335 84.0857 20.1211 84.1635 20.0882C85.1988 19.8166 86.2799 19.7679 87.3353 19.9453C88.1284 20.0217 88.917 20.1382 89.6983 20.2944C90.3009 20.4214 90.8877 20.6118 91.4903 20.7863C91.8392 20.8815 92.1723 21.0085 92.5212 21.0878C92.9835 21.1691 93.4128 21.3812 93.7585 21.6989C94.1042 22.0167 94.3517 22.4268 94.4718 22.8808C94.4718 23.0236 94.5987 23.1664 94.6463 23.3092C94.7295 23.5613 94.7827 23.8222 94.8049 24.0867C94.8049 24.531 94.5035 24.6897 94.1229 24.4358C93.1707 23.855 92.1737 23.3509 91.1414 22.9284C90.8711 22.8211 90.589 22.7465 90.3009 22.7063C89.508 22.5317 88.715 22.3889 87.9221 22.1985C86.7438 21.9683 85.5321 21.9683 84.3538 22.1985C83.656 22.3096 82.9583 22.5317 82.2605 22.6587C81.5563 22.7525 80.8804 22.996 80.2781 23.3727C80.1922 23.4275 80.0942 23.4602 79.9926 23.4679C79.2864 23.6146 78.6306 23.9427 78.0896 24.42C77.7407 24.658 77.7089 24.9118 77.931 25.1975C78.6288 26.0384 79.2631 26.927 80.0085 27.7204C81.0552 28.7994 82.1494 29.8307 83.1803 30.8939C83.4891 31.1305 83.8698 31.2537 84.2587 31.2429C85.6532 31.2405 87.0463 31.1504 88.4296 30.9732C89.5214 30.7616 90.5855 30.4262 91.6014 29.9736C92.3648 29.6044 93.1061 29.1912 93.8216 28.7359C94.1804 28.5338 94.5512 28.3537 94.9317 28.1964C95.1696 28.1012 95.4392 28.1171 95.4709 28.4027C95.534 28.8925 95.534 29.3885 95.4709 29.8783C95.4147 30.1529 95.2867 30.4077 95.1001 30.6167C94.9134 30.8258 94.6748 30.9816 94.4084 31.0684C94.0595 31.2112 93.7582 31.4175 93.4251 31.592L92.9969 31.7824L91.411 32.4806C91.146 32.5661 90.8759 32.635 90.6022 32.6869C89.8569 32.8773 89.1115 33.0518 88.3661 33.2581C88.2262 33.2843 88.1001 33.3593 88.0101 33.4696C87.9201 33.58 87.8721 33.7187 87.8745 33.8611C87.8745 34.1943 88.1917 34.2419 88.4454 34.3371C88.6992 34.4323 89.3018 34.7496 89.73 34.9401L90.4754 35.2098L91.5696 35.5906C92.4102 35.8604 93.2507 36.1301 94.1229 36.3364C94.2702 36.3583 94.4112 36.411 94.5368 36.491C94.6624 36.571 94.7698 36.6765 94.852 36.8006C94.9343 36.9248 94.9895 37.0649 95.0141 37.2118C95.0388 37.3587 95.0323 37.5091 94.9952 37.6534C94.9952 37.9231 94.9159 38.1929 94.8524 38.4468C94.789 38.7006 94.6304 39.3195 94.5194 39.7479C94.4084 40.1763 94.2498 40.6206 94.1071 41.049C94.1071 41.2077 94.1071 41.414 93.9168 41.5092C93.441 41.89 92.9335 42.2232 92.4419 42.5723C92.4419 42.5723 92.2516 42.5723 92.1723 42.6516C91.024 43.2286 89.824 43.6961 88.5882 44.048C88.2846 44.1417 87.97 44.1951 87.6525 44.2066C87.4679 44.1895 87.282 44.1895 87.0974 44.2066C86.9054 44.2778 86.7433 44.4121 86.6375 44.5874C86.6375 44.5874 86.7961 44.8731 86.923 45C87.7001 45.7616 88.5089 46.5074 89.2542 47.2849C89.602 47.6106 89.9011 47.9847 90.1423 48.3956C90.2019 48.5891 90.2181 48.7933 90.19 48.9937C90.1619 49.1941 90.09 49.386 89.9795 49.5555C89.8691 49.7251 89.7227 49.8683 89.5508 49.975C89.3788 50.0816 89.1856 50.1492 88.9846 50.1728C88.8167 50.1482 88.661 50.0703 88.5406 49.9506C87.7794 49.1414 87.0498 48.3639 86.2569 47.5229C85.7028 47.008 85.1147 46.5309 84.4966 46.0948C84.1735 45.9067 83.8399 45.7372 83.4974 45.5871C82.0352 44.8943 80.437 44.5365 78.8191 44.5398C77.861 44.4451 76.8937 44.5258 75.9645 44.7779C75.348 44.9239 74.7477 45.1312 74.1724 45.3967C73.3288 45.8498 72.5544 46.4216 71.8729 47.0945C71.2665 47.6948 70.7724 48.3987 70.4138 49.1731C70.0341 49.8711 69.8016 50.6396 69.7307 51.4311C69.6597 52.2226 69.7519 53.0203 70.0015 53.7747C70.0639 54.096 70.1433 54.4138 70.2394 54.7267C70.5249 55.2821 70.8738 55.8057 71.2068 56.3135C71.9801 57.3685 72.956 58.2585 74.0773 58.9316C74.4904 59.1738 74.9259 59.3757 75.3777 59.5345C75.442 59.5655 75.5125 59.5816 75.5839 59.5816C75.6552 59.5816 75.7257 59.5655 75.79 59.5345C76.2975 59.2965 76.7733 59.0268 77.2649 58.7729C77.5408 58.6718 77.8064 58.5443 78.0578 58.3921L81.7371 55.647C82.086 55.3773 82.4032 55.0282 82.7521 54.7585C82.866 54.659 83.0034 54.5902 83.1513 54.5587C83.2993 54.5273 83.4528 54.5341 83.5973 54.5786C83.7418 54.6231 83.8726 54.7038 83.9773 54.813C84.0819 54.9222 84.1569 55.0564 84.1952 55.2028C84.2813 55.43 84.2987 55.6775 84.2451 55.9146C84.1915 56.1516 84.0694 56.3676 83.8939 56.5356C83.3563 57.1051 82.7786 57.6354 82.1653 58.1224C81.182 58.8523 80.1354 59.5187 79.1045 60.1851C78.4226 60.6135 77.6931 61.0102 76.9953 61.4228L76.7416 61.5497C76.2182 61.7877 75.6949 62.0416 75.1557 62.2637C74.8973 62.3702 74.6324 62.4603 74.3627 62.5335L73.4905 62.7874C72.8561 62.9778 72.2218 63.1999 71.5874 63.3745C70.8255 63.5988 70.0527 63.7841 69.272 63.9298C68.2763 64.1061 67.2694 64.2121 66.2588 64.2472C64.6729 64.2472 62.9919 64.2472 61.3584 64.2472C59.3938 64.1099 57.4486 63.7696 55.554 63.2317C54.4624 62.9269 53.4007 62.5232 52.3822 62.0257C51.4942 61.6291 50.5743 61.2641 49.7021 60.8198C49.0389 60.4683 48.3981 60.0761 47.7832 59.6456C47.2993 59.3451 46.8333 59.0166 46.3876 58.6618C45.5629 58.0272 44.8017 57.3607 43.977 56.7102C43.8951 56.6386 43.8207 56.5589 43.755 56.4721C43.5994 56.3554 43.48 56.1969 43.4106 56.0151C43.3411 55.8333 43.3245 55.6356 43.3627 55.4448C43.4008 55.2539 43.4922 55.0778 43.6261 54.9367C43.7601 54.7956 43.9312 54.6953 44.1198 54.6474C44.2979 54.5759 44.4967 54.5759 44.6748 54.6474C44.889 54.7498 45.0867 54.8835 45.2616 55.0441C46.229 55.8216 47.1805 56.6308 48.1796 57.329C48.7823 57.7733 49.4642 58.1224 50.0986 58.519L50.9232 59.0109C51.249 59.2699 51.6435 59.4274 52.0579 59.4641C52.4723 59.5008 52.8884 59.4149 53.2545 59.2172C54.0157 58.6788 54.7318 58.0792 55.3954 57.4242C55.7739 57.0856 56.1094 56.7019 56.3946 56.2817C56.8596 55.6417 57.2581 54.9558 57.584 54.2348C57.8064 53.5754 57.9189 52.8839 57.917 52.1879C57.9481 51.6154 57.8838 51.0416 57.7267 50.4901C57.4916 49.5937 57.082 48.7526 56.5214 48.0148C56.2518 47.6816 55.9505 47.3801 55.6968 47.0469C55.055 46.4273 54.3353 45.8939 53.5558 45.4602C53.3647 45.3655 53.1621 45.2962 52.9532 45.2539C52.6296 45.1956 52.3113 45.1107 52.0016 45C50.9475 44.5703 49.8024 44.4121 48.6713 44.5398C47.8651 44.5865 47.0696 44.7467 46.3083 45.0159C45.3938 45.3257 44.5033 45.7022 43.644 46.1425C43.0913 46.4044 42.5872 46.7586 42.1533 47.1897C41.1859 48.0941 40.2819 49.0303 39.3462 49.9665C39.2035 50.1093 39.0766 50.268 38.9339 50.3949C38.7912 50.5219 38.3788 50.6964 38.1251 50.3949C37.9651 50.1365 37.7903 49.8875 37.6017 49.6492C37.5207 49.5777 37.4559 49.4898 37.4114 49.3913C37.367 49.2928 37.344 49.186 37.344 49.0779C37.344 48.9699 37.367 48.863 37.4114 48.7646C37.4559 48.6661 37.5207 48.5782 37.6017 48.5067C38.7664 47.1534 40.0685 45.925 41.4872 44.8413C41.636 44.7099 41.8081 44.6077 41.9947 44.5398C42.4693 44.3908 42.8852 44.0967 43.1841 43.6989C43.4537 43.3974 43.3902 43.1752 43.0255 42.969C42.6607 42.7627 42.2643 42.4771 41.8678 42.2867C41.0907 41.9059 40.2819 41.5568 39.5048 41.2077L38.6167 40.8269C38.2678 40.6999 37.9189 40.5254 37.5542 40.4302C36.6978 40.208 35.8414 40.0176 34.985 39.8272C34.6635 39.7486 34.3324 39.7165 34.0018 39.732C33.7799 39.7731 33.5506 39.7312 33.3576 39.6141C33.1646 39.4971 33.0213 39.3132 32.9551 39.0973C32.8265 38.6986 32.731 38.29 32.6696 37.8755C32.6351 37.7974 32.623 37.7113 32.6346 37.6267C32.6462 37.5421 32.6811 37.4624 32.7354 37.3965C32.7898 37.3307 32.8613 37.2812 32.9421 37.2537C33.0229 37.2262 33.1098 37.2218 33.193 37.2408C34.5727 36.9076 35.9524 36.5585 37.348 36.2729C37.9777 36.1694 38.6133 36.1058 39.2511 36.0825C40.8872 35.882 42.535 35.7918 44.1832 35.8128C44.6114 35.8128 45.0554 35.8128 45.4995 35.8128C45.7618 35.8318 46.0218 35.8743 46.2766 35.9397C46.5143 36.0153 46.7585 36.0684 47.0061 36.0984C48.886 36.1242 50.7535 36.4071 52.5567 36.9393L55.221 37.7327C56.0506 37.966 56.8575 38.2741 57.6316 38.653C57.917 38.7958 58.25 39.0339 58.5514 38.7641C58.8527 38.4944 58.7734 38.0501 58.6624 37.6692L57.8536 34.9242C57.7584 34.6227 57.6316 34.3054 57.5047 34.0039C57.3787 33.7981 57.2876 33.5729 57.2351 33.3374C56.9114 31.907 56.1978 30.5943 55.1734 29.5451C54.5237 28.6407 53.8193 27.777 53.0642 26.9587C52.7638 26.6381 52.4161 26.3652 52.0333 26.1495C51.9324 26.0992 51.8211 26.073 51.7083 26.073C51.5954 26.073 51.4841 26.0992 51.3831 26.1495C50.8915 26.4827 50.4475 26.8953 49.9876 27.2602C49.1666 27.9748 48.2976 28.6322 47.3867 29.2278C46.6096 29.6721 45.8008 30.164 44.992 30.5448C44.1832 30.9256 42.9779 31.354 41.9629 31.7348C41.3762 31.957 40.7259 32.0205 40.1233 32.2109C38.6602 32.664 37.1349 32.8835 35.6035 32.8614C34.8106 32.8614 34.0176 32.8614 33.2088 32.8614C32.4 32.8614 32.2097 32.5599 32.2573 31.83C32.3366 30.6241 32.5903 30.513 33.7004 30.5606C34.9852 30.6291 36.2733 30.6026 37.5542 30.4813C38.7388 30.2813 39.9095 30.0057 41.059 29.6562C41.6489 29.5596 42.2113 29.3378 42.7083 29.0056C42.761 28.9647 42.8199 28.9326 42.8828 28.9104L45.1189 27.9267C45.2435 27.8731 45.3608 27.8038 45.4678 27.7204L48.4968 25.4989C48.8125 25.2811 49.1048 25.0312 49.3691 24.7532C49.7497 24.3565 49.6545 24.0074 49.1629 23.7377C48.2906 23.2934 47.4501 22.7856 46.5779 22.3731C45.7795 21.9826 44.9524 21.6537 44.1039 21.3893C43.1254 21.1074 42.1294 20.8901 41.1224 20.7387C40.3759 20.6307 39.6242 20.5618 38.8705 20.5324H37.9506V20.4531ZM63.8324 62.4383L67.1628 62.0892L67.5117 61.994C67.5993 61.9663 67.68 61.9203 67.7486 61.8591C67.8172 61.7979 67.872 61.7228 67.9095 61.6389C67.947 61.5549 67.9662 61.464 67.966 61.372C67.9657 61.2801 67.946 61.1892 67.9081 61.1054C67.835 60.9197 67.7391 60.7439 67.6227 60.5818C66.91 59.6265 66.373 58.5519 66.0368 57.4083C66.0428 57.3609 66.0428 57.3129 66.0368 57.2655C65.6573 56.7345 65.4124 56.1192 65.3231 55.4725C65.1804 54.7743 64.8949 54.092 64.7681 53.3939C64.425 50.8757 64.3346 48.3295 64.4985 45.7934C64.6922 43.568 65.0313 41.3577 65.5134 39.1767C65.6879 37.9866 66.0368 36.8441 66.3222 35.67C66.6077 34.4958 66.8773 33.4644 67.1628 32.3537C67.1628 32.0839 67.3214 31.8142 67.3848 31.5444C67.5592 30.8621 67.7178 30.164 67.8923 29.4658L68.2253 28.2281C68.3205 27.8315 68.4473 27.4348 68.5425 27.0381C68.6852 26.3399 68.8121 25.6259 68.9707 24.9277C69.1293 24.2295 69.3672 23.2458 69.5575 22.4048C69.5984 22.2112 69.5861 22.01 69.5218 21.8228C69.4576 21.6356 69.3439 21.4693 69.1927 21.3417C68.7328 20.8498 68.3522 20.2786 67.9399 19.7549C67.5275 19.2313 67.131 18.6125 66.7029 18.0571C66.5615 17.8948 66.3956 17.7556 66.2112 17.6446C65.9099 17.47 65.5927 17.5018 65.45 17.8191C65.0374 18.5307 64.5424 19.1912 63.9751 19.7867C63.6104 20.2786 63.2773 20.7863 62.9443 21.2941C62.6113 21.8018 62.6112 21.8653 62.4527 22.1509C62.2941 22.4365 62.1513 22.6745 62.0245 22.9443C61.8976 23.214 61.9135 23.2458 61.8342 23.3886L60.5337 25.9274C60.4947 26.0416 60.4629 26.1582 60.4386 26.2764C60.2959 26.6414 60.169 27.0222 60.0421 27.403C59.9182 27.6798 59.8174 27.9664 59.7408 28.2599C59.5346 29.0374 59.3443 29.8466 59.1699 30.6083C59.1063 30.8796 59.1063 31.162 59.1699 31.4334C59.4712 32.5123 59.8201 33.5596 60.1214 34.6068C60.3593 35.4002 60.5337 36.1936 60.7558 36.987C60.8985 37.5264 61.1047 38.0501 61.2315 38.5737C61.3584 39.0973 61.4536 39.6685 61.5646 40.1604C61.6756 40.6523 61.9452 41.6044 62.0562 42.3343C62.2306 43.3815 62.3258 44.4446 62.4685 45.5078C62.4521 45.5809 62.4521 45.6568 62.4685 45.7299C62.6766 46.2312 62.7425 46.7803 62.6588 47.3166C62.6193 47.5264 62.6193 47.7416 62.6588 47.9513C62.9198 49.9049 62.9198 51.8846 62.6588 53.8382C62.532 55.2504 62.1831 56.6467 61.9293 58.043C61.8647 58.3169 61.7853 58.587 61.6914 58.8523C61.4218 59.6615 61.1522 60.439 60.9302 61.28C60.7875 61.7877 60.9302 62.0099 61.5011 62.0257C62.0721 62.0416 62.2624 62.0257 62.6271 62.0257C62.9919 62.0257 63.5152 62.3748 63.8324 62.4383ZM66.3222 48.4115H66.4967C66.457 49.1673 66.457 49.9247 66.4967 50.6805C66.5918 51.7913 66.7663 52.8861 66.9407 53.9968C66.9929 54.2411 67.0672 54.4801 67.1628 54.7109C67.266 54.8658 67.3411 55.0377 67.3848 55.2186C67.5434 56.3452 68.3839 57.1544 68.7011 58.2017C68.7011 58.2017 68.8121 58.3286 68.8438 58.3921L69.2244 58.9633C69.6526 59.5822 70.0649 60.2169 70.5249 60.804C70.6949 61.0064 70.9362 61.1358 71.1989 61.1653C71.4616 61.1948 71.7256 61.1223 71.9363 60.9626C72.0295 60.9086 72.1103 60.8355 72.1732 60.7479C72.236 60.6604 72.2796 60.5605 72.3011 60.4549C72.3011 60.2962 72.0632 60.1375 71.9046 60.0106C71.6144 59.824 71.3338 59.6227 71.0641 59.4076C70.6784 59.0747 70.3228 58.7083 70.0015 58.3128C69.5416 57.7257 69.1134 57.1068 68.7169 56.488C68.4582 56.0734 68.2455 55.6318 68.0826 55.171C67.6633 53.7461 67.5338 52.2516 67.702 50.7757C67.7106 50.1649 67.8177 49.5594 68.0191 48.9827C68.3836 48.1586 68.8187 47.3675 69.3196 46.6185C70.135 45.4154 71.2214 44.4208 72.4914 43.7147C73.5759 43.114 74.7564 42.7059 75.9803 42.5088C77.806 42.3502 79.6419 42.3502 81.4675 42.5088C82.4371 42.5062 83.4061 42.5592 84.3697 42.6675C85.3016 42.6615 86.227 42.5117 87.1133 42.2232C88.0713 42.1024 89.0003 41.8123 89.8569 41.3664C89.9567 41.3501 90.0584 41.3501 90.1582 41.3664C91.0939 41.2077 91.7441 40.4778 92.6005 40.1287C92.7115 40.1287 92.8066 39.9224 92.8859 39.8114C93.2824 39.2084 93.1238 38.9069 92.4102 38.7641C91.9502 38.6689 91.4903 38.5261 91.0304 38.3992L89.0639 37.8914C88.7943 37.8914 88.5089 37.7962 88.2393 37.7486C87.2719 37.5582 86.3045 37.3043 85.3212 37.1932C84.0423 37.0375 82.7558 36.9527 81.4675 36.9393C80.2464 36.9393 79.0411 37.0504 77.8358 37.0663C76.3209 37.0841 74.8137 37.2866 73.3477 37.6692C72.5865 37.8755 71.7619 38.0025 71.0482 38.1929C70.3346 38.3833 69.7795 38.5896 69.1293 38.7482C68.766 38.8038 68.4252 38.9594 68.1452 39.1976C67.8651 39.4358 67.6568 39.7472 67.5434 40.097C67.401 40.5125 67.2845 40.9364 67.1945 41.3664C67.0359 42.2708 66.909 43.1752 66.798 44.0797L66.3222 48.4115ZM43.3427 37.9231H41.2652C41.0142 37.9304 40.7645 37.9623 40.5198 38.0183C40.4309 38.0294 40.3454 38.0591 40.2689 38.1056C40.1924 38.1521 40.1265 38.2143 40.0757 38.2881C40.0757 38.3992 40.2026 38.6054 40.2978 38.7482C40.3644 38.8467 40.458 38.9238 40.5674 38.9704C41.3762 39.4147 42.1532 39.8272 43.0096 40.2874C43.866 40.7475 44.3418 41.0807 45.0079 41.5092C45.6739 41.9376 45.8642 42.1756 46.3083 42.4929C46.4504 42.5667 46.6081 42.6052 46.7682 42.6052C46.9283 42.6052 47.086 42.5667 47.2281 42.4929C47.4523 42.4083 47.6871 42.3549 47.9259 42.3343C48.7605 42.2867 49.597 42.2867 50.4316 42.3343C51.5259 42.4612 52.6043 42.7151 53.6827 42.9055C53.7995 42.9453 53.9112 42.9985 54.0157 43.0642L54.9673 43.5561L55.8395 44.0956C56.7025 44.7 57.4629 45.4394 58.0915 46.2853C58.8061 47.0938 59.3028 48.0714 59.5346 49.1255C59.5346 49.5063 59.8677 49.8713 59.8677 50.2521C59.9304 51.6197 59.8667 52.9901 59.6774 54.3459C59.4972 55.4935 59.046 56.5814 58.3611 57.5194C57.6869 58.5486 56.7933 59.4157 55.7443 60.0582C55.2844 60.3121 55.3003 60.7087 55.7443 60.9309C56.1616 61.1312 56.5905 61.3061 57.0289 61.4545C57.6633 61.6608 58.2976 61.4545 58.4562 61.0261C58.8527 59.8995 59.2016 58.7729 59.5663 57.6463C59.7249 57.1703 59.8835 56.6784 60.0262 56.1707C60.0965 55.9486 60.1443 55.72 60.169 55.4884C60.1519 55.1977 60.1519 54.9063 60.169 54.6157C60.3606 53.7731 60.4353 52.9081 60.391 52.0451C60.391 51.2994 60.391 50.5695 60.391 49.8396C60.391 48.7923 60.2483 47.7451 60.169 46.6661C60.1845 46.4442 60.1845 46.2215 60.169 45.9996C59.9628 44.8572 59.7725 43.7147 59.5346 42.5882C59.466 42.3096 59.2964 42.0665 59.0589 41.9059C58.4993 41.5783 57.9222 41.2817 57.3302 41.0173L56.6483 40.6206C56.5017 40.5288 56.3479 40.4492 56.1884 40.3826C55.6333 40.1763 55.0624 39.9859 54.4915 39.8114C53.6351 39.5575 52.7629 39.3671 51.9382 39.0656C51.09 38.7843 50.2118 38.6033 49.3215 38.5261C48.8933 38.5261 48.4492 38.3992 48.021 38.3198L45.6422 37.9231H43.3427ZM80.5318 34.5275V34.6227C81.2613 34.6227 81.975 34.6227 82.6886 34.6227C82.9265 34.6227 83.2596 34.4958 83.3389 34.3212C83.4182 34.1467 83.1644 33.8769 82.9582 33.7183L82.8155 33.6389C82.3142 33.313 81.8323 32.958 81.3724 32.5758C80.4684 31.7666 79.612 30.8939 78.7398 30.037C78.3828 29.7116 78.049 29.3617 77.7407 28.9898C77.1222 28.1964 76.5671 27.403 75.9645 26.5462C75.9186 26.4741 75.8554 26.4148 75.7805 26.3736C75.7057 26.3325 75.6217 26.311 75.5363 26.311C75.4509 26.311 75.3669 26.3325 75.292 26.3736C75.2172 26.4148 75.1539 26.4741 75.1081 26.5462L74.6165 27.0698C73.4429 28.2757 72.2693 29.4658 71.1275 30.6717C70.8004 31.0404 70.5084 31.4388 70.2553 31.8618C69.8112 32.6393 69.3513 33.4485 68.9707 34.226C68.7598 34.7341 68.6159 35.2675 68.5425 35.8128C68.5425 36.1777 68.7487 36.384 69.0976 36.3047C69.4464 36.2253 70.176 36.0508 70.6834 35.908C71.1909 35.7652 72.0156 35.543 72.6817 35.4161C73.3477 35.2891 73.9187 35.2098 74.5372 35.0987C75.1557 34.9877 75.8059 34.7973 76.4402 34.7496C77.82 34.6227 79.1838 34.591 80.5318 34.5275Z" fill="#F7971D"/>
</g>
<defs>
<clipPath id="clip0_136_1641">
<rect width="125" height="90" fill="white"/>
</clipPath>
</defs>
</svg>
